<?xml version="1.0" encoding="utf-8"?>
<!-- Generator: Adobe Illustrator 27.4.1, SVG Export Plug-In . SVG Version: 6.00 Build 0)  -->
<svg version="1.1" id="Слой_1" xmlns="http://www.w3.org/2000/svg" xmlns:xlink="http://www.w3.org/1999/xlink" x="0px" y="0px"
	 viewBox="0 0 180 266.4" style="enable-background:new 0 0 180 266.4;" xml:space="preserve">
<style type="text/css">
	.st0{fill-rule:evenodd;clip-rule:evenodd;fill:#FEFEFE;stroke:#000000;stroke-width:0.5;stroke-miterlimit:22.9256;}
	.st1{fill:#00A151;}
	.st2{fill-rule:evenodd;clip-rule:evenodd;fill:#00A151;}
	.st3{fill-rule:evenodd;clip-rule:evenodd;fill:#FEFEFE;}
</style>
<g>
	<path class="st0" d="M14.4,7.7h151.2c4,0,7.2,3.2,7.2,7.2v237.6c0,4-3.2,7.2-7.2,7.2H14.4c-4,0-7.2-3.2-7.2-7.2V14.9
		C7.3,10.9,10.5,7.7,14.4,7.7L14.4,7.7z"/>
	<path class="st1" d="M19.9,16.5h140.4c1.1,0,2,0.4,2.7,1.1c0.7,0.7,1.1,1.6,1.1,2.7V247c0,1.1-0.4,2-1.1,2.7
		c-0.7,0.7-1.6,1.1-2.7,1.1H19.9c-1.1,0-2-0.4-2.7-1.1c-0.7-0.7-1.1-1.6-1.1-2.7V20.3c0-1.1,0.4-2,1.1-2.7
		C17.9,16.9,18.8,16.5,19.9,16.5L19.9,16.5z M160.2,18.5H19.9c-0.5,0-1,0.2-1.3,0.5c-0.3,0.3-0.5,0.8-0.5,1.3V247
		c0,0.5,0.2,1,0.5,1.3c0.3,0.3,0.8,0.5,1.3,0.5h140.4c0.5,0,1-0.2,1.3-0.5c0.3-0.3,0.5-0.8,0.5-1.3V20.3c0-0.5-0.2-1-0.5-1.3
		C161.2,18.7,160.7,18.5,160.2,18.5L160.2,18.5z"/>
	<path class="st2" d="M22.9,21.8h134.3c0.8,0,1.4,0.6,1.4,1.4V244c0,0.8-0.6,1.4-1.4,1.4H22.9c-0.8,0-1.4-0.6-1.4-1.4V23.3
		C21.4,22.5,22.1,21.8,22.9,21.8L22.9,21.8z"/>
	<path class="st3" d="M157.8,245.3c-0.2,0.1-0.4,0.1-0.5,0.1H156l1.9-3l-2.7-4.1l-2.7,4.1l1.9,3h-1.7l-1.1-1.6l-1.1,1.6h-1.7l1.9-3
		l-2.7-4.1l-2.7,4.1l1.9,3h-1.7l-1.1-1.6l-1.1,1.6h-1.7l1.9-3l-2.7-4.1l-2.7,4.1l1.9,3h-1.7l-1.1-1.6l-1.1,1.6h-1.7l1.9-3l-2.7-4.1
		l-2.7,4.1l1.9,3h-1.7l-1.1-1.6l-1.1,1.6h-1.7l1.9-3l-2.7-4.1l-2.7,4.1l1.9,3h-1.7l-1.1-1.6l-1.1,1.6h-1.7l1.9-3l-2.7-4.1l-2.7,4.1
		l1.9,3h-1.7l-1.1-1.6l-1.1,1.6h-1.7l1.9-3l-2.7-4.1l-2.7,4.1l1.9,3h-1.7l-1.1-1.6l-1.1,1.6h-1.7l1.9-3l-2.7-4.1l-2.7,4.1l1.9,3
		h-1.7l-1.1-1.6l-1.1,1.6h-1.7l1.9-3l-2.7-4.1l-2.7,4.1l1.9,3h-1.7l-1.1-1.6l-1.1,1.6h-1.7l1.9-3l-2.7-4.1v0l-2.7,4.1l1.9,3h-1.7
		l-1.1-1.6l-1.1,1.6h-1.7l1.9-3l-2.7-4.1l-2.7,4.1l1.9,3h-1.7l-1.1-1.6l-1.1,1.6h-1.7l1.9-3l-2.7-4.1l-2.7,4.1l1.9,3h-1.7l-1.1-1.6
		l-1.1,1.6h-1.7l1.9-3l-2.7-4.1l-2.7,4.1l1.9,3h-1.7l-1.1-1.6l-1.1,1.6h-1.7l1.9-3l-2.7-4.1l-2.7,4.1l1.9,3h-1.7l-1.1-1.6l-1.1,1.6
		h-1.7l1.9-3l-2.7-4.1l-2.7,4.1l1.9,3h-1.7l-1.1-1.6l-1.1,1.6h-1.7l1.9-3l-2.7-4.1l-2.7,4.1l1.9,3h-1.7l-1.1-1.6l-1.1,1.6h-1.7
		l1.9-3l-2.7-4.1l-2.7,4.1l1.9,3H40l-1.1-1.6l-1.1,1.6h-1.7l1.9-3l-2.7-4.1l-2.7,4.1l1.9,3H33l-1.1-1.6l-1.1,1.6h-1.7l1.9-3
		l-2.7-4.1l-2.7,4.1l1.9,3h-1.7l-1.1-1.6l-1.1,1.6h-0.9c-0.3,0-0.5-0.1-0.7-0.2l1.8-2.8l-2.6-3.9v-3l2.6-3.9l-2.6-3.9v-3l2.6-3.9
		l-2.6-3.9v-3l2.6-3.9l-2.6-3.9v-3l2.6-3.9l-2.6-3.9v-3l2.6-3.9l-2.6-3.9v-3l2.6-3.9l-2.6-3.9v-3l2.6-3.9l-2.6-3.9v-3l2.6-3.9
		l-2.6-3.9v-3l2.6-3.9l-2.6-3.9v-3l2.6-3.9l-2.6-3.9v-3l2.6-3.9l-2.6-3.9v-3l2.6-3.9l-2.6-3.9v-3l2.6-3.9l-2.6-3.9v-3l2.6-3.9
		l-2.6-3.9v-3l2.6-3.9l-2.6-3.9v-3l2.6-3.9l-2.6-3.9v-3l2.6-3.9l-2.6-3.9v-3l2.6-3.9l-2.6-3.9v-3l2.6-3.9l-2.6-3.9v-3l2.6-3.9
		l-2.4-3.7c0.2-0.5,0.6-0.8,1.2-0.9l2.1,3.3l2.1-3.3h2.8l2.1,3.3l2.1-3.3h2.8l2.1,3.3l2.1-3.3h2.8l2.1,3.3l2.1-3.3h2.8l2.1,3.3
		l2.1-3.3H58l2.1,3.3l2.1-3.3H65l2.1,3.3l2.1-3.3h2.8l2.1,3.3l2.1-3.3h2.8l2.1,3.3l2.1-3.3h2.8l2.1,3.3l2.1-3.3h2.8l2.1,3.3l2.1-3.3
		h2.8l2.1,3.3l2.1-3.3h2.8l2.1,3.3l2.1-3.3h2.8l2.1,3.3l2.1-3.3h2.8l2.1,3.3l2.1-3.3h2.8l2.1,3.3l2.1-3.3h2.8l2.1,3.3l2.1-3.3h2.8
		l2.1,3.3l2.1-3.3h2.8l2.1,3.3l2.1-3.3h2.8l2,3.1v3l-2.6,3.9l2.6,3.9v3l-2.6,3.9l2.6,3.9v3l-2.6,3.9l2.6,3.9v3l-2.6,3.9l2.6,3.9v3
		l-2.6,3.9l2.6,3.9v3l-2.6,3.9l2.6,3.9v3l-2.6,3.9l2.6,3.9v3l-2.6,3.9l2.6,3.9v3l-2.6,3.9l2.6,3.9v3l-2.6,3.9l2.6,3.9v3l-2.6,3.9
		l2.6,3.9v3l-2.6,3.9l2.6,3.9v3l-2.6,3.9l2.6,3.9v3l-2.6,3.9l2.6,3.9v3l-2.6,3.9l2.6,3.9v3l-2.6,3.9l2.6,3.9v3l-2.6,3.9l2.6,3.9v3
		l-2.6,3.9l2.6,3.9v3l-2.6,3.9l2.6,3.9v3l-2.6,3.9l2.6,3.9v3L157.8,245.3L157.8,245.3z M91.8,235.8l-2.7-4.1l2.7-4.1v0l2.7,4.1
		L91.8,235.8L91.8,235.8z M91.8,225l-2.7-4.1l2.7-4.1v0l2.7,4.1L91.8,225L91.8,225z M91.8,214.2l-2.7-4.1l2.7-4.1v0l2.7,4.1
		L91.8,214.2L91.8,214.2z M91.8,203.4l-2.7-4.1l2.7-4.1v0l2.7,4.1L91.8,203.4L91.8,203.4z M91.8,192.6l-2.7-4.1l2.7-4.1v0l2.7,4.1
		L91.8,192.6L91.8,192.6z M91.8,181.8l-2.7-4.1l2.7-4.1v0l2.7,4.1L91.8,181.8L91.8,181.8z M91.8,171l-2.7-4.1l2.7-4.1v0l2.7,4.1
		L91.8,171L91.8,171z M91.8,160.1l-2.7-4.1l2.7-4.1v0l2.7,4.1L91.8,160.1L91.8,160.1z M91.8,149.3l-2.7-4.1l2.7-4.1v0l2.7,4.1
		L91.8,149.3L91.8,149.3z M91.8,138.5l-2.7-4.1l2.7-4.1v0l2.7,4.1L91.8,138.5L91.8,138.5z M91.8,127.7l-2.7-4.1l2.7-4.1v0l2.7,4.1
		L91.8,127.7L91.8,127.7z M91.8,116.9l-2.7-4.1l2.7-4.1v0l2.7,4.1L91.8,116.9L91.8,116.9z M91.8,106.1l-2.7-4.1l2.7-4.1v0l2.7,4.1
		L91.8,106.1L91.8,106.1z M91.8,95.3l-2.7-4.1l2.7-4.1v0l2.7,4.1L91.8,95.3L91.8,95.3z M91.8,84.5l-2.7-4.1l2.7-4.1v0l2.7,4.1
		L91.8,84.5L91.8,84.5z M91.8,73.7l-2.7-4.1l2.7-4.1v0l2.7,4.1L91.8,73.7L91.8,73.7z M91.8,62.9l-2.7-4.1l2.7-4.1v0l2.7,4.1
		L91.8,62.9L91.8,62.9z M91.8,52.1l-2.7-4.1l2.7-4.1v0l2.7,4.1L91.8,52.1L91.8,52.1z M91.8,41.3l-2.7-4.1l2.7-4.1v0l2.7,4.1
		L91.8,41.3L91.8,41.3z M91.8,30.5l-2.7-4.1l2.7-4.1v0l2.7,4.1L91.8,30.5L91.8,30.5z M149,237.1l2.7-4.1l2.7,4.1l-2.7,4.1L149,237.1
		L149,237.1z M142,237.1l2.7-4.1l2.7,4.1l-2.7,4.1L142,237.1L142,237.1z M135,237.1l2.7-4.1l2.7,4.1l-2.7,4.1L135,237.1L135,237.1z
		 M127.9,237.1l2.7-4.1l2.7,4.1l-2.7,4.1L127.9,237.1L127.9,237.1z M120.9,237.1l2.7-4.1l2.7,4.1l-2.7,4.1L120.9,237.1L120.9,237.1z
		 M113.8,237.1l2.7-4.1l2.7,4.1l-2.7,4.1L113.8,237.1L113.8,237.1z M106.8,237.1l2.7-4.1l2.7,4.1l-2.7,4.1L106.8,237.1L106.8,237.1z
		 M99.7,237.1l2.7-4.1l2.7,4.1l-2.7,4.1L99.7,237.1L99.7,237.1z M92.7,237.1l2.7-4.1l2.7,4.1l-2.7,4.1L92.7,237.1L92.7,237.1z
		 M98,31.8l-2.7,4.1l-2.7-4.1l2.7-4.1L98,31.8L98,31.8z M98.9,30.5l-2.7-4.1l2.7-4.1l2.7,4.1L98.9,30.5L98.9,30.5z M105,31.8
		l-2.7,4.1l-2.7-4.1l2.7-4.1L105,31.8L105,31.8z M105.9,30.5l-2.7-4.1l2.7-4.1l2.7,4.1L105.9,30.5L105.9,30.5z M112.1,31.8l-2.7,4.1
		l-2.7-4.1l2.7-4.1L112.1,31.8L112.1,31.8z M113,30.5l-2.7-4.1l2.7-4.1l2.7,4.1L113,30.5L113,30.5z M119.1,31.8l-2.7,4.1l-2.7-4.1
		l2.7-4.1L119.1,31.8L119.1,31.8z M120,30.5l-2.7-4.1l2.7-4.1l2.7,4.1L120,30.5L120,30.5z M126.2,31.8l-2.7,4.1l-2.7-4.1l2.7-4.1
		L126.2,31.8L126.2,31.8z M127,30.5l-2.7-4.1l2.7-4.1l2.7,4.1L127,30.5L127,30.5z M133.2,31.8l-2.7,4.1l-2.7-4.1l2.7-4.1L133.2,31.8
		L133.2,31.8z M134.1,30.5l-2.7-4.1l2.7-4.1l2.7,4.1L134.1,30.5L134.1,30.5z M140.3,31.8l-2.7,4.1l-2.7-4.1l2.7-4.1L140.3,31.8
		L140.3,31.8z M141.1,30.5l-2.7-4.1l2.7-4.1l2.7,4.1L141.1,30.5L141.1,30.5z M147.3,31.8l-2.7,4.1l-2.7-4.1l2.7-4.1L147.3,31.8
		L147.3,31.8z M148.2,30.5l-2.7-4.1l2.7-4.1l2.7,4.1L148.2,30.5L148.2,30.5z M154.4,31.8l-2.7,4.1l-2.7-4.1l2.7-4.1L154.4,31.8
		L154.4,31.8z M155.2,30.5l-2.7-4.1l2.7-4.1l2.7,4.1L155.2,30.5L155.2,30.5z M155.2,227.6l2.7,4.1l-2.7,4.1l-2.7-4.1L155.2,227.6
		L155.2,227.6z M149,226.3l2.7-4.1l2.7,4.1l-2.7,4.1L149,226.3L149,226.3z M148.2,227.6l2.7,4.1l-2.7,4.1l-2.7-4.1L148.2,227.6
		L148.2,227.6z M142,226.3l2.7-4.1l2.7,4.1l-2.7,4.1L142,226.3L142,226.3z M141.1,227.6l2.7,4.1l-2.7,4.1l-2.7-4.1L141.1,227.6
		L141.1,227.6z M135,226.3l2.7-4.1l2.7,4.1l-2.7,4.1L135,226.3L135,226.3z M134.1,227.6l2.7,4.1l-2.7,4.1l-2.7-4.1L134.1,227.6
		L134.1,227.6z M127.9,226.3l2.7-4.1l2.7,4.1l-2.7,4.1L127.9,226.3L127.9,226.3z M127,227.6l2.7,4.1l-2.7,4.1l-2.7-4.1L127,227.6
		L127,227.6z M120.9,226.3l2.7-4.1l2.7,4.1l-2.7,4.1L120.9,226.3L120.9,226.3z M120,227.6l2.7,4.1l-2.7,4.1l-2.7-4.1L120,227.6
		L120,227.6z M113.8,226.3l2.7-4.1l2.7,4.1l-2.7,4.1L113.8,226.3L113.8,226.3z M113,227.6l2.7,4.1l-2.7,4.1l-2.7-4.1L113,227.6
		L113,227.6z M106.8,226.3l2.7-4.1l2.7,4.1l-2.7,4.1L106.8,226.3L106.8,226.3z M105.9,227.6l2.7,4.1l-2.7,4.1l-2.7-4.1L105.9,227.6
		L105.9,227.6z M99.7,226.3l2.7-4.1l2.7,4.1l-2.7,4.1L99.7,226.3L99.7,226.3z M98.9,227.6l2.7,4.1l-2.7,4.1l-2.7-4.1L98.9,227.6
		L98.9,227.6z M92.7,226.3l2.7-4.1l2.7,4.1l-2.7,4.1L92.7,226.3L92.7,226.3z M98,42.7l-2.7,4.1l-2.7-4.1l2.7-4.1L98,42.7L98,42.7z
		 M98.9,41.3l-2.7-4.1l2.7-4.1l2.7,4.1L98.9,41.3L98.9,41.3z M105,42.7l-2.7,4.1l-2.7-4.1l2.7-4.1L105,42.7L105,42.7z M105.9,41.3
		l-2.7-4.1l2.7-4.1l2.7,4.1L105.9,41.3L105.9,41.3z M112.1,42.7l-2.7,4.1l-2.7-4.1l2.7-4.1L112.1,42.7L112.1,42.7z M113,41.3
		l-2.7-4.1l2.7-4.1l2.7,4.1L113,41.3L113,41.3z M119.1,42.7l-2.7,4.1l-2.7-4.1l2.7-4.1L119.1,42.7L119.1,42.7z M120,41.3l-2.7-4.1
		l2.7-4.1l2.7,4.1L120,41.3L120,41.3z M126.2,42.7l-2.7,4.1l-2.7-4.1l2.7-4.1L126.2,42.7L126.2,42.7z M127,41.3l-2.7-4.1l2.7-4.1
		l2.7,4.1L127,41.3L127,41.3z M133.2,42.7l-2.7,4.1l-2.7-4.1l2.7-4.1L133.2,42.7L133.2,42.7z M134.1,41.3l-2.7-4.1l2.7-4.1l2.7,4.1
		L134.1,41.3L134.1,41.3z M140.3,42.7l-2.7,4.1l-2.7-4.1l2.7-4.1L140.3,42.7L140.3,42.7z M141.1,41.3l-2.7-4.1l2.7-4.1l2.7,4.1
		L141.1,41.3L141.1,41.3z M147.3,42.7l-2.7,4.1l-2.7-4.1l2.7-4.1L147.3,42.7L147.3,42.7z M148.2,41.3l-2.7-4.1l2.7-4.1l2.7,4.1
		L148.2,41.3L148.2,41.3z M154.4,42.7l-2.7,4.1l-2.7-4.1l2.7-4.1L154.4,42.7L154.4,42.7z M155.2,41.3l-2.7-4.1l2.7-4.1l2.7,4.1
		L155.2,41.3L155.2,41.3z M155.2,216.8l2.7,4.1l-2.7,4.1l-2.7-4.1L155.2,216.8L155.2,216.8z M149,215.5l2.7-4.1l2.7,4.1l-2.7,4.1
		L149,215.5L149,215.5z M148.2,216.8l2.7,4.1l-2.7,4.1l-2.7-4.1L148.2,216.8L148.2,216.8z M142,215.5l2.7-4.1l2.7,4.1l-2.7,4.1
		L142,215.5L142,215.5z M141.1,216.8l2.7,4.1l-2.7,4.1l-2.7-4.1L141.1,216.8L141.1,216.8z M135,215.5l2.7-4.1l2.7,4.1l-2.7,4.1
		L135,215.5L135,215.5z M134.1,216.8l2.7,4.1l-2.7,4.1l-2.7-4.1L134.1,216.8L134.1,216.8z M127.9,215.5l2.7-4.1l2.7,4.1l-2.7,4.1
		L127.9,215.5L127.9,215.5z M127,216.8l2.7,4.1L127,225l-2.7-4.1L127,216.8L127,216.8z M120.9,215.5l2.7-4.1l2.7,4.1l-2.7,4.1
		L120.9,215.5L120.9,215.5z M120,216.8l2.7,4.1L120,225l-2.7-4.1L120,216.8L120,216.8z M113.8,215.5l2.7-4.1l2.7,4.1l-2.7,4.1
		L113.8,215.5L113.8,215.5z M113,216.8l2.7,4.1L113,225l-2.7-4.1L113,216.8L113,216.8z M106.8,215.5l2.7-4.1l2.7,4.1l-2.7,4.1
		L106.8,215.5L106.8,215.5z M105.9,216.8l2.7,4.1l-2.7,4.1l-2.7-4.1L105.9,216.8L105.9,216.8z M99.7,215.5l2.7-4.1l2.7,4.1l-2.7,4.1
		L99.7,215.5L99.7,215.5z M98.9,216.8l2.7,4.1l-2.7,4.1l-2.7-4.1L98.9,216.8L98.9,216.8z M92.7,215.5l2.7-4.1l2.7,4.1l-2.7,4.1
		L92.7,215.5L92.7,215.5z M98,53.5l-2.7,4.1l-2.7-4.1l2.7-4.1L98,53.5L98,53.5z M98.9,52.1l-2.7-4.1l2.7-4.1l2.7,4.1L98.9,52.1
		L98.9,52.1z M105,53.5l-2.7,4.1l-2.7-4.1l2.7-4.1L105,53.5L105,53.5z M105.9,52.1l-2.7-4.1l2.7-4.1l2.7,4.1L105.9,52.1L105.9,52.1z
		 M112.1,53.5l-2.7,4.1l-2.7-4.1l2.7-4.1L112.1,53.5L112.1,53.5z M113,52.1l-2.7-4.1L113,44l2.7,4.1L113,52.1L113,52.1z M119.1,53.5
		l-2.7,4.1l-2.7-4.1l2.7-4.1L119.1,53.5L119.1,53.5z M120,52.1l-2.7-4.1L120,44l2.7,4.1L120,52.1L120,52.1z M126.2,53.5l-2.7,4.1
		l-2.7-4.1l2.7-4.1L126.2,53.5L126.2,53.5z M127,52.1l-2.7-4.1L127,44l2.7,4.1L127,52.1L127,52.1z M133.2,53.5l-2.7,4.1l-2.7-4.1
		l2.7-4.1L133.2,53.5L133.2,53.5z M134.1,52.1l-2.7-4.1l2.7-4.1l2.7,4.1L134.1,52.1L134.1,52.1z M140.3,53.5l-2.7,4.1l-2.7-4.1
		l2.7-4.1L140.3,53.5L140.3,53.5z M141.1,52.1l-2.7-4.1l2.7-4.1l2.7,4.1L141.1,52.1L141.1,52.1z M147.3,53.5l-2.7,4.1l-2.7-4.1
		l2.7-4.1L147.3,53.5L147.3,53.5z M148.2,52.1l-2.7-4.1l2.7-4.1l2.7,4.1L148.2,52.1L148.2,52.1z M154.4,53.5l-2.7,4.1l-2.7-4.1
		l2.7-4.1L154.4,53.5L154.4,53.5z M155.2,52.1l-2.7-4.1l2.7-4.1l2.7,4.1L155.2,52.1L155.2,52.1z M155.2,206l2.7,4.1l-2.7,4.1
		l-2.7-4.1L155.2,206L155.2,206z M149,204.7l2.7-4.1l2.7,4.1l-2.7,4.1L149,204.7L149,204.7z M148.2,206l2.7,4.1l-2.7,4.1l-2.7-4.1
		L148.2,206L148.2,206z M142,204.7l2.7-4.1l2.7,4.1l-2.7,4.1L142,204.7L142,204.7z M141.1,206l2.7,4.1l-2.7,4.1l-2.7-4.1L141.1,206
		L141.1,206z M135,204.7l2.7-4.1l2.7,4.1l-2.7,4.1L135,204.7L135,204.7z M134.1,206l2.7,4.1l-2.7,4.1l-2.7-4.1L134.1,206L134.1,206z
		 M127.9,204.7l2.7-4.1l2.7,4.1l-2.7,4.1L127.9,204.7L127.9,204.7z M127,206l2.7,4.1l-2.7,4.1l-2.7-4.1L127,206L127,206z
		 M120.9,204.7l2.7-4.1l2.7,4.1l-2.7,4.1L120.9,204.7L120.9,204.7z M120,206l2.7,4.1l-2.7,4.1l-2.7-4.1L120,206L120,206z
		 M113.8,204.7l2.7-4.1l2.7,4.1l-2.7,4.1L113.8,204.7L113.8,204.7z M113,206l2.7,4.1l-2.7,4.1l-2.7-4.1L113,206L113,206z
		 M106.8,204.7l2.7-4.1l2.7,4.1l-2.7,4.1L106.8,204.7L106.8,204.7z M105.9,206l2.7,4.1l-2.7,4.1l-2.7-4.1L105.9,206L105.9,206z
		 M99.7,204.7l2.7-4.1l2.7,4.1l-2.7,4.1L99.7,204.7L99.7,204.7z M98.9,206l2.7,4.1l-2.7,4.1l-2.7-4.1L98.9,206L98.9,206z M98,204.7
		l-2.7,4.1l-2.7-4.1l2.7-4.1L98,204.7L98,204.7z M98,193.9l-2.7,4.1l-2.7-4.1l2.7-4.1L98,193.9L98,193.9z M98,183.1l-2.7,4.1
		l-2.7-4.1l2.7-4.1L98,183.1L98,183.1z M98,172.3l-2.7,4.1l-2.7-4.1l2.7-4.1L98,172.3L98,172.3z M98,161.5l-2.7,4.1l-2.7-4.1
		l2.7-4.1L98,161.5L98,161.5z M98,150.7l-2.7,4.1l-2.7-4.1l2.7-4.1L98,150.7L98,150.7z M98,139.9l-2.7,4.1l-2.7-4.1l2.7-4.1
		L98,139.9L98,139.9z M98,129.1l-2.7,4.1l-2.7-4.1l2.7-4.1L98,129.1L98,129.1z M98,118.3l-2.7,4.1l-2.7-4.1l2.7-4.1L98,118.3
		L98,118.3z M98,107.5l-2.7,4.1l-2.7-4.1l2.7-4.1L98,107.5L98,107.5z M98,96.7l-2.7,4.1l-2.7-4.1l2.7-4.1L98,96.7L98,96.7z M98,85.9
		l-2.7,4.1l-2.7-4.1l2.7-4.1L98,85.9L98,85.9z M98,75.1l-2.7,4.1l-2.7-4.1l2.7-4.1L98,75.1L98,75.1z M98,64.3l-2.7,4.1l-2.7-4.1
		l2.7-4.1L98,64.3L98,64.3z M98.9,62.9l-2.7-4.1l2.7-4.1l2.7,4.1L98.9,62.9L98.9,62.9z M105,64.3l-2.7,4.1l-2.7-4.1l2.7-4.1
		L105,64.3L105,64.3z M105.9,62.9l-2.7-4.1l2.7-4.1l2.7,4.1L105.9,62.9L105.9,62.9z M112.1,64.3l-2.7,4.1l-2.7-4.1l2.7-4.1
		L112.1,64.3L112.1,64.3z M113,62.9l-2.7-4.1l2.7-4.1l2.7,4.1L113,62.9L113,62.9z M119.1,64.3l-2.7,4.1l-2.7-4.1l2.7-4.1L119.1,64.3
		L119.1,64.3z M120,62.9l-2.7-4.1l2.7-4.1l2.7,4.1L120,62.9L120,62.9z M126.2,64.3l-2.7,4.1l-2.7-4.1l2.7-4.1L126.2,64.3L126.2,64.3
		z M127,62.9l-2.7-4.1l2.7-4.1l2.7,4.1L127,62.9L127,62.9z M133.2,64.3l-2.7,4.1l-2.7-4.1l2.7-4.1L133.2,64.3L133.2,64.3z
		 M134.1,62.9l-2.7-4.1l2.7-4.1l2.7,4.1L134.1,62.9L134.1,62.9z M140.3,64.3l-2.7,4.1l-2.7-4.1l2.7-4.1L140.3,64.3L140.3,64.3z
		 M141.1,62.9l-2.7-4.1l2.7-4.1l2.7,4.1L141.1,62.9L141.1,62.9z M147.3,64.3l-2.7,4.1l-2.7-4.1l2.7-4.1L147.3,64.3L147.3,64.3z
		 M148.2,62.9l-2.7-4.1l2.7-4.1l2.7,4.1L148.2,62.9L148.2,62.9z M154.4,64.3l-2.7,4.1l-2.7-4.1l2.7-4.1L154.4,64.3L154.4,64.3z
		 M155.2,62.9l-2.7-4.1l2.7-4.1l2.7,4.1L155.2,62.9L155.2,62.9z M155.2,195.2l2.7,4.1l-2.7,4.1l-2.7-4.1L155.2,195.2L155.2,195.2z
		 M149,193.9l2.7-4.1l2.7,4.1l-2.7,4.1L149,193.9L149,193.9z M148.2,195.2l2.7,4.1l-2.7,4.1l-2.7-4.1L148.2,195.2L148.2,195.2z
		 M142,193.9l2.7-4.1l2.7,4.1l-2.7,4.1L142,193.9L142,193.9z M141.1,195.2l2.7,4.1l-2.7,4.1l-2.7-4.1L141.1,195.2L141.1,195.2z
		 M135,193.9l2.7-4.1l2.7,4.1l-2.7,4.1L135,193.9L135,193.9z M134.1,195.2l2.7,4.1l-2.7,4.1l-2.7-4.1L134.1,195.2L134.1,195.2z
		 M127.9,193.9l2.7-4.1l2.7,4.1l-2.7,4.1L127.9,193.9L127.9,193.9z M127,195.2l2.7,4.1l-2.7,4.1l-2.7-4.1L127,195.2L127,195.2z
		 M120.9,193.9l2.7-4.1l2.7,4.1l-2.7,4.1L120.9,193.9L120.9,193.9z M120,195.2l2.7,4.1l-2.7,4.1l-2.7-4.1L120,195.2L120,195.2z
		 M113.8,193.9l2.7-4.1l2.7,4.1l-2.7,4.1L113.8,193.9L113.8,193.9z M113,195.2l2.7,4.1l-2.7,4.1l-2.7-4.1L113,195.2L113,195.2z
		 M106.8,193.9l2.7-4.1l2.7,4.1l-2.7,4.1L106.8,193.9L106.8,193.9z M105.9,195.2l2.7,4.1l-2.7,4.1l-2.7-4.1L105.9,195.2L105.9,195.2
		z M99.7,193.9l2.7-4.1l2.7,4.1l-2.7,4.1L99.7,193.9L99.7,193.9z M101.5,199.3l-2.7,4.1l-2.7-4.1l2.7-4.1L101.5,199.3L101.5,199.3z
		 M101.5,188.5l-2.7,4.1l-2.7-4.1l2.7-4.1L101.5,188.5L101.5,188.5z M101.5,177.7l-2.7,4.1l-2.7-4.1l2.7-4.1L101.5,177.7
		L101.5,177.7z M101.5,166.9l-2.7,4.1l-2.7-4.1l2.7-4.1L101.5,166.9L101.5,166.9z M101.5,156.1l-2.7,4.1l-2.7-4.1l2.7-4.1
		L101.5,156.1L101.5,156.1z M101.5,145.3l-2.7,4.1l-2.7-4.1l2.7-4.1L101.5,145.3L101.5,145.3z M101.5,134.5l-2.7,4.1l-2.7-4.1
		l2.7-4.1L101.5,134.5L101.5,134.5z M101.5,123.7l-2.7,4.1l-2.7-4.1l2.7-4.1L101.5,123.7L101.5,123.7z M101.5,112.9l-2.7,4.1
		l-2.7-4.1l2.7-4.1L101.5,112.9L101.5,112.9z M101.5,102.1l-2.7,4.1l-2.7-4.1l2.7-4.1L101.5,102.1L101.5,102.1z M101.5,91.3
		l-2.7,4.1l-2.7-4.1l2.7-4.1L101.5,91.3L101.5,91.3z M101.5,80.5l-2.7,4.1l-2.7-4.1l2.7-4.1L101.5,80.5L101.5,80.5z M98.9,73.7
		l-2.7-4.1l2.7-4.1l2.7,4.1L98.9,73.7L98.9,73.7z M105,75.1l-2.7,4.1l-2.7-4.1l2.7-4.1L105,75.1L105,75.1z M105.9,73.7l-2.7-4.1
		l2.7-4.1l2.7,4.1L105.9,73.7L105.9,73.7z M112.1,75.1l-2.7,4.1l-2.7-4.1l2.7-4.1L112.1,75.1L112.1,75.1z M113,73.7l-2.7-4.1
		l2.7-4.1l2.7,4.1L113,73.7L113,73.7z M119.1,75.1l-2.7,4.1l-2.7-4.1l2.7-4.1L119.1,75.1L119.1,75.1z M120,73.7l-2.7-4.1l2.7-4.1
		l2.7,4.1L120,73.7L120,73.7z M126.2,75.1l-2.7,4.1l-2.7-4.1l2.7-4.1L126.2,75.1L126.2,75.1z M127,73.7l-2.7-4.1l2.7-4.1l2.7,4.1
		L127,73.7L127,73.7z M133.2,75.1l-2.7,4.1l-2.7-4.1l2.7-4.1L133.2,75.1L133.2,75.1z M134.1,73.7l-2.7-4.1l2.7-4.1l2.7,4.1
		L134.1,73.7L134.1,73.7z M140.3,75.1l-2.7,4.1l-2.7-4.1l2.7-4.1L140.3,75.1L140.3,75.1z M141.1,73.7l-2.7-4.1l2.7-4.1l2.7,4.1
		L141.1,73.7L141.1,73.7z M147.3,75.1l-2.7,4.1l-2.7-4.1l2.7-4.1L147.3,75.1L147.3,75.1z M148.2,73.7l-2.7-4.1l2.7-4.1l2.7,4.1
		L148.2,73.7L148.2,73.7z M154.4,75.1l-2.7,4.1l-2.7-4.1l2.7-4.1L154.4,75.1L154.4,75.1z M155.2,73.7l-2.7-4.1l2.7-4.1l2.7,4.1
		L155.2,73.7L155.2,73.7z M155.2,184.4l2.7,4.1l-2.7,4.1l-2.7-4.1L155.2,184.4L155.2,184.4z M149,183.1l2.7-4.1l2.7,4.1l-2.7,4.1
		L149,183.1L149,183.1z M148.2,184.4l2.7,4.1l-2.7,4.1l-2.7-4.1L148.2,184.4L148.2,184.4z M142,183.1l2.7-4.1l2.7,4.1l-2.7,4.1
		L142,183.1L142,183.1z M141.1,184.4l2.7,4.1l-2.7,4.1l-2.7-4.1L141.1,184.4L141.1,184.4z M135,183.1l2.7-4.1l2.7,4.1l-2.7,4.1
		L135,183.1L135,183.1z M134.1,184.4l2.7,4.1l-2.7,4.1l-2.7-4.1L134.1,184.4L134.1,184.4z M127.9,183.1l2.7-4.1l2.7,4.1l-2.7,4.1
		L127.9,183.1L127.9,183.1z M127,184.4l2.7,4.1l-2.7,4.1l-2.7-4.1L127,184.4L127,184.4z M120.9,183.1l2.7-4.1l2.7,4.1l-2.7,4.1
		L120.9,183.1L120.9,183.1z M120,184.4l2.7,4.1l-2.7,4.1l-2.7-4.1L120,184.4L120,184.4z M113.8,183.1l2.7-4.1l2.7,4.1l-2.7,4.1
		L113.8,183.1L113.8,183.1z M113,184.4l2.7,4.1l-2.7,4.1l-2.7-4.1L113,184.4L113,184.4z M106.8,183.1l2.7-4.1l2.7,4.1l-2.7,4.1
		L106.8,183.1L106.8,183.1z M105.9,184.4l2.7,4.1l-2.7,4.1l-2.7-4.1L105.9,184.4L105.9,184.4z M105,183.1l-2.7,4.1l-2.7-4.1l2.7-4.1
		L105,183.1L105,183.1z M105,172.3l-2.7,4.1l-2.7-4.1l2.7-4.1L105,172.3L105,172.3z M105,161.5l-2.7,4.1l-2.7-4.1l2.7-4.1L105,161.5
		L105,161.5z M105,150.7l-2.7,4.1l-2.7-4.1l2.7-4.1L105,150.7L105,150.7z M105,139.9l-2.7,4.1l-2.7-4.1l2.7-4.1L105,139.9L105,139.9
		z M105,129.1l-2.7,4.1l-2.7-4.1l2.7-4.1L105,129.1L105,129.1z M105,118.3l-2.7,4.1l-2.7-4.1l2.7-4.1L105,118.3L105,118.3z
		 M105,107.5l-2.7,4.1l-2.7-4.1l2.7-4.1L105,107.5L105,107.5z M105,96.7l-2.7,4.1l-2.7-4.1l2.7-4.1L105,96.7L105,96.7z M105,85.9
		l-2.7,4.1l-2.7-4.1l2.7-4.1L105,85.9L105,85.9z M105.9,84.5l-2.7-4.1l2.7-4.1l2.7,4.1L105.9,84.5L105.9,84.5z M112.1,85.9l-2.7,4.1
		l-2.7-4.1l2.7-4.1L112.1,85.9L112.1,85.9z M113,84.5l-2.7-4.1l2.7-4.1l2.7,4.1L113,84.5L113,84.5z M119.1,85.9l-2.7,4.1l-2.7-4.1
		l2.7-4.1L119.1,85.9L119.1,85.9z M120,84.5l-2.7-4.1l2.7-4.1l2.7,4.1L120,84.5L120,84.5z M126.2,85.9l-2.7,4.1l-2.7-4.1l2.7-4.1
		L126.2,85.9L126.2,85.9z M127,84.5l-2.7-4.1l2.7-4.1l2.7,4.1L127,84.5L127,84.5z M133.2,85.9l-2.7,4.1l-2.7-4.1l2.7-4.1L133.2,85.9
		L133.2,85.9z M134.1,84.5l-2.7-4.1l2.7-4.1l2.7,4.1L134.1,84.5L134.1,84.5z M140.3,85.9l-2.7,4.1l-2.7-4.1l2.7-4.1L140.3,85.9
		L140.3,85.9z M141.1,84.5l-2.7-4.1l2.7-4.1l2.7,4.1L141.1,84.5L141.1,84.5z M147.3,85.9l-2.7,4.1l-2.7-4.1l2.7-4.1L147.3,85.9
		L147.3,85.9z M148.2,84.5l-2.7-4.1l2.7-4.1l2.7,4.1L148.2,84.5L148.2,84.5z M154.4,85.9l-2.7,4.1l-2.7-4.1l2.7-4.1L154.4,85.9
		L154.4,85.9z M155.2,84.5l-2.7-4.1l2.7-4.1l2.7,4.1L155.2,84.5L155.2,84.5z M155.2,173.6l2.7,4.1l-2.7,4.1l-2.7-4.1L155.2,173.6
		L155.2,173.6z M149,172.3l2.7-4.1l2.7,4.1l-2.7,4.1L149,172.3L149,172.3z M148.2,173.6l2.7,4.1l-2.7,4.1l-2.7-4.1L148.2,173.6
		L148.2,173.6z M142,172.3l2.7-4.1l2.7,4.1l-2.7,4.1L142,172.3L142,172.3z M141.1,173.6l2.7,4.1l-2.7,4.1l-2.7-4.1L141.1,173.6
		L141.1,173.6z M135,172.3l2.7-4.1l2.7,4.1l-2.7,4.1L135,172.3L135,172.3z M134.1,173.6l2.7,4.1l-2.7,4.1l-2.7-4.1L134.1,173.6
		L134.1,173.6z M127.9,172.3l2.7-4.1l2.7,4.1l-2.7,4.1L127.9,172.3L127.9,172.3z M127,173.6l2.7,4.1l-2.7,4.1l-2.7-4.1L127,173.6
		L127,173.6z M120.9,172.3l2.7-4.1l2.7,4.1l-2.7,4.1L120.9,172.3L120.9,172.3z M120,173.6l2.7,4.1l-2.7,4.1l-2.7-4.1L120,173.6
		L120,173.6z M113.8,172.3l2.7-4.1l2.7,4.1l-2.7,4.1L113.8,172.3L113.8,172.3z M113,173.6l2.7,4.1l-2.7,4.1l-2.7-4.1L113,173.6
		L113,173.6z M106.8,172.3l2.7-4.1l2.7,4.1l-2.7,4.1L106.8,172.3L106.8,172.3z M108.6,177.7l-2.7,4.1l-2.7-4.1l2.7-4.1L108.6,177.7
		L108.6,177.7z M108.6,166.9l-2.7,4.1l-2.7-4.1l2.7-4.1L108.6,166.9L108.6,166.9z M108.6,156.1l-2.7,4.1l-2.7-4.1l2.7-4.1
		L108.6,156.1L108.6,156.1z M108.6,145.3l-2.7,4.1l-2.7-4.1l2.7-4.1L108.6,145.3L108.6,145.3z M108.6,134.5l-2.7,4.1l-2.7-4.1
		l2.7-4.1L108.6,134.5L108.6,134.5z M108.6,123.7l-2.7,4.1l-2.7-4.1l2.7-4.1L108.6,123.7L108.6,123.7z M108.6,112.9l-2.7,4.1
		l-2.7-4.1l2.7-4.1L108.6,112.9L108.6,112.9z M108.6,102.1l-2.7,4.1l-2.7-4.1l2.7-4.1L108.6,102.1L108.6,102.1z M105.9,95.3
		l-2.7-4.1l2.7-4.1l2.7,4.1L105.9,95.3L105.9,95.3z M112.1,96.7l-2.7,4.1l-2.7-4.1l2.7-4.1L112.1,96.7L112.1,96.7z M113,95.3
		l-2.7-4.1l2.7-4.1l2.7,4.1L113,95.3L113,95.3z M119.1,96.7l-2.7,4.1l-2.7-4.1l2.7-4.1L119.1,96.7L119.1,96.7z M120,95.3l-2.7-4.1
		l2.7-4.1l2.7,4.1L120,95.3L120,95.3z M126.2,96.7l-2.7,4.1l-2.7-4.1l2.7-4.1L126.2,96.7L126.2,96.7z M127,95.3l-2.7-4.1l2.7-4.1
		l2.7,4.1L127,95.3L127,95.3z M133.2,96.7l-2.7,4.1l-2.7-4.1l2.7-4.1L133.2,96.7L133.2,96.7z M134.1,95.3l-2.7-4.1l2.7-4.1l2.7,4.1
		L134.1,95.3L134.1,95.3z M140.3,96.7l-2.7,4.1l-2.7-4.1l2.7-4.1L140.3,96.7L140.3,96.7z M141.1,95.3l-2.7-4.1l2.7-4.1l2.7,4.1
		L141.1,95.3L141.1,95.3z M147.3,96.7l-2.7,4.1l-2.7-4.1l2.7-4.1L147.3,96.7L147.3,96.7z M148.2,95.3l-2.7-4.1l2.7-4.1l2.7,4.1
		L148.2,95.3L148.2,95.3z M154.4,96.7l-2.7,4.1l-2.7-4.1l2.7-4.1L154.4,96.7L154.4,96.7z M155.2,95.3l-2.7-4.1l2.7-4.1l2.7,4.1
		L155.2,95.3L155.2,95.3z M155.2,162.8l2.7,4.1l-2.7,4.1l-2.7-4.1L155.2,162.8L155.2,162.8z M149,161.5l2.7-4.1l2.7,4.1l-2.7,4.1
		L149,161.5L149,161.5z M148.2,162.8l2.7,4.1l-2.7,4.1l-2.7-4.1L148.2,162.8L148.2,162.8z M142,161.5l2.7-4.1l2.7,4.1l-2.7,4.1
		L142,161.5L142,161.5z M141.1,162.8l2.7,4.1l-2.7,4.1l-2.7-4.1L141.1,162.8L141.1,162.8z M135,161.5l2.7-4.1l2.7,4.1l-2.7,4.1
		L135,161.5L135,161.5z M134.1,162.8l2.7,4.1l-2.7,4.1l-2.7-4.1L134.1,162.8L134.1,162.8z M127.9,161.5l2.7-4.1l2.7,4.1l-2.7,4.1
		L127.9,161.5L127.9,161.5z M127,162.8l2.7,4.1L127,171l-2.7-4.1L127,162.8L127,162.8z M120.9,161.5l2.7-4.1l2.7,4.1l-2.7,4.1
		L120.9,161.5L120.9,161.5z M120,162.8l2.7,4.1L120,171l-2.7-4.1L120,162.8L120,162.8z M113.8,161.5l2.7-4.1l2.7,4.1l-2.7,4.1
		L113.8,161.5L113.8,161.5z M113,162.8l2.7,4.1L113,171l-2.7-4.1L113,162.8L113,162.8z M112.1,161.5l-2.7,4.1l-2.7-4.1l2.7-4.1
		L112.1,161.5L112.1,161.5z M112.1,150.7l-2.7,4.1l-2.7-4.1l2.7-4.1L112.1,150.7L112.1,150.7z M112.1,139.9l-2.7,4.1l-2.7-4.1
		l2.7-4.1L112.1,139.9L112.1,139.9z M112.1,129.1l-2.7,4.1l-2.7-4.1l2.7-4.1L112.1,129.1L112.1,129.1z M112.1,118.3l-2.7,4.1
		l-2.7-4.1l2.7-4.1L112.1,118.3L112.1,118.3z M112.1,107.5l-2.7,4.1l-2.7-4.1l2.7-4.1L112.1,107.5L112.1,107.5z M113,106.1l-2.7-4.1
		L113,98l2.7,4.1L113,106.1L113,106.1z M119.1,107.5l-2.7,4.1l-2.7-4.1l2.7-4.1L119.1,107.5L119.1,107.5z M120,106.1l-2.7-4.1
		L120,98l2.7,4.1L120,106.1L120,106.1z M126.2,107.5l-2.7,4.1l-2.7-4.1l2.7-4.1L126.2,107.5L126.2,107.5z M127,106.1l-2.7-4.1
		L127,98l2.7,4.1L127,106.1L127,106.1z M133.2,107.5l-2.7,4.1l-2.7-4.1l2.7-4.1L133.2,107.5L133.2,107.5z M134.1,106.1l-2.7-4.1
		l2.7-4.1l2.7,4.1L134.1,106.1L134.1,106.1z M140.3,107.5l-2.7,4.1l-2.7-4.1l2.7-4.1L140.3,107.5L140.3,107.5z M141.1,106.1
		l-2.7-4.1l2.7-4.1l2.7,4.1L141.1,106.1L141.1,106.1z M147.3,107.5l-2.7,4.1l-2.7-4.1l2.7-4.1L147.3,107.5L147.3,107.5z
		 M148.2,106.1l-2.7-4.1l2.7-4.1l2.7,4.1L148.2,106.1L148.2,106.1z M154.4,107.5l-2.7,4.1l-2.7-4.1l2.7-4.1L154.4,107.5L154.4,107.5
		z M155.2,106.1l-2.7-4.1l2.7-4.1l2.7,4.1L155.2,106.1L155.2,106.1z M155.2,152l2.7,4.1l-2.7,4.1l-2.7-4.1L155.2,152L155.2,152z
		 M149,150.7l2.7-4.1l2.7,4.1l-2.7,4.1L149,150.7L149,150.7z M148.2,152l2.7,4.1l-2.7,4.1l-2.7-4.1L148.2,152L148.2,152z M142,150.7
		l2.7-4.1l2.7,4.1l-2.7,4.1L142,150.7L142,150.7z M141.1,152l2.7,4.1l-2.7,4.1l-2.7-4.1L141.1,152L141.1,152z M135,150.7l2.7-4.1
		l2.7,4.1l-2.7,4.1L135,150.7L135,150.7z M134.1,152l2.7,4.1l-2.7,4.1l-2.7-4.1L134.1,152L134.1,152z M127.9,150.7l2.7-4.1l2.7,4.1
		l-2.7,4.1L127.9,150.7L127.9,150.7z M127,152l2.7,4.1l-2.7,4.1l-2.7-4.1L127,152L127,152z M120.9,150.7l2.7-4.1l2.7,4.1l-2.7,4.1
		L120.9,150.7L120.9,150.7z M120,152l2.7,4.1l-2.7,4.1l-2.7-4.1L120,152L120,152z M113.8,150.7l2.7-4.1l2.7,4.1l-2.7,4.1
		L113.8,150.7L113.8,150.7z M115.6,156.1l-2.7,4.1l-2.7-4.1l2.7-4.1L115.6,156.1L115.6,156.1z M115.6,145.3l-2.7,4.1l-2.7-4.1
		l2.7-4.1L115.6,145.3L115.6,145.3z M115.6,134.5l-2.7,4.1l-2.7-4.1l2.7-4.1L115.6,134.5L115.6,134.5z M115.6,123.7l-2.7,4.1
		l-2.7-4.1l2.7-4.1L115.6,123.7L115.6,123.7z M113,116.9l-2.7-4.1l2.7-4.1l2.7,4.1L113,116.9L113,116.9z M119.1,118.3l-2.7,4.1
		l-2.7-4.1l2.7-4.1L119.1,118.3L119.1,118.3z M120,116.9l-2.7-4.1l2.7-4.1l2.7,4.1L120,116.9L120,116.9z M126.2,118.3l-2.7,4.1
		l-2.7-4.1l2.7-4.1L126.2,118.3L126.2,118.3z M127,116.9l-2.7-4.1l2.7-4.1l2.7,4.1L127,116.9L127,116.9z M133.2,118.3l-2.7,4.1
		l-2.7-4.1l2.7-4.1L133.2,118.3L133.2,118.3z M134.1,116.9l-2.7-4.1l2.7-4.1l2.7,4.1L134.1,116.9L134.1,116.9z M140.3,118.3
		l-2.7,4.1l-2.7-4.1l2.7-4.1L140.3,118.3L140.3,118.3z M141.1,116.9l-2.7-4.1l2.7-4.1l2.7,4.1L141.1,116.9L141.1,116.9z
		 M147.3,118.3l-2.7,4.1l-2.7-4.1l2.7-4.1L147.3,118.3L147.3,118.3z M148.2,116.9l-2.7-4.1l2.7-4.1l2.7,4.1L148.2,116.9L148.2,116.9
		z M154.4,118.3l-2.7,4.1l-2.7-4.1l2.7-4.1L154.4,118.3L154.4,118.3z M155.2,116.9l-2.7-4.1l2.7-4.1l2.7,4.1L155.2,116.9
		L155.2,116.9z M155.2,141.2l2.7,4.1l-2.7,4.1l-2.7-4.1L155.2,141.2L155.2,141.2z M149,139.9l2.7-4.1l2.7,4.1l-2.7,4.1L149,139.9
		L149,139.9z M148.2,141.2l2.7,4.1l-2.7,4.1l-2.7-4.1L148.2,141.2L148.2,141.2z M142,139.9l2.7-4.1l2.7,4.1l-2.7,4.1L142,139.9
		L142,139.9z M141.1,141.2l2.7,4.1l-2.7,4.1l-2.7-4.1L141.1,141.2L141.1,141.2z M135,139.9l2.7-4.1l2.7,4.1l-2.7,4.1L135,139.9
		L135,139.9z M134.1,141.2l2.7,4.1l-2.7,4.1l-2.7-4.1L134.1,141.2L134.1,141.2z M127.9,139.9l2.7-4.1l2.7,4.1l-2.7,4.1L127.9,139.9
		L127.9,139.9z M127,141.2l2.7,4.1l-2.7,4.1l-2.7-4.1L127,141.2L127,141.2z M120.9,139.9l2.7-4.1l2.7,4.1l-2.7,4.1L120.9,139.9
		L120.9,139.9z M120,141.2l2.7,4.1l-2.7,4.1l-2.7-4.1L120,141.2L120,141.2z M119.1,139.9l-2.7,4.1l-2.7-4.1l2.7-4.1L119.1,139.9
		L119.1,139.9z M119.1,129.1l-2.7,4.1l-2.7-4.1l2.7-4.1L119.1,129.1L119.1,129.1z M120,127.7l-2.7-4.1l2.7-4.1l2.7,4.1L120,127.7
		L120,127.7z M122.7,134.5l-2.7,4.1l-2.7-4.1l2.7-4.1L122.7,134.5L122.7,134.5z M126.2,129.1l-2.7,4.1l-2.7-4.1l2.7-4.1L126.2,129.1
		L126.2,129.1z M127,127.7l-2.7-4.1l2.7-4.1l2.7,4.1L127,127.7L127,127.7z M129.7,134.5l-2.7,4.1l-2.7-4.1l2.7-4.1L129.7,134.5
		L129.7,134.5z M133.2,129.1l-2.7,4.1l-2.7-4.1l2.7-4.1L133.2,129.1L133.2,129.1z M134.1,127.7l-2.7-4.1l2.7-4.1l2.7,4.1
		L134.1,127.7L134.1,127.7z M136.8,134.5l-2.7,4.1l-2.7-4.1l2.7-4.1L136.8,134.5L136.8,134.5z M140.3,129.1l-2.7,4.1l-2.7-4.1
		l2.7-4.1L140.3,129.1L140.3,129.1z M141.1,127.7l-2.7-4.1l2.7-4.1l2.7,4.1L141.1,127.7L141.1,127.7z M143.8,134.5l-2.7,4.1
		l-2.7-4.1l2.7-4.1L143.8,134.5L143.8,134.5z M147.3,129.1l-2.7,4.1l-2.7-4.1l2.7-4.1L147.3,129.1L147.3,129.1z M148.2,127.7
		l-2.7-4.1l2.7-4.1l2.7,4.1L148.2,127.7L148.2,127.7z M150.8,134.5l-2.7,4.1l-2.7-4.1l2.7-4.1L150.8,134.5L150.8,134.5z
		 M154.4,129.1l-2.7,4.1l-2.7-4.1l2.7-4.1L154.4,129.1L154.4,129.1z M155.2,127.7l-2.7-4.1l2.7-4.1l2.7,4.1L155.2,127.7L155.2,127.7
		z M157.9,134.5l-2.7,4.1l-2.7-4.1l2.7-4.1L157.9,134.5L157.9,134.5z M85.6,237.1l2.7-4.1l2.7,4.1l-2.7,4.1L85.6,237.1L85.6,237.1z
		 M78.6,237.1l2.7-4.1l2.7,4.1l-2.7,4.1L78.6,237.1L78.6,237.1z M71.5,237.1l2.7-4.1l2.7,4.1l-2.7,4.1L71.5,237.1L71.5,237.1z
		 M64.5,237.1l2.7-4.1l2.7,4.1l-2.7,4.1L64.5,237.1L64.5,237.1z M57.4,237.1l2.7-4.1l2.7,4.1l-2.7,4.1L57.4,237.1L57.4,237.1z
		 M50.4,237.1l2.7-4.1l2.7,4.1l-2.7,4.1L50.4,237.1L50.4,237.1z M43.3,237.1L46,233l2.7,4.1l-2.7,4.1L43.3,237.1L43.3,237.1z
		 M36.3,237.1L39,233l2.7,4.1l-2.7,4.1L36.3,237.1L36.3,237.1z M29.3,237.1l2.7-4.1l2.7,4.1l-2.7,4.1L29.3,237.1L29.3,237.1z
		 M22.2,237.1l2.7-4.1l2.7,4.1l-2.7,4.1L22.2,237.1L22.2,237.1z M27.5,31.8l-2.7,4.1l-2.7-4.1l2.7-4.1L27.5,31.8L27.5,31.8z
		 M28.4,30.5l-2.7-4.1l2.7-4.1l2.7,4.1L28.4,30.5L28.4,30.5z M34.6,31.8l-2.7,4.1l-2.7-4.1l2.7-4.1L34.6,31.8L34.6,31.8z M35.4,30.5
		l-2.7-4.1l2.7-4.1l2.7,4.1L35.4,30.5L35.4,30.5z M41.6,31.8L39,35.9l-2.7-4.1l2.7-4.1L41.6,31.8L41.6,31.8z M42.5,30.5l-2.7-4.1
		l2.7-4.1l2.7,4.1L42.5,30.5L42.5,30.5z M48.7,31.8L46,35.9l-2.7-4.1l2.7-4.1L48.7,31.8L48.7,31.8z M49.5,30.5l-2.7-4.1l2.7-4.1
		l2.7,4.1L49.5,30.5L49.5,30.5z M55.7,31.8l-2.7,4.1l-2.7-4.1l2.7-4.1L55.7,31.8L55.7,31.8z M56.6,30.5l-2.7-4.1l2.7-4.1l2.7,4.1
		L56.6,30.5L56.6,30.5z M62.8,31.8l-2.7,4.1l-2.7-4.1l2.7-4.1L62.8,31.8L62.8,31.8z M63.6,30.5L61,26.4l2.7-4.1l2.7,4.1L63.6,30.5
		L63.6,30.5z M69.8,31.8l-2.7,4.1l-2.7-4.1l2.7-4.1L69.8,31.8L69.8,31.8z M70.7,30.5L68,26.4l2.7-4.1l2.7,4.1L70.7,30.5L70.7,30.5z
		 M76.9,31.8l-2.7,4.1l-2.7-4.1l2.7-4.1L76.9,31.8L76.9,31.8z M77.7,30.5l-2.7-4.1l2.7-4.1l2.7,4.1L77.7,30.5L77.7,30.5z M83.9,31.8
		l-2.7,4.1l-2.7-4.1l2.7-4.1L83.9,31.8L83.9,31.8z M84.8,30.5l-2.7-4.1l2.7-4.1l2.7,4.1L84.8,30.5L84.8,30.5z M91,31.8l-2.7,4.1
		l-2.7-4.1l2.7-4.1L91,31.8L91,31.8z M85.6,226.3l2.7-4.1l2.7,4.1l-2.7,4.1L85.6,226.3L85.6,226.3z M84.8,227.6l2.7,4.1l-2.7,4.1
		l-2.7-4.1L84.8,227.6L84.8,227.6z M78.6,226.3l2.7-4.1l2.7,4.1l-2.7,4.1L78.6,226.3L78.6,226.3z M77.7,227.6l2.7,4.1l-2.7,4.1
		l-2.7-4.1L77.7,227.6L77.7,227.6z M71.5,226.3l2.7-4.1l2.7,4.1l-2.7,4.1L71.5,226.3L71.5,226.3z M70.7,227.6l2.7,4.1l-2.7,4.1
		l-2.7-4.1L70.7,227.6L70.7,227.6z M64.5,226.3l2.7-4.1l2.7,4.1l-2.7,4.1L64.5,226.3L64.5,226.3z M63.6,227.6l2.7,4.1l-2.7,4.1
		l-2.7-4.1L63.6,227.6L63.6,227.6z M57.4,226.3l2.7-4.1l2.7,4.1l-2.7,4.1L57.4,226.3L57.4,226.3z M56.6,227.6l2.7,4.1l-2.7,4.1
		l-2.7-4.1L56.6,227.6L56.6,227.6z M50.4,226.3l2.7-4.1l2.7,4.1l-2.7,4.1L50.4,226.3L50.4,226.3z M49.5,227.6l2.7,4.1l-2.7,4.1
		l-2.7-4.1L49.5,227.6L49.5,227.6z M43.3,226.3l2.7-4.1l2.7,4.1l-2.7,4.1L43.3,226.3L43.3,226.3z M42.5,227.6l2.7,4.1l-2.7,4.1
		l-2.7-4.1L42.5,227.6L42.5,227.6z M36.3,226.3l2.7-4.1l2.7,4.1l-2.7,4.1L36.3,226.3L36.3,226.3z M35.4,227.6l2.7,4.1l-2.7,4.1
		l-2.7-4.1L35.4,227.6L35.4,227.6z M29.3,226.3l2.7-4.1l2.7,4.1l-2.7,4.1L29.3,226.3L29.3,226.3z M28.4,227.6l2.7,4.1l-2.7,4.1
		l-2.7-4.1L28.4,227.6L28.4,227.6z M22.2,226.3l2.7-4.1l2.7,4.1l-2.7,4.1L22.2,226.3L22.2,226.3z M27.5,42.6l-2.7,4.1l-2.7-4.1
		l2.7-4.1L27.5,42.6L27.5,42.6z M28.4,41.3l-2.7-4.1l2.7-4.1l2.7,4.1L28.4,41.3L28.4,41.3z M34.6,42.6l-2.7,4.1l-2.7-4.1l2.7-4.1
		L34.6,42.6L34.6,42.6z M35.4,41.3l-2.7-4.1l2.7-4.1l2.7,4.1L35.4,41.3L35.4,41.3z M41.6,42.6L39,46.7l-2.7-4.1l2.7-4.1L41.6,42.6
		L41.6,42.6z M42.5,41.3l-2.7-4.1l2.7-4.1l2.7,4.1L42.5,41.3L42.5,41.3z M48.7,42.6L46,46.7l-2.7-4.1l2.7-4.1L48.7,42.6L48.7,42.6z
		 M49.5,41.3l-2.7-4.1l2.7-4.1l2.7,4.1L49.5,41.3L49.5,41.3z M55.7,42.6l-2.7,4.1l-2.7-4.1l2.7-4.1L55.7,42.6L55.7,42.6z M56.6,41.3
		l-2.7-4.1l2.7-4.1l2.7,4.1L56.6,41.3L56.6,41.3z M62.8,42.6l-2.7,4.1l-2.7-4.1l2.7-4.1L62.8,42.6L62.8,42.6z M63.6,41.3L61,37.2
		l2.7-4.1l2.7,4.1L63.6,41.3L63.6,41.3z M69.8,42.6l-2.7,4.1l-2.7-4.1l2.7-4.1L69.8,42.6L69.8,42.6z M70.7,41.3L68,37.2l2.7-4.1
		l2.7,4.1L70.7,41.3L70.7,41.3z M76.9,42.6l-2.7,4.1l-2.7-4.1l2.7-4.1L76.9,42.6L76.9,42.6z M77.7,41.3l-2.7-4.1l2.7-4.1l2.7,4.1
		L77.7,41.3L77.7,41.3z M83.9,42.6l-2.7,4.1l-2.7-4.1l2.7-4.1L83.9,42.6L83.9,42.6z M84.8,41.3l-2.7-4.1l2.7-4.1l2.7,4.1L84.8,41.3
		L84.8,41.3z M91,42.6l-2.7,4.1l-2.7-4.1l2.7-4.1L91,42.6L91,42.6z M85.6,215.5l2.7-4.1l2.7,4.1l-2.7,4.1L85.6,215.5L85.6,215.5z
		 M84.8,216.8l2.7,4.1l-2.7,4.1l-2.7-4.1L84.8,216.8L84.8,216.8z M78.6,215.5l2.7-4.1l2.7,4.1l-2.7,4.1L78.6,215.5L78.6,215.5z
		 M77.7,216.8l2.7,4.1l-2.7,4.1l-2.7-4.1L77.7,216.8L77.7,216.8z M71.5,215.5l2.7-4.1l2.7,4.1l-2.7,4.1L71.5,215.5L71.5,215.5z
		 M70.7,216.8l2.7,4.1l-2.7,4.1l-2.7-4.1L70.7,216.8L70.7,216.8z M64.5,215.5l2.7-4.1l2.7,4.1l-2.7,4.1L64.5,215.5L64.5,215.5z
		 M63.6,216.8l2.7,4.1l-2.7,4.1l-2.7-4.1L63.6,216.8L63.6,216.8z M57.4,215.5l2.7-4.1l2.7,4.1l-2.7,4.1L57.4,215.5L57.4,215.5z
		 M56.6,216.8l2.7,4.1l-2.7,4.1l-2.7-4.1L56.6,216.8L56.6,216.8z M50.4,215.5l2.7-4.1l2.7,4.1l-2.7,4.1L50.4,215.5L50.4,215.5z
		 M49.5,216.8l2.7,4.1l-2.7,4.1l-2.7-4.1L49.5,216.8L49.5,216.8z M43.3,215.5l2.7-4.1l2.7,4.1l-2.7,4.1L43.3,215.5L43.3,215.5z
		 M42.5,216.8l2.7,4.1l-2.7,4.1l-2.7-4.1L42.5,216.8L42.5,216.8z M36.3,215.5l2.7-4.1l2.7,4.1l-2.7,4.1L36.3,215.5L36.3,215.5z
		 M35.4,216.8l2.7,4.1l-2.7,4.1l-2.7-4.1L35.4,216.8L35.4,216.8z M29.3,215.5l2.7-4.1l2.7,4.1l-2.7,4.1L29.3,215.5L29.3,215.5z
		 M28.4,216.8l2.7,4.1l-2.7,4.1l-2.7-4.1L28.4,216.8L28.4,216.8z M22.2,215.5l2.7-4.1l2.7,4.1l-2.7,4.1L22.2,215.5L22.2,215.5z
		 M27.5,53.4l-2.7,4.1l-2.7-4.1l2.7-4.1L27.5,53.4L27.5,53.4z M28.4,52.1l-2.7-4.1l2.7-4.1l2.7,4.1L28.4,52.1L28.4,52.1z M34.6,53.4
		l-2.7,4.1l-2.7-4.1l2.7-4.1L34.6,53.4L34.6,53.4z M35.4,52.1l-2.7-4.1l2.7-4.1l2.7,4.1L35.4,52.1L35.4,52.1z M41.6,53.4L39,57.5
		l-2.7-4.1l2.7-4.1L41.6,53.4L41.6,53.4z M42.5,52.1l-2.7-4.1l2.7-4.1l2.7,4.1L42.5,52.1L42.5,52.1z M48.7,53.4L46,57.5l-2.7-4.1
		l2.7-4.1L48.7,53.4L48.7,53.4z M49.5,52.1l-2.7-4.1l2.7-4.1l2.7,4.1L49.5,52.1L49.5,52.1z M55.7,53.4l-2.7,4.1l-2.7-4.1l2.7-4.1
		L55.7,53.4L55.7,53.4z M56.6,52.1l-2.7-4.1l2.7-4.1l2.7,4.1L56.6,52.1L56.6,52.1z M62.8,53.4l-2.7,4.1l-2.7-4.1l2.7-4.1L62.8,53.4
		L62.8,53.4z M63.6,52.1L61,48.1l2.7-4.1l2.7,4.1L63.6,52.1L63.6,52.1z M69.8,53.4l-2.7,4.1l-2.7-4.1l2.7-4.1L69.8,53.4L69.8,53.4z
		 M70.7,52.1L68,48.1l2.7-4.1l2.7,4.1L70.7,52.1L70.7,52.1z M76.9,53.4l-2.7,4.1l-2.7-4.1l2.7-4.1L76.9,53.4L76.9,53.4z M77.7,52.1
		l-2.7-4.1l2.7-4.1l2.7,4.1L77.7,52.1L77.7,52.1z M83.9,53.4l-2.7,4.1l-2.7-4.1l2.7-4.1L83.9,53.4L83.9,53.4z M84.8,52.1l-2.7-4.1
		l2.7-4.1l2.7,4.1L84.8,52.1L84.8,52.1z M91,53.4l-2.7,4.1l-2.7-4.1l2.7-4.1L91,53.4L91,53.4z M85.6,204.7l2.7-4.1l2.7,4.1l-2.7,4.1
		L85.6,204.7L85.6,204.7z M84.8,206l2.7,4.1l-2.7,4.1l-2.7-4.1L84.8,206L84.8,206z M78.6,204.7l2.7-4.1l2.7,4.1l-2.7,4.1L78.6,204.7
		L78.6,204.7z M77.7,206l2.7,4.1l-2.7,4.1l-2.7-4.1L77.7,206L77.7,206z M71.5,204.7l2.7-4.1l2.7,4.1l-2.7,4.1L71.5,204.7L71.5,204.7
		z M70.7,206l2.7,4.1l-2.7,4.1l-2.7-4.1L70.7,206L70.7,206z M64.5,204.7l2.7-4.1l2.7,4.1l-2.7,4.1L64.5,204.7L64.5,204.7z M63.6,206
		l2.7,4.1l-2.7,4.1l-2.7-4.1L63.6,206L63.6,206z M57.4,204.7l2.7-4.1l2.7,4.1l-2.7,4.1L57.4,204.7L57.4,204.7z M56.6,206l2.7,4.1
		l-2.7,4.1l-2.7-4.1L56.6,206L56.6,206z M50.4,204.7l2.7-4.1l2.7,4.1l-2.7,4.1L50.4,204.7L50.4,204.7z M49.5,206l2.7,4.1l-2.7,4.1
		l-2.7-4.1L49.5,206L49.5,206z M43.3,204.7l2.7-4.1l2.7,4.1l-2.7,4.1L43.3,204.7L43.3,204.7z M42.5,206l2.7,4.1l-2.7,4.1l-2.7-4.1
		L42.5,206L42.5,206z M36.3,204.7l2.7-4.1l2.7,4.1l-2.7,4.1L36.3,204.7L36.3,204.7z M35.4,206l2.7,4.1l-2.7,4.1l-2.7-4.1L35.4,206
		L35.4,206z M29.3,204.7l2.7-4.1l2.7,4.1l-2.7,4.1L29.3,204.7L29.3,204.7z M28.4,206l2.7,4.1l-2.7,4.1l-2.7-4.1L28.4,206L28.4,206z
		 M22.2,204.7l2.7-4.1l2.7,4.1l-2.7,4.1L22.2,204.7L22.2,204.7z M27.5,64.3l-2.7,4.1l-2.7-4.1l2.7-4.1L27.5,64.3L27.5,64.3z
		 M28.4,62.9l-2.7-4.1l2.7-4.1l2.7,4.1L28.4,62.9L28.4,62.9z M34.6,64.3l-2.7,4.1l-2.7-4.1l2.7-4.1L34.6,64.3L34.6,64.3z M35.4,62.9
		l-2.7-4.1l2.7-4.1l2.7,4.1L35.4,62.9L35.4,62.9z M41.6,64.3L39,68.3l-2.7-4.1l2.7-4.1L41.6,64.3L41.6,64.3z M42.5,62.9l-2.7-4.1
		l2.7-4.1l2.7,4.1L42.5,62.9L42.5,62.9z M48.7,64.3L46,68.3l-2.7-4.1l2.7-4.1L48.7,64.3L48.7,64.3z M49.5,62.9l-2.7-4.1l2.7-4.1
		l2.7,4.1L49.5,62.9L49.5,62.9z M55.7,64.3l-2.7,4.1l-2.7-4.1l2.7-4.1L55.7,64.3L55.7,64.3z M56.6,62.9l-2.7-4.1l2.7-4.1l2.7,4.1
		L56.6,62.9L56.6,62.9z M62.8,64.3l-2.7,4.1l-2.7-4.1l2.7-4.1L62.8,64.3L62.8,64.3z M63.6,62.9L61,58.9l2.7-4.1l2.7,4.1L63.6,62.9
		L63.6,62.9z M69.8,64.3l-2.7,4.1l-2.7-4.1l2.7-4.1L69.8,64.3L69.8,64.3z M70.7,62.9L68,58.9l2.7-4.1l2.7,4.1L70.7,62.9L70.7,62.9z
		 M76.9,64.3l-2.7,4.1l-2.7-4.1l2.7-4.1L76.9,64.3L76.9,64.3z M77.7,62.9l-2.7-4.1l2.7-4.1l2.7,4.1L77.7,62.9L77.7,62.9z M83.9,64.3
		l-2.7,4.1l-2.7-4.1l2.7-4.1L83.9,64.3L83.9,64.3z M84.8,62.9l-2.7-4.1l2.7-4.1l2.7,4.1L84.8,62.9L84.8,62.9z M91,64.3l-2.7,4.1
		l-2.7-4.1l2.7-4.1L91,64.3L91,64.3z M85.6,193.9l2.7-4.1l2.7,4.1l-2.7,4.1L85.6,193.9L85.6,193.9z M84.8,195.2l2.7,4.1l-2.7,4.1
		l-2.7-4.1L84.8,195.2L84.8,195.2z M78.6,193.9l2.7-4.1l2.7,4.1l-2.7,4.1L78.6,193.9L78.6,193.9z M77.7,195.2l2.7,4.1l-2.7,4.1
		l-2.7-4.1L77.7,195.2L77.7,195.2z M71.5,193.9l2.7-4.1l2.7,4.1l-2.7,4.1L71.5,193.9L71.5,193.9z M70.7,195.2l2.7,4.1l-2.7,4.1
		l-2.7-4.1L70.7,195.2L70.7,195.2z M64.5,193.9l2.7-4.1l2.7,4.1l-2.7,4.1L64.5,193.9L64.5,193.9z M63.6,195.2l2.7,4.1l-2.7,4.1
		l-2.7-4.1L63.6,195.2L63.6,195.2z M57.4,193.9l2.7-4.1l2.7,4.1l-2.7,4.1L57.4,193.9L57.4,193.9z M56.6,195.2l2.7,4.1l-2.7,4.1
		l-2.7-4.1L56.6,195.2L56.6,195.2z M50.4,193.9l2.7-4.1l2.7,4.1l-2.7,4.1L50.4,193.9L50.4,193.9z M49.5,195.2l2.7,4.1l-2.7,4.1
		l-2.7-4.1L49.5,195.2L49.5,195.2z M43.3,193.9l2.7-4.1l2.7,4.1L46,198L43.3,193.9L43.3,193.9z M42.5,195.2l2.7,4.1l-2.7,4.1
		l-2.7-4.1L42.5,195.2L42.5,195.2z M36.3,193.9l2.7-4.1l2.7,4.1L39,198L36.3,193.9L36.3,193.9z M35.4,195.2l2.7,4.1l-2.7,4.1
		l-2.7-4.1L35.4,195.2L35.4,195.2z M29.3,193.9l2.7-4.1l2.7,4.1l-2.7,4.1L29.3,193.9L29.3,193.9z M28.4,195.2l2.7,4.1l-2.7,4.1
		l-2.7-4.1L28.4,195.2L28.4,195.2z M22.2,193.9l2.7-4.1l2.7,4.1l-2.7,4.1L22.2,193.9L22.2,193.9z M27.5,75.1l-2.7,4.1l-2.7-4.1
		l2.7-4.1L27.5,75.1L27.5,75.1z M28.4,73.7l-2.7-4.1l2.7-4.1l2.7,4.1L28.4,73.7L28.4,73.7z M34.6,75.1l-2.7,4.1l-2.7-4.1l2.7-4.1
		L34.6,75.1L34.6,75.1z M35.4,73.7l-2.7-4.1l2.7-4.1l2.7,4.1L35.4,73.7L35.4,73.7z M41.6,75.1L39,79.1l-2.7-4.1L39,71L41.6,75.1
		L41.6,75.1z M42.5,73.7l-2.7-4.1l2.7-4.1l2.7,4.1L42.5,73.7L42.5,73.7z M48.7,75.1L46,79.1l-2.7-4.1L46,71L48.7,75.1L48.7,75.1z
		 M49.5,73.7l-2.7-4.1l2.7-4.1l2.7,4.1L49.5,73.7L49.5,73.7z M55.7,75.1l-2.7,4.1l-2.7-4.1l2.7-4.1L55.7,75.1L55.7,75.1z M56.6,73.7
		l-2.7-4.1l2.7-4.1l2.7,4.1L56.6,73.7L56.6,73.7z M62.8,75.1l-2.7,4.1l-2.7-4.1l2.7-4.1L62.8,75.1L62.8,75.1z M63.6,73.7L61,69.7
		l2.7-4.1l2.7,4.1L63.6,73.7L63.6,73.7z M69.8,75.1l-2.7,4.1l-2.7-4.1l2.7-4.1L69.8,75.1L69.8,75.1z M70.7,73.7L68,69.7l2.7-4.1
		l2.7,4.1L70.7,73.7L70.7,73.7z M76.9,75.1l-2.7,4.1l-2.7-4.1l2.7-4.1L76.9,75.1L76.9,75.1z M77.7,73.7l-2.7-4.1l2.7-4.1l2.7,4.1
		L77.7,73.7L77.7,73.7z M83.9,75.1l-2.7,4.1l-2.7-4.1l2.7-4.1L83.9,75.1L83.9,75.1z M84.8,73.7l-2.7-4.1l2.7-4.1l2.7,4.1L84.8,73.7
		L84.8,73.7z M85.6,75.1l2.7-4.1l2.7,4.1l-2.7,4.1L85.6,75.1L85.6,75.1z M85.6,85.9l2.7-4.1l2.7,4.1l-2.7,4.1L85.6,85.9L85.6,85.9z
		 M85.6,96.7l2.7-4.1l2.7,4.1l-2.7,4.1L85.6,96.7L85.6,96.7z M85.6,107.5l2.7-4.1l2.7,4.1l-2.7,4.1L85.6,107.5L85.6,107.5z
		 M85.6,118.3l2.7-4.1l2.7,4.1l-2.7,4.1L85.6,118.3L85.6,118.3z M85.6,129.1l2.7-4.1l2.7,4.1l-2.7,4.1L85.6,129.1L85.6,129.1z
		 M85.6,139.9l2.7-4.1l2.7,4.1l-2.7,4.1L85.6,139.9L85.6,139.9z M85.6,150.7l2.7-4.1l2.7,4.1l-2.7,4.1L85.6,150.7L85.6,150.7z
		 M85.6,161.5l2.7-4.1l2.7,4.1l-2.7,4.1L85.6,161.5L85.6,161.5z M85.6,172.3l2.7-4.1l2.7,4.1l-2.7,4.1L85.6,172.3L85.6,172.3z
		 M85.6,183.1l2.7-4.1l2.7,4.1l-2.7,4.1L85.6,183.1L85.6,183.1z M84.8,184.4l2.7,4.1l-2.7,4.1l-2.7-4.1L84.8,184.4L84.8,184.4z
		 M78.6,183.1l2.7-4.1l2.7,4.1l-2.7,4.1L78.6,183.1L78.6,183.1z M77.7,184.4l2.7,4.1l-2.7,4.1l-2.7-4.1L77.7,184.4L77.7,184.4z
		 M71.5,183.1l2.7-4.1l2.7,4.1l-2.7,4.1L71.5,183.1L71.5,183.1z M70.7,184.4l2.7,4.1l-2.7,4.1l-2.7-4.1L70.7,184.4L70.7,184.4z
		 M64.5,183.1l2.7-4.1l2.7,4.1l-2.7,4.1L64.5,183.1L64.5,183.1z M63.6,184.4l2.7,4.1l-2.7,4.1l-2.7-4.1L63.6,184.4L63.6,184.4z
		 M57.4,183.1l2.7-4.1l2.7,4.1l-2.7,4.1L57.4,183.1L57.4,183.1z M56.6,184.4l2.7,4.1l-2.7,4.1l-2.7-4.1L56.6,184.4L56.6,184.4z
		 M50.4,183.1l2.7-4.1l2.7,4.1l-2.7,4.1L50.4,183.1L50.4,183.1z M49.5,184.4l2.7,4.1l-2.7,4.1l-2.7-4.1L49.5,184.4L49.5,184.4z
		 M43.3,183.1L46,179l2.7,4.1l-2.7,4.1L43.3,183.1L43.3,183.1z M42.5,184.4l2.7,4.1l-2.7,4.1l-2.7-4.1L42.5,184.4L42.5,184.4z
		 M36.3,183.1L39,179l2.7,4.1l-2.7,4.1L36.3,183.1L36.3,183.1z M35.4,184.4l2.7,4.1l-2.7,4.1l-2.7-4.1L35.4,184.4L35.4,184.4z
		 M29.3,183.1l2.7-4.1l2.7,4.1l-2.7,4.1L29.3,183.1L29.3,183.1z M28.4,184.4l2.7,4.1l-2.7,4.1l-2.7-4.1L28.4,184.4L28.4,184.4z
		 M22.2,183.1l2.7-4.1l2.7,4.1l-2.7,4.1L22.2,183.1L22.2,183.1z M27.5,85.9l-2.7,4.1l-2.7-4.1l2.7-4.1L27.5,85.9L27.5,85.9z
		 M28.4,84.5l-2.7-4.1l2.7-4.1l2.7,4.1L28.4,84.5L28.4,84.5z M34.6,85.9l-2.7,4.1l-2.7-4.1l2.7-4.1L34.6,85.9L34.6,85.9z M35.4,84.5
		l-2.7-4.1l2.7-4.1l2.7,4.1L35.4,84.5L35.4,84.5z M41.6,85.9L39,89.9l-2.7-4.1l2.7-4.1L41.6,85.9L41.6,85.9z M42.5,84.5l-2.7-4.1
		l2.7-4.1l2.7,4.1L42.5,84.5L42.5,84.5z M48.7,85.9L46,89.9l-2.7-4.1l2.7-4.1L48.7,85.9L48.7,85.9z M49.5,84.5l-2.7-4.1l2.7-4.1
		l2.7,4.1L49.5,84.5L49.5,84.5z M55.7,85.9l-2.7,4.1l-2.7-4.1l2.7-4.1L55.7,85.9L55.7,85.9z M56.6,84.5l-2.7-4.1l2.7-4.1l2.7,4.1
		L56.6,84.5L56.6,84.5z M62.8,85.9l-2.7,4.1l-2.7-4.1l2.7-4.1L62.8,85.9L62.8,85.9z M63.6,84.5L61,80.5l2.7-4.1l2.7,4.1L63.6,84.5
		L63.6,84.5z M69.8,85.9l-2.7,4.1l-2.7-4.1l2.7-4.1L69.8,85.9L69.8,85.9z M70.7,84.5L68,80.5l2.7-4.1l2.7,4.1L70.7,84.5L70.7,84.5z
		 M76.9,85.9l-2.7,4.1l-2.7-4.1l2.7-4.1L76.9,85.9L76.9,85.9z M77.7,84.5l-2.7-4.1l2.7-4.1l2.7,4.1L77.7,84.5L77.7,84.5z M83.9,85.9
		l-2.7,4.1l-2.7-4.1l2.7-4.1L83.9,85.9L83.9,85.9z M82.1,80.5l2.7-4.1l2.7,4.1l-2.7,4.1L82.1,80.5L82.1,80.5z M82.1,91.3l2.7-4.1
		l2.7,4.1l-2.7,4.1L82.1,91.3L82.1,91.3z M82.1,102.1l2.7-4.1l2.7,4.1l-2.7,4.1L82.1,102.1L82.1,102.1z M82.1,112.9l2.7-4.1l2.7,4.1
		l-2.7,4.1L82.1,112.9L82.1,112.9z M82.1,123.7l2.7-4.1l2.7,4.1l-2.7,4.1L82.1,123.7L82.1,123.7z M82.1,134.5l2.7-4.1l2.7,4.1
		l-2.7,4.1L82.1,134.5L82.1,134.5z M82.1,145.3l2.7-4.1l2.7,4.1l-2.7,4.1L82.1,145.3L82.1,145.3z M82.1,156.1l2.7-4.1l2.7,4.1
		l-2.7,4.1L82.1,156.1L82.1,156.1z M82.1,166.9l2.7-4.1l2.7,4.1l-2.7,4.1L82.1,166.9L82.1,166.9z M84.8,173.6l2.7,4.1l-2.7,4.1
		l-2.7-4.1L84.8,173.6L84.8,173.6z M78.6,172.3l2.7-4.1l2.7,4.1l-2.7,4.1L78.6,172.3L78.6,172.3z M77.7,173.6l2.7,4.1l-2.7,4.1
		l-2.7-4.1L77.7,173.6L77.7,173.6z M71.5,172.3l2.7-4.1l2.7,4.1l-2.7,4.1L71.5,172.3L71.5,172.3z M70.7,173.6l2.7,4.1l-2.7,4.1
		l-2.7-4.1L70.7,173.6L70.7,173.6z M64.5,172.3l2.7-4.1l2.7,4.1l-2.7,4.1L64.5,172.3L64.5,172.3z M63.6,173.6l2.7,4.1l-2.7,4.1
		l-2.7-4.1L63.6,173.6L63.6,173.6z M57.4,172.3l2.7-4.1l2.7,4.1l-2.7,4.1L57.4,172.3L57.4,172.3z M56.6,173.6l2.7,4.1l-2.7,4.1
		l-2.7-4.1L56.6,173.6L56.6,173.6z M50.4,172.3l2.7-4.1l2.7,4.1l-2.7,4.1L50.4,172.3L50.4,172.3z M49.5,173.6l2.7,4.1l-2.7,4.1
		l-2.7-4.1L49.5,173.6L49.5,173.6z M43.3,172.3l2.7-4.1l2.7,4.1l-2.7,4.1L43.3,172.3L43.3,172.3z M42.5,173.6l2.7,4.1l-2.7,4.1
		l-2.7-4.1L42.5,173.6L42.5,173.6z M36.3,172.3l2.7-4.1l2.7,4.1l-2.7,4.1L36.3,172.3L36.3,172.3z M35.4,173.6l2.7,4.1l-2.7,4.1
		l-2.7-4.1L35.4,173.6L35.4,173.6z M29.3,172.3l2.7-4.1l2.7,4.1l-2.7,4.1L29.3,172.3L29.3,172.3z M28.4,173.6l2.7,4.1l-2.7,4.1
		l-2.7-4.1L28.4,173.6L28.4,173.6z M22.2,172.3l2.7-4.1l2.7,4.1l-2.7,4.1L22.2,172.3L22.2,172.3z M27.5,96.7l-2.7,4.1l-2.7-4.1
		l2.7-4.1L27.5,96.7L27.5,96.7z M28.4,95.3l-2.7-4.1l2.7-4.1l2.7,4.1L28.4,95.3L28.4,95.3z M34.6,96.7l-2.7,4.1l-2.7-4.1l2.7-4.1
		L34.6,96.7L34.6,96.7z M35.4,95.3l-2.7-4.1l2.7-4.1l2.7,4.1L35.4,95.3L35.4,95.3z M41.6,96.7l-2.7,4.1l-2.7-4.1l2.7-4.1L41.6,96.7
		L41.6,96.7z M42.5,95.3l-2.7-4.1l2.7-4.1l2.7,4.1L42.5,95.3L42.5,95.3z M48.7,96.7l-2.7,4.1l-2.7-4.1l2.7-4.1L48.7,96.7L48.7,96.7z
		 M49.5,95.3l-2.7-4.1l2.7-4.1l2.7,4.1L49.5,95.3L49.5,95.3z M55.7,96.7l-2.7,4.1l-2.7-4.1l2.7-4.1L55.7,96.7L55.7,96.7z M56.6,95.3
		l-2.7-4.1l2.7-4.1l2.7,4.1L56.6,95.3L56.6,95.3z M62.8,96.7l-2.7,4.1l-2.7-4.1l2.7-4.1L62.8,96.7L62.8,96.7z M63.6,95.3L61,91.3
		l2.7-4.1l2.7,4.1L63.6,95.3L63.6,95.3z M69.8,96.7l-2.7,4.1l-2.7-4.1l2.7-4.1L69.8,96.7L69.8,96.7z M70.7,95.3L68,91.3l2.7-4.1
		l2.7,4.1L70.7,95.3L70.7,95.3z M76.9,96.7l-2.7,4.1l-2.7-4.1l2.7-4.1L76.9,96.7L76.9,96.7z M77.7,95.3l-2.7-4.1l2.7-4.1l2.7,4.1
		L77.7,95.3L77.7,95.3z M78.6,96.7l2.7-4.1l2.7,4.1l-2.7,4.1L78.6,96.7L78.6,96.7z M78.6,107.5l2.7-4.1l2.7,4.1l-2.7,4.1L78.6,107.5
		L78.6,107.5z M78.6,118.3l2.7-4.1l2.7,4.1l-2.7,4.1L78.6,118.3L78.6,118.3z M78.6,129.1l2.7-4.1l2.7,4.1l-2.7,4.1L78.6,129.1
		L78.6,129.1z M78.6,139.9l2.7-4.1l2.7,4.1l-2.7,4.1L78.6,139.9L78.6,139.9z M78.6,150.7l2.7-4.1l2.7,4.1l-2.7,4.1L78.6,150.7
		L78.6,150.7z M78.6,161.5l2.7-4.1l2.7,4.1l-2.7,4.1L78.6,161.5L78.6,161.5z M77.7,162.8l2.7,4.1l-2.7,4.1l-2.7-4.1L77.7,162.8
		L77.7,162.8z M71.5,161.5l2.7-4.1l2.7,4.1l-2.7,4.1L71.5,161.5L71.5,161.5z M70.7,162.8l2.7,4.1l-2.7,4.1l-2.7-4.1L70.7,162.8
		L70.7,162.8z M64.5,161.5l2.7-4.1l2.7,4.1l-2.7,4.1L64.5,161.5L64.5,161.5z M63.6,162.8l2.7,4.1l-2.7,4.1l-2.7-4.1L63.6,162.8
		L63.6,162.8z M57.4,161.5l2.7-4.1l2.7,4.1l-2.7,4.1L57.4,161.5L57.4,161.5z M56.6,162.8l2.7,4.1l-2.7,4.1l-2.7-4.1L56.6,162.8
		L56.6,162.8z M50.4,161.5l2.7-4.1l2.7,4.1l-2.7,4.1L50.4,161.5L50.4,161.5z M49.5,162.8l2.7,4.1l-2.7,4.1l-2.7-4.1L49.5,162.8
		L49.5,162.8z M43.3,161.5l2.7-4.1l2.7,4.1l-2.7,4.1L43.3,161.5L43.3,161.5z M42.5,162.8l2.7,4.1l-2.7,4.1l-2.7-4.1L42.5,162.8
		L42.5,162.8z M36.3,161.5l2.7-4.1l2.7,4.1l-2.7,4.1L36.3,161.5L36.3,161.5z M35.4,162.8l2.7,4.1l-2.7,4.1l-2.7-4.1L35.4,162.8
		L35.4,162.8z M29.3,161.5l2.7-4.1l2.7,4.1l-2.7,4.1L29.3,161.5L29.3,161.5z M28.4,162.8l2.7,4.1l-2.7,4.1l-2.7-4.1L28.4,162.8
		L28.4,162.8z M22.2,161.5l2.7-4.1l2.7,4.1l-2.7,4.1L22.2,161.5L22.2,161.5z M27.5,107.5l-2.7,4.1l-2.7-4.1l2.7-4.1L27.5,107.5
		L27.5,107.5z M28.4,106.1l-2.7-4.1l2.7-4.1l2.7,4.1L28.4,106.1L28.4,106.1z M34.6,107.5l-2.7,4.1l-2.7-4.1l2.7-4.1L34.6,107.5
		L34.6,107.5z M35.4,106.1l-2.7-4.1l2.7-4.1l2.7,4.1L35.4,106.1L35.4,106.1z M41.6,107.5l-2.7,4.1l-2.7-4.1l2.7-4.1L41.6,107.5
		L41.6,107.5z M42.5,106.1l-2.7-4.1l2.7-4.1l2.7,4.1L42.5,106.1L42.5,106.1z M48.7,107.5l-2.7,4.1l-2.7-4.1l2.7-4.1L48.7,107.5
		L48.7,107.5z M49.5,106.1l-2.7-4.1l2.7-4.1l2.7,4.1L49.5,106.1L49.5,106.1z M55.7,107.5l-2.7,4.1l-2.7-4.1l2.7-4.1L55.7,107.5
		L55.7,107.5z M56.6,106.1l-2.7-4.1l2.7-4.1l2.7,4.1L56.6,106.1L56.6,106.1z M62.8,107.5l-2.7,4.1l-2.7-4.1l2.7-4.1L62.8,107.5
		L62.8,107.5z M63.6,106.1l-2.7-4.1l2.7-4.1l2.7,4.1L63.6,106.1L63.6,106.1z M69.8,107.5l-2.7,4.1l-2.7-4.1l2.7-4.1L69.8,107.5
		L69.8,107.5z M70.7,106.1l-2.7-4.1l2.7-4.1l2.7,4.1L70.7,106.1L70.7,106.1z M76.9,107.5l-2.7,4.1l-2.7-4.1l2.7-4.1L76.9,107.5
		L76.9,107.5z M75.1,102.1l2.7-4.1l2.7,4.1l-2.7,4.1L75.1,102.1L75.1,102.1z M75.1,112.9l2.7-4.1l2.7,4.1l-2.7,4.1L75.1,112.9
		L75.1,112.9z M75.1,123.7l2.7-4.1l2.7,4.1l-2.7,4.1L75.1,123.7L75.1,123.7z M75.1,134.5l2.7-4.1l2.7,4.1l-2.7,4.1L75.1,134.5
		L75.1,134.5z M75.1,145.3l2.7-4.1l2.7,4.1l-2.7,4.1L75.1,145.3L75.1,145.3z M77.7,152l2.7,4.1l-2.7,4.1l-2.7-4.1L77.7,152L77.7,152
		z M71.5,150.7l2.7-4.1l2.7,4.1l-2.7,4.1L71.5,150.7L71.5,150.7z M70.7,152l2.7,4.1l-2.7,4.1l-2.7-4.1L70.7,152L70.7,152z
		 M64.5,150.7l2.7-4.1l2.7,4.1l-2.7,4.1L64.5,150.7L64.5,150.7z M63.6,152l2.7,4.1l-2.7,4.1l-2.7-4.1L63.6,152L63.6,152z
		 M57.4,150.7l2.7-4.1l2.7,4.1l-2.7,4.1L57.4,150.7L57.4,150.7z M56.6,152l2.7,4.1l-2.7,4.1l-2.7-4.1L56.6,152L56.6,152z
		 M50.4,150.7l2.7-4.1l2.7,4.1l-2.7,4.1L50.4,150.7L50.4,150.7z M49.5,152l2.7,4.1l-2.7,4.1l-2.7-4.1L49.5,152L49.5,152z
		 M43.3,150.7l2.7-4.1l2.7,4.1l-2.7,4.1L43.3,150.7L43.3,150.7z M42.5,152l2.7,4.1l-2.7,4.1l-2.7-4.1L42.5,152L42.5,152z
		 M36.3,150.7l2.7-4.1l2.7,4.1l-2.7,4.1L36.3,150.7L36.3,150.7z M35.4,152l2.7,4.1l-2.7,4.1l-2.7-4.1L35.4,152L35.4,152z
		 M29.3,150.7l2.7-4.1l2.7,4.1l-2.7,4.1L29.3,150.7L29.3,150.7z M28.4,152l2.7,4.1l-2.7,4.1l-2.7-4.1L28.4,152L28.4,152z
		 M22.2,150.7l2.7-4.1l2.7,4.1l-2.7,4.1L22.2,150.7L22.2,150.7z M27.5,118.3l-2.7,4.1l-2.7-4.1l2.7-4.1L27.5,118.3L27.5,118.3z
		 M28.4,116.9l-2.7-4.1l2.7-4.1l2.7,4.1L28.4,116.9L28.4,116.9z M34.6,118.3l-2.7,4.1l-2.7-4.1l2.7-4.1L34.6,118.3L34.6,118.3z
		 M35.4,116.9l-2.7-4.1l2.7-4.1l2.7,4.1L35.4,116.9L35.4,116.9z M41.6,118.3l-2.7,4.1l-2.7-4.1l2.7-4.1L41.6,118.3L41.6,118.3z
		 M42.5,116.9l-2.7-4.1l2.7-4.1l2.7,4.1L42.5,116.9L42.5,116.9z M48.7,118.3l-2.7,4.1l-2.7-4.1l2.7-4.1L48.7,118.3L48.7,118.3z
		 M49.5,116.9l-2.7-4.1l2.7-4.1l2.7,4.1L49.5,116.9L49.5,116.9z M55.7,118.3l-2.7,4.1l-2.7-4.1l2.7-4.1L55.7,118.3L55.7,118.3z
		 M56.6,116.9l-2.7-4.1l2.7-4.1l2.7,4.1L56.6,116.9L56.6,116.9z M62.8,118.3l-2.7,4.1l-2.7-4.1l2.7-4.1L62.8,118.3L62.8,118.3z
		 M63.6,116.9l-2.7-4.1l2.7-4.1l2.7,4.1L63.6,116.9L63.6,116.9z M69.8,118.3l-2.7,4.1l-2.7-4.1l2.7-4.1L69.8,118.3L69.8,118.3z
		 M70.7,116.9l-2.7-4.1l2.7-4.1l2.7,4.1L70.7,116.9L70.7,116.9z M71.5,118.3l2.7-4.1l2.7,4.1l-2.7,4.1L71.5,118.3L71.5,118.3z
		 M71.5,129.1l2.7-4.1l2.7,4.1l-2.7,4.1L71.5,129.1L71.5,129.1z M71.5,139.9l2.7-4.1l2.7,4.1l-2.7,4.1L71.5,139.9L71.5,139.9z
		 M70.7,141.2l2.7,4.1l-2.7,4.1l-2.7-4.1L70.7,141.2L70.7,141.2z M64.5,139.9l2.7-4.1l2.7,4.1l-2.7,4.1L64.5,139.9L64.5,139.9z
		 M63.6,141.2l2.7,4.1l-2.7,4.1l-2.7-4.1L63.6,141.2L63.6,141.2z M57.4,139.9l2.7-4.1l2.7,4.1l-2.7,4.1L57.4,139.9L57.4,139.9z
		 M56.6,141.2l2.7,4.1l-2.7,4.1l-2.7-4.1L56.6,141.2L56.6,141.2z M50.4,139.9l2.7-4.1l2.7,4.1l-2.7,4.1L50.4,139.9L50.4,139.9z
		 M49.5,141.2l2.7,4.1l-2.7,4.1l-2.7-4.1L49.5,141.2L49.5,141.2z M43.3,139.9l2.7-4.1l2.7,4.1l-2.7,4.1L43.3,139.9L43.3,139.9z
		 M42.5,141.2l2.7,4.1l-2.7,4.1l-2.7-4.1L42.5,141.2L42.5,141.2z M36.3,139.9l2.7-4.1l2.7,4.1l-2.7,4.1L36.3,139.9L36.3,139.9z
		 M35.4,141.2l2.7,4.1l-2.7,4.1l-2.7-4.1L35.4,141.2L35.4,141.2z M29.3,139.9l2.7-4.1l2.7,4.1l-2.7,4.1L29.3,139.9L29.3,139.9z
		 M28.4,141.2l2.7,4.1l-2.7,4.1l-2.7-4.1L28.4,141.2L28.4,141.2z M22.2,139.9l2.7-4.1l2.7,4.1l-2.7,4.1L22.2,139.9L22.2,139.9z
		 M27.5,129.1l-2.7,4.1l-2.7-4.1l2.7-4.1L27.5,129.1L27.5,129.1z M28.4,127.7l-2.7-4.1l2.7-4.1l2.7,4.1L28.4,127.7L28.4,127.7z
		 M31,134.5l-2.7,4.1l-2.7-4.1l2.7-4.1L31,134.5L31,134.5z M34.6,129.1l-2.7,4.1l-2.7-4.1l2.7-4.1L34.6,129.1L34.6,129.1z
		 M35.4,127.7l-2.7-4.1l2.7-4.1l2.7,4.1L35.4,127.7L35.4,127.7z M38.1,134.5l-2.7,4.1l-2.7-4.1l2.7-4.1L38.1,134.5L38.1,134.5z
		 M41.6,129.1l-2.7,4.1l-2.7-4.1L39,125L41.6,129.1L41.6,129.1z M42.5,127.7l-2.7-4.1l2.7-4.1l2.7,4.1L42.5,127.7L42.5,127.7z
		 M45.2,134.5l-2.7,4.1l-2.7-4.1l2.7-4.1L45.2,134.5L45.2,134.5z M48.7,129.1l-2.7,4.1l-2.7-4.1L46,125L48.7,129.1L48.7,129.1z
		 M49.5,127.7l-2.7-4.1l2.7-4.1l2.7,4.1L49.5,127.7L49.5,127.7z M52.2,134.5l-2.7,4.1l-2.7-4.1l2.7-4.1L52.2,134.5L52.2,134.5z
		 M55.7,129.1l-2.7,4.1l-2.7-4.1l2.7-4.1L55.7,129.1L55.7,129.1z M56.6,127.7l-2.7-4.1l2.7-4.1l2.7,4.1L56.6,127.7L56.6,127.7z
		 M59.2,134.5l-2.7,4.1l-2.7-4.1l2.7-4.1L59.2,134.5L59.2,134.5z M62.8,129.1l-2.7,4.1l-2.7-4.1l2.7-4.1L62.8,129.1L62.8,129.1z
		 M63.6,127.7l-2.7-4.1l2.7-4.1l2.7,4.1L63.6,127.7L63.6,127.7z M66.3,134.5l-2.7,4.1l-2.7-4.1l2.7-4.1L66.3,134.5L66.3,134.5z
		 M69.8,129.1l-2.7,4.1l-2.7-4.1l2.7-4.1L69.8,129.1L69.8,129.1z M73.3,134.5l-2.7,4.1l-2.7-4.1l2.7-4.1L73.3,134.5L73.3,134.5z
		 M68,123.7l2.7-4.1l2.7,4.1l-2.7,4.1L68,123.7L68,123.7z"/>
</g>
</svg>
