<?xml version="1.0" encoding="UTF-8" standalone="no"?>
<svg
   id="Casino_Chips14"
   viewBox="0 0 161.36 164.54"
   version="1.1"
   sodipodi:docname="100.svg"
   inkscape:version="1.3 (0e150ed, 2023-07-21)"
   xmlns:inkscape="http://www.inkscape.org/namespaces/inkscape"
   xmlns:sodipodi="http://sodipodi.sourceforge.net/DTD/sodipodi-0.dtd"
   xmlns="http://www.w3.org/2000/svg"
   xmlns:svg="http://www.w3.org/2000/svg">
  <sodipodi:namedview
     id="namedview5"
     pagecolor="#ffffff"
     bordercolor="#000000"
     borderopacity="0.25"
     inkscape:showpageshadow="2"
     inkscape:pageopacity="0.0"
     inkscape:pagecheckerboard="0"
     inkscape:deskcolor="#d1d1d1"
     showgrid="false"
     inkscape:zoom="5.6568542"
     inkscape:cx="80.433397"
     inkscape:cy="82.289552"
     inkscape:window-width="1664"
     inkscape:window-height="1212"
     inkscape:window-x="0"
     inkscape:window-y="25"
     inkscape:window-maximized="0"
     inkscape:current-layer="Casino_Chips14" />
  <defs
     id="defs1">
    <style
       id="style1">.cls-1{fill:#fff;}</style>
  </defs>
  <circle
     class="cls-1"
     cx="82.14"
     cy="79.48"
     r="74.96"
     transform="translate(-32.14 81.36) rotate(-45)"
     id="circle1" />
  <path
     d="M155.58,64.37c-.99-4.81-2.45-9.55-4.37-14.07-1.88-4.44-4.2-8.73-6.91-12.73-2.68-3.97-5.76-7.7-9.15-11.09-3.39-3.39-7.12-6.47-11.09-9.15-4.01-2.71-8.29-5.03-12.73-6.91-4.52-1.91-9.26-3.38-14.07-4.37-4.94-1.01-10.02-1.52-15.11-1.52s-10.17,.51-15.11,1.52c-4.81,.99-9.55,2.45-14.07,4.37-4.44,1.88-8.73,4.2-12.73,6.91-3.97,2.68-7.7,5.76-11.09,9.15s-6.47,7.12-9.15,11.09c-2.71,4.01-5.03,8.29-6.91,12.73-1.91,4.52-3.38,9.26-4.37,14.07-1.01,4.94-1.52,10.02-1.52,15.11s.51,10.17,1.52,15.11c.99,4.81,2.45,9.55,4.37,14.07,1.88,4.44,4.2,8.73,6.91,12.73,2.68,3.97,5.76,7.7,9.15,11.09s7.12,6.47,11.09,9.15c4.01,2.71,8.29,5.03,12.73,6.91,4.52,1.91,9.26,3.38,14.07,4.37,4.94,1.01,10.02,1.52,15.11,1.52s10.17-.51,15.11-1.52c4.81-.99,9.55-2.45,14.07-4.37,4.44-1.88,8.73-4.2,12.73-6.91,3.97-2.68,7.7-5.76,11.09-9.15,3.39-3.39,6.47-7.12,9.15-11.09,2.71-4.01,5.03-8.29,6.91-12.73,1.91-4.52,3.38-9.26,4.37-14.07,1.01-4.94,1.52-10.02,1.52-15.11s-.51-10.17-1.52-15.11ZM19.59,112.45l19.71-9.58c3.66,6.69,8.85,12.43,15.09,16.75l-11.38,18.74c-9.8-6.53-17.89-15.45-23.42-25.91ZM82.14,8.76c.92,0,1.84,.02,2.76,.05l-1.56,21.88c-.4,0-.79-.01-1.19-.01-7.71,0-14.99,1.79-21.47,4.97l-10.54-19.22c9.62-4.9,20.5-7.67,32.01-7.67Zm0,115.99c-25,0-45.27-20.27-45.27-45.27s20.27-45.27,45.27-45.27,45.27,20.27,45.27,45.27-20.27,45.27-45.27,45.27ZM125.34,56.74c-3.68-6.98-9.01-12.96-15.46-17.43l11.37-18.74c10.02,6.67,18.25,15.83,23.79,26.59l-19.7,9.57ZM22.14,42.09l18.15,12.28c-3.87,6.44-6.3,13.85-6.83,21.77l-21.93-.48c.66-12.28,4.46-23.73,10.61-33.57Zm56.58,108.03l1.56-21.87c.62,.02,1.24,.04,1.87,.04,7.26,0,14.15-1.59,20.34-4.43l10.55,19.24c-9.34,4.55-19.82,7.11-30.89,7.11-1.15,0-2.29-.03-3.43-.08Zm44.53-44.31c4.1-6.39,6.75-13.8,7.49-21.77l21.95,.48c-.87,12.32-4.91,23.77-11.31,33.55l-18.13-12.27Z"
     id="path1" />
  <path
     d="M82.14,36.06c-24.01,0-43.55,19.53-43.55,43.55s19.53,43.55,43.55,43.55,43.55-19.53,43.55-43.55-19.53-43.55-43.55-43.55Zm0,83.75c-22.17,0-40.2-18.03-40.2-40.2s18.03-40.2,40.2-40.2,40.2,18.03,40.2,40.2-18.03,40.2-40.2,40.2Z"
     id="path2" />
  <g
     id="g5">
    <path
       d="M52.08,67.17c-1.8,.89-3.69,1.63-5.67,2.2l1.82,5.38c1.16-.35,2.24-.73,3.24-1.13,1-.4,1.9-.88,2.69-1.42v24.24h6.68v-32.21h-4.02c-1.36,1.07-2.94,2.05-4.75,2.94Z"
       id="path3" />
    <path
       d="M78.99,64.4c-3.52,0-6.23,1.44-8.13,4.31s-2.86,7.04-2.86,12.5,.88,9.17,2.64,11.81c1.76,2.64,4.53,3.97,8.31,3.97s6.38-1.42,8.21-4.26c1.82-2.84,2.74-6.92,2.74-12.24s-.83-9.4-2.48-12.07c-1.66-2.67-4.46-4.01-8.42-4.01Zm3.19,24.63c-.59,1.85-1.66,2.77-3.21,2.77-1.44,0-2.48-.9-3.13-2.69-.65-1.79-.98-4.49-.98-8.07,0-3.84,.31-6.71,.94-8.61s1.68-2.86,3.14-2.86c1.54,0,2.61,.93,3.21,2.78s.9,4.63,.9,8.34-.29,6.5-.88,8.35Z"
       id="path4" />
    <path
       d="M113.62,68.41c-1.66-2.67-4.46-4.01-8.42-4.01-3.52,0-6.23,1.44-8.13,4.31s-2.86,7.04-2.86,12.5,.88,9.17,2.64,11.81c1.76,2.64,4.53,3.97,8.31,3.97s6.38-1.42,8.21-4.26c1.82-2.84,2.74-6.92,2.74-12.24s-.83-9.4-2.48-12.07Zm-5.23,20.62c-.59,1.85-1.66,2.77-3.21,2.77-1.44,0-2.48-.9-3.13-2.69-.65-1.79-.98-4.49-.98-8.07,0-3.84,.31-6.71,.94-8.61s1.68-2.86,3.14-2.86c1.54,0,2.61,.93,3.21,2.78s.9,4.63,.9,8.34-.29,6.5-.88,8.35Z"
       id="path5" />
  </g>
  <path
     style="fill:#c197ff;fill-opacity:1;stroke:#f1c197;stroke-width:0.176777;stroke-opacity:1"
     d="M 78.046911,154.22691 C 51.178741,152.82208 26.739819,136.63498 14.942825,112.42998 10.645569,103.61289 8.2873122,94.937044 7.4997045,85.047295 7.2323845,81.690639 7.3802427,74.017702 7.7742689,70.799067 10.043618,52.261709 18.748378,35.629599 32.568154,23.425604 44.29774,13.067418 58.324605,6.8665096 74.246212,5.0008306 c 3.107559,-0.3641409 13.524763,-0.3036178 16.61701,0.096544 12.413858,1.6064516 22.834518,5.4716594 32.968858,12.2287284 4.13825,2.759184 7.11824,5.236098 11.14893,9.266785 6.36582,6.36582 10.53504,12.159175 14.38698,19.99149 12.99538,26.424039 9.18538,58.170832 -9.69497,80.783232 -10.07426,12.06563 -23.61237,20.66067 -38.70364,24.57206 -4.920741,1.27536 -9.682338,2.00096 -15.055906,2.29429 -3.490891,0.19056 -4.097491,0.19002 -7.866563,-0.007 z m 7.866563,-4.05328 c 9.154337,-0.5622 16.895556,-2.43307 25.234876,-6.0987 1.04519,-0.45942 1.90035,-0.90603 1.90035,-0.99245 0,-0.1622 -10.20346,-18.87026 -10.43473,-19.1321 -0.0713,-0.0808 -1.23301,0.29417 -2.58147,0.8332 -5.471621,2.1872 -12.250456,3.46416 -18.405861,3.46719 -0.969574,4.8e-4 -1.458408,0.068 -1.458408,0.20135 0,0.29416 -1.393456,20.08551 -1.475712,20.95962 l -0.06988,0.74255 0.816988,0.0653 c 1.706201,0.13634 3.740818,0.1219 6.473842,-0.0459 z M 48.68281,129.19118 c 3.052111,-5.02493 5.580561,-9.26086 5.618775,-9.41318 0.0463,-0.18455 -0.566621,-0.75773 -1.836986,-1.7179 -4.513563,-3.41146 -8.703864,-8.05391 -11.783291,-13.05474 -0.538837,-0.87505 -1.082568,-1.73302 -1.208293,-1.9066 -0.211508,-0.29202 -0.959912,0.0409 -10.016596,4.45525 -5.383403,2.62396 -9.825924,4.80876 -9.872267,4.8551 -0.144636,0.14464 1.883341,3.61456 3.719995,6.365 3.9696,5.9446 8.679758,11.10022 14.437677,15.8031 1.775689,1.45033 4.963137,3.73992 5.214913,3.74596 0.09723,0.002 2.67396,-4.10707 5.726073,-9.13199 z m 36.435169,-4.48019 c 11.3951,-0.8637 21.171621,-5.30034 29.057971,-13.18669 16.45803,-16.458034 17.81655,-42.458603 3.16698,-60.612612 -1.64137,-2.034021 -4.97586,-5.342867 -7.03427,-6.980174 -4.70873,-3.745439 -10.885384,-6.835886 -16.597939,-8.304671 -4.341872,-1.116362 -6.112752,-1.322176 -11.421169,-1.327389 -5.11691,-0.005 -6.237587,0.09754 -9.881363,0.904356 -8.641068,1.913333 -15.990368,5.954252 -22.294423,12.258306 -3.828147,3.828147 -6.386931,7.402075 -8.740586,12.208221 -3.04066,6.209008 -4.515239,12.702486 -4.515239,19.883371 0,12.474924 4.821759,23.831412 13.811206,32.528942 8.379567,8.10746 18.991547,12.47105 31.090075,12.78407 0.534749,0.0138 2.04619,-0.0562 3.358757,-0.15573 z m 57.217501,-7.99447 c 3.37882,-5.38958 6.29294,-12.03819 8.01234,-18.280289 1.17011,-4.247967 1.74502,-7.446084 2.38621,-13.274058 l 0.0827,-0.751301 -1.80858,-0.01607 c -0.99472,-0.0088 -5.94515,-0.10954 -11.00097,-0.223777 -5.08603,-0.114917 -9.24093,-0.140095 -9.30107,-0.05636 -0.0598,0.08324 -0.16142,0.720895 -0.22589,1.417019 -0.27071,2.923008 -1.59188,8.217183 -2.85513,11.441056 -0.88244,2.252012 -2.5062,5.59092 -3.58747,7.37688 l -0.88731,1.46558 1.26898,0.87686 c 2.92341,2.02008 16.8325,11.44804 16.91372,11.46458 0.0486,0.01 0.49974,-0.63815 1.00251,-1.44011 z M 33.499184,76.233866 c 0,-0.0249 0.12053,-1.075661 0.267847,-2.335022 0.72492,-6.197161 2.697955,-12.438729 5.585655,-17.669856 0.807635,-1.463044 1.009178,-1.96293 0.832276,-2.06428 -0.128386,-0.07355 -4.242786,-2.845463 -9.143112,-6.159798 -4.900324,-3.314335 -8.930831,-6.004911 -8.956681,-5.97906 -0.206338,0.206357 -2.236675,3.801281 -3.071659,5.438693 -2.943347,5.771934 -5.406946,13.077019 -6.528056,19.357048 -0.324702,1.818857 -0.759569,5.285167 -0.981356,7.822369 l -0.09658,1.104854 1.632474,0.01711 c 1.559119,0.01633 18.414274,0.430469 19.796279,0.486397 0.364602,0.01476 0.662913,0.0065 0.662913,-0.01845 z M 135.49879,51.899916 c 5.20135,-2.534868 9.48283,-4.686325 9.51439,-4.781018 0.0316,-0.09469 -0.59386,-1.308564 -1.38983,-2.697495 -4.30593,-7.513604 -10.0753,-14.349746 -16.63222,-19.707558 -1.90265,-1.554696 -5.45492,-4.12048 -5.69348,-4.112374 -0.22267,0.0076 -11.34255,18.277413 -11.34255,18.635676 0,0.119497 0.83527,0.841911 1.85616,1.605365 2.52083,1.885168 7.1374,6.534443 9.12068,9.185293 1.56599,2.093114 3.19359,4.594948 3.93594,6.050069 0.33544,0.657526 0.42783,0.727477 0.7773,0.588555 0.21813,-0.08671 4.65226,-2.231645 9.85361,-4.766513 z M 62.866156,34.761274 c 6.024993,-2.57441 12.210716,-3.908614 18.138397,-3.912291 2.282967,-0.0014 2.340877,-0.01097 2.420582,-0.399197 0.07286,-0.354909 1.529129,-20.9348095 1.519843,-21.4783687 -0.0029,-0.1688518 -0.785562,-0.2205406 -3.318339,-0.2191471 -8.332633,0.00459 -16.103436,1.4210098 -24.262601,4.4224698 -2.132405,0.784434 -6.832674,2.867999 -7.121568,3.156893 -0.106789,0.106789 1.724595,3.620532 5.001538,9.596094 2.843508,5.185187 5.20441,9.487274 5.246446,9.560195 0.124951,0.216751 0.275844,0.170596 2.375702,-0.726648 z"
     id="path6" />
  <path
     style="fill:#c1977e;fill-opacity:1;stroke:#f1c197;stroke-width:0.176777;stroke-opacity:1"
     d="m 124.87089,55.728853 c -0.639,-1.254835 -2.36204,-3.913408 -3.60298,-5.559222 -2.73419,-3.626275 -5.86162,-6.77969 -9.46591,-9.544587 -0.86313,-0.662112 -1.57211,-1.314348 -1.57553,-1.44941 -0.003,-0.135063 1.63817,-2.95907 3.64796,-6.275572 3.78088,-6.239125 7.29999,-11.991622 7.40583,-12.105931 0.0747,-0.08069 1.95749,1.240523 3.96603,2.78312 4.69364,3.604815 9.6754,8.650286 13.37764,13.548736 2.45317,3.245792 6.40529,9.72093 6.11028,10.011063 -0.21138,0.207889 -19.06481,9.343104 -19.28248,9.343104 -0.10904,0 -0.37042,-0.338085 -0.58084,-0.751301 z"
     id="path7" />
  <path
     style="fill:#2e3137;fill-opacity:1;stroke:#f1c197;stroke-width:0.176777;stroke-opacity:1"
     d="m 132.28068,111.84046 c -4.83292,-3.27317 -8.79051,-6.00431 -8.79464,-6.06919 -0.004,-0.0649 0.35326,-0.72821 0.79421,-1.47405 3.27202,-5.534386 5.80598,-13.008866 6.3672,-18.781494 l 0.1246,-1.281631 3.11494,-1.86e-4 c 2.89569,-1.74e-4 18.63151,0.351584 18.70367,0.418101 0.0178,0.01641 -0.0852,1.062673 -0.22884,2.325029 -0.95572,8.397823 -3.10781,15.883281 -6.70791,23.331621 -1.65551,3.4251 -4.06474,7.52079 -4.40933,7.49583 -0.0972,-0.007 -4.13098,-2.69086 -8.9639,-5.96403 z"
     id="path8" />
  <path
     style="fill:#2e3137;fill-opacity:1;stroke:#f1c197;stroke-width:0.176777;stroke-opacity:1"
     d="m 79.346684,150.04528 c -0.527278,-0.0663 -0.552534,-0.10411 -0.482822,-0.72301 0.04046,-0.35919 0.349444,-4.67032 0.686635,-9.58029 0.337192,-4.90997 0.661972,-9.46418 0.721735,-10.12047 l 0.108659,-1.19324 1.263689,-0.002 c 6.004607,-0.008 12.580551,-1.22076 18.155389,-3.34744 1.288141,-0.4914 2.437221,-0.89345 2.553521,-0.89345 0.15483,0 8.64405,15.22088 10.31904,18.5017 0.18111,0.35475 0.10983,0.42236 -0.99601,0.94464 -6.15529,2.90707 -13.794201,5.06152 -21.25524,5.99473 -3.3538,0.41949 -9.284323,0.64364 -11.074596,0.41858 z"
     id="path9" />
  <path
     style="fill:#2e3137;fill-opacity:1;stroke:#f1c197;stroke-width:0.176777;stroke-opacity:1"
     d="M 40.481863,136.44091 C 32.298011,130.37526 25.617404,122.89633 20.794217,114.4006 l -1.080705,-1.90359 4.727322,-2.30442 c 8.204601,-3.99947 14.083056,-6.81692 14.477436,-6.93881 0.325368,-0.10056 0.478117,0.0444 1.046905,0.99369 3.008213,5.02052 7.183569,9.80722 11.65362,13.35991 1.166726,0.92728 2.227477,1.78204 2.357222,1.89945 0.192511,0.17421 -0.640275,1.65648 -4.5277,8.0588 -5.355339,8.81987 -6.452797,10.58466 -6.579968,10.58106 -0.04861,-0.001 -1.122532,-0.76898 -2.386486,-1.70578 z"
     id="path10" />
  <path
     style="fill:#2e3137;fill-opacity:1;stroke:#f1c197;stroke-width:0.176777;stroke-opacity:1"
     d="m 22.804194,75.827144 c -4.861359,-0.120226 -9.376489,-0.22681 -10.033622,-0.236851 l -1.194787,-0.01826 0.100673,-1.016466 c 0.307208,-3.101785 0.678987,-6.014608 0.987131,-7.73398 1.11197,-6.204544 3.551768,-13.451381 6.427679,-19.091883 1.763633,-3.459 2.960785,-5.412879 3.248786,-5.302363 0.205571,0.07888 17.415931,11.629701 17.692256,11.874243 0.04443,0.03932 -0.450162,1.085963 -1.099088,2.32588 -2.68781,5.13566 -4.468454,10.684719 -5.171527,16.116142 -0.488214,3.771588 -0.330328,3.363012 -1.286987,3.330443 -0.457424,-0.01557 -4.809155,-0.126683 -9.670514,-0.246909 z"
     id="path11" />
  <path
     style="fill:#2e3137;fill-opacity:1;stroke:#f1c197;stroke-width:0.176777;stroke-opacity:1"
     d="M 57.098873,28.960502 C 53.004747,21.465798 50.691724,17.1263 50.545526,16.665671 c -0.08485,-0.267329 0.170634,-0.450657 1.457466,-1.045854 5.662729,-2.619174 11.468841,-4.497251 17.14344,-5.545312 4.050764,-0.7481485 6.542856,-0.9929564 11.170939,-1.0973643 l 4.48017,-0.1010709 -0.125952,1.9259262 c -0.06927,1.059259 -0.414808,5.943176 -0.767857,10.853149 l -0.641908,8.927223 -3.093593,0.114686 c -6.306307,0.233787 -11.863231,1.49913 -17.663959,4.022182 -0.916118,0.398471 -1.711613,0.721999 -1.767767,0.718953 -0.05615,-0.003 -1.693089,-2.918005 -3.637632,-6.477687 z"
     id="path12" />
  <path
     style="fill:#c1977e;fill-opacity:1;stroke:#f1c197;stroke-width:0.176777"
     d="m 60.124747,34.058509 c -2.026651,-3.489054 -9.389835,-17.189243 -9.389835,-17.471044 0,-0.17675 2.342919,-1.298817 5.080831,-2.433305 1.890365,-0.783295 6.193201,-2.200187 8.606963,-2.834209 5.354023,-1.4063387 9.654736,-1.9873894 15.966997,-2.1572318 l 4.287334,-0.1153582 -0.09239,0.7796204 c -0.05082,0.4287916 -0.369867,4.8366456 -0.709004,9.7952316 -0.339139,4.958587 -0.663413,9.421123 -0.720609,9.916751 l -0.103994,0.901138 -2.804582,0.115617 c -6.353298,0.261913 -11.0472,1.272641 -16.842074,3.626573 l -2.59536,1.054259 z"
     id="path13" />
  <path
     style="fill:#c1977e;fill-opacity:1;stroke:#f1c197;stroke-width:0.176777"
     d="m 28.284271,75.805606 c -0.729203,-0.02736 -4.700563,-0.131386 -8.825244,-0.231182 -4.124681,-0.09979 -7.542255,-0.224282 -7.59461,-0.276636 -0.129538,-0.129538 0.454923,-5.333365 0.89243,-7.945867 1.008359,-6.021256 3.458268,-13.426707 6.373191,-19.26454 1.444697,-2.893354 2.914661,-5.395809 3.169544,-5.395809 0.137315,0 17.13383,11.289145 17.459383,11.596584 0.03993,0.03771 -0.567962,1.401488 -1.350865,3.030627 -2.775995,5.776547 -4.056941,10.004794 -4.913355,16.218403 -0.160663,1.165671 -0.329522,2.179927 -0.375242,2.253903 -0.07781,0.125893 -1.733677,0.130864 -4.835232,0.01452 z"
     id="path14" />
  <path
     style="fill:#c1977e;fill-opacity:1;stroke:#f1c197;stroke-width:0.176777"
     d="m 40.832705,136.47731 c -7.080648,-5.29529 -12.660133,-11.07912 -17.145843,-17.77382 -1.786017,-2.66554 -3.742548,-6.05295 -3.576959,-6.19292 0.136935,-0.11574 13.522058,-6.61129 16.963307,-8.23197 l 1.983036,-0.93392 0.373473,0.47678 c 0.205409,0.26224 0.917317,1.30506 1.582017,2.3174 2.752036,4.19134 6.936443,8.77435 10.828112,11.85959 1.042448,0.82643 1.896464,1.6301 1.897814,1.78595 0.0028,0.32424 -9.341588,15.95973 -10.686183,17.88064 -0.19677,0.2811 -0.40061,0.17199 -2.218774,-1.18773 z"
     id="path15" />
  <path
     style="fill:#c1977e;fill-opacity:1;stroke:#f1c197;stroke-width:0.176777"
     d="m 79.392812,149.86711 c -0.403487,-0.0763 -0.417659,-0.12724 -0.325275,-1.16917 0.05313,-0.59917 0.397169,-5.35335 0.764539,-10.56484 l 0.667947,-9.47545 2.662532,-0.11178 c 5.79932,-0.24347 11.315427,-1.33838 16.670923,-3.30905 1.306962,-0.48093 2.400512,-0.87441 2.430102,-0.87441 0.0754,0 2.74372,4.70252 5.86793,10.34143 4.34858,7.84879 4.50359,8.15337 4.25452,8.35947 -0.3225,0.26686 -3.0785,1.4559 -5.54875,2.39393 -4.31545,1.63871 -10.848301,3.25492 -15.797281,3.90821 -3.737772,0.49341 -10.215352,0.7724 -11.647187,0.50166 z"
     id="path16" />
  <path
     style="fill:#c1977e;fill-opacity:1;stroke:#f1c197;stroke-width:0.176777"
     d="m 138.50454,115.83175 c -4.46398,-2.98098 -14.30427,-9.70204 -14.56212,-9.94614 -0.20471,-0.19381 -0.0987,-0.48269 0.66956,-1.82527 2.72886,-4.76861 4.9836,-11.008982 5.82893,-16.132578 0.19883,-1.205085 0.38417,-2.469487 0.41187,-2.809782 l 0.0504,-0.618719 2.2981,-0.05692 c 2.55047,-0.06317 19.03574,0.295401 19.15702,0.416686 0.0422,0.0422 -0.097,1.45019 -0.30932,3.128855 -1.06329,8.406078 -3.2761,15.680708 -7.07494,23.258918 -1.20394,2.40172 -3.22472,5.87914 -3.58436,6.16811 -0.17628,0.14164 -0.88275,-0.24603 -2.8851,-1.58316 z"
     id="path17" />
  <path
     style="fill:#2e3137;fill-opacity:1;stroke:#f1c197;stroke-width:0.176777"
     d="m 78.842407,154.12301 c -2.707889,-0.18005 -5.808718,-0.47375 -7.336233,-0.69486 C 57.337177,151.37714 43.751842,145.11412 33.003888,135.67808 25.51099,129.09979 19.651825,121.49508 15.228231,112.60676 11.510809,105.13735 9.3298588,97.952447 8.0109728,88.83029 7.5476071,85.625392 7.546623,73.140962 8.0094887,70.003572 9.8179615,57.745409 13.618963,47.649593 20.089246,37.918601 25.814008,29.308837 33.859207,21.546841 42.843047,15.965765 53.223118,9.5173004 65.568169,5.5960893 77.383858,4.9944195 81.882902,4.7653225 89.522399,5.0097182 92.542601,5.4793639 104.38965,7.321597 114.10322,11.05258 123.74369,17.463699 c 4.21279,2.8016 6.70428,4.880601 11.05701,9.226444 6.52468,6.514363 10.47733,11.984465 14.30886,19.802128 3.85885,7.873419 5.98092,14.912375 7.16803,23.776466 0.4744,3.542363 0.65353,10.829887 0.36065,14.672466 -2.39283,31.394167 -23.80733,57.701807 -54.0396,66.387467 -7.272531,2.08938 -17.054219,3.23996 -23.756233,2.79434 z m 9.104,-3.96686 c 4.966675,-0.41417 10.519408,-1.46598 14.801483,-2.80373 4.71164,-1.47196 10.3892,-3.80956 10.3892,-4.27752 0,-0.2511 -9.78765,-18.27227 -10.27475,-18.91803 l -0.30576,-0.40536 -1.1179,0.38012 c -0.61485,0.20906 -2.00541,0.70036 -3.090139,1.09176 -4.351102,1.57001 -9.918268,2.6118 -14.942469,2.79619 -1.62214,0.0595 -3.045007,0.16736 -3.161925,0.23962 -0.11692,0.0723 -0.244069,0.51773 -0.282555,0.98992 -0.0743,0.9116 -1.472739,20.84808 -1.472739,20.9957 0,0.28386 5.622261,0.23115 9.457554,-0.0887 z M 45.477746,134.66469 c 2.329912,-3.75672 7.658909,-12.54417 8.416268,-13.87831 0.374074,-0.65896 0.524638,-1.10261 0.430989,-1.26996 -0.07916,-0.14145 -1.018756,-0.95108 -2.087982,-1.79918 -2.493839,-1.97806 -6.687419,-6.19845 -8.422086,-8.47591 -0.743332,-0.97593 -2.033224,-2.8207 -2.866427,-4.09948 -1.483482,-2.27683 -1.525429,-2.32206 -2.021655,-2.17974 -1.233893,0.35387 -19.483105,9.25254 -19.47893,9.4983 0.0082,0.48249 2.769731,5.02442 4.901764,8.06199 4.175247,5.94859 10.430828,12.23619 16.480457,16.5648 l 2.027658,1.45082 0.390203,-0.45363 c 0.214611,-0.2495 1.217995,-1.78837 2.229741,-3.4197 z m 39.109903,-9.77882 c 10.049047,-0.73983 18.864591,-4.13321 26.181511,-10.07808 1.79843,-1.46121 5.18119,-4.83475 6.5499,-6.53206 11.40738,-14.146123 13.51151,-33.074437 5.46105,-49.126581 -2.56854,-5.121539 -5.51588,-8.985166 -10.24434,-13.429182 -4.99007,-4.689891 -11.94566,-8.438757 -19.028433,-10.255788 -4.430608,-1.136639 -4.753254,-1.1695 -11.48295,-1.1695 h -6.098796 l -2.740039,0.59137 c -9.493278,2.048889 -17.155819,6.272516 -23.72302,13.076234 -6.587043,6.824273 -10.571494,14.707142 -12.174643,24.086404 -0.478121,2.79726 -0.660247,9.05061 -0.352983,12.119733 1.352853,13.513025 8.635634,25.52077 20.172021,33.25935 5.857669,3.9293 13.091336,6.50973 20.409655,7.28064 1.587051,0.16717 2.301668,0.22491 4.065864,0.32852 0.291681,0.0171 1.644023,-0.0508 3.005203,-0.15106 z m 58.495651,-9.16341 c 4.3488,-7.24414 7.54249,-15.931392 8.944,-24.328908 0.51088,-3.061038 0.98648,-6.945219 0.86391,-7.055384 -0.12934,-0.116238 -21.68666,-0.492952 -22.02703,-0.384922 -0.28996,0.09203 -0.38862,0.438927 -0.64561,2.270056 -0.89946,6.408711 -3.40175,13.353102 -6.79963,18.870448 -0.20957,0.34029 -0.38134,0.66717 -0.3817,0.72639 -5.5e-4,0.0891 8.7091,6.05293 16.43957,11.2568 2.18131,1.46837 1.83344,1.59902 3.60649,-1.35448 z M 33.58025,76.058174 c 0.08903,-0.218761 0.251603,-1.193243 0.361268,-2.165515 0.643945,-5.709023 2.366821,-11.369441 5.073323,-16.668126 0.709635,-1.389295 1.290246,-2.667138 1.290246,-2.839649 0,-0.216555 -2.632914,-2.08879 -8.50481,-6.047677 -4.677646,-3.153713 -8.787504,-5.881835 -9.133019,-6.062494 -0.625414,-0.327008 -0.629538,-0.326706 -0.92712,0.06781 -0.164402,0.217952 -0.941427,1.559006 -1.726723,2.98012 -3.916874,7.088188 -6.877892,15.83103 -7.993676,23.602505 -0.386343,2.690893 -0.797633,6.793364 -0.690993,6.892405 0.04034,0.03747 4.567898,0.163117 10.061234,0.279218 5.493336,0.1161 10.067433,0.238126 10.16466,0.271167 0.09723,0.03304 0.556343,0.06635 1.020256,0.07403 0.715794,0.01184 0.867985,-0.04626 1.005354,-0.383791 z m 98.58521,-22.38282 c 9.12773,-4.414615 12.96821,-6.37317 12.96821,-6.613483 0,-0.386008 -2.15999,-4.096475 -3.9848,-6.845172 -4.8711,-7.33728 -11.46313,-14.079071 -18.51922,-18.939935 -0.93605,-0.644835 -1.29778,-0.807969 -1.47163,-0.663683 -0.37662,0.312568 -7.6666,12.154129 -10.26397,16.672398 -0.89644,1.559406 -1.06891,1.97913 -0.89789,2.185188 0.11642,0.140276 0.81109,0.73927 1.54371,1.331099 5.6038,4.526843 10.11647,9.783077 13.30045,15.491999 0.16563,0.296969 0.41223,0.539943 0.54801,0.539943 0.13578,0 3.18549,-1.42126 6.77713,-3.158354 z M 63.521181,34.662907 c 6.217871,-2.467541 11.777733,-3.638597 17.275093,-3.638597 1.508543,0 2.311776,-0.0709 2.503509,-0.220971 0.232304,-0.181829 0.363323,-1.332604 0.739648,-6.496543 C 84.852426,13.150907 85.102775,8.9414831 84.961658,8.8003278 84.54296,8.3815197 76.788663,8.631946 72.607141,9.1993189 66.64287,10.008585 60.673945,11.633504 55.022822,13.986293 c -3.496574,1.455763 -4.81824,2.130557 -4.81824,2.460017 0,0.146384 0.349183,0.960621 0.775963,1.809416 1.512024,3.007166 9.464882,17.541555 9.598306,17.541555 0.04612,0 1.370172,-0.510467 2.94233,-1.134374 z"
     id="path18" />
</svg>
