<?xml version="1.0" encoding="UTF-8"?><svg id="Casino_Chips16" xmlns="http://www.w3.org/2000/svg" viewBox="0 0 161.36 164.54"><defs><style>.cls-1{fill:#fff;}</style></defs><circle class="cls-1" cx="81.32" cy="80.91" r="74.96" transform="translate(-33.39 81.2) rotate(-45)"/><path d="M154.76,65.81c-.99-4.81-2.45-9.55-4.37-14.07-1.88-4.44-4.2-8.73-6.91-12.73-2.68-3.97-5.76-7.7-9.15-11.09-3.39-3.39-7.12-6.47-11.09-9.15-4.01-2.71-8.29-5.03-12.73-6.91-4.52-1.91-9.26-3.38-14.07-4.37-4.94-1.01-10.02-1.52-15.11-1.52s-10.17,.51-15.11,1.52c-4.81,.99-9.55,2.45-14.07,4.37-4.44,1.88-8.73,4.2-12.73,6.91-3.97,2.68-7.7,5.76-11.09,9.15s-6.47,7.12-9.15,11.09c-2.71,4.01-5.03,8.29-6.91,12.73-1.91,4.52-3.38,9.26-4.37,14.07-1.01,4.94-1.52,10.02-1.52,15.11s.51,10.17,1.52,15.11c.99,4.81,2.45,9.55,4.37,14.07,1.88,4.44,4.2,8.73,6.91,12.73,2.68,3.97,5.76,7.7,9.15,11.09s7.12,6.47,11.09,9.15c4.01,2.71,8.29,5.03,12.73,6.91,4.52,1.91,9.26,3.38,14.07,4.37,4.94,1.01,10.02,1.52,15.11,1.52s10.17-.51,15.11-1.52c4.81-.99,9.55-2.45,14.07-4.37,4.44-1.88,8.73-4.2,12.73-6.91,3.97-2.68,7.7-5.76,11.09-9.15,3.39-3.39,6.47-7.12,9.15-11.09,2.71-4.01,5.03-8.29,6.91-12.73,1.91-4.52,3.38-9.26,4.37-14.07,1.01-4.94,1.52-10.02,1.52-15.11s-.51-10.17-1.52-15.11ZM18.77,113.89l19.71-9.58c3.66,6.69,8.85,12.43,15.09,16.75l-11.38,18.74c-9.8-6.53-17.89-15.45-23.42-25.91ZM81.32,10.19c.92,0,1.84,.02,2.76,.05l-1.56,21.88c-.4,0-.79-.01-1.19-.01-7.71,0-14.99,1.79-21.47,4.97l-10.54-19.22c9.62-4.9,20.5-7.67,32.01-7.67Zm0,115.99c-25,0-45.27-20.27-45.27-45.27s20.27-45.27,45.27-45.27,45.27,20.27,45.27,45.27-20.27,45.27-45.27,45.27ZM124.51,58.18c-3.68-6.98-9.01-12.96-15.46-17.43l11.37-18.74c10.02,6.67,18.25,15.83,23.79,26.59l-19.7,9.57ZM21.31,43.52l18.15,12.28c-3.87,6.44-6.3,13.85-6.83,21.77l-21.93-.48c.66-12.28,4.46-23.73,10.61-33.57Zm56.58,108.03l1.56-21.87c.62,.02,1.24,.04,1.87,.04,7.26,0,14.15-1.59,20.34-4.43l10.55,19.24c-9.34,4.55-19.82,7.11-30.89,7.11-1.15,0-2.29-.03-3.43-.08Zm44.53-44.31c4.1-6.39,6.75-13.8,7.49-21.77l21.95,.48c-.87,12.32-4.91,23.77-11.31,33.55l-18.13-12.27Z"/><path d="M81.32,37.36c-24.01,0-43.55,19.53-43.55,43.55s19.53,43.55,43.55,43.55,43.55-19.53,43.55-43.55-19.53-43.55-43.55-43.55Zm0,83.75c-22.17,0-40.2-18.03-40.2-40.2s18.03-40.2,40.2-40.2,40.2,18.03,40.2,40.2-18.03,40.2-40.2,40.2Z"/><g><path d="M48.42,69.51c-1.2,.6-2.46,1.08-3.78,1.46l1.22,3.59c.77-.23,1.49-.49,2.16-.75s1.27-.58,1.79-.94v16.16h4.45v-21.47h-2.68c-.91,.71-1.96,1.37-3.16,1.96Z"/><polygon points="58.32 92.74 61.8 92.74 63.94 85.36 59.83 85.36 58.32 92.74"/><path d="M74.67,67.66c-2.34,0-4.15,.96-5.42,2.87s-1.9,4.69-1.9,8.33,.59,6.11,1.76,7.87,3.02,2.64,5.54,2.64,4.26-.95,5.47-2.84,1.82-4.61,1.82-8.16-.55-6.27-1.66-8.05-2.97-2.67-5.61-2.67Zm2.12,16.42c-.39,1.23-1.1,1.85-2.14,1.85-.96,0-1.65-.6-2.09-1.79s-.65-2.99-.65-5.38c0-2.56,.21-4.47,.63-5.74s1.12-1.9,2.09-1.9c1.03,0,1.74,.62,2.14,1.85s.6,3.09,.6,5.56-.2,4.34-.59,5.57Z"/><path d="M92.14,67.66c-2.34,0-4.15,.96-5.42,2.87s-1.9,4.69-1.9,8.33,.59,6.11,1.76,7.87,3.02,2.64,5.54,2.64,4.26-.95,5.47-2.84,1.82-4.61,1.82-8.16-.55-6.27-1.66-8.05-2.97-2.67-5.61-2.67Zm2.12,16.42c-.39,1.23-1.1,1.85-2.14,1.85-.96,0-1.65-.6-2.09-1.79s-.65-2.99-.65-5.38c0-2.56,.21-4.47,.63-5.74s1.12-1.9,2.09-1.9c1.03,0,1.74,.62,2.14,1.85s.6,3.09,.6,5.56-.2,4.34-.59,5.57Z"/><path d="M115.23,70.34c-1.1-1.78-2.97-2.67-5.61-2.67-2.34,0-4.15,.96-5.42,2.87s-1.9,4.69-1.9,8.33,.59,6.11,1.76,7.87,3.02,2.64,5.54,2.64,4.26-.95,5.47-2.84,1.82-4.61,1.82-8.16-.55-6.27-1.66-8.05Zm-3.49,13.75c-.39,1.23-1.1,1.85-2.14,1.85-.96,0-1.65-.6-2.09-1.79s-.65-2.99-.65-5.38c0-2.56,.21-4.47,.63-5.74s1.12-1.9,2.09-1.9c1.03,0,1.74,.62,2.14,1.85s.6,3.09,.6,5.56-.2,4.34-.59,5.57Z"/></g></svg>