<?xml version="1.0" encoding="UTF-8"?><svg id="Casino_Chips15" xmlns="http://www.w3.org/2000/svg" viewBox="0 0 161.36 164.54"><defs><style>.cls-1{fill:#fff;}</style></defs><circle class="cls-1" cx="80.86" cy="80.06" r="74.96" transform="translate(-32.93 80.63) rotate(-45)"/><path d="M154.3,64.96c-.99-4.81-2.45-9.55-4.37-14.07-1.88-4.44-4.2-8.73-6.91-12.73-2.68-3.97-5.76-7.7-9.15-11.09-3.39-3.39-7.12-6.47-11.09-9.15-4.01-2.71-8.29-5.03-12.73-6.91-4.52-1.91-9.26-3.38-14.07-4.37-4.94-1.01-10.02-1.52-15.11-1.52s-10.17,.51-15.11,1.52c-4.81,.99-9.55,2.45-14.07,4.37-4.44,1.88-8.73,4.2-12.73,6.91-3.97,2.68-7.7,5.76-11.09,9.15s-6.47,7.12-9.15,11.09c-2.71,4.01-5.03,8.29-6.91,12.73-1.91,4.52-3.38,9.26-4.37,14.07-1.01,4.94-1.52,10.02-1.52,15.11s.51,10.17,1.52,15.11c.99,4.81,2.45,9.55,4.37,14.07,1.88,4.44,4.2,8.73,6.91,12.73,2.68,3.97,5.76,7.7,9.15,11.09s7.12,6.47,11.09,9.15c4.01,2.71,8.29,5.03,12.73,6.91,4.52,1.91,9.26,3.38,14.07,4.37,4.94,1.01,10.02,1.52,15.11,1.52s10.17-.51,15.11-1.52c4.81-.99,9.55-2.45,14.07-4.37,4.44-1.88,8.73-4.2,12.73-6.91,3.97-2.68,7.7-5.76,11.09-9.15,3.39-3.39,6.47-7.12,9.15-11.09,2.71-4.01,5.03-8.29,6.91-12.73,1.91-4.52,3.38-9.26,4.37-14.07,1.01-4.94,1.52-10.02,1.52-15.11s-.51-10.17-1.52-15.11ZM18.32,113.04l19.71-9.58c3.66,6.69,8.85,12.43,15.09,16.75l-11.38,18.74c-9.8-6.53-17.89-15.45-23.42-25.91ZM80.86,9.34c.92,0,1.84,.02,2.76,.05l-1.56,21.88c-.4,0-.79-.01-1.19-.01-7.71,0-14.99,1.79-21.47,4.97l-10.54-19.22c9.62-4.9,20.5-7.67,32.01-7.67Zm0,115.99c-25,0-45.27-20.27-45.27-45.27s20.27-45.27,45.27-45.27,45.27,20.27,45.27,45.27-20.27,45.27-45.27,45.27ZM124.06,57.33c-3.68-6.98-9.01-12.96-15.46-17.43l11.37-18.74c10.02,6.67,18.25,15.83,23.79,26.59l-19.7,9.57ZM20.86,42.67l18.15,12.28c-3.87,6.44-6.3,13.85-6.83,21.77l-21.93-.48c.66-12.28,4.46-23.73,10.61-33.57Zm56.58,108.03l1.56-21.87c.62,.02,1.24,.04,1.87,.04,7.26,0,14.15-1.59,20.34-4.43l10.55,19.24c-9.34,4.55-19.82,7.11-30.89,7.11-1.15,0-2.29-.03-3.43-.08Zm44.53-44.31c4.1-6.39,6.75-13.8,7.49-21.77l21.95,.48c-.87,12.32-4.91,23.77-11.31,33.55l-18.13-12.27Z"/><path d="M80.86,36.52c-24.01,0-43.55,19.53-43.55,43.55s19.53,43.55,43.55,43.55,43.55-19.53,43.55-43.55-19.53-43.55-43.55-43.55Zm0,83.75c-22.17,0-40.2-18.03-40.2-40.2s18.03-40.2,40.2-40.2,40.2,18.03,40.2,40.2-18.03,40.2-40.2,40.2Z"/><g><path d="M54.97,75.75c-.41,0-.85,.01-1.33,.03-.48,.02-1.01,.06-1.59,.1l.46-6.53h11.4v-5.49h-16.55l-1.19,17.47c1.04-.13,2.03-.23,2.98-.29,.95-.06,1.83-.09,2.65-.09,2.23,0,3.91,.4,5.04,1.2,1.14,.8,1.7,2.06,1.7,3.79,0,1.41-.46,2.56-1.37,3.45-.92,.89-2.18,1.34-3.79,1.34-1.08,0-2.15-.18-3.21-.54-1.05-.36-2.09-.93-3.1-1.7l-3.14,4.15c1.45,1.1,2.96,1.92,4.54,2.46,1.57,.54,3.31,.81,5.2,.81,3.63,0,6.49-1,8.57-3.01s3.12-4.53,3.12-7.58-.92-5.33-2.76-7.03-4.38-2.55-7.64-2.55Z"/><path d="M80.9,63.33c-3.52,0-6.23,1.44-8.13,4.31s-2.86,7.04-2.86,12.5,.88,9.17,2.64,11.81c1.76,2.64,4.53,3.97,8.31,3.97s6.38-1.42,8.21-4.26c1.82-2.84,2.74-6.92,2.74-12.24s-.83-9.4-2.48-12.07c-1.66-2.67-4.46-4.01-8.42-4.01Zm3.19,24.63c-.59,1.85-1.66,2.77-3.21,2.77-1.44,0-2.48-.9-3.13-2.69-.65-1.79-.98-4.49-.98-8.07,0-3.84,.31-6.71,.94-8.61s1.68-2.86,3.14-2.86c1.54,0,2.61,.93,3.21,2.78s.9,4.63,.9,8.34-.29,6.5-.88,8.35Z"/><path d="M115.53,67.34c-1.66-2.67-4.46-4.01-8.42-4.01-3.52,0-6.23,1.44-8.13,4.31s-2.86,7.04-2.86,12.5,.88,9.17,2.64,11.81c1.76,2.64,4.53,3.97,8.31,3.97s6.38-1.42,8.21-4.26c1.82-2.84,2.74-6.92,2.74-12.24s-.83-9.4-2.48-12.07Zm-5.23,20.62c-.59,1.85-1.66,2.77-3.21,2.77-1.44,0-2.48-.9-3.13-2.69-.65-1.79-.98-4.49-.98-8.07,0-3.84,.31-6.71,.94-8.61s1.68-2.86,3.14-2.86c1.54,0,2.61,.93,3.21,2.78s.9,4.63,.9,8.34-.29,6.5-.88,8.35Z"/></g></svg>