<?xml version="1.0" encoding="UTF-8" standalone="no"?>
<svg
   id="Casino_Chips15"
   viewBox="0 0 161.36 164.54"
   version="1.1"
   sodipodi:docname="500.svg"
   inkscape:version="1.3 (0e150ed, 2023-07-21)"
   xmlns:inkscape="http://www.inkscape.org/namespaces/inkscape"
   xmlns:sodipodi="http://sodipodi.sourceforge.net/DTD/sodipodi-0.dtd"
   xmlns="http://www.w3.org/2000/svg"
   xmlns:svg="http://www.w3.org/2000/svg">
  <sodipodi:namedview
     id="namedview5"
     pagecolor="#ffffff"
     bordercolor="#000000"
     borderopacity="0.25"
     inkscape:showpageshadow="2"
     inkscape:pageopacity="0.0"
     inkscape:pagecheckerboard="0"
     inkscape:deskcolor="#d1d1d1"
     showgrid="false"
     inkscape:zoom="6.3267293"
     inkscape:cx="80.689401"
     inkscape:cy="82.269997"
     inkscape:window-width="1664"
     inkscape:window-height="1212"
     inkscape:window-x="0"
     inkscape:window-y="25"
     inkscape:window-maximized="0"
     inkscape:current-layer="Casino_Chips15" />
  <defs
     id="defs1">
    <style
       id="style1">.cls-1{fill:#fff;}</style>
  </defs>
  <circle
     class="cls-1"
     cx="80.86"
     cy="80.06"
     r="74.96"
     transform="translate(-32.93 80.63) rotate(-45)"
     id="circle1" />
  <path
     d="M154.3,64.96c-.99-4.81-2.45-9.55-4.37-14.07-1.88-4.44-4.2-8.73-6.91-12.73-2.68-3.97-5.76-7.7-9.15-11.09-3.39-3.39-7.12-6.47-11.09-9.15-4.01-2.71-8.29-5.03-12.73-6.91-4.52-1.91-9.26-3.38-14.07-4.37-4.94-1.01-10.02-1.52-15.11-1.52s-10.17,.51-15.11,1.52c-4.81,.99-9.55,2.45-14.07,4.37-4.44,1.88-8.73,4.2-12.73,6.91-3.97,2.68-7.7,5.76-11.09,9.15s-6.47,7.12-9.15,11.09c-2.71,4.01-5.03,8.29-6.91,12.73-1.91,4.52-3.38,9.26-4.37,14.07-1.01,4.94-1.52,10.02-1.52,15.11s.51,10.17,1.52,15.11c.99,4.81,2.45,9.55,4.37,14.07,1.88,4.44,4.2,8.73,6.91,12.73,2.68,3.97,5.76,7.7,9.15,11.09s7.12,6.47,11.09,9.15c4.01,2.71,8.29,5.03,12.73,6.91,4.52,1.91,9.26,3.38,14.07,4.37,4.94,1.01,10.02,1.52,15.11,1.52s10.17-.51,15.11-1.52c4.81-.99,9.55-2.45,14.07-4.37,4.44-1.88,8.73-4.2,12.73-6.91,3.97-2.68,7.7-5.76,11.09-9.15,3.39-3.39,6.47-7.12,9.15-11.09,2.71-4.01,5.03-8.29,6.91-12.73,1.91-4.52,3.38-9.26,4.37-14.07,1.01-4.94,1.52-10.02,1.52-15.11s-.51-10.17-1.52-15.11ZM18.32,113.04l19.71-9.58c3.66,6.69,8.85,12.43,15.09,16.75l-11.38,18.74c-9.8-6.53-17.89-15.45-23.42-25.91ZM80.86,9.34c.92,0,1.84,.02,2.76,.05l-1.56,21.88c-.4,0-.79-.01-1.19-.01-7.71,0-14.99,1.79-21.47,4.97l-10.54-19.22c9.62-4.9,20.5-7.67,32.01-7.67Zm0,115.99c-25,0-45.27-20.27-45.27-45.27s20.27-45.27,45.27-45.27,45.27,20.27,45.27,45.27-20.27,45.27-45.27,45.27ZM124.06,57.33c-3.68-6.98-9.01-12.96-15.46-17.43l11.37-18.74c10.02,6.67,18.25,15.83,23.79,26.59l-19.7,9.57ZM20.86,42.67l18.15,12.28c-3.87,6.44-6.3,13.85-6.83,21.77l-21.93-.48c.66-12.28,4.46-23.73,10.61-33.57Zm56.58,108.03l1.56-21.87c.62,.02,1.24,.04,1.87,.04,7.26,0,14.15-1.59,20.34-4.43l10.55,19.24c-9.34,4.55-19.82,7.11-30.89,7.11-1.15,0-2.29-.03-3.43-.08Zm44.53-44.31c4.1-6.39,6.75-13.8,7.49-21.77l21.95,.48c-.87,12.32-4.91,23.77-11.31,33.55l-18.13-12.27Z"
     id="path1"
     style="fill:#8d8ed0;fill-opacity:1" />
  <path
     d="M80.86,36.52c-24.01,0-43.55,19.53-43.55,43.55s19.53,43.55,43.55,43.55,43.55-19.53,43.55-43.55-19.53-43.55-43.55-43.55Zm0,83.75c-22.17,0-40.2-18.03-40.2-40.2s18.03-40.2,40.2-40.2,40.2,18.03,40.2,40.2-18.03,40.2-40.2,40.2Z"
     id="path2" />
  <g
     id="g5">
    <path
       d="M54.97,75.75c-.41,0-.85,.01-1.33,.03-.48,.02-1.01,.06-1.59,.1l.46-6.53h11.4v-5.49h-16.55l-1.19,17.47c1.04-.13,2.03-.23,2.98-.29,.95-.06,1.83-.09,2.65-.09,2.23,0,3.91,.4,5.04,1.2,1.14,.8,1.7,2.06,1.7,3.79,0,1.41-.46,2.56-1.37,3.45-.92,.89-2.18,1.34-3.79,1.34-1.08,0-2.15-.18-3.21-.54-1.05-.36-2.09-.93-3.1-1.7l-3.14,4.15c1.45,1.1,2.96,1.92,4.54,2.46,1.57,.54,3.31,.81,5.2,.81,3.63,0,6.49-1,8.57-3.01s3.12-4.53,3.12-7.58-.92-5.33-2.76-7.03-4.38-2.55-7.64-2.55Z"
       id="path3" />
    <path
       d="M80.9,63.33c-3.52,0-6.23,1.44-8.13,4.31s-2.86,7.04-2.86,12.5,.88,9.17,2.64,11.81c1.76,2.64,4.53,3.97,8.31,3.97s6.38-1.42,8.21-4.26c1.82-2.84,2.74-6.92,2.74-12.24s-.83-9.4-2.48-12.07c-1.66-2.67-4.46-4.01-8.42-4.01Zm3.19,24.63c-.59,1.85-1.66,2.77-3.21,2.77-1.44,0-2.48-.9-3.13-2.69-.65-1.79-.98-4.49-.98-8.07,0-3.84,.31-6.71,.94-8.61s1.68-2.86,3.14-2.86c1.54,0,2.61,.93,3.21,2.78s.9,4.63,.9,8.34-.29,6.5-.88,8.35Z"
       id="path4" />
    <path
       d="M115.53,67.34c-1.66-2.67-4.46-4.01-8.42-4.01-3.52,0-6.23,1.44-8.13,4.31s-2.86,7.04-2.86,12.5,.88,9.17,2.64,11.81c1.76,2.64,4.53,3.97,8.31,3.97s6.38-1.42,8.21-4.26c1.82-2.84,2.74-6.92,2.74-12.24s-.83-9.4-2.48-12.07Zm-5.23,20.62c-.59,1.85-1.66,2.77-3.21,2.77-1.44,0-2.48-.9-3.13-2.69-.65-1.79-.98-4.49-.98-8.07,0-3.84,.31-6.71,.94-8.61s1.68-2.86,3.14-2.86c1.54,0,2.61,.93,3.21,2.78s.9,4.63,.9,8.34-.29,6.5-.88,8.35Z"
       id="path5" />
  </g>
  <path
     style="fill:#463f5f;fill-opacity:1;stroke:#f1c197;stroke-width:0.15806;stroke-opacity:1"
     d="m 123.37011,55.913566 c -3.14403,-5.577517 -7.90415,-10.997113 -13.05354,-14.862003 l -1.5896,-1.193074 5.47327,-9.023135 c 3.0103,-4.962725 5.54342,-9.149828 5.62916,-9.304673 0.13907,-0.251159 0.35104,-0.141947 1.96453,1.012141 3.27208,2.34044 5.71571,4.431376 8.93073,7.641737 3.57746,3.572271 6.31349,6.876062 8.83954,10.673835 1.4141,2.126018 4.0329,6.53813 4.0329,6.79456 0,0.08638 -19.27824,9.48994 -19.44939,9.487047 -0.0479,-8.11e-4 -0.39782,-0.552706 -0.7776,-1.226435 z"
     id="path6" />
  <path
     style="fill:#463f5f;fill-opacity:1;stroke:#f1c197;stroke-width:0.15806;stroke-opacity:1"
     d="m 139.17144,117.93321 c -0.3912,-0.28721 -4.01867,-2.75159 -8.06104,-5.47639 -4.04237,-2.7248 -7.71658,-5.21287 -8.1649,-5.52904 l -0.81513,-0.57485 0.78548,-1.33293 c 3.28395,-5.572751 5.37141,-11.52578 6.31469,-18.008217 0.18342,-1.260525 0.34357,-2.299037 0.35589,-2.307806 0.0123,-0.0088 2.36959,0.03837 5.23837,0.104743 2.86878,0.06638 7.76112,0.172678 10.87187,0.236225 l 5.65591,0.115541 -0.0967,0.965164 c -0.97503,9.726895 -3.29087,17.73987 -7.51941,26.0176 -1.44922,2.83698 -3.42516,6.18353 -3.69966,6.26592 -0.0847,0.0254 -0.47413,-0.18875 -0.86532,-0.47596 z"
     id="path7" />
  <path
     style="fill:#463f5f;fill-opacity:1;stroke:#f1c197;stroke-width:0.15806;stroke-opacity:1"
     d="m 77.582192,149.66687 c 0.05476,-0.59999 0.385945,-5.21625 0.735976,-10.25835 0.350032,-5.0421 0.673921,-9.45935 0.719754,-9.81613 l 0.08333,-0.64867 3.352541,-0.0932 c 5.968389,-0.16586 11.313086,-1.27387 16.684558,-3.45889 1.073459,-0.43666 2.007629,-0.73333 2.075949,-0.65927 0.21973,0.2382 10.27671,18.66366 10.27671,18.82804 0,0.37372 -6.37196,2.95645 -10.00612,4.05574 -6.655735,2.01329 -12.305328,2.88767 -19.692346,3.04775 l -4.329909,0.0938 z"
     id="path8" />
  <path
     style="fill:#463f5f;fill-opacity:1;stroke:#f1c197;stroke-width:0.15806;stroke-opacity:1"
     d="M 40.436936,137.93178 C 32.055472,132.1258 24.454082,123.76797 19.380163,114.77958 l -0.965465,-1.71031 2.410028,-1.15681 c 1.325516,-0.63625 5.712175,-2.76502 9.748133,-4.73062 4.035958,-1.96559 7.354986,-3.5738 7.375618,-3.5738 0.02063,0 0.410653,0.62236 0.866711,1.38302 3.321944,5.54067 7.534192,10.25271 12.500396,13.98359 l 1.684883,1.26578 -2.411486,3.97293 c -1.326317,2.18512 -3.797589,6.2521 -5.491717,9.03773 -1.694127,2.78564 -3.145327,5.17956 -3.224886,5.31982 -0.123908,0.21844 -0.329793,0.12677 -1.435442,-0.63913 z"
     id="path9" />
  <path
     style="fill:#463f5f;fill-opacity:1;stroke:#f1c197;stroke-width:0.15806;stroke-opacity:1"
     d="m 18.150395,76.355903 c -4.187321,-0.09416 -7.665925,-0.223861 -7.73023,-0.288226 -0.164394,-0.16455 0.349403,-5.115904 0.82136,-7.915266 1.349325,-8.003372 4.510402,-16.676075 8.634163,-23.68861 l 0.993572,-1.689588 8.769606,5.932079 c 4.823283,3.262643 8.860088,6.018622 8.970677,6.124398 0.161404,0.154378 -0.03374,0.64645 -0.989154,2.494266 -2.753947,5.32625 -4.288375,10.067878 -5.131327,15.856616 -0.177226,1.217059 -0.322616,2.47956 -0.323087,2.805557 l -8.56e-4,0.592724 -3.200706,-0.02638 c -1.760388,-0.01451 -6.626696,-0.103415 -10.814018,-0.197574 z"
     id="path10" />
  <path
     style="fill:#463f5f;fill-opacity:1;stroke:#f1c197;stroke-width:0.15806;stroke-opacity:1"
     d="m 54.199619,26.592576 -5.230773,-9.522144 1.516373,-0.742768 c 4.461378,-2.185323 10.426471,-4.23159 15.504644,-5.318718 4.537735,-0.971431 8.502489,-1.4203364 13.734551,-1.5550801 l 3.85583,-0.099301 -0.09965,1.0918911 c -0.05481,0.60054 -0.386045,5.217246 -0.736076,10.259345 -0.350032,5.0421 -0.675478,9.469743 -0.723214,9.839207 l -0.08679,0.671753 H 80.04299 c -6.09794,0 -13.55786,1.661628 -19.251675,4.288131 -0.729352,0.336444 -1.33393,0.61129 -1.343506,0.610772 -0.0096,-5.18e-4 -2.371258,-4.285908 -5.248183,-9.523088 z"
     id="path11" />
</svg>
