<?xml version="1.0" encoding="UTF-8" standalone="no"?>
<svg
   id="Casino_Chips17"
   viewBox="0 0 161.36 164.54"
   version="1.1"
   sodipodi:docname="5000.svg"
   inkscape:version="1.3 (0e150ed, 2023-07-21)"
   xmlns:inkscape="http://www.inkscape.org/namespaces/inkscape"
   xmlns:sodipodi="http://sodipodi.sourceforge.net/DTD/sodipodi-0.dtd"
   xmlns="http://www.w3.org/2000/svg"
   xmlns:svg="http://www.w3.org/2000/svg">
  <sodipodi:namedview
     id="namedview6"
     pagecolor="#ffffff"
     bordercolor="#000000"
     borderopacity="0.25"
     inkscape:showpageshadow="2"
     inkscape:pageopacity="0.0"
     inkscape:pagecheckerboard="0"
     inkscape:deskcolor="#d1d1d1"
     inkscape:zoom="6.3267293"
     inkscape:cx="77.52821"
     inkscape:cy="89.540736"
     inkscape:window-width="1664"
     inkscape:window-height="1212"
     inkscape:window-x="0"
     inkscape:window-y="25"
     inkscape:window-maximized="0"
     inkscape:current-layer="Casino_Chips17" />
  <defs
     id="defs1">
    <style
       id="style1">.cls-1{fill:#fff;}</style>
  </defs>
  <circle
     class="cls-1"
     cx="80.73"
     cy="81.87"
     r="74.96"
     transform="translate(-34.25 81.07) rotate(-45)"
     id="circle1"
     inkscape:label="circle1"
     style="fill:#e1ffff;fill-opacity:1" />
  <path
     d="M154.17,66.77c-.99-4.81-2.45-9.55-4.37-14.07-1.88-4.44-4.2-8.73-6.91-12.73-2.68-3.97-5.76-7.7-9.15-11.09-3.39-3.39-7.12-6.47-11.09-9.15-4.01-2.71-8.29-5.03-12.73-6.91-4.52-1.91-9.26-3.38-14.07-4.37-4.94-1.01-10.02-1.52-15.11-1.52s-10.17,.51-15.11,1.52c-4.81,.99-9.55,2.45-14.07,4.37-4.44,1.88-8.73,4.2-12.73,6.91-3.97,2.68-7.7,5.76-11.09,9.15s-6.47,7.12-9.15,11.09c-2.71,4.01-5.03,8.29-6.91,12.73-1.91,4.52-3.38,9.26-4.37,14.07-1.01,4.94-1.52,10.02-1.52,15.11s.51,10.17,1.52,15.11c.99,4.81,2.45,9.55,4.37,14.07,1.88,4.44,4.2,8.73,6.91,12.73,2.68,3.97,5.76,7.7,9.15,11.09s7.12,6.47,11.09,9.15c4.01,2.71,8.29,5.03,12.73,6.91,4.52,1.91,9.26,3.38,14.07,4.37,4.94,1.01,10.02,1.52,15.11,1.52s10.17-.51,15.11-1.52c4.81-.99,9.55-2.45,14.07-4.37,4.44-1.88,8.73-4.2,12.73-6.91,3.97-2.68,7.7-5.76,11.09-9.15,3.39-3.39,6.47-7.12,9.15-11.09,2.71-4.01,5.03-8.29,6.91-12.73,1.91-4.52,3.38-9.26,4.37-14.07,1.01-4.94,1.52-10.02,1.52-15.11s-.51-10.17-1.52-15.11ZM18.19,114.85l19.71-9.58c3.66,6.69,8.85,12.43,15.09,16.75l-11.38,18.74c-9.8-6.53-17.89-15.45-23.42-25.91ZM80.73,11.15c.92,0,1.84,.02,2.76,.05l-1.56,21.88c-.4,0-.79-.01-1.19-.01-7.71,0-14.99,1.79-21.47,4.97l-10.54-19.22c9.62-4.9,20.5-7.67,32.01-7.67Zm0,115.99c-25,0-45.27-20.27-45.27-45.27s20.27-45.27,45.27-45.27,45.27,20.27,45.27,45.27-20.27,45.27-45.27,45.27ZM123.93,59.14c-3.68-6.98-9.01-12.96-15.46-17.43l11.37-18.74c10.02,6.67,18.25,15.83,23.79,26.59l-19.7,9.57ZM20.73,44.48l18.15,12.28c-3.87,6.44-6.3,13.85-6.83,21.77l-21.93-.48c.66-12.28,4.46-23.73,10.61-33.57Zm56.58,108.03l1.56-21.87c.62,.02,1.24,.04,1.87,.04,7.26,0,14.15-1.59,20.34-4.43l10.55,19.24c-9.34,4.55-19.82,7.11-30.89,7.11-1.15,0-2.29-.03-3.43-.08Zm44.53-44.31c4.1-6.39,6.75-13.8,7.49-21.77l21.95,.48c-.87,12.32-4.91,23.77-11.31,33.55l-18.13-12.27Z"
     id="path1" />
  <path
     d="M80.73,38.33c-24.01,0-43.55,19.53-43.55,43.55s19.53,43.55,43.55,43.55,43.55-19.53,43.55-43.55-19.53-43.55-43.55-43.55Zm0,83.75c-22.17,0-40.2-18.03-40.2-40.2s18.03-40.2,40.2-40.2,40.2,18.03,40.2,40.2-18.03,40.2-40.2,40.2Z"
     id="path2" />
  <g
     id="g6">
    <path
       d="M50.51,77.61c-.27,0-.57,0-.89,.02s-.67,.04-1.06,.07l.31-4.35h7.6v-3.66h-11.03l-.79,11.65c.69-.09,1.35-.15,1.98-.19s1.22-.06,1.77-.06c1.48,0,2.6,.27,3.36,.8s1.14,1.37,1.14,2.53c0,.94-.31,1.7-.92,2.3s-1.45,.89-2.53,.89c-.72,0-1.44-.12-2.14-.36s-1.39-.62-2.07-1.14l-2.09,2.77c.97,.73,1.98,1.28,3.02,1.64s2.2,.54,3.46,.54c2.42,0,4.33-.67,5.71-2.01s2.08-3.02,2.08-5.05-.61-3.55-1.84-4.69-2.92-1.7-5.09-1.7Z"
       id="path3" />
    <polygon
       points="59.75 94.41 63.24 94.41 65.38 87.03 61.26 87.03 59.75 94.41"
       id="polygon3" />
    <path
       d="M76.1,69.33c-2.34,0-4.15,.96-5.42,2.87s-1.9,4.69-1.9,8.33,.59,6.11,1.76,7.87,3.02,2.64,5.54,2.64,4.26-.95,5.47-2.84,1.82-4.61,1.82-8.16-.55-6.27-1.66-8.05-2.97-2.67-5.61-2.67Zm2.12,16.42c-.39,1.23-1.1,1.85-2.14,1.85-.96,0-1.65-.6-2.09-1.79s-.65-2.99-.65-5.38c0-2.56,.21-4.47,.63-5.74s1.12-1.9,2.09-1.9c1.03,0,1.74,.62,2.14,1.85s.6,3.09,.6,5.56-.2,4.34-.59,5.57Z"
       id="path4" />
    <path
       d="M93.57,69.33c-2.34,0-4.15,.96-5.42,2.87s-1.9,4.69-1.9,8.33,.59,6.11,1.76,7.87,3.02,2.64,5.54,2.64,4.26-.95,5.47-2.84,1.82-4.61,1.82-8.16-.55-6.27-1.66-8.05-2.97-2.67-5.61-2.67Zm2.12,16.42c-.39,1.23-1.1,1.85-2.14,1.85-.96,0-1.65-.6-2.09-1.79s-.65-2.99-.65-5.38c0-2.56,.21-4.47,.63-5.74s1.12-1.9,2.09-1.9c1.03,0,1.74,.62,2.14,1.85s.6,3.09,.6,5.56-.2,4.34-.59,5.57Z"
       id="path5" />
    <path
       d="M116.66,72.01c-1.1-1.78-2.97-2.67-5.61-2.67-2.34,0-4.15,.96-5.42,2.87s-1.9,4.69-1.9,8.33,.59,6.11,1.76,7.87,3.02,2.64,5.54,2.64,4.26-.95,5.47-2.84,1.82-4.61,1.82-8.16-.55-6.27-1.66-8.05Zm-3.49,13.75c-.39,1.23-1.1,1.85-2.14,1.85-.96,0-1.65-.6-2.09-1.79s-.65-2.99-.65-5.38c0-2.56,.21-4.47,.63-5.74s1.12-1.9,2.09-1.9c1.03,0,1.74,.62,2.14,1.85s.6,3.09,.6,5.56-.2,4.34-.59,5.57Z"
       id="path6" />
  </g>
  <path
     style="fill:#d24f90;fill-opacity:1;stroke-width:0.15806"
     d="M 21.654159,78.230484 C 17.307521,78.122988 12.946698,78.027689 11.96344,78.018712 l -1.787741,-0.01632 0.09719,-1.145932 c 0.802428,-9.461069 2.971305,-17.564684 6.861601,-25.637122 0.836241,-1.735215 3.301402,-6.243583 3.578,-6.543565 0.08422,-0.09134 17.933069,12.033259 17.933069,12.181807 0,0.07569 -0.32916,0.708287 -0.731468,1.405769 -1.639762,2.842864 -3.450889,7.393697 -4.490317,11.282857 -0.525209,1.965143 -1.180463,5.676396 -1.346501,7.626373 l -0.111034,1.303991 -1.204553,-0.02532 c -0.662503,-0.01393 -4.760891,-0.11327 -9.107528,-0.220767 z"
     id="path7" />
  <path
     style="fill:#d24f90;fill-opacity:1;stroke-width:0.15806"
     d="m 54.183848,28.568325 c -2.798667,-5.106783 -5.131522,-9.398699 -5.184124,-9.537591 -0.07544,-0.199201 0.349031,-0.455143 2.009943,-1.211927 9.553356,-4.352925 19.210516,-6.517549 29.077113,-6.517549 h 3.289634 l -0.0078,0.355634 c -0.0043,0.195599 -0.343602,5.050003 -0.753988,10.787564 l -0.746155,10.431931 -2.209626,0.107341 c -7.272689,0.353296 -13.410701,1.737827 -18.85482,4.253018 -0.736327,0.340185 -1.382174,0.618095 -1.435217,0.617578 -0.05304,-5.16e-4 -2.386258,-4.179215 -5.184924,-9.285999 z"
     id="path8" />
  <path
     style="fill:#d24f90;fill-opacity:1;stroke-width:0.15806"
     d="m 123.21216,57.652221 c -3.06465,-5.437553 -7.8362,-10.882411 -12.88659,-14.705023 -0.86933,-0.657989 -1.57274,-1.278338 -1.56313,-1.378554 0.0215,-0.223812 11.01296,-18.399264 11.13167,-18.407223 0.0467,-0.0031 0.80583,0.509973 1.68687,1.140235 7.04957,5.042977 12.95717,11.112618 17.73004,18.216363 2.01353,2.996871 4.22106,6.849581 4.02788,7.029705 -0.21134,0.197047 -19.06833,9.329459 -19.26386,9.329459 -0.0949,0 -0.48316,-0.551233 -0.86288,-1.224962 z"
     id="path9" />
  <path
     style="fill:#d24f90;fill-opacity:1;stroke-width:0.15806"
     d="m 130.85517,114.17934 -8.86947,-6.01092 0.78009,-1.29232 c 3.25287,-5.38881 5.66634,-12.417447 6.45458,-18.797415 l 0.19041,-1.54108 1.44253,0.004 c 1.06705,0.003 19.98262,0.436627 20.30372,0.465479 0.0789,0.0071 -0.11335,1.869196 -0.46222,4.476821 -1.05145,7.85917 -3.57871,15.804155 -7.27553,22.872165 -1.30805,2.50088 -3.33231,5.84969 -3.53084,5.84119 -0.0901,-0.004 -4.15506,-2.71193 -9.03327,-6.01794 z"
     id="path10" />
  <path
     style="fill:#d24f90;fill-opacity:1;stroke-width:0.15806"
     d="m 77.446727,151.5396 c 0.05075,-0.49987 0.372318,-4.92751 0.714593,-9.83921 0.342276,-4.9117 0.66558,-9.37491 0.718454,-9.91824 l 0.09613,-0.98787 1.370441,-0.002 c 2.076071,-0.002 5.719955,-0.29044 7.930569,-0.62696 3.658878,-0.55698 6.784621,-1.40104 10.273213,-2.77411 1.173593,-0.46191 2.220753,-0.86328 2.327023,-0.89193 0.11405,-0.0307 2.32891,3.83396 5.40521,9.43149 l 5.21198,9.48358 -1.21663,0.58904 c -1.67789,0.81238 -5.56161,2.32986 -7.93415,3.10011 -7.061978,2.29268 -13.75827,3.33942 -21.385406,3.34287 l -3.603704,0.002 z"
     id="path11" />
  <path
     style="fill:#d24f90;fill-opacity:1;stroke-width:0.15806"
     d="m 40.371778,139.7848 c -5.562173,-3.82997 -11.398215,-9.42832 -15.776411,-15.13386 -1.502802,-1.95841 -4.146857,-5.9566 -5.349017,-8.08849 l -0.939503,-1.66609 9.663749,-4.6958 c 5.315062,-2.5827 9.731237,-4.69445 9.813723,-4.69278 0.08248,0.002 0.427414,0.48177 0.766508,1.0669 3.137095,5.41327 7.823765,10.65286 12.941597,14.4684 l 1.360461,1.01428 -5.586128,9.19965 c -3.072371,5.05981 -5.616692,9.23022 -5.654049,9.26757 -0.03736,0.0374 -0.595774,-0.29554 -1.24093,-0.73978 z"
     id="path12" />
  <path
     style="fill:#d24f90;fill-opacity:1;stroke-width:0.15806"
     d="M 75.473436,126.74813 C 57.793805,124.61984 43.073024,112.44595 37.649152,95.467969 35.550465,88.898589 35.009984,81.505064 36.127638,74.654384 c 3.252378,-19.9355 19.361414,-35.318461 39.445775,-37.667855 2.331998,-0.272789 7.649605,-0.314115 9.778745,-0.076 8.696095,0.972554 16.835462,4.296306 23.471842,9.584843 1.82305,1.45279 4.96523,4.532731 6.58501,6.454574 4.14991,4.923803 7.45021,11.370279 9.07159,17.719554 1.07135,4.195362 1.32011,6.306849 1.32011,11.205344 0,3.643718 -0.0519,4.600192 -0.35518,6.542587 -1.49271,9.561179 -5.68111,18.030819 -12.27059,24.813149 -2.46202,2.53408 -4.51045,4.2469 -7.38538,6.17538 -6.011089,4.03219 -12.737455,6.50951 -19.972358,7.35582 -2.530279,0.29599 -7.829751,0.28899 -10.343766,-0.0136 z m 8.614245,-1.4092 c 5.746698,-0.32171 12.604948,-2.36701 17.853879,-5.32446 12.53783,-7.0643 20.79923,-19.66382 22.2017,-33.859951 0.2187,-2.213705 0.2187,-6.345638 0,-8.559342 -1.69857,-17.193374 -13.48667,-31.85952 -29.891978,-37.190069 -4.401031,-1.430019 -7.399278,-1.924519 -12.323383,-2.032491 -4.14321,-0.09085 -6.277975,0.06385 -9.519326,0.689825 -6.904495,1.333412 -13.47057,4.380677 -19.063474,8.84721 -1.645168,1.313843 -5.13027,4.777122 -6.424028,6.383804 -7.956991,9.881556 -11.252144,22.301891 -9.22053,34.754703 1.160892,7.115705 4.366391,14.302961 8.958688,20.086851 1.591893,2.00495 5.283513,5.64248 7.241669,7.13556 7.378925,5.62638 15.475372,8.66636 24.33858,9.13842 2.167444,0.11544 2.634783,0.10984 5.848203,-0.0701 z"
     id="path13" />
  <path
     style="fill:#e1b9ff;fill-opacity:1;stroke:#ff00ff;stroke-width:0.15806"
     d="M 74.999257,156.54772 C 55.045872,154.80561 37.40825,145.95022 24.410301,131.14833 15.011312,120.44489 8.8756403,107.25155 6.7262288,93.122824 5.6554151,86.084048 5.6554151,77.665648 6.7262288,70.626872 8.7816227,57.116156 14.405165,44.642373 23.282066,33.903774 25.574519,31.130537 30.911602,25.897556 33.797325,23.593619 45.273916,14.430802 58.303699,9.0388232 72.890648,7.4160367 77.977366,6.8501433 85.242305,6.9582193 90.726183,7.681365 c 12.306237,1.6227938 24.599057,6.623941 34.624327,14.086383 5.55098,4.131949 11.21375,9.778169 15.34205,15.297217 5.69613,7.615039 10.07119,16.668344 12.45418,25.771395 2.45212,9.367119 3.06207,18.96463 1.8243,28.704953 -2.85955,22.502397 -16.23112,42.883597 -35.79414,54.558067 -9.47199,5.65253 -19.13123,8.90089 -30.426462,10.23228 -2.529602,0.29817 -11.242709,0.43507 -13.751181,0.21606 z m 11.490223,-4.10787 c 7.99071,-0.65796 15.61036,-2.59978 23.00627,-5.86301 1.19533,-0.5274 2.17332,-1.01829 2.17332,-1.09087 0,-0.11604 -10.37336,-19.10957 -10.51465,-19.25223 -0.0304,-0.0307 -1.0378,0.339 -2.238639,0.82157 -5.816096,2.33731 -12.247804,3.5776 -18.565972,3.58027 l -1.52504,6.4e-4 -0.09855,1.0669 c -0.0542,0.5868 -0.379457,5.08557 -0.722787,9.99727 -0.343331,4.9117 -0.667497,9.37491 -0.720371,9.91823 l -0.09613,0.98788 h 3.639342 c 2.001638,0 4.550081,-0.075 5.663209,-0.16665 z m -39.084243,-21.03807 5.677516,-9.34987 -0.400036,-0.33109 c -0.220019,-0.1821 -1.100918,-0.86454 -1.957552,-1.51653 -0.856634,-0.652 -2.574513,-2.17378 -3.817511,-3.38174 -3.346148,-3.25182 -5.720095,-6.21723 -7.893809,-9.86052 -0.612134,-1.02598 -1.143576,-1.75232 -1.251749,-1.71081 -0.207355,0.0796 -19.549197,9.45726 -19.644885,9.52462 -0.103387,0.0728 1.578699,3.01233 2.980137,5.20797 4.18465,6.55612 9.859186,12.81536 15.881509,17.51793 1.896614,1.48099 4.391935,3.25032 4.583666,3.2501 0.09086,-10e-5 2.720081,-4.20763 5.842714,-9.35006 z m 38.500129,-4.4903 c 12.398781,-1.43547 23.517764,-7.78648 30.984324,-17.69782 6.3761,-8.46382 9.43485,-18.114972 9.11232,-28.75167 -0.13058,-4.306183 -0.63509,-7.563651 -1.76151,-11.373434 C 121.60618,60.178701 116.32648,52.27939 109.13957,46.495054 104.81135,43.011516 99.182857,40.051759 93.808344,38.4331 86.896694,36.351497 78.805074,35.995347 71.611078,37.456097 62.853427,39.23435 54.990026,43.476981 48.60345,49.869666 38.476811,60.005994 33.755922,74.406249 35.888115,88.655601 c 2.703879,18.069909 16.194349,32.864969 33.949697,37.232799 1.847752,0.45455 5.193057,1.02837 6.742041,1.15646 2.052131,0.1697 7.363899,0.0937 9.325513,-0.13338 z m 55.104294,-7.93215 c 5.75016,-9.23888 9.23319,-19.756144 10.25964,-30.979675 0.0576,-0.630262 0.0798,-1.147703 0.0493,-1.14987 -0.35232,-0.02498 -19.97136,-0.463954 -20.85457,-0.466619 l -1.19962,-0.0036 -0.18842,1.541081 c -0.78451,6.416677 -3.10608,13.172683 -6.46794,18.822343 -0.51069,0.85824 -0.81258,1.51935 -0.72175,1.5806 3.04477,2.05306 15.68838,10.62483 16.63858,11.28016 0.73103,0.50417 1.37336,0.91668 1.42741,0.91668 0.0541,0 0.52989,-0.69349 1.05742,-1.54108 z M 32.165119,78.168544 c 0,-0.869201 0.474082,-4.187712 0.878419,-6.148804 1.016394,-4.929672 3.127328,-10.526486 5.382043,-14.26965 0.294854,-0.489502 0.536098,-0.929595 0.536098,-0.977984 0,-0.06595 -15.327363,-10.500046 -17.853377,-12.153684 l -0.413187,-0.270489 -0.728642,1.218847 c -4.501534,7.530018 -7.548568,15.783254 -8.998913,24.374572 -0.430871,2.552328 -1.0402587,8.007521 -0.908568,8.133445 0.04403,0.0421 13.486172,0.386342 20.960195,0.536766 l 1.145932,0.02306 z M 133.84803,54.425793 c 5.40546,-2.622131 9.85095,-4.784714 9.87889,-4.805742 0.0858,-0.06458 -2.134,-3.955384 -3.3648,-5.897768 -4.55409,-7.187006 -10.9463,-13.948706 -18.14394,-19.192694 -1.05096,-0.765697 -2.02621,-1.453925 -2.16722,-1.529394 -0.21302,-0.114005 -1.20897,1.432173 -5.88766,9.140388 -3.0972,5.102683 -5.65449,9.357045 -5.68286,9.454139 -0.0284,0.0971 0.58855,0.655118 1.37095,1.24005 5.14008,3.84282 9.52542,8.738297 12.84862,14.343271 0.65716,1.108392 1.22299,2.015259 1.25738,2.015259 0.0344,0 4.48518,-2.145379 9.89064,-4.767509 z M 64.213814,36.054405 c 4.939952,-1.765767 9.564106,-2.647431 15.095558,-2.878194 2.521956,-0.10521 2.653713,-0.126659 2.71696,-0.442288 0.06365,-0.317638 1.521976,-20.962838 1.512657,-21.414344 -0.0072,-0.34791 -8.340144,-0.140793 -11.542863,0.2869 -7.78574,1.03971 -15.101335,3.169157 -21.376859,6.222444 l -2.014566,0.980164 5.305016,9.66857 5.305016,9.668571 1.73006,-0.770864 c 0.951534,-0.423974 2.422593,-1.018406 3.269021,-1.320959 z"
     id="path14" />
  <path
     style="fill:#e1b9ff;fill-opacity:1;stroke:#ff00ff;stroke-width:0.15806"
     d="M 78.871716,125.31479 C 74.047143,125.08236 68.685414,123.90933 64.419214,122.15291 51.767716,116.94422 42.155964,106.03515 38.73307,92.999855 36.026918,82.69411 37.090851,72.145238 41.792001,62.670612 44.00908,58.202345 46.4063,54.891468 50.095683,51.202132 56.76313,44.53477 64.445877,40.588948 73.991636,38.929288 c 1.795046,-0.312093 2.584828,-0.353975 6.697765,-0.355185 4.98872,-0.0015 5.902178,0.08778 9.765948,0.954205 14.373601,3.22317 26.492631,14.113618 31.336101,28.159369 1.63284,4.735129 2.35885,9.101685 2.35885,14.187171 0,3.907082 -0.35705,6.875388 -1.26435,10.51096 -1.93161,7.740072 -5.81244,14.531132 -11.60676,20.310652 -7.494,7.47485 -17.215556,11.83851 -27.981806,12.56002 -1.303992,0.0874 -2.619837,0.14653 -2.924102,0.13144 -0.304265,-0.0151 -0.979969,-0.048 -1.501566,-0.0731 z m 6.629116,-3.45282 c 6.918994,-0.80936 13.843986,-3.59172 19.414318,-7.80039 6.19605,-4.68143 10.93531,-11.03512 13.62563,-18.267193 0.75341,-2.025297 1.71137,-5.817546 2.07884,-8.229395 0.40786,-2.676938 0.40714,-8.711661 -10e-4,-11.380288 -2.04983,-13.391347 -10.16389,-24.538083 -22.147169,-30.424801 -5.503217,-2.703425 -10.387105,-3.904802 -16.53191,-4.06665 -4.7358,-0.124736 -8.067845,0.274232 -12.297288,1.472438 -14.053174,3.981277 -25.154147,15.76084 -28.218176,29.943119 -1.243935,5.757728 -1.248009,11.758421 -0.01186,17.475849 3.193699,14.771511 14.951952,26.827131 29.635905,30.385391 1.749884,0.42404 4.225021,0.85728 5.848204,1.02366 1.591489,0.16313 6.760635,0.084 8.60486,-0.13174 z"
     id="path15" />
  <path
     style="fill:#e1b9ff;fill-opacity:1;stroke:#e1b8c2;stroke-width:0.15806;stroke-opacity:1"
     d="M 75.394406,156.39365 C 69.269417,156.0177 61.12285,154.24746 54.968965,151.95523 44.58201,148.08625 35.774884,142.45444 28.056486,134.74577 18.843571,125.54446 12.514126,114.83639 8.9338205,102.39428 7.1271315,96.115764 6.3083051,90.638362 6.1380635,83.692533 5.9193388,74.768601 7.1150547,66.594137 9.8332693,58.430406 11.973889,52.00139 14.819969,46.205843 18.656592,40.463245 21.823799,35.722619 24.161084,32.913937 28.37169,28.78876 31.50275,25.721224 33.151284,24.268639 35.595371,22.423705 51.481695,10.431816 70.820793,5.2913625 90.489093,7.8326113 103.67499,9.5362992 116.81416,15.114267 127.15891,23.400042 c 11.60054,9.291616 20.04869,21.466154 24.63847,35.506256 2.49869,7.643465 3.58396,14.690924 3.56135,23.126609 -0.0165,6.141169 -0.46769,10.439544 -1.66758,15.884985 -4.50248,20.433668 -17.64284,38.310438 -35.8328,48.748628 -8.49877,4.87697 -17.08108,7.79744 -27.186505,9.25126 -3.579829,0.51502 -10.916495,0.74355 -15.277439,0.47587 z m 13.356032,-4.0234 c 7.453962,-0.90394 14.109392,-2.71232 20.746912,-5.63725 1.1962,-0.52713 2.21638,-1.02551 2.26707,-1.10752 0.0507,-0.082 -0.79825,-1.79888 -1.88651,-3.81527 -2.77578,-5.14311 -8.19811,-15.00359 -8.48482,-15.42961 l -0.2392,-0.35542 -1.736542,0.66507 c -6.588477,2.5233 -11.422947,3.53853 -17.819104,3.74198 -2.085135,0.0663 -2.963617,0.1485 -2.963617,0.27724 0,0.10064 -0.355634,5.06795 -0.790298,11.03847 -0.434664,5.97052 -0.790298,10.90188 -0.790298,10.95858 0,0.20002 9.534458,-0.0741 11.696407,-0.33627 z M 42.812062,139.13192 c 1.071279,-1.65207 3.822721,-6.13382 8.462084,-13.78368 1.052091,-1.73479 1.911121,-3.22846 1.908956,-3.31925 -0.0022,-0.0908 -0.480157,-0.52071 -1.062203,-0.95537 -2.868095,-2.14185 -7.182814,-6.30412 -9.421315,-9.08843 -0.594076,-0.73893 -1.708875,-2.30372 -2.477329,-3.47731 -2.082005,-3.17965 -2.185132,-3.31925 -2.452153,-3.31925 -0.135424,0 -3.354588,1.50442 -7.153697,3.34316 -3.799109,1.83873 -8.205536,3.97116 -9.792059,4.73874 -1.586523,0.76758 -2.884587,1.43536 -2.884587,1.48396 0,0.40666 2.90126,5.22468 4.631782,7.69183 4.648449,6.62716 10.501562,12.54469 16.996752,17.18381 0.985633,0.70398 1.859259,1.27996 1.94139,1.27996 0.08213,0 0.668202,-0.80018 1.302379,-1.77817 z m 44.130399,-12.20361 c 8.406516,-1.20232 16.370049,-4.68487 22.696489,-9.92544 1.97696,-1.63763 4.89794,-4.58453 6.45449,-6.51174 3.70112,-4.58249 6.79193,-10.499922 8.3723,-16.029012 2.13498,-7.469416 2.26236,-16.469659 0.33823,-23.897163 C 120.1629,52.649603 105.23057,39.320176 87.011783,36.829541 82.802502,36.254104 77.18214,36.352564 72.893597,37.076868 57.33499,39.704607 44.126062,50.513097 38.332021,65.357625 c -3.813848,9.771206 -4.092203,20.898837 -0.772322,30.874722 5.154945,15.490053 18.293743,27.078873 34.269924,30.227093 3.784954,0.74586 5.117268,0.85422 9.492016,0.77204 2.216786,-0.0416 4.746156,-0.17807 5.620822,-0.30317 z m 53.932579,-7.4748 c 5.44171,-8.38366 9.2638,-19.43485 10.37278,-29.991804 0.12785,-1.217058 0.22506,-2.329774 0.21601,-2.472701 -0.0145,-0.229483 -0.42457,-0.271789 -3.50692,-0.361815 -4.53747,-0.132527 -16.47268,-0.403713 -17.79487,-0.404326 l -1.02739,-4.78e-4 -0.35192,2.488988 c -0.89348,6.319225 -3.31288,13.052556 -6.65885,18.532036 -0.68807,1.12679 -1.64917,0.38173 14.73103,11.4198 1.64482,1.10839 3.04334,2.01526 3.10781,2.01526 0.0645,0 0.47501,-0.55123 0.91232,-1.22496 z M 32.323178,78.169118 c 0,-0.735551 0.527146,-4.413062 0.871675,-6.08103 0.94905,-4.594643 2.996842,-10.107499 5.156122,-13.880772 0.443787,-0.775505 0.744963,-1.465263 0.66928,-1.532794 -1.041579,-0.929401 -18.225181,-12.521865 -18.400577,-12.413465 -0.352258,0.217709 -3.15673,5.367429 -4.350546,7.988706 -3.519684,7.728215 -5.538204,15.600042 -6.326205,24.670952 l -0.1051306,1.210189 1.0083346,0.09858 c 0.895915,0.08759 15.374785,0.483687 19.777907,0.541058 l 1.69914,0.02214 z M 130.66952,56.127007 c 11.9633,-5.770889 13.2437,-6.40252 13.2437,-6.533227 0,-0.277964 -2.80102,-4.992668 -4.34459,-7.31285 -3.70296,-5.566029 -8.56761,-10.896531 -14.05068,-15.39623 -2.21479,-1.817571 -5.32828,-4.066305 -5.53618,-3.998529 -0.44451,0.144912 -1.6799,2.086559 -8.19661,12.882533 -1.90477,3.155564 -3.42526,5.836327 -3.37886,5.957251 0.0464,0.120923 0.95955,0.913097 2.02921,1.760386 4.78054,3.786721 8.73788,8.279016 12.13088,13.770732 0.71166,1.151859 1.32205,2.094289 1.35642,2.094289 0.0344,0 3.07039,-1.45096 6.74671,-3.224355 z M 61.030694,37.522285 c 3.640242,-1.565387 6.703626,-2.543071 10.093793,-3.22145 2.617892,-0.523844 3.922955,-0.683283 7.635571,-0.932839 1.764177,-0.118584 3.253263,-0.261275 3.309078,-0.317093 0.180411,-0.18041 1.697658,-21.72782 1.541029,-21.885156 -0.355236,-0.356842 -8.868973,-0.08797 -12.325307,0.389253 -7.429716,1.025825 -15.32948,3.414264 -21.467415,6.490526 -0.766617,0.38422 -1.371195,0.758905 -1.343506,0.832633 0.05898,0.157051 10.630896,19.44502 10.660042,19.448756 0.01084,0.0014 0.864361,-0.360695 1.896715,-0.80463 z"
     id="path16" />
  <path
     style="fill:#e1b9ff;fill-opacity:1;stroke:#e1b8c2;stroke-width:0.15806;stroke-opacity:1"
     d="M 75.228097,156.23182 C 69.104366,155.84042 60.672213,153.96197 54.53746,151.62251 41.01539,146.46594 29.981011,138.18091 21.113667,126.52667 13.098965,115.99305 7.895829,102.70632 6.6342045,89.551916 4.7978646,70.405209 9.7734395,52.471164 21.176543,37.135265 24.732839,32.352445 30.814569,26.235099 35.665213,22.561744 45.356366,15.222712 56.505087,10.39631 68.435088,8.3753116 c 4.469779,-0.7572018 6.75888,-0.9311379 12.254313,-0.9311379 7.046096,0 11.393663,0.5043672 17.70267,2.0537114 9.555719,2.3466589 18.926009,6.7320469 26.640339,12.4679339 5.64365,4.19626 11.0457,9.566423 15.28103,15.190831 7.42419,9.859142 12.5764,22.203963 14.1777,33.970148 0.51876,3.811793 0.64105,5.877127 0.64105,10.82708 0,6.144939 -0.26366,9.226429 -1.19687,13.98827 -3.85279,19.659472 -15.48476,37.088502 -32.07141,48.054952 -8.59304,5.68139 -17.68623,9.34769 -27.818477,11.21618 -5.402177,0.99622 -12.855048,1.39963 -18.817336,1.01854 z m 12.401329,-3.637 c 4.40006,-0.35653 10.899419,-1.73045 15.513694,-3.27947 4.34412,-1.45832 8.68401,-3.32649 8.68401,-3.73814 0,-0.3751 -1.27702,-2.84523 -4.85399,-9.38899 -4.27904,-7.82817 -5.41271,-9.85764 -5.64083,-10.09808 -0.15124,-0.15941 -0.66369,-0.023 -2.552604,0.67945 -5.904337,2.19573 -9.905343,3.06946 -15.561352,3.39827 -3.918997,0.22782 -4.591499,0.30277 -4.670126,0.52047 -0.131181,0.36321 -1.637569,21.97212 -1.542438,22.12604 0.113092,0.18299 7.553544,0.0292 10.623636,-0.21955 z M 42.333339,140.08028 c 0.794558,-1.12033 2.309714,-3.55903 6.653182,-10.70854 4.105559,-6.7579 4.389432,-7.251 4.278076,-7.43118 -0.05326,-0.0862 -0.928244,-0.84867 -1.944401,-1.69442 -2.502392,-2.08274 -4.867802,-4.30747 -6.645242,-6.25003 -1.859288,-2.032 -2.379726,-2.70959 -4.680118,-6.09331 -1.024103,-1.50638 -1.953703,-2.77407 -2.065777,-2.81708 -0.112074,-0.043 -1.543717,0.55327 -3.181431,1.32505 -5.87703,2.76961 -16.324059,7.85766 -16.670946,8.11932 l -0.353812,0.26688 0.874922,1.55773 c 5.242506,9.33387 12.633881,17.54896 21.293188,23.66616 0.81538,0.57601 1.540835,1.04729 1.612125,1.04729 0.07129,0 0.444893,-0.44454 0.830234,-0.98787 z m 43.651057,-12.92449 c 5.253337,-0.50859 11.869661,-2.62159 16.866674,-5.38657 3.82489,-2.11642 6.54043,-4.18374 9.94045,-7.56762 2.95305,-2.93903 4.02062,-4.22559 5.99211,-7.2213 4.07862,-6.19748 6.49516,-12.932657 7.27801,-20.284636 0.24842,-2.332937 0.24876,-7.461802 6.5e-4,-9.799692 -1.01133,-9.529742 -5.08189,-18.539905 -11.65097,-25.789389 -1.70439,-1.880927 -4.05405,-4.014761 -6.21956,-5.648267 -8.732354,-6.587075 -19.06391,-9.693838 -30.084149,-9.046486 -4.992362,0.29326 -9.083074,1.127658 -13.343497,2.721722 -12.350413,4.620988 -22.225469,14.495676 -26.778277,26.777281 -2.777893,7.493619 -3.539095,15.794586 -2.18288,23.804464 2.760223,16.302003 14.47146,29.975483 30.265936,35.337073 2.596297,0.88133 6.513926,1.78669 9.325513,2.1551 1.01283,0.13272 9.092615,0.0933 10.58999,-0.0517 z m 55.140434,-7.86034 c 5.04568,-7.80954 8.76665,-18.25112 10.04515,-28.188162 0.17237,-1.339733 0.33494,-2.856914 0.36127,-3.371513 0.0461,-0.90034 0.0317,-0.94001 -0.38108,-1.051701 -0.23592,-0.06384 -3.50775,-0.193467 -7.27074,-0.288064 -3.76299,-0.0946 -8.63408,-0.217354 -10.82464,-0.272793 l -3.98285,-0.1008 -0.0797,0.376139 c -0.0438,0.206875 -0.23056,1.359698 -0.41501,2.561826 -0.94101,6.133026 -3.2358,12.577978 -6.35512,17.848488 -0.60244,1.01791 -0.61999,1.08463 -0.3812,1.44908 0.45654,0.69677 2.67444,2.27398 12.10188,8.60599 3.25303,2.18492 5.97574,3.97259 6.05046,3.97259 0.0747,0 0.5839,-0.69349 1.13153,-1.54108 z M 32.481238,78.248148 c 0,-0.68018 0.460383,-4.067894 0.776984,-5.717408 0.77887,-4.05797 2.416382,-8.700845 4.608563,-13.066759 0.689124,-1.372452 1.252954,-2.594866 1.252954,-2.716477 0,-0.251074 -1.810183,-1.539221 -9.259792,-6.589368 -7.498104,-5.083024 -9.061244,-6.066654 -9.350694,-5.884073 -0.339529,0.214169 -1.745381,2.684761 -3.362904,5.909845 -3.118543,6.217877 -5.291983,12.914069 -6.467909,19.927098 -0.485869,2.897649 -1.0668474,7.993059 -0.9272805,8.132626 0.1357869,0.135787 14.2252385,0.598094 20.7938485,0.682294 l 1.93623,0.02482 z M 126.77896,58.149159 c 14.37966,-6.912015 17.29232,-8.350438 17.29232,-8.539845 0,-0.320211 -2.82437,-5.036513 -4.68315,-7.820208 -4.37026,-6.544851 -11.71039,-13.965978 -17.98032,-18.17873 l -1.40446,-0.943653 -0.38704,0.363045 c -0.96052,0.900981 -11.26649,17.945766 -11.26649,18.633372 0,0.167257 0.90452,1.025995 2.25235,2.13835 4.92768,4.066773 8.33462,8.009407 12.33505,14.274544 0.50339,0.788364 0.93699,1.433387 0.96356,1.433387 0.0266,0 1.32175,-0.612119 2.87818,-1.360262 z M 62.138263,37.242921 c 5.687542,-2.325559 9.557747,-3.195152 16.654424,-3.742068 1.782121,-0.137341 3.288588,-0.298468 3.347706,-0.358058 0.194079,-0.195639 1.297683,-14.688117 1.502659,-19.732884 l 0.09736,-2.396044 -0.923129,-0.115337 c -1.025473,-0.128125 -5.443388,0.0019 -8.845408,0.26036 -5.765334,0.437983 -13.358017,2.255462 -19.49302,4.666093 -1.957864,0.769305 -5.447361,2.401561 -5.922565,2.770354 -0.265256,0.205857 -0.08628,0.582293 2.695843,5.670177 5.896204,10.782839 7.84732,14.231009 8.011414,14.158423 0.09177,-0.04059 1.385391,-0.572049 2.874721,-1.181016 z"
     id="path17" />
  <path
     style="fill:#e1b9ff;fill-opacity:1;stroke:#e1b8c2;stroke-width:0.15806;stroke-opacity:1"
     d="M 77.695666,125.08281 C 64.961998,124.03807 53.748525,117.87708 46.089592,107.71758 39.024553,98.345881 36.079642,86.321436 38.030478,74.811201 39.348572,67.03424 42.726212,59.82031 47.82212,53.898307 53.586843,47.199068 60.724155,42.595646 68.992994,40.243521 c 4.420928,-1.257561 5.077366,-1.34063 11.094739,-1.403982 4.967551,-0.0523 5.663277,-0.02722 7.392556,0.266485 9.349464,1.587934 17.236661,5.646085 23.799931,12.245641 2.39382,2.407057 3.69384,3.99079 5.52864,6.73522 3.59282,5.37402 5.83813,11.28384 6.81583,17.939759 0.39773,2.707674 0.40024,9.237943 0.005,11.775437 -1.5673,10.050291 -5.97806,18.597229 -13.09006,25.365219 -7.52269,7.15881 -16.629835,11.12352 -27.399836,11.92826 -2.463862,0.18411 -3.061421,0.18271 -5.443658,-0.0128 z m 6.353966,-2.98138 c 7.683693,-0.49775 15.731618,-3.70222 22.087358,-8.79461 6.25526,-5.01189 11.30769,-12.6074 13.36654,-20.094399 1.35447,-4.925564 1.70952,-8.309459 1.47149,-14.024586 -0.24704,-5.931396 -2.23191,-12.406759 -5.49144,-17.915043 C 109.29592,50.81626 98.321845,43.48713 86.433446,41.871415 83.609877,41.487673 77.523383,41.478643 74.99003,41.854438 70.320206,42.547155 65.419744,44.177105 61.485166,46.34631 50.268949,52.530018 42.724859,63.254547 40.773538,75.789555 c -0.394436,2.533801 -0.482407,7.965699 -0.172229,10.634594 0.58415,5.026258 1.693246,8.817703 3.896306,13.319521 4.98042,10.17718 14.437743,18.04377 25.285677,21.0326 1.7304,0.47676 5.486238,1.20221 7.11268,1.37383 1.156609,0.12204 4.912865,0.0965 7.15366,-0.0487 z"
     id="path18" />
  <path
     style="fill:#e1b9ff;fill-opacity:1;stroke:#e1b8c2;stroke-width:0.15806;stroke-opacity:1"
     d="M 75.126264,156.08268 C 64.610205,155.30352 52.905274,151.65108 43.466377,146.20342 30.794589,138.8899 20.113071,127.36167 13.738462,114.119 6.9554841,100.02797 4.8347787,84.322588 7.5907832,68.590907 9.7232282,56.418594 15.299558,44.391607 23.297102,34.715631 25.35903,32.220968 30.987324,26.584935 33.523089,24.47558 40.336964,18.807518 48.430619,14.325262 57.217558,11.353616 61.990416,9.7394872 68.920796,8.2447607 73.524892,7.8364917 c 2.414205,-0.2140799 11.51336,-0.2199293 14.0401,-0.00903 11.705685,0.977058 24.290578,5.4404363 34.456978,12.2205643 11.24344,7.498421 20.5986,18.452764 26.2089,30.689086 3.33793,7.28018 5.25617,13.928231 6.29372,21.812218 0.40605,3.085414 0.574,11.444974 0.30857,15.358596 -0.81014,11.944896 -5.10713,24.335014 -12.10509,34.904344 -3.17928,4.8018 -5.82875,8.0142 -9.98315,12.10425 -5.78489,5.69528 -11.51666,9.78983 -18.86301,13.47499 -8.65764,4.34293 -16.87822,6.66858 -26.633037,7.53465 -2.590924,0.23003 -9.863166,0.32392 -12.122609,0.15652 z m 8.69341,-3.16375 c 5.571109,-0.23022 9.328228,-0.77617 14.651427,-2.12901 3.389449,-0.86139 5.197469,-1.44077 8.382479,-2.68615 2.77168,-1.08377 4.64051,-1.97157 4.95964,-2.3561 0.17163,-0.2068 0.12702,-0.4136 -0.27426,-1.27109 -1.30987,-2.79915 -9.8363,-18.26622 -10.1938,-18.49172 -0.26875,-0.16953 -0.16728,-0.19881 -4.612714,1.33117 -4.890187,1.68304 -8.167004,2.31451 -14.344938,2.76438 -1.891357,0.13772 -3.542347,0.29013 -3.668869,0.33868 -0.126521,0.0485 -0.266271,0.20617 -0.310554,0.35028 -0.08474,0.27575 -1.050484,13.53332 -1.375812,18.88694 -0.163138,2.68462 -0.158229,3.15555 0.03417,3.27732 0.291579,0.18455 2.022954,0.18078 6.753235,-0.0147 z M 42.089245,140.63349 c 0.689268,-0.87461 1.492974,-2.14944 5.754649,-9.12794 4.527348,-7.41354 5.501205,-9.08486 5.501205,-9.44107 0,-0.14447 -1.013557,-1.13579 -2.252349,-2.20294 -4.240728,-3.65313 -7.331924,-6.86994 -9.391456,-9.77306 -0.524209,-0.73893 -1.548016,-2.1861 -2.275128,-3.21593 -1.285426,-1.8206 -1.336027,-1.87016 -1.828087,-1.79031 -1.01132,0.16412 -19.840232,9.30149 -19.936152,9.6747 -0.109052,0.42431 3.687842,6.5263 5.913131,9.503 3.674731,4.91558 8.840302,10.2101 13.489907,13.82668 1.68126,1.30772 4.267706,3.13959 4.432843,3.13959 0.06838,0 0.334524,-0.26673 0.591437,-0.59272 z m 46.018062,-13.63523 c 7.548197,-1.23904 15.089873,-4.55018 20.874753,-9.16498 2.27312,-1.81335 6.77961,-6.37726 8.19597,-8.3004 5.15008,-6.99279 8.16631,-14.674271 9.02936,-22.995275 0.23507,-2.266391 0.19545,-7.84938 -0.0719,-10.135095 C 124.88348,65.699458 119.56886,55.349107 111.6493,48.190345 104.58773,41.807151 96.667977,38.018579 87.565012,36.669149 c -3.791617,-0.562071 -9.655621,-0.560283 -13.593122,0.0041 -19.009501,2.724949 -34.433781,17.415221 -38.0835,36.27119 -0.653129,3.374334 -0.799698,5.07641 -0.789429,9.167454 0.01264,5.034475 0.451858,8.227899 1.742684,12.670454 3.872606,13.328113 14.078872,24.493833 27.058997,29.602743 3.306905,1.30158 7.929642,2.49963 11.29878,2.92823 0.628849,0.08 3.348292,0.1144 6.043208,0.0764 3.939966,-0.0555 5.28476,-0.1322 6.864697,-0.39155 z m 52.547293,-6.76891 c 0.96946,-1.32066 2.75986,-4.43631 3.96545,-6.90065 3.39661,-6.94302 5.71108,-14.729438 6.72463,-22.623244 0.1724,-1.342708 0.31346,-2.789408 0.31346,-3.214888 0,-0.883599 0.008,-0.878519 -1.5806,-1.01733 -1.34738,-0.117743 -21.016,-0.626469 -21.09681,-0.545666 -0.0342,0.03421 -0.25054,1.199022 -0.48072,2.588467 -0.49215,2.970677 -0.84308,4.526408 -1.60381,7.10999 -1.01692,3.45362 -2.88633,7.811981 -4.65585,10.854651 -0.33744,0.58023 -0.61352,1.23211 -0.61352,1.44862 0,0.5222 0.78922,1.203 3.99161,3.44327 3.25254,2.27535 14.22121,9.62202 14.36581,9.62202 0.0597,0 0.3614,-0.34436 0.67035,-0.76524 z M 32.639889,78.358023 c 9.81e-4,-1.244525 0.732255,-5.872637 1.244921,-7.878901 0.923556,-3.614234 2.02972,-6.565333 4.063423,-10.840672 0.731261,-1.537289 1.329566,-2.832475 1.329566,-2.87819 0,-0.30903 -2.828669,-2.332229 -10.395792,-7.435569 -5.786446,-3.902435 -7.76515,-5.147046 -8.182853,-5.147046 -0.489643,0 -1.287813,1.281357 -3.396761,5.453054 -4.128172,8.165913 -6.344371,15.771423 -7.441108,25.536255 -0.1857595,1.653914 -0.292703,3.05216 -0.2376523,3.10721 0.164283,0.164284 3.2761303,0.322801 10.0547813,0.512187 3.520777,0.09837 7.00599,0.196682 7.744918,0.218478 0.738929,0.0218 2.21481,0.05411 3.279736,0.0718 l 1.936229,0.03217 z M 131.33909,56.113908 c 8.54725,-4.120607 12.67632,-6.185905 12.81462,-6.409672 0.17576,-0.284399 -3.42789,-6.315761 -5.52136,-9.240991 -4.51537,-6.309345 -11.00649,-12.745563 -17.05273,-16.90848 -1.82556,-1.256922 -1.64704,-1.307164 -3.1202,0.878144 -2.08423,3.091788 -7.79869,12.540002 -9.41448,15.565771 l -0.89323,1.672671 0.53372,0.559651 c 0.29355,0.307809 1.24499,1.169736 2.11432,1.915394 4.6285,3.970064 7.8118,7.625149 11.4528,13.150191 1.6484,2.501362 1.54204,2.380486 1.95499,2.22182 0.18886,-0.07257 3.39806,-1.604591 7.13155,-3.404499 z M 61.648847,37.597711 c 6.417814,-2.587206 9.74012,-3.338812 17.697048,-4.003611 2.786645,-0.232823 2.886054,-0.258334 2.990826,-0.767526 0.221156,-1.074806 1.2497,-14.885185 1.451668,-19.491698 l 0.108341,-2.47108 -1.150577,-0.115548 c -1.89536,-0.190343 -9.001971,0.18915 -12.093533,0.645795 -5.190003,0.766599 -11.389693,2.413028 -16.086819,4.272118 -2.797817,1.107356 -6.110791,2.696494 -6.22116,2.984112 -0.129531,0.337554 1.077813,2.643814 6.661396,12.724548 3.148781,5.684884 3.999618,7.11268 4.238517,7.11268 0.108396,0 1.190328,-0.400406 2.404293,-0.88979 z"
     id="path19" />
  <path
     style="fill:#e1b9ff;fill-opacity:1;stroke:#e1b8c2;stroke-width:0.15806;stroke-opacity:1"
     d="M 78.397538,124.9976 C 71.946622,124.45278 66.903703,123.08271 61.571329,120.4262 49.165318,114.24571 40.512741,102.57355 38.176901,88.867552 36.258736,77.61235 39.192952,65.508842 46.058041,56.358207 52.36932,47.945761 60.585216,42.522175 71.083831,39.837853 c 2.811567,-0.718871 5.863439,-0.937566 11.625094,-0.833046 3.772417,0.06843 4.427668,0.1204 6.131143,0.486242 8.851489,1.900966 15.614882,5.477793 21.859892,11.560617 5.09817,4.965774 8.54194,10.333451 10.78103,16.804003 1.3023,3.763409 1.98206,7.162734 2.21399,11.071642 0.37884,6.384957 -0.3902,11.904448 -2.4588,17.647075 -4.3993,12.212864 -14.53063,22.091174 -26.808478,26.138944 -5.148303,1.6973 -11.784038,2.64288 -16.030164,2.28427 z m 7.817703,-2.98898 c 2.628097,-0.34378 4.523349,-0.78231 7.14135,-1.65237 7.685949,-2.55434 14.421769,-7.24453 19.121489,-13.31441 4.48808,-5.79653 7.00648,-11.474911 8.21753,-18.528491 0.42126,-2.453589 0.58318,-8.201476 0.30755,-10.917788 -1.04493,-10.297708 -6.1745,-19.987661 -14.09355,-26.623256 -5.61536,-4.705271 -12.049209,-7.741304 -19.186559,-9.053842 -1.71693,-0.315739 -2.398615,-0.348401 -7.191709,-0.344581 -5.138169,0.0041 -5.353582,0.01677 -7.273051,0.428045 -8.391095,1.797906 -14.900996,5.193556 -20.683764,10.788925 -4.893073,4.734505 -8.17065,9.939772 -10.301455,16.360202 -1.536944,4.631042 -1.943591,7.329727 -1.94108,12.881853 0.002,4.37779 0.240242,6.441137 1.164614,10.085532 1.210733,4.773395 3.778576,10.047671 6.937461,14.249341 1.491294,1.98358 4.495997,5.09439 6.570657,6.80267 4.152096,3.41886 9.265886,6.14542 14.217038,7.5802 1.612169,0.46719 5.654697,1.29274 7.358091,1.50265 1.593229,0.19632 7.389208,0.0491 9.635388,-0.24468 z"
     id="path20" />
  <path
     style="fill:#e1b9ff;fill-opacity:1;stroke:#e1b8c2;stroke-width:0.15806;stroke-opacity:1"
     d="M 76.026644,155.98783 C 67.139555,155.47079 56.978791,152.74029 48.208163,148.51217 36.423945,142.83127 26.079317,133.71556 18.684841,122.49615 12.273529,112.76847 8.4653375,102.21836 7.0131146,90.161139 6.5464265,86.286415 6.5035073,78.166485 6.9296321,74.367019 7.7380357,67.159031 9.2095056,61.062285 11.61528,54.952958 c 1.165687,-2.960195 3.302069,-7.426281 4.814203,-10.064045 1.435815,-2.504633 4.337499,-6.765635 6.189093,-9.088425 2.264385,-2.840627 9.233909,-9.810274 12.075496,-12.075708 7.809665,-6.226201 17.565851,-11.097696 27.212025,-13.58761 2.710075,-0.6995363 6.195631,-1.4108393 9.062642,-1.8494268 1.85363,-0.2835636 3.167807,-0.3517924 8.095859,-0.4203173 7.535791,-0.1047857 10.477453,0.1104077 15.771133,1.1537164 12.064149,2.3776717 23.891119,7.9644107 33.103649,15.6372577 8.54145,7.11393 15.37989,15.956889 20.02122,25.889946 3.21864,6.888328 5.20123,13.543433 6.29523,21.131661 0.51416,3.566386 0.72487,12.211017 0.40086,16.446113 -0.9606,12.55584 -5.36509,24.77601 -12.94609,35.91864 -5.24896,7.71498 -13.3343,15.53684 -21.03213,20.34674 -10.44524,6.52658 -21.169201,10.24135 -32.56027,11.27885 -2.521959,0.22971 -10.155336,0.43013 -12.091556,0.31748 z m 7.27074,-2.9078 c 6.051649,-0.27096 9.700713,-0.78852 15.087087,-2.13985 5.476459,-1.37393 12.963899,-4.23181 13.505839,-5.15505 0.10197,-0.1737 0.0921,-0.46643 -0.0293,-0.86932 -0.31022,-1.02957 -9.41156,-17.69152 -10.30151,-18.85914 l -0.298,-0.39096 -4.003186,1.29894 c -6.447888,2.09218 -8.529423,2.49453 -15.778625,3.04988 -1.347458,0.10323 -2.60296,0.24535 -2.790004,0.31583 -0.236599,0.0892 -0.369075,0.3115 -0.435369,0.7307 -0.271914,1.71942 -1.573979,21.1365 -1.450387,21.62893 0.05074,0.20215 0.216672,0.40007 0.368745,0.43981 0.485914,0.127 2.551822,0.11021 6.1247,-0.0498 z m -41.01944,-12.50112 c 1.264488,-1.5997 10.853341,-17.34119 11.142088,-18.29135 0.127163,-0.41845 0.110989,-0.43565 -3.16247,-3.3624 -4.547448,-4.0658 -6.554044,-6.29142 -9.867813,-10.9449 -1.150942,-1.61625 -2.21941,-2.97888 -2.374374,-3.02807 -0.154963,-0.0492 -0.627798,0.0471 -1.050745,0.21392 -2.222225,0.8766 -17.45956,8.2714 -18.980487,9.21139 -0.508957,0.31455 -0.511401,0.322 -0.284116,0.86597 0.674595,1.61453 4.647199,7.71792 6.751356,10.37257 3.823109,4.82333 8.776184,9.71651 13.392711,13.23077 1.647396,1.25406 3.504125,2.53746 3.671008,2.53746 0.06943,0 0.41271,-0.36241 0.762842,-0.80536 z m 46.235405,-13.48685 c 6.919637,-1.30956 13.529641,-4.07218 18.853551,-7.87977 3.30651,-2.36477 8.2628,-7.27928 10.50609,-10.41753 4.46478,-6.24599 7.25519,-13.303486 8.36265,-21.150739 0.32034,-2.269934 0.26974,-10.000056 -0.0802,-12.249615 C 124.33006,63.659768 118.45722,53.351424 109.53381,46.219148 103.31764,41.250707 96.761984,38.207296 89.316551,36.83345 84.237623,35.896276 77.74326,35.86719 72.628364,36.758709 63.105187,38.418584 54.554482,42.989803 47.69581,50.087687 c -6.871429,7.111085 -11.14403,16.01292 -12.443466,25.925587 -0.283734,2.164441 -0.329797,8.498914 -0.08014,11.021278 1.292033,13.054068 8.963837,25.579978 20.244032,33.052838 5.350795,3.54477 11.250902,5.85498 18.239519,7.14177 1.882641,0.34664 12.835575,0.24557 14.857598,-0.1371 z m 52.221461,-6.76923 c 1.49269,-1.98101 4.38442,-7.4521 5.86883,-11.10368 2.52021,-6.19959 4.27855,-13.112114 4.9998,-19.655633 l 0.28495,-2.585201 -0.35032,-0.283675 c -0.42339,-0.342835 -1.50391,-0.414089 -9.52156,-0.62789 -3.08612,-0.08229 -7.29313,-0.195567 -9.34893,-0.251717 -3.55345,-0.09706 -3.74237,-0.0876 -3.83035,0.191694 -0.0509,0.161583 -0.31059,1.502943 -0.57709,2.9808 -1.11752,6.197116 -2.51718,10.371967 -5.31501,15.853302 -0.812,1.59083 -1.47636,2.99311 -1.47636,3.11618 0,0.4411 0.97696,1.32014 3.33967,3.00494 2.79622,1.99394 15.00826,10.1907 15.18272,10.1907 0.0651,0 0.39976,-0.37342 0.74365,-0.82982 z M 32.797357,78.482001 c 0,-1.016975 0.395661,-3.845555 0.876562,-6.266538 0.744626,-3.748651 2.079864,-7.523174 4.500592,-12.722521 0.686279,-1.474019 1.213986,-2.766806 1.172682,-2.872857 C 39.119546,56.035574 23.121843,45.093201 21.292934,44.271034 l -0.671264,-0.301759 -0.404927,0.380408 c -0.519019,0.487593 -1.157325,1.562525 -2.619711,4.411689 -4.578246,8.919792 -6.868468,16.752207 -7.9449266,27.171146 -0.1203948,1.165291 -0.1854722,2.205819 -0.1446166,2.312288 0.040856,0.106468 0.4078224,0.235808 0.8154812,0.287422 1.152521,0.145921 15.342718,0.630806 20.775247,0.709899 l 1.69914,0.02474 z m 97.307383,-21.61335 c 9.97471,-4.791497 14.03976,-6.879801 14.08924,-7.237952 0.0784,-0.56738 -3.19776,-6.08772 -5.62819,-9.483573 -3.92113,-5.478676 -10.72646,-12.306294 -16.06964,-16.122267 -1.94991,-1.392582 -2.38704,-1.617748 -2.72889,-1.405666 -0.40824,0.253277 -1.21512,1.367101 -2.8163,3.887666 -2.11343,3.326953 -6.49102,10.641547 -7.81075,13.051132 -1.3538,2.471798 -1.58041,1.842679 1.73857,4.826756 4.50322,4.048834 7.30177,7.216014 10.36836,11.734128 2.25013,3.315176 2.43079,3.548606 2.74647,3.548606 0.15656,0 2.90657,-1.259474 6.11113,-2.79883 z M 62.380875,37.471549 c 6.23659,-2.396058 8.876724,-2.971605 17.330452,-3.778021 1.580425,-0.150759 2.334467,-0.28811 2.502122,-0.455765 0.137307,-0.137305 0.298839,-0.739306 0.377562,-1.407092 0.273484,-2.319884 1.155881,-14.584032 1.353488,-18.81165 L 84.0526,10.706265 82.489546,10.598277 c -2.444971,-0.168918 -9.320424,0.257128 -12.627224,0.782462 -4.849372,0.770393 -11.323181,2.54702 -15.805955,4.337674 -1.792098,0.715857 -5.702207,2.617357 -5.839736,2.839884 -0.204103,0.330244 1.387002,3.391747 7.07165,13.606822 2.743037,4.929125 3.678375,6.480441 3.907258,6.480441 0.07126,0 1.504659,-0.528304 3.185336,-1.174011 z"
     id="path21" />
  <path
     style="fill:#e1b9ff;fill-opacity:1;stroke:#e1b8c2;stroke-width:0.15806;stroke-opacity:1"
     d="M 74.683138,155.75365 C 65.948274,155.00539 56.292949,152.27596 47.892044,148.18017 36.553231,142.65202 26.29731,133.61728 19.09528,122.81227 12.676659,113.18259 8.8509255,102.88102 7.2673923,90.963272 6.8748822,88.009223 6.6860761,81.920729 6.8664088,78.032621 7.3634393,67.316267 10.167453,57.133228 15.361809,47.180776 c 1.898091,-3.636765 5.288052,-8.765953 7.770238,-11.756774 1.471191,-1.77266 6.863034,-7.275534 9.428221,-9.62237 7.556708,-6.913477 19.013922,-12.925545 29.715195,-15.592775 5.071964,-1.2641579 8.765052,-1.8783682 12.565735,-2.0898505 3.935641,-0.218992 12.531565,-0.078572 15.122237,0.2470321 13.416305,1.6862044 27.398295,7.7356734 37.806155,16.3572694 2.53787,2.102301 6.85294,6.337561 8.92847,8.763318 8.45521,9.881947 14.11795,21.357843 16.61565,33.672587 0.97257,4.795218 1.34292,9.107163 1.34605,15.671912 0.007,14.288916 -4.22707,27.820985 -12.67589,40.513885 -3.94,5.91917 -9.43335,11.83839 -15.49826,16.69974 -7.58832,6.08245 -17.93009,11.20177 -27.452619,13.58944 -5.438176,1.36356 -9.622471,1.91368 -16.209786,2.13112 -5.276532,0.17418 -5.982435,0.17317 -8.140067,-0.0117 z m 8.219097,-2.51865 c 6.241075,-0.29554 9.627764,-0.7512 14.620508,-1.9671 6.194887,-1.50866 13.707427,-4.32505 14.414237,-5.40378 0.19661,-0.30007 0.20267,-0.45557 0.0373,-0.95702 -0.46263,-1.40263 -9.3807,-17.74429 -10.34025,-18.94768 -0.32836,-0.4118 -0.39781,-0.4334 -0.8902,-0.27693 -0.29373,0.0933 -2.002513,0.63954 -3.797296,1.21377 -5.972717,1.91095 -7.682684,2.25567 -14.216501,2.866 -4.56822,0.42671 -4.468367,0.39481 -4.635804,1.48126 -0.115267,0.74794 -0.476841,5.4866 -0.882312,11.56328 -0.486249,7.28726 -0.5954,9.68623 -0.457915,10.06419 0.203976,0.56076 0.999256,0.60784 6.148253,0.36401 z M 41.997624,141.10766 c 0.692737,-0.73787 2.803158,-4.02949 6.713749,-10.47144 4.101158,-6.75587 5.00018,-8.37819 4.85398,-8.75918 -0.05088,-0.1326 -1.383756,-1.40866 -2.961941,-2.83568 -4.710059,-4.25894 -6.199445,-5.88687 -9.637016,-10.53348 -2.99369,-4.04661 -2.834551,-3.92668 -4.39455,-3.31178 -1.321228,0.52078 -11.436043,5.37675 -15.391866,7.3894 -3.005203,1.529 -3.64431,1.91267 -3.686946,2.2134 -0.09511,0.67086 3.318327,6.19542 6.200875,10.03595 3.539526,4.71585 9.487929,10.66456 14.277433,14.27818 1.433325,1.08142 3.385182,2.4293 3.517863,2.4293 0.05519,0 0.283978,-0.1956 0.508419,-0.43467 z M 84.64089,127.47702 c 2.859346,-0.12018 3.912581,-0.22953 5.374025,-0.55793 6.209276,-1.39528 11.637525,-3.69774 16.630035,-7.05387 3.94057,-2.64897 9.27715,-7.95248 11.94326,-11.86926 3.55192,-5.21812 5.9642,-11.007765 7.33191,-17.597108 l 0.52259,-2.517741 0.002,-6.006263 c 0.002,-5.954594 -0.001,-6.025069 -0.43952,-8.192372 -0.94368,-4.66757 -2.20268,-8.355777 -4.25469,-12.463993 -2.29293,-4.59054 -4.86465,-8.178683 -8.42227,-11.750985 -5.43611,-5.458542 -12.53879,-9.698295 -19.698848,-11.75869 -7.599785,-2.186933 -16.622176,-2.311217 -24.443216,-0.336707 -7.677603,1.938297 -14.681679,5.895238 -20.562558,11.616782 -7.152756,6.95896 -11.551899,15.423582 -13.312472,25.615225 -0.316268,1.830818 -0.356172,2.614663 -0.366112,7.19171 -0.01245,5.73331 0.107077,6.926336 1.103809,11.017234 2.322645,9.532868 7.734154,18.111688 15.49741,24.567918 5.523277,4.59337 12.140086,7.7692 19.896204,9.54946 2.885915,0.6624 6.692098,0.82003 13.197973,0.54659 z m 56.0079,-6.83807 c 1.44302,-1.76192 4.88483,-8.28706 6.34264,-12.02463 1.68537,-4.32103 3.1546,-9.43143 3.94156,-13.709955 0.41781,-2.271542 1.04127,-6.812303 1.04127,-7.583765 0,-0.716286 -0.52121,-0.948563 -2.4832,-1.10664 -2.35246,-0.189537 -20.05864,-0.665272 -20.42561,-0.548802 -0.33321,0.105758 -0.38062,0.279812 -1.12018,4.112667 -1.1392,5.903967 -2.14168,8.811634 -5.27544,15.301285 -0.74752,1.54802 -1.35912,2.87619 -1.35912,2.95149 0,0.46401 1.69502,1.85764 5.29499,4.35349 2.91764,2.02279 13.26563,8.92662 13.3799,8.92662 0.0622,0 0.3606,-0.30229 0.66319,-0.67176 z M 32.955417,78.561031 c 0,-1.105775 0.388677,-3.902866 0.879301,-6.327816 0.73874,-3.651296 1.839601,-6.801258 4.329866,-12.389326 0.862186,-1.934713 1.264071,-3.017524 1.202608,-3.24022 C 39.31642,56.419711 38.937684,56.022163 38.525557,55.720228 33.150639,51.78243 23.0261,44.963675 21.337423,44.144225 l -0.745429,-0.361729 -0.667906,0.737386 c -0.715934,0.79041 -3.57756,6.256433 -4.909886,9.378425 -2.789069,6.535525 -4.487986,13.117182 -5.3651674,20.784831 -0.3295951,2.881067 -0.322549,3.729437 0.032113,3.866522 0.4797184,0.185423 4.1706544,0.338883 18.5324824,0.770541 0.738928,0.02221 2.108119,0.05486 3.042646,0.07255 l 1.699141,0.03217 z M 128.47251,57.780898 c 8.62905,-4.065369 15.02512,-7.296151 15.655,-7.90765 0.28515,-0.276827 0.27514,-0.32082 -0.35925,-1.578934 -1.49693,-2.968713 -4.58831,-7.700237 -6.94998,-10.637331 -4.45601,-5.541718 -10.42048,-11.18175 -15.31713,-14.483954 -1.40242,-0.945762 -1.66231,-0.92859 -2.54823,0.168374 -1.81577,2.24834 -10.91468,17.421035 -10.92247,18.213528 -0.002,0.221481 0.63789,0.930154 1.93623,2.143792 5.79377,5.415757 8.42355,8.419094 11.97575,13.676894 1.46497,2.168378 1.74927,2.481657 2.15881,2.378869 0.21443,-0.05382 2.1815,-0.941934 4.37127,-1.973588 z M 62.832841,37.455148 c 5.944797,-2.216266 8.046796,-2.670015 16.796848,-3.625869 1.19928,-0.131008 2.317111,-0.311305 2.484069,-0.400659 0.434427,-0.232498 0.581639,-0.966027 0.856272,-4.266633 0.477074,-5.733606 1.194552,-16.457985 1.195959,-17.876429 l 7.22e-4,-0.726968 -1.651973,-0.09355 c -3.33359,-0.18878 -10.621392,0.362799 -14.378474,1.088238 -6.58258,1.271001 -12.986753,3.329821 -17.794297,5.720527 -1.844183,0.91708 -2.140242,1.116464 -2.181233,1.468981 -0.05689,0.489269 1.237842,3.050577 4.867386,9.628904 3.094694,5.608942 4.943464,8.851703 5.568352,9.766942 0.378858,0.554892 0.52583,0.659258 0.806651,0.57282 0.188864,-0.05813 1.732236,-0.62347 3.429718,-1.256304 z"
     id="path22" />
  <path
     style="fill:#e1b9ff;fill-opacity:1;stroke:#e1b8c2;stroke-width:0.15806;stroke-opacity:1"
     d="M 75.236347,155.67137 C 68.625106,154.97572 63.617134,153.92788 57.849796,152.0335 49.377213,149.25052 41.52456,145.04092 34.890035,139.72536 19.540373,127.42725 9.9797438,110.47675 7.432379,91.044357 7.1493528,88.88531 6.8364166,81.626753 6.9484695,79.820074 c 0.043134,-0.695462 0.1199524,-2.117998 0.1707084,-3.161191 0.280333,-5.761715 1.812905,-13.289233 3.8918031,-19.115331 2.277378,-6.382335 4.826805,-11.442699 8.559394,-16.989565 2.403021,-3.571042 3.745633,-5.21242 7.296407,-8.920049 5.09189,-5.316825 8.386272,-8.183456 12.727136,-11.074619 9.674327,-6.44343 21.016936,-10.6779822 32.244148,-12.0377533 4.364288,-0.5285758 15.539842,-0.4270702 19.520355,0.1773001 5.40499,0.8206517 11.387089,2.4733362 16.754309,4.6287432 6.57922,2.642125 13.41206,6.58382 18.49297,10.668129 15.47309,12.438087 25.38538,30.291514 27.52755,49.580983 0.39679,3.572897 0.39769,13.359824 0.002,16.675283 -1.39675,11.689646 -4.99686,21.635466 -11.52845,31.848996 -5.17749,8.09612 -12.90555,15.92944 -20.9795,21.26528 -10.85176,7.17159 -22.80704,11.26782 -35.247285,12.07675 -2.745839,0.17854 -10.170484,0.33068 -11.143198,0.22834 z m 10.115811,-2.44042 c 5.961292,-0.38202 10.674438,-1.25055 16.662892,-3.07061 4.39245,-1.33499 9.36441,-3.38346 9.96311,-4.10484 0.4156,-0.50076 0.1832,-1.21152 -1.38896,-4.24799 -3.13279,-6.05064 -8.24972,-15.21656 -8.94781,-16.02814 -0.3994,-0.46433 0.15414,-0.58095 -4.987974,1.05091 -5.444142,1.72772 -7.336655,2.1093 -13.751181,2.77263 -3.840792,0.39718 -4.6489,0.56327 -4.8123,0.98908 -0.260734,0.67946 -1.511405,18.16212 -1.507029,21.06615 0.002,1.3486 0.07961,1.53583 0.721686,1.74179 0.491595,0.15769 4.148232,0.0809 8.047566,-0.16898 z M 42.077264,141.18669 c 1.489307,-1.55946 11.583954,-18.20578 11.583954,-19.10222 0,-0.34241 -0.506752,-0.8858 -2.726527,-2.92361 -5.045402,-4.63182 -6.36987,-6.08317 -10.098496,-11.06588 -2.12783,-2.8435 -2.636608,-3.38092 -3.199823,-3.37995 -0.926265,0.002 -19.236855,8.8942 -20.011294,9.71856 l -0.351193,0.37382 0.409061,0.89351 c 0.831354,1.81592 3.553887,6.05998 5.88,9.16613 3.924552,5.2406 10.826578,11.95964 15.974845,15.5513 1.010716,0.70512 1.885192,1.28204 1.943277,1.28204 0.05809,0 0.326374,-0.23116 0.596196,-0.5137 z m 41.852358,-13.553 c 3.892983,-0.17162 5.138804,-0.32161 7.428799,-0.89437 6.725069,-1.68204 13.385239,-4.92877 18.097819,-8.8224 2.00923,-1.66008 6.133,-5.8109 7.62038,-7.67038 4.19919,-5.24971 7.29317,-12.075526 8.97571,-19.801836 l 0.47434,-2.178195 v -6.337162 c 0,-6.113285 -0.0138,-6.404872 -0.38985,-8.253737 -1.32152,-6.496755 -3.63937,-12.174101 -7.16366,-17.546676 -3.77686,-5.75762 -9.55766,-11.029777 -16.1168,-14.698726 -8.272631,-4.627415 -18.090127,-6.451218 -28.094192,-5.219076 -8.319077,1.02461 -16.031696,4.275138 -22.70907,9.570865 -2.107767,1.671641 -5.902665,5.460911 -7.518805,7.507659 -4.907268,6.214772 -8.020956,13.349005 -9.37139,21.472188 -0.319337,1.920885 -0.33657,2.43982 -0.265088,7.982007 0.08138,6.309406 0.106485,6.553105 1.058455,10.274195 1.979573,7.737814 5.797237,14.660544 11.324746,20.535614 5.728557,6.08877 12.768477,10.32608 21.129339,12.71769 4.968522,1.42124 8.049015,1.69165 15.519267,1.36234 z m 56.739738,-6.83574 c 1.20496,-1.40773 4.46145,-7.42725 6.09299,-11.26268 0.93083,-2.18823 2.52668,-7.08982 3.29347,-10.115812 1.16906,-4.613499 2.27686,-11.763166 1.9379,-12.507102 -0.25033,-0.549433 -0.76447,-0.687471 -3.17039,-0.851214 -3.39718,-0.231206 -17.2314,-0.578353 -19.55787,-0.490772 -0.62579,0.02356 -0.63147,0.03974 -1.47753,4.207455 -1.24604,6.13811 -1.94609,8.190817 -5.07972,14.894995 -1.20967,2.58799 -1.5342,3.42047 -1.41717,3.63537 0.47506,0.87238 3.28878,2.92738 11.7951,8.61456 3.73811,2.49924 6.84437,4.5445 6.90279,4.54504 0.0584,5.4e-4 0.36462,-0.30089 0.68043,-0.66984 z M 33.160537,77.962874 c 0.110509,-1.890797 0.722265,-5.54815 1.294334,-7.738103 0.6273,-2.401395 1.728205,-5.421292 3.356524,-9.207296 0.824088,-1.916089 1.536481,-3.717767 1.583096,-4.003729 0.06578,-0.403548 2.92e-4,-0.611131 -0.292573,-0.927364 -1.04727,-1.13083 -15.829701,-11.179941 -17.8939,-12.164288 l -0.58166,-0.277374 -0.489763,0.464036 c -1.592544,1.508892 -5.752696,10.286353 -7.561474,15.953874 -1.58787,4.97534 -2.9337648,11.84836 -3.2668059,16.682452 -0.1333199,1.935139 -0.1059088,1.966036 1.8614479,2.09825 2.298305,0.154453 16.471401,0.651773 20.378818,0.715072 l 1.517265,0.02458 z M 125.7155,59.209443 c 5.08715,-2.297144 16.34839,-7.851396 17.79531,-8.776984 0.62306,-0.398564 0.87659,-0.660221 0.87659,-0.904688 0,-0.771348 -2.83901,-5.585425 -5.52893,-9.375326 -4.24855,-5.985911 -11.85465,-13.50791 -17.21241,-17.022094 -1.29464,-0.849162 -1.67513,-0.92082 -2.29603,-0.432418 -1.20451,0.947469 -11.47439,17.92071 -11.47439,18.963965 0,0.09806 1.57544,1.717767 3.50096,3.599363 4.90357,4.791683 7.11231,7.354989 10.16627,11.798237 1.69358,2.464013 1.95649,2.766042 2.40774,2.766042 0.22028,0 1.01448,-0.277244 1.76489,-0.616097 z M 62.566068,37.713882 c 6.36332,-2.289588 8.154226,-2.709568 14.883112,-3.490191 3.684263,-0.427413 4.647182,-0.584403 4.906965,-0.800004 0.397847,-0.330185 0.597703,-1.908958 1.099722,-8.687367 0.37755,-5.097812 0.867744,-12.805529 0.868351,-13.65383 l 5.53e-4,-0.771976 -4.544212,0.08814 c -2.499317,0.04848 -5.575551,0.201217 -6.836076,0.33942 -7.55628,0.828467 -16.465331,3.347229 -22.523486,6.367827 -1.754316,0.874703 -2.449923,1.361121 -2.449923,1.713163 0,0.529815 4.740274,9.442101 8.737851,16.428215 1.694991,2.962144 2.113691,3.55634 2.505971,3.55634 0.177389,0 1.685416,-0.490381 3.351172,-1.089738 z"
     id="path23" />
</svg>
