<?xml version="1.0" encoding="UTF-8" standalone="no"?>
<svg
   id="Casino_Chips16"
   viewBox="0 0 161.36 164.54"
   version="1.1"
   sodipodi:docname="1000.svg"
   inkscape:version="1.3 (0e150ed, 2023-07-21)"
   xmlns:inkscape="http://www.inkscape.org/namespaces/inkscape"
   xmlns:sodipodi="http://sodipodi.sourceforge.net/DTD/sodipodi-0.dtd"
   xmlns="http://www.w3.org/2000/svg"
   xmlns:svg="http://www.w3.org/2000/svg">
  <sodipodi:namedview
     id="namedview6"
     pagecolor="#ffffff"
     bordercolor="#000000"
     borderopacity="0.25"
     inkscape:showpageshadow="2"
     inkscape:pageopacity="0.0"
     inkscape:pagecheckerboard="0"
     inkscape:deskcolor="#d1d1d1"
     inkscape:zoom="6.3267293"
     inkscape:cx="80.689401"
     inkscape:cy="82.269997"
     inkscape:window-width="1664"
     inkscape:window-height="1212"
     inkscape:window-x="0"
     inkscape:window-y="25"
     inkscape:window-maximized="0"
     inkscape:current-layer="Casino_Chips16" />
  <defs
     id="defs1">
    <style
       id="style1">.cls-1{fill:#fff;}</style>
  </defs>
  <circle
     class="cls-1"
     cx="81.32"
     cy="80.91"
     r="74.96"
     transform="translate(-33.39 81.2) rotate(-45)"
     id="circle1" />
  <path
     d="M154.76,65.81c-.99-4.81-2.45-9.55-4.37-14.07-1.88-4.44-4.2-8.73-6.91-12.73-2.68-3.97-5.76-7.7-9.15-11.09-3.39-3.39-7.12-6.47-11.09-9.15-4.01-2.71-8.29-5.03-12.73-6.91-4.52-1.91-9.26-3.38-14.07-4.37-4.94-1.01-10.02-1.52-15.11-1.52s-10.17,.51-15.11,1.52c-4.81,.99-9.55,2.45-14.07,4.37-4.44,1.88-8.73,4.2-12.73,6.91-3.97,2.68-7.7,5.76-11.09,9.15s-6.47,7.12-9.15,11.09c-2.71,4.01-5.03,8.29-6.91,12.73-1.91,4.52-3.38,9.26-4.37,14.07-1.01,4.94-1.52,10.02-1.52,15.11s.51,10.17,1.52,15.11c.99,4.81,2.45,9.55,4.37,14.07,1.88,4.44,4.2,8.73,6.91,12.73,2.68,3.97,5.76,7.7,9.15,11.09s7.12,6.47,11.09,9.15c4.01,2.71,8.29,5.03,12.73,6.91,4.52,1.91,9.26,3.38,14.07,4.37,4.94,1.01,10.02,1.52,15.11,1.52s10.17-.51,15.11-1.52c4.81-.99,9.55-2.45,14.07-4.37,4.44-1.88,8.73-4.2,12.73-6.91,3.97-2.68,7.7-5.76,11.09-9.15,3.39-3.39,6.47-7.12,9.15-11.09,2.71-4.01,5.03-8.29,6.91-12.73,1.91-4.52,3.38-9.26,4.37-14.07,1.01-4.94,1.52-10.02,1.52-15.11s-.51-10.17-1.52-15.11ZM18.77,113.89l19.71-9.58c3.66,6.69,8.85,12.43,15.09,16.75l-11.38,18.74c-9.8-6.53-17.89-15.45-23.42-25.91ZM81.32,10.19c.92,0,1.84,.02,2.76,.05l-1.56,21.88c-.4,0-.79-.01-1.19-.01-7.71,0-14.99,1.79-21.47,4.97l-10.54-19.22c9.62-4.9,20.5-7.67,32.01-7.67Zm0,115.99c-25,0-45.27-20.27-45.27-45.27s20.27-45.27,45.27-45.27,45.27,20.27,45.27,45.27-20.27,45.27-45.27,45.27ZM124.51,58.18c-3.68-6.98-9.01-12.96-15.46-17.43l11.37-18.74c10.02,6.67,18.25,15.83,23.79,26.59l-19.7,9.57ZM21.31,43.52l18.15,12.28c-3.87,6.44-6.3,13.85-6.83,21.77l-21.93-.48c.66-12.28,4.46-23.73,10.61-33.57Zm56.58,108.03l1.56-21.87c.62,.02,1.24,.04,1.87,.04,7.26,0,14.15-1.59,20.34-4.43l10.55,19.24c-9.34,4.55-19.82,7.11-30.89,7.11-1.15,0-2.29-.03-3.43-.08Zm44.53-44.31c4.1-6.39,6.75-13.8,7.49-21.77l21.95,.48c-.87,12.32-4.91,23.77-11.31,33.55l-18.13-12.27Z"
     id="path1" />
  <path
     d="M81.32,37.36c-24.01,0-43.55,19.53-43.55,43.55s19.53,43.55,43.55,43.55,43.55-19.53,43.55-43.55-19.53-43.55-43.55-43.55Zm0,83.75c-22.17,0-40.2-18.03-40.2-40.2s18.03-40.2,40.2-40.2,40.2,18.03,40.2,40.2-18.03,40.2-40.2,40.2Z"
     id="path2" />
  <g
     id="g6">
    <path
       d="M48.42,69.51c-1.2,.6-2.46,1.08-3.78,1.46l1.22,3.59c.77-.23,1.49-.49,2.16-.75s1.27-.58,1.79-.94v16.16h4.45v-21.47h-2.68c-.91,.71-1.96,1.37-3.16,1.96Z"
       id="path3" />
    <polygon
       points="58.32 92.74 61.8 92.74 63.94 85.36 59.83 85.36 58.32 92.74"
       id="polygon3" />
    <path
       d="M74.67,67.66c-2.34,0-4.15,.96-5.42,2.87s-1.9,4.69-1.9,8.33,.59,6.11,1.76,7.87,3.02,2.64,5.54,2.64,4.26-.95,5.47-2.84,1.82-4.61,1.82-8.16-.55-6.27-1.66-8.05-2.97-2.67-5.61-2.67Zm2.12,16.42c-.39,1.23-1.1,1.85-2.14,1.85-.96,0-1.65-.6-2.09-1.79s-.65-2.99-.65-5.38c0-2.56,.21-4.47,.63-5.74s1.12-1.9,2.09-1.9c1.03,0,1.74,.62,2.14,1.85s.6,3.09,.6,5.56-.2,4.34-.59,5.57Z"
       id="path4" />
    <path
       d="M92.14,67.66c-2.34,0-4.15,.96-5.42,2.87s-1.9,4.69-1.9,8.33,.59,6.11,1.76,7.87,3.02,2.64,5.54,2.64,4.26-.95,5.47-2.84,1.82-4.61,1.82-8.16-.55-6.27-1.66-8.05-2.97-2.67-5.61-2.67Zm2.12,16.42c-.39,1.23-1.1,1.85-2.14,1.85-.96,0-1.65-.6-2.09-1.79s-.65-2.99-.65-5.38c0-2.56,.21-4.47,.63-5.74s1.12-1.9,2.09-1.9c1.03,0,1.74,.62,2.14,1.85s.6,3.09,.6,5.56-.2,4.34-.59,5.57Z"
       id="path5" />
    <path
       d="M115.23,70.34c-1.1-1.78-2.97-2.67-5.61-2.67-2.34,0-4.15,.96-5.42,2.87s-1.9,4.69-1.9,8.33,.59,6.11,1.76,7.87,3.02,2.64,5.54,2.64,4.26-.95,5.47-2.84,1.82-4.61,1.82-8.16-.55-6.27-1.66-8.05Zm-3.49,13.75c-.39,1.23-1.1,1.85-2.14,1.85-.96,0-1.65-.6-2.09-1.79s-.65-2.99-.65-5.38c0-2.56,.21-4.47,.63-5.74s1.12-1.9,2.09-1.9c1.03,0,1.74,.62,2.14,1.85s.6,3.09,.6,5.56-.2,4.34-.59,5.57Z"
       id="path6" />
  </g>
  <path
     style="fill:#c8beb7;stroke:#f1c198;stroke-width:0.15806;stroke-opacity:1"
     d="M 75.789555,155.60305 C 60.197741,154.28091 46.382501,148.81167 34.456982,139.24011 21.78406,129.06867 12.663523,114.90286 8.7679112,99.340428 7.1760553,92.981182 6.5083283,87.539699 6.5083283,80.92649 c 0,-4.10675 0.1685374,-6.621588 0.7044155,-10.51096 C 9.8914119,50.973915 20.504222,33.014317 36.353697,21.101559 47.192914,12.954604 59.699159,8.0142515 73.443817,6.4498189 76.866535,6.0602413 85.770308,6.0594564 89.186169,6.4484311 112.95148,9.1546619 133.38343,22.234789 145.59875,42.562643 c 10.17109,16.926008 13.18942,37.617828 8.28752,56.814171 -4.24107,16.608456 -14.14289,31.373166 -27.91281,41.621076 -10.70364,7.96591 -23.20906,12.85922 -36.75157,14.38072 -2.677655,0.30083 -10.909403,0.43838 -13.432335,0.22444 z m 11.143198,-4.10736 c 8.379491,-0.70329 16.385337,-2.78081 23.819807,-6.18125 0.80835,-0.36972 1.49563,-0.69027 1.52729,-0.71231 0.1324,-0.0922 -10.50709,-19.32898 -10.69337,-19.33421 -0.11213,-0.003 -0.46776,0.12785 -0.7903,0.2911 -1.723939,0.87261 -6.284387,2.35036 -9.088278,2.94494 -3.598757,0.76314 -8.695833,1.28923 -11.229675,1.15905 l -1.054489,-0.0542 -0.07299,0.47418 c -0.07389,0.48003 -1.512185,20.78806 -1.508446,21.29853 0.0019,0.25531 0.278778,0.27647 3.597883,0.27497 1.97772,-9e-4 4.449376,-0.0733 5.492569,-0.16082 z m -39.247438,-20.5555 c 2.928945,-4.81808 5.470912,-9.01733 5.648816,-9.33166 l 0.323462,-0.57151 -1.642319,-1.24618 c -5.139357,-3.8997 -9.732253,-9.05159 -12.736009,-14.28609 -0.374139,-0.65199 -0.703512,-1.21325 -0.731935,-1.24723 -0.0843,-0.10078 -19.817273,9.53293 -19.817273,9.67486 0,0.51546 3.878829,6.67288 5.892536,9.35407 3.733877,4.97155 8.651435,9.94395 13.706848,13.85971 1.931147,1.4958 3.672746,2.67123 3.864797,2.60841 0.09115,-0.0298 2.562132,-3.99629 5.491077,-8.81438 z m 40.399495,-5.18281 c 14.66755,-2.26523 27.17198,-11.34602 33.78726,-24.5365 2.31414,-4.614261 3.8568,-9.783997 4.52301,-15.157454 0.26521,-2.139126 0.26511,-8.135956 -1.7e-4,-10.273871 -0.49228,-3.967194 -1.49332,-8.001183 -2.82404,-11.380288 C 117.39921,48.737598 103.26652,37.830205 86.6075,35.881494 83.94386,35.569911 78.697631,35.57012 76.032175,35.881916 64.130145,37.274171 53.33724,43.264007 45.867543,52.622653 c -8.389045,10.510483 -11.65319,24.169635 -8.95785,37.485068 1.714306,8.468954 6.065944,16.551529 12.246828,22.746809 3.044456,3.05155 6.093183,5.39159 9.7846,7.51014 4.719015,2.7083 10.652648,4.71737 16.058136,5.43712 2.831985,0.37709 2.852847,0.37806 7.03365,0.32763 3.00513,-0.0362 4.454526,-0.12534 6.051903,-0.37204 z m 53.87123,-8.31913 c 1.40639,-2.29373 3.74668,-6.91911 4.79837,-9.48358 2.40001,-5.85221 4.09587,-12.341047 4.81249,-18.413934 0.37854,-3.207815 0.42228,-3.634714 0.37329,-3.64267 -0.17219,-0.02796 -19.1844,-0.456152 -20.46447,-0.460902 l -1.61043,-0.006 -0.0996,0.750783 c -1.00655,7.584154 -3.16841,14.011983 -6.6207,19.685283 -0.41228,0.67751 -0.72691,1.29846 -0.69919,1.3799 0.0277,0.0814 4.1001,2.88984 9.04974,6.24089 7.26378,4.91779 9.03744,6.05387 9.19691,5.89084 0.10867,-0.11109 0.6773,-0.98437 1.26363,-1.94063 z M 32.76174,76.895972 c 0.08253,-1.352111 0.530184,-4.353373 0.919443,-6.164323 1.020782,-4.748965 2.897135,-9.688331 5.260219,-13.847135 L 39.579697,55.761173 33.77812,51.836556 C 30.587251,49.678018 26.468524,46.891538 24.625392,45.64438 l -3.351149,-2.267561 -0.963408,1.625375 C 14.88901,54.149401 11.449544,65.157161 10.728106,75.67101 l -0.105745,1.541081 2.354708,0.01529 c 1.295089,0.0084 5.875484,0.105811 10.178655,0.216445 4.303172,0.110634 8.215146,0.19266 8.693276,0.182281 l 0.869327,-0.01887 z M 134.49255,53.432796 c 5.35523,-2.603215 9.73679,-4.810646 9.73679,-4.905405 0,-0.24759 -2.20485,-4.102295 -3.42465,-5.987267 -4.08896,-6.318701 -9.62913,-12.412167 -15.64409,-17.206472 -1.89717,-1.512165 -4.70114,-3.444976 -4.81895,-3.321759 -0.13784,0.144166 -11.21278,18.386028 -11.3054,18.621451 -0.0368,0.09355 0.56552,0.635687 1.3385,1.20474 3.28237,2.416406 6.79316,5.855942 9.40603,9.215151 1.35139,1.737394 3.37321,4.793449 4.08549,6.175355 0.28963,0.561923 0.60825,1.002697 0.70804,0.9795 0.0998,-0.0232 4.563,-2.172078 9.91824,-4.775294 z M 65.197016,34.945426 c 4.547602,-1.611866 9.425897,-2.51667 14.683032,-2.723344 l 2.686114,-0.1056 0.09353,-0.963553 c 0.05144,-0.529955 0.374436,-4.982219 0.717766,-9.893919 0.343331,-4.911701 0.669547,-9.420048 0.724925,-10.018549 l 0.100687,-1.088184 -4.641422,0.089 c -4.744768,0.09098 -6.982954,0.303436 -11.200892,1.063233 -3.769004,0.678928 -8.42533,1.990466 -12.170585,3.428065 -2.304724,0.884657 -6.593693,2.783035 -6.836716,3.026057 -0.09043,0.09044 9.222199,17.385388 10.407957,19.32913 0.03417,0.056 0.89831,-0.27096 1.920323,-0.726585 1.022013,-0.455626 2.603889,-1.092713 3.515281,-1.415749 z"
     id="path7" />
  <path
     style="fill:#c8beb7;stroke:#f1c197;stroke-width:0.15806;stroke-opacity:1"
     d="M 76.579853,155.50252 C 72.812589,155.29179 67.359944,154.41457 62.979894,153.31456 44.045629,148.55942 27.555043,136.31243 17.335538,119.41607 11.984123,110.56834 8.6308881,100.91123 7.1814712,90.172974 6.7632034,87.074166 6.5769668,78.272275 6.8601298,74.985778 8.2279619,59.110199 14.000173,45.102279 24.277181,32.718327 25.974691,30.672803 31.164856,25.484683 33.192506,23.806519 44.04861,14.821566 56.08238,9.3345979 69.783292,7.1224299 71.13075,6.9048675 72.980046,6.6578027 73.89284,6.573397 78.63608,6.1347914 86.812171,6.2449842 90.805212,6.8013324 104.62857,8.727334 117.44888,14.144108 127.79115,22.428451 c 3.42307,2.741946 8.06302,7.254712 10.66113,10.368906 13.02571,15.613138 19.11353,35.164912 17.22518,55.320843 -2.06356,22.02629 -14.26234,42.45346 -32.72991,54.80707 -9.56388,6.39761 -20.16883,10.42309 -31.732023,12.045 -3.332858,0.46748 -10.884273,0.7421 -14.635674,0.53225 z m 12.565734,-4.07784 c 6.627023,-0.79706 12.852693,-2.37436 18.713193,-4.74107 2.58186,-1.04266 4.60059,-1.95745 4.60059,-2.08478 0,-0.33345 -10.64882,-19.49469 -10.83413,-19.49469 -0.0314,0 -0.825,0.31259 -1.76364,0.69466 -5.748053,2.33969 -12.748275,3.72861 -18.801733,3.73046 l -1.763337,5.4e-4 -0.09534,0.75079 c -0.05244,0.41293 -0.377422,4.80501 -0.72219,9.76017 -0.344765,4.95517 -0.668538,9.55465 -0.719491,10.22107 -0.08097,1.05893 -0.05655,1.23433 0.193664,1.39136 0.406761,0.25527 8.552926,0.089 11.192416,-0.22851 z M 43.433703,138.10453 c 1.217082,-1.92305 4.880678,-7.91393 8.408995,-13.75076 1.116554,-1.8471 2.000272,-3.38214 1.963822,-3.41121 -0.03645,-0.0291 -0.67085,-0.50814 -1.409779,-1.06459 -5.180816,-3.90143 -9.739585,-8.94612 -12.873277,-14.24545 -0.871349,-1.47353 -0.921332,-1.52597 -1.312566,-1.37722 -1.818175,0.69127 -19.533587,9.46826 -19.59826,9.70983 -0.123475,0.46123 4.807967,8.09588 6.990816,10.82289 3.73765,4.6694 8.694497,9.49086 13.468542,13.10068 1.057739,0.79979 2.991711,2.07303 3.148805,2.07303 0.02062,0 0.566429,-0.83574 1.212902,-1.8572 z m 43.340991,-12.06507 c 7.852488,-0.80869 16.718426,-4.53691 23.077886,-9.70451 7.76292,-6.30802 13.17562,-14.75807 15.54316,-24.265261 1.02005,-4.096128 1.15835,-5.228651 1.24325,-10.1809 0.0856,-4.996043 -0.001,-6.147918 -0.74749,-9.899866 -1.7241,-8.669325 -5.81283,-16.439101 -12.00272,-22.808608 -7.03091,-7.234934 -15.906379,-11.74025 -26.244759,-13.322208 -2.610382,-0.399435 -10.067002,-0.402884 -12.644764,-0.0058 -5.963708,0.918552 -11.684568,2.900226 -16.521506,5.722956 -9.498129,5.542898 -16.571899,14.161617 -20.167925,24.572707 -3.638929,10.535306 -3.22046,22.283805 1.159762,32.560268 4.495618,10.547192 13.103428,19.284202 23.438114,23.789912 4.783849,2.08567 10.065818,3.42303 14.541478,3.68181 2.443109,0.14126 7.300335,0.0681 9.325514,-0.14045 z m 54.419186,-7.13916 c 1.54814,-2.27551 4.70579,-8.40976 5.95976,-11.57786 2.19207,-5.53814 3.77987,-11.707874 4.49887,-17.481354 0.17756,-1.425718 0.36156,-2.888196 0.4089,-3.249951 0.0473,-0.361756 0.0275,-0.693937 -0.0441,-0.73818 -0.11794,-0.07289 -5.52847,-0.229211 -17.83763,-0.515359 l -4.43852,-0.103181 -0.19216,1.402378 c -0.85704,6.254763 -2.885,12.657849 -5.48268,17.311027 -2.03359,3.64275 -1.87781,3.28718 -1.54968,3.53724 0.63736,0.48571 9.6444,6.63692 12.78232,8.72948 3.38695,2.25864 5.1288,3.35638 5.32691,3.3571 0.061,2.3e-4 0.31662,-0.30188 0.56799,-0.67134 z M 32.814408,77.492915 c 0.05284,-0.08127 0.139082,-0.705366 0.191637,-1.386887 0.450877,-5.846861 2.784652,-13.239397 6.023357,-19.079775 l 0.719635,-1.297721 -0.354164,-0.260358 C 38.590772,54.877053 21.331697,43.233362 21.25901,43.232967 c -0.179075,-9.77e-4 -2.602634,4.365429 -3.770367,6.792881 -3.899423,8.106018 -6.309944,17.095405 -6.912047,25.776605 l -0.105039,1.514463 10.175028,0.194924 c 5.596265,0.107207 10.352845,0.214977 10.570176,0.239489 0.565523,0.06378 1.484826,-0.08491 1.597647,-0.258414 z M 132.84905,54.385478 c 9.08644,-4.413394 11.46308,-5.654112 11.43873,-5.971551 -0.0522,-0.680508 -3.95911,-7.038713 -5.93976,-9.666496 -3.66177,-4.858188 -9.37228,-10.701981 -13.63903,-13.957376 -1.58483,-1.209174 -4.07453,-2.898807 -4.27144,-2.898807 -0.11112,0 -0.34133,0.231162 -0.51157,0.513693 -0.17025,0.282532 -1.39819,2.291864 -2.72877,4.465183 -4.90591,8.013158 -8.21515,13.551443 -8.21515,13.748756 0,0.240775 0.72498,0.896479 2.53669,2.294288 1.84151,1.420802 6.16942,5.747608 7.73074,7.728757 1.42781,1.811748 3.05889,4.197315 4.1177,6.022424 1.08969,1.878339 0.94739,1.803145 2.26543,1.197014 0.62213,-0.286099 3.86952,-1.850249 7.21643,-3.475885 z M 61.922407,36.413336 c 6.324815,-2.648425 11.292227,-3.751373 18.180372,-4.036711 1.372546,-0.05686 2.526975,-0.154241 2.565397,-0.216408 0.05157,-0.08344 1.656595,-21.420133 1.656595,-22.022254 0,-0.1454535 -3.671823,-0.118412 -7.349769,0.05413 -7.366176,0.345564 -14.850185,2.004401 -21.970278,4.869732 -2.075453,0.835223 -5.485006,2.372485 -5.668087,2.555566 -0.199306,0.199306 1.975476,4.389827 7.91906,15.258998 2.17618,3.979628 2.394471,4.346637 2.585313,4.346637 0.08126,0 1.017887,-0.36436 2.081397,-0.809688 z"
     id="path8" />
  <path
     style="fill:#c8beb7;stroke:#f1c197;stroke-width:0.15806;stroke-opacity:1"
     d="M 75.394406,155.28619 C 67.524765,154.55674 59.128204,152.47879 52.354399,149.58431 43.535902,145.81613 35.979352,140.75729 29.172391,134.06477 17.303996,122.39591 9.8996693,107.78905 7.5217975,91.353624 6.9262756,87.237483 6.6754886,78.68936 7.0350329,74.762168 8.4243482,59.587104 13.610955,46.573301 23.130022,34.377952 25.07451,31.886773 31.716788,25.148636 34.061833,23.288376 44.309485,15.159197 54.566558,10.315687 66.790668,7.8334364 75.119297,6.1422095 85.156167,5.9633846 93.296693,7.3611838 107.0707,9.7263012 119.42757,15.444626 129.60291,24.162429 c 7.89489,6.764007 14.08711,14.744992 18.65639,24.045734 8.48416,17.269465 9.93064,37.344802 4.0031,55.557937 -7.40148,22.74197 -24.95878,40.41386 -47.60713,47.91786 -5.432327,1.79987 -11.498027,3.05378 -16.695129,3.45124 -3.036051,0.23219 -10.696617,0.32424 -12.565735,0.15099 z M 88.1182,151.64203 c 6.032169,-0.48796 13.51076,-2.33425 20.07356,-4.9557 3.28753,-1.31317 4.47815,-1.93394 4.35034,-2.26822 -0.27932,-0.73053 -9.40538,-17.19687 -10.47059,-18.89231 -0.28254,-0.4497 -0.44919,-0.57715 -0.64698,-0.49477 -6.479283,2.69836 -12.660344,4.07533 -19.254968,4.28945 l -3.024537,0.0982 -0.101223,1.04343 c -0.426576,4.39723 -1.479746,20.8096 -1.350797,21.05054 0.09094,0.16992 0.390807,0.31341 0.744517,0.35626 0.892874,0.10817 7.433773,-0.0451 9.680678,-0.22689 z M 43.287575,138.57871 c 2.113089,-3.26529 10.359229,-16.8784 10.572526,-17.45362 0.0729,-0.1966 -0.199041,-0.48831 -1.057754,-1.13463 -2.038942,-1.53463 -3.440101,-2.75707 -5.515573,-4.81204 -3.057349,-3.02716 -5.392377,-5.96891 -7.730413,-9.73906 -0.411852,-0.66413 -0.86117,-1.25061 -0.998481,-1.30331 -0.138724,-0.0532 -0.999942,0.24623 -1.938188,0.67394 -2.265395,1.03271 -17.576425,8.66513 -17.940047,8.94297 -0.273524,0.20899 -0.260989,0.26965 0.257852,1.24765 1.464295,2.76016 5.228881,8.26822 7.607631,11.13091 2.950781,3.5511 7.864383,8.30487 11.623521,11.24542 1.308366,1.02346 3.805666,2.73454 3.998415,2.73961 0.06777,0.002 0.572002,-0.69024 1.120511,-1.53784 z m 43.09197,-12.37715 c 8.565522,-0.7821 17.920675,-4.8652 24.807305,-10.82727 7.82224,-6.77207 12.8775,-15.613888 15.04128,-26.307733 0.45638,-2.255527 0.73078,-9.129488 0.48838,-12.23428 -0.58045,-7.434529 -3.42508,-15.395143 -7.74334,-21.669493 -6.78552,-9.859235 -16.9927,-16.60103 -28.718855,-18.968669 -3.276824,-0.661628 -4.617721,-0.750335 -10.078355,-0.666747 -4.938739,0.0756 -5.169129,0.09319 -7.389536,0.564157 -7.490104,1.588715 -13.148997,4.109218 -18.967147,8.448074 -2.697172,2.011405 -6.807726,6.087459 -8.720629,8.64744 -6.673661,8.931163 -9.871683,19.24336 -9.296337,29.976546 0.07523,1.403441 0.217838,3.145709 0.316905,3.871708 1.57395,11.534456 7.497175,22.003117 16.663744,29.451377 6.243501,5.07313 14.698602,8.67671 22.611446,9.63703 2.12919,0.25841 8.512338,0.30365 10.985139,0.0779 z m 54.858615,-7.1432 c 1.33617,-1.83886 4.82435,-8.61737 6.12057,-11.89398 1.43281,-3.62189 2.94607,-8.884449 3.73738,-12.99726 0.4763,-2.475559 1.22719,-8.080611 1.1083,-8.272979 -0.15653,-0.253272 -1.1133,-0.300018 -11.05723,-0.540241 -12.81191,-0.309508 -11.61738,-0.324288 -11.61738,0.143756 0,0.770759 -0.80795,5.129102 -1.33553,7.204271 -1.21037,4.760866 -2.51174,8.011173 -5.00536,12.501453 -0.51142,0.9209 -0.92985,1.81645 -0.92985,1.9901 0,0.23704 1.27046,1.18422 5.09742,3.80035 8.66364,5.92251 12.93744,8.73628 13.26941,8.73628 0.0683,0 0.34381,-0.30229 0.61227,-0.67175 z M 32.769561,77.706794 c 0.132548,-0.08404 0.291695,-0.851086 0.434017,-2.091869 0.67988,-5.92728 2.446343,-11.630044 5.37665,-17.357721 0.73039,-1.427648 1.310612,-2.611471 1.289382,-2.630716 -0.165885,-0.150372 -5.503574,-3.769811 -11.471602,-7.778791 -4.035003,-2.710482 -7.22506,-4.753465 -7.301971,-4.67634 -0.315046,0.315926 -2.48093,4.272595 -3.622371,6.617402 -3.219085,6.61281 -5.427913,13.762294 -6.483833,20.98672 -0.308046,2.107598 -0.635394,5.306614 -0.636392,6.219155 l -5.4e-4,0.49381 7.863462,0.149641 c 10.881684,0.207077 14.30943,0.223261 14.553198,0.06871 z M 127.69669,57.039123 c 5.75653,-2.744703 15.83323,-7.772399 16.25605,-8.110836 0.23906,-0.191354 0.43466,-0.471924 0.43466,-0.623488 0,-0.3592 -2.17382,-4.075064 -4.05782,-6.936296 -4.12694,-6.267619 -11.4942,-13.929373 -17.24419,-17.9335 -2.45242,-1.707794 -2.67176,-1.822241 -2.94813,-1.538242 -0.33311,0.342305 -9.65731,15.68258 -10.92917,17.980788 l -0.46312,0.83684 0.71507,0.664726 c 0.39328,0.3656 1.42462,1.244711 2.29186,1.953583 1.83445,1.499457 6.07271,5.766603 7.43354,7.484208 1.04895,1.323942 3.17184,4.434724 4.09835,6.005503 0.74317,1.259953 1.01008,1.580595 1.31572,1.580595 0.13017,0 1.5239,-0.613746 3.09718,-1.363881 z M 62.670612,36.272241 c 5.986953,-2.379176 9.856526,-3.241945 16.579591,-3.696627 3.554263,-0.240376 3.644718,-0.265689 3.649612,-1.021305 0.0013,-0.205547 0.213836,-3.121746 0.472233,-6.480442 1.061722,-13.800433 1.130173,-14.926339 0.916603,-15.0765857 -0.276855,-0.1947704 -7.369387,-0.00329 -10.308919,0.2783107 -7.852988,0.752307 -15.410599,2.86714 -23.361161,6.537114 -1.023525,0.472459 -1.383021,0.715824 -1.383021,0.936255 0,0.382299 1.079457,2.579296 3.316629,6.75027 3.055499,5.696662 6.511479,11.993157 6.835171,12.453091 0.365111,0.518785 0.159016,0.561475 3.283262,-0.680081 z"
     id="path9" />
  <path
     style="fill:#f1c198;fill-opacity:1;stroke:#f1c197;stroke-width:0.15806;stroke-opacity:1"
     d="M 75.552466,155.13448 C 70.45082,154.75258 63.392974,153.29275 57.88214,151.4796 36.348498,144.39466 18.80236,127.17847 11.187292,105.66281 9.6040753,101.18958 8.1263744,95.035893 7.6005204,90.726183 6.9245589,85.186244 6.8786269,76.590527 7.49959,71.838066 9.3532343,57.651444 14.751507,45.036564 23.766591,33.824744 c 1.647313,-2.048719 9.453748,-9.719937 11.480689,-11.281829 2.274045,-1.752303 7.105216,-4.990373 9.404543,-6.303352 9.737869,-5.560591 20.618344,-8.780716 32.162421,-9.5186134 9.676651,-0.6185314 18.672447,0.5867782 28.217296,3.7807194 14.13313,4.72929 25.93365,13.153748 35.3264,25.219723 4.68161,6.014016 9.06945,14.31428 11.56528,21.877473 5.4787,16.602263 4.96792,34.481117 -1.44765,50.671925 -0.95088,2.3997 -3.35534,7.37407 -4.66048,9.64164 -3.3882,5.88671 -6.94153,10.5035 -11.93148,15.50239 -5.33338,5.34293 -10.37388,9.1387 -16.88741,12.71713 -8.90419,4.89183 -19.491379,8.11146 -29.036059,8.83007 -2.998351,0.22575 -10.333864,0.32771 -12.407675,0.17246 z m 14.620508,-3.55068 c 5.777542,-0.76398 12.415166,-2.52864 18.230006,-4.84658 3.425,-1.36528 4.21445,-1.80086 4.21445,-2.32531 0,-0.25847 -2.5123,-4.90098 -6.77046,-12.51121 -3.64445,-6.5134 -3.86121,-6.8683 -4.2276,-6.92179 -0.17403,-0.0254 -1.16697,0.28348 -2.206525,0.68641 -5.73708,2.22371 -11.979538,3.40115 -19.039563,3.59122 l -1.343506,0.0362 -0.188077,1.89672 c -0.20063,2.02331 -0.870543,11.79644 -1.174558,17.13521 -0.176288,3.09581 -0.171637,3.23515 0.115287,3.45335 0.424022,0.32245 9.567102,0.17916 12.390546,-0.19419 z M 43.253709,138.84814 c 1.692258,-2.53026 9.959423,-16.12822 10.519338,-17.30237 0.153935,-0.32281 0.192516,-0.59782 0.105164,-0.74965 -0.07588,-0.13189 -0.919973,-0.86305 -1.875763,-1.62481 -4.656381,-3.71107 -8.188781,-7.57822 -11.570876,-12.6674 -0.819133,-1.23258 -1.585213,-2.32064 -1.702398,-2.41789 -0.356364,-0.29576 -2.128944,0.50396 -11.463901,5.17206 -7.231364,3.61616 -8.780918,4.44723 -8.821335,4.73109 -0.146085,1.026 5.600846,9.53108 9.174969,13.57835 2.891845,3.27468 7.586421,7.70449 10.695345,10.09216 1.630996,1.25261 3.702885,2.62659 3.88101,2.57369 0.09058,-0.0269 0.566885,-0.65025 1.058447,-1.38523 z M 88.03917,126.14315 c 7.705984,-1.12194 15.81995,-4.68215 22.04931,-9.67469 6.25932,-5.01656 11.37181,-12.1707 14.10748,-19.741241 2.14771,-5.943477 2.67922,-9.168799 2.69499,-16.353937 0.01,-4.49084 -0.23925,-6.716824 -1.15858,-10.352901 -2.05882,-8.142897 -5.84986,-14.995658 -11.52884,-20.839736 -2.567,-2.641632 -4.6716,-4.402918 -7.56771,-6.333236 -5.30067,-3.532999 -11.039118,-5.81387 -17.806352,-7.077522 -1.753797,-0.327487 -2.325469,-0.35305 -7.586858,-0.339244 -6.259832,0.01643 -6.837371,0.07412 -10.812959,1.080216 -6.781941,1.716288 -12.936379,4.770038 -17.924101,8.893699 -1.966928,1.626183 -5.810699,5.504042 -7.087391,7.150243 -4.869577,6.278971 -8.08218,13.667673 -9.312129,21.417069 -0.426225,2.68547 -0.576704,7.925933 -0.316215,11.012235 1.03156,12.221999 7.25174,23.834545 16.960853,31.664445 6.63205,5.34842 16.17106,9.20434 24.066274,9.72823 2.695281,0.17885 9.339162,0.0405 11.222228,-0.23363 z m 53.09747,-6.74546 c 0.97864,-1.16304 4.26784,-7.33376 5.84676,-10.96884 1.46317,-3.36858 3.16416,-8.994119 4.11015,-13.593119 0.5293,-2.573249 1.22723,-7.64798 1.16689,-8.484577 l -0.0491,-0.680547 -0.74773,-0.106169 c -1.06765,-0.151596 -21.26059,-0.651986 -21.71438,-0.538091 -0.28993,0.07277 -0.3775,0.2016 -0.3775,0.555389 0,0.728805 -0.74199,4.616608 -1.35028,7.075026 -1.0363,4.188192 -2.41466,7.745928 -4.52619,11.682678 -0.55487,1.03451 -1.1091,2.12292 -1.23161,2.4187 -0.21952,0.52995 -0.21437,0.54503 0.35338,1.03581 1.55429,1.34358 17.55088,12.09422 17.99579,12.09422 0.0611,0 0.29682,-0.22072 0.52381,-0.49048 z M 32.949094,77.69667 c 0.077,-0.124679 0.220696,-0.835947 0.319328,-1.580596 0.886442,-6.692437 2.204332,-11.052258 5.289099,-17.497323 0.743329,-1.553051 1.351733,-2.897954 1.352012,-2.988674 5.58e-4,-0.182636 -0.582728,-0.591369 -7.665384,-5.371453 -6.282703,-4.240197 -10.829943,-7.187396 -11.089447,-7.187396 -0.27156,0 -1.32636,1.813213 -3.126229,5.374025 -3.784196,7.486549 -6.007362,14.446145 -7.204279,22.55291 -0.335129,2.269838 -0.730129,6.481957 -0.618343,6.593744 0.09208,0.09207 16.195437,0.378581 19.791819,0.352129 2.254876,-0.01658 2.839142,-0.06555 2.951424,-0.247366 z M 127.86001,57.109921 c 4.98958,-2.353714 15.96588,-7.88571 16.33562,-8.233065 0.48034,-0.451258 0.40783,-0.70608 -0.793,-2.786945 -2.36536,-4.098826 -4.56708,-7.271625 -7.41438,-10.684571 -1.84965,-2.2171 -6.65644,-7.079633 -8.88386,-8.986892 -2.00256,-1.714718 -5.14474,-4.034864 -6.17906,-4.56253 l -0.6308,-0.321815 -0.37453,0.485648 c -0.63911,0.828751 -9.46442,15.317173 -10.86438,17.835953 -0.54958,0.988798 -0.69583,0.766111 2.06024,3.137095 2.46842,2.123512 6.00742,5.637195 7.6241,7.56954 0.6469,0.7732 2.01924,2.693624 3.04966,4.267607 2.47347,3.778273 2.47337,3.77815 2.97041,3.6534 0.22154,-0.0556 1.61653,-0.673645 3.09998,-1.373425 z M 62.853407,36.368041 c 5.902683,-2.314789 9.234303,-3.053017 16.492488,-3.654449 3.271986,-0.271125 3.713612,-0.4072 3.715507,-1.14484 6.09e-4,-0.237061 0.286061,-4.165177 0.634338,-8.729147 0.348278,-4.563969 0.678692,-9.34199 0.734254,-10.617822 L 84.531018,9.9020862 83.99323,9.8017435 c -0.796661,-0.1486447 -8.901962,0.1947147 -11.364866,0.4814415 -5.928924,0.690237 -11.698568,2.176764 -17.808353,4.588256 -3.57725,1.411918 -5.542614,2.371354 -5.668207,2.767061 -0.156866,0.494238 2.522346,5.715737 8.264795,16.107212 1.913627,3.46288 2.031068,3.63537 2.475175,3.63537 0.208112,0 1.540846,-0.455869 2.961633,-1.013043 z"
     id="path10" />
  <path
     style="fill:#da9e43;fill-opacity:1;stroke:#f1c197;stroke-width:0.15806;stroke-opacity:1"
     d="m 58.675793,34.733586 c -0.651096,-1.195325 -2.390875,-4.378249 -3.866175,-7.073164 -2.960039,-5.407073 -5.274733,-9.759597 -5.216565,-9.809171 0.507428,-0.432467 5.909322,-2.721575 8.671699,-3.674722 7.737011,-2.669623 14.79165,-3.816691 23.507071,-3.822196 l 2.267867,-0.0014 -0.09478,0.908842 c -0.05213,0.499863 -0.37856,4.998633 -0.725398,9.997267 -0.346838,4.998633 -0.670563,9.450965 -0.719388,9.894069 l -0.08877,0.805646 -2.58812,0.10608 c -6.716261,0.275281 -12.510369,1.588783 -18.31893,4.152831 -0.858805,0.379098 -1.58019,0.689269 -1.603078,0.689269 -0.02289,0 -0.574331,-0.977993 -1.225427,-2.173319 z"
     id="path11" />
  <path
     style="fill:#da9e43;fill-opacity:1;stroke:#f1c197;stroke-width:0.15806;stroke-opacity:1"
     d="m 123.76051,56.624834 c -3.23509,-5.594505 -7.7347,-10.72502 -12.76284,-14.552372 -0.93434,-0.711203 -1.69895,-1.350431 -1.69914,-1.420506 -1.9e-4,-0.07007 2.49979,-4.247311 5.55551,-9.282748 l 5.55587,-9.155339 0.56894,0.320587 c 0.89322,0.503308 4.14862,2.981117 6.12501,4.661982 3.50251,2.978776 7.65099,7.379834 10.56857,11.212033 2.08011,2.732191 6.24079,9.381514 6.24079,9.973613 0,0.09087 -0.62236,0.491714 -1.38302,0.890773 -1.93329,1.014241 -17.72078,8.655969 -17.88288,8.655969 -0.073,0 -0.47208,-0.586796 -0.88681,-1.303992 z"
     id="path12" />
  <path
     style="fill:#da9e43;fill-opacity:1;stroke:#f1c197;stroke-width:0.15806;stroke-opacity:1"
     d="m 137.4211,117.23494 c -3.32886,-2.20415 -14.54323,-9.80217 -14.71307,-9.96848 -0.0573,-0.0561 0.21423,-0.63553 0.60345,-1.28753 3.282,-5.49767 5.55821,-12.02057 6.44985,-18.483186 0.13718,-0.994346 0.28005,-1.838521 0.31747,-1.875946 0.0782,-0.07822 15.91694,0.235047 19.38838,0.383476 l 2.31374,0.09893 -0.059,0.573335 c -1.05172,10.216968 -3.36683,18.251621 -7.63611,26.501321 -1.30923,2.52989 -2.98786,5.43035 -3.40737,5.88753 -0.14947,0.16288 -0.80094,-0.20301 -3.25732,-1.82945 z"
     id="path13" />
  <path
     style="fill:#da9e43;fill-opacity:1;stroke:#f1c197;stroke-width:0.15806;stroke-opacity:1"
     d="m 78.099033,151.37052 c -0.100545,-0.16268 1.251884,-20.40259 1.414509,-21.16896 0.07126,-0.33583 0.15233,-0.35567 1.455475,-0.35628 6.214088,-0.003 12.76447,-1.25668 18.492354,-3.53957 l 2.096689,-0.83564 1.09208,1.91132 c 0.60065,1.05123 2.97271,5.33809 5.27125,9.52637 l 4.17918,7.61504 -2.04092,0.89264 c -6.80812,2.97767 -12.825119,4.64962 -20.202795,5.61376 -3.060596,0.39997 -11.568926,0.64696 -11.757822,0.34132 z"
     id="path14" />
  <path
     style="fill:#da9e43;fill-opacity:1;stroke:#f1c197;stroke-width:0.15806;stroke-opacity:1"
     d="m 40.313533,138.36122 c -6.714856,-4.7767 -13.07316,-11.34118 -17.739747,-18.31499 -1.138519,-1.70142 -3.717976,-6.02664 -3.640403,-6.10422 0.02379,-0.0238 4.415411,-2.1717 9.759168,-4.77315 l 9.71592,-4.72991 0.316119,0.55232 c 0.771258,1.34756 3.465622,5.29551 4.449538,6.51974 2.286519,2.845 6.070405,6.48197 9.031707,8.68104 0.815299,0.60544 1.125034,0.92776 1.0584,1.1014 -0.100488,0.26187 -9.752332,16.18101 -10.574242,17.44048 -0.268452,0.41137 -0.55922,0.74745 -0.646152,0.74684 -0.08693,-6.1e-4 -0.865571,-0.50441 -1.730308,-1.11955 z"
     id="path15" />
  <path
     style="fill:#da9e43;fill-opacity:1;stroke:#f1c197;stroke-width:0.15806;stroke-opacity:1"
     d="M 22.918635,77.285992 C 18.65893,77.176434 14.195723,77.079424 13.000398,77.070413 l -2.173319,-0.01638 V 76.49633 c 0,-1.037772 0.481443,-5.150197 0.874708,-7.471651 1.331707,-7.861095 4.284297,-16.082083 8.299436,-23.108377 0.620965,-1.08666 1.184867,-2.03462 1.253115,-2.106579 0.09247,-0.0975 17.167091,11.254717 17.920124,11.914359 0.07356,0.06444 -0.291422,0.88916 -0.811082,1.832708 -1.965398,3.568585 -3.549849,7.692065 -4.54371,11.824861 -0.485549,2.019073 -1.113196,5.851522 -1.217689,7.435293 l -0.04171,0.632238 -0.948358,0.01801 c -0.521596,0.0099 -4.43357,-0.07164 -8.693275,-0.181193 z"
     id="path16" />
</svg>
