<?xml version="1.0" encoding="utf-8"?>
<!-- Generator: Adobe Illustrator 27.4.1, SVG Export Plug-In . SVG Version: 6.00 Build 0)  -->
<svg version="1.1" id="Слой_1" xmlns="http://www.w3.org/2000/svg" xmlns:xlink="http://www.w3.org/1999/xlink" x="0px" y="0px"
	 viewBox="0 0 180 266.4" style="enable-background:new 0 0 180 266.4;" xml:space="preserve">
<style type="text/css">
	.st0{fill-rule:evenodd;clip-rule:evenodd;fill:#EB3000;}
	.st1{fill-rule:evenodd;clip-rule:evenodd;fill:#FEFEFE;}
</style>
<g>
	<path class="st0" d="M14.2,7.4h151.2c4,0,7.2,3.2,7.2,7.2v237.6c0,4-3.2,7.2-7.2,7.2H14.2c-4,0-7.2-3.2-7.2-7.2V14.6
		C7,10.6,10.2,7.4,14.2,7.4L14.2,7.4z"/>
	<path class="st1" d="M91.6,257.1l-2.7-4.1l2.7-4.1v0l2.7,4.1L91.6,257.1L91.6,257.1z M166.6,7.5c0.8,0.1,1.5,0.4,2.2,0.8l0.3,0.4
		l0.1-0.2c0.4,0.3,0.8,0.6,1.1,0.9l-0.4,0.6l2.6,4c0,0.2,0,0.4,0,0.6v2.1l-2.7,4.1l2.7,4.1v2.6l-2.7,4.1l2.7,4.1v2.6l-2.7,4.1
		l2.7,4.1v2.6l-2.7,4.1l2.7,4.1v2.6l-2.7,4.1l2.7,4.1v2.6l-2.7,4.1l2.7,4.1v2.6l-2.7,4.1l2.7,4.1v2.6l-2.7,4.1l2.7,4.1v2.6l-2.7,4.1
		l2.7,4.1v2.6l-2.7,4.1l2.7,4.1v2.6l-2.7,4.1l2.7,4.1v2.6l-2.7,4.1l2.7,4.1v2.6l-2.7,4.1l2.7,4.1v2.6l-2.7,4.1l2.7,4.1v2.6l-2.7,4.1
		l2.7,4.1v2.6l-2.7,4.1l2.7,4.1v2.6l-2.7,4.1l2.7,4.1v2.6l-2.7,4.1l2.7,4.1v2.6l-2.7,4.1l2.7,4.1v2.6l-2.7,4.1l2.7,4.1v2.6l-2.7,4.1
		l2.7,4.1v2.6l-2.7,4.1l2.7,4.1v0.5c0,3.1-2,5.7-4.7,6.8l0.3-0.5l-2.7-4.1l-2.7,4.1l0.6,1h-3l0.6-1l-2.7-4.1l-2.7,4.1l0.6,1h-3
		l0.6-1l-2.7-4.1l-2.7,4.1l0.6,1h-3l0.6-1l-2.7-4.1l-2.7,4.1l0.6,1h-3l0.6-1l-2.7-4.1l-2.7,4.1l0.6,1h-3l0.6-1l-2.7-4.1l-2.7,4.1
		l0.6,1h-3l0.6-1l-2.7-4.1l-2.7,4.1l0.6,1h-3l0.6-1l-2.7-4.1l-2.7,4.1l0.6,1h-3l0.6-1l-2.7-4.1l-2.7,4.1l0.6,1h-3l0.6-1l-2.7-4.1
		l-2.7,4.1l0.6,1h-3l0.6-1l-2.7-4.1l-2.7,4.1l0.6,1h-3l0.6-1l-2.7-4.1l-2.7,4.1l0.6,1h-3l0.6-1l-2.7-4.1l-2.7,4.1l0.6,1h-3l0.6-1
		l-2.7-4.1l-2.7,4.1l0.6,1h-3l0.6-1l-2.7-4.1l-2.7,4.1l0.6,1h-3l0.6-1l-2.7-4.1l-2.7,4.1l0.6,1h-3l0.6-1l-2.7-4.1l-2.7,4.1l0.6,1h-3
		l0.6-1l-2.7-4.1l-2.7,4.1l0.6,1h-3l0.6-1l-2.7-4.1l-2.7,4.1l0.6,1h-3l0.6-1l-2.7-4.1l-2.7,4.1l0.6,1h-3l0.6-1l-2.7-4.1l-2.7,4.1
		l0.6,1h-3l0.6-1l-2.7-4.1l-2.7,4.1l0.6,1h-1.3c-0.5,0-1-0.1-1.5-0.2l0.5-0.8l-2.7-4.1L8.8,257c-0.3-0.4-0.6-0.8-0.9-1.3l1.7-2.7
		L7,249v-2.6l2.7-4.1L7,238.2v-2.6l2.7-4.1L7,227.4v-2.6l2.7-4.1L7,216.6v-2.6l2.7-4.1L7,205.8v-2.6l2.7-4.1L7,194.9v-2.6l2.7-4.1
		L7,184.1v-2.6l2.7-4.1L7,173.3v-2.6l2.7-4.1L7,162.5v-2.6l2.7-4.1L7,151.7v-2.6l2.7-4.1L7,140.9v-2.6l2.7-4.1L7,130.1v-2.6l2.7-4.1
		L7,119.3v-2.6l2.7-4.1L7,108.5v-2.6l2.7-4.1L7,97.7v-2.6L9.7,91L7,86.9v-2.6l2.7-4.1L7,76.1v-2.6l2.7-4.1L7,65.3v-2.6l2.7-4.1
		L7,54.5v-2.6l2.7-4.1L7,43.7v-2.6L9.7,37L7,32.9v-2.6l2.7-4.1L7,22.1v-2.6l2.7-4.1L7.5,12c0.2-0.5,0.5-1,0.8-1.5l2.3,3.5l2.7-4.1
		l-1.4-2.2c0.5-0.2,1-0.3,1.5-0.4L14,8.7l0.8-1.2h1.7L14.9,10l2.7,4.1l2.7-4.1l-1.7-2.5h1.7l0.8,1.2l0.8-1.2h1.7L22,10l2.7,4.1
		l2.7-4.1l-1.7-2.5h1.7l0.8,1.2l0.8-1.2h1.7L29,10l2.7,4.1l2.7-4.1l-1.7-2.5h1.7l0.8,1.2L36,7.5h1.7L36,10l2.7,4.1l2.7-4.1l-1.7-2.5
		h1.7l0.8,1.2L43,7.5h1.7L43.1,10l2.7,4.1l2.7-4.1l-1.7-2.5h1.7l0.8,1.2l0.8-1.2h1.7L50.1,10l2.7,4.1l2.7-4.1l-1.7-2.5h1.7l0.8,1.2
		l0.8-1.2h1.7L57.2,10l2.7,4.1l2.7-4.1l-1.7-2.5h1.7l0.8,1.2l0.8-1.2h1.7L64.2,10l2.7,4.1l2.7-4.1l-1.7-2.5h1.7l0.8,1.2l0.8-1.2h1.7
		L71.3,10l2.7,4.1l2.7-4.1l-1.7-2.5h1.7l0.8,1.2l0.8-1.2H80L78.3,10l2.7,4.1l2.7-4.1L82,7.5h1.7l0.8,1.2l0.8-1.2H87L85.4,10l2.7,4.1
		l2.7-4.1L89,7.5h1.7l0.8,1.2l0.8-1.2h1.7L92.4,10l2.7,4.1l2.7-4.1l-1.7-2.5h1.7l0.8,1.2l0.8-1.2h1.7L99.5,10l2.7,4.1l2.7-4.1
		l-1.7-2.5h1.7l0.8,1.2l0.8-1.2h1.7l-1.7,2.5l2.7,4.1l2.7-4.1l-1.7-2.5h1.7l0.8,1.2l0.8-1.2h1.7l-1.7,2.5l2.7,4.1l2.7-4.1l-1.7-2.5
		h1.7l0.8,1.2l0.8-1.2h1.7l-1.7,2.5l2.7,4.1l2.7-4.1l-1.7-2.5h1.7l0.8,1.2l0.8-1.2h1.7l-1.7,2.5l2.7,4.1L133,10l-1.7-2.5h1.7
		l0.8,1.2l0.8-1.2h1.7l-1.7,2.5l2.7,4.1L140,10l-1.7-2.5h1.7l0.8,1.2l0.8-1.2h1.7l-1.7,2.5l2.7,4.1l2.7-4.1l-1.7-2.5h1.7l0.8,1.2
		l0.8-1.2h1.7l-1.7,2.5l2.7,4.1l2.7-4.1l-1.7-2.5h1.7l0.8,1.2l0.8-1.2h1.7l-1.7,2.5l2.7,4.1l2.7-4.1l-1.7-2.5h1.7l0.8,1.2l0.8-1.2
		h1.7l-1.7,2.5l2.7,4.1l2.7-4.1L166.6,7.5L166.6,7.5z M91.6,246.3l-2.7-4.1l2.7-4.1v0l2.7,4.1L91.6,246.3L91.6,246.3z M91.6,235.5
		l-2.7-4.1l2.7-4.1v0l2.7,4.1L91.6,235.5L91.6,235.5z M91.6,224.7l-2.7-4.1l2.7-4.1v0l2.7,4.1L91.6,224.7L91.6,224.7z M91.6,213.9
		l-2.7-4.1l2.7-4.1v0l2.7,4.1L91.6,213.9L91.6,213.9z M91.6,203.1l-2.7-4.1l2.7-4.1v0l2.7,4.1L91.6,203.1L91.6,203.1z M91.6,192.3
		l-2.7-4.1l2.7-4.1v0l2.7,4.1L91.6,192.3L91.6,192.3z M91.6,181.5l-2.7-4.1l2.7-4.1v0l2.7,4.1L91.6,181.5L91.6,181.5z M91.6,170.7
		l-2.7-4.1l2.7-4.1v0l2.7,4.1L91.6,170.7L91.6,170.7z M91.6,159.9l-2.7-4.1l2.7-4.1v0l2.7,4.1L91.6,159.9L91.6,159.9z M91.6,149.1
		l-2.7-4.1l2.7-4.1v0l2.7,4.1L91.6,149.1L91.6,149.1z M91.6,138.3l-2.7-4.1l2.7-4.1v0l2.7,4.1L91.6,138.3L91.6,138.3z M91.6,127.5
		l-2.7-4.1l2.7-4.1v0l2.7,4.1L91.6,127.5L91.6,127.5z M91.6,116.7l-2.7-4.1l2.7-4.1v0l2.7,4.1L91.6,116.7L91.6,116.7z M91.6,105.9
		l-2.7-4.1l2.7-4.1v0l2.7,4.1L91.6,105.9L91.6,105.9z M91.6,95.1L88.9,91l2.7-4.1v0l2.7,4.1L91.6,95.1L91.6,95.1z M91.6,84.3
		l-2.7-4.1l2.7-4.1v0l2.7,4.1L91.6,84.3L91.6,84.3z M91.6,73.5l-2.7-4.1l2.7-4.1v0l2.7,4.1L91.6,73.5L91.6,73.5z M91.6,62.7
		l-2.7-4.1l2.7-4.1v0l2.7,4.1L91.6,62.7L91.6,62.7z M91.6,51.9l-2.7-4.1l2.7-4.1v0l2.7,4.1L91.6,51.9L91.6,51.9z M91.6,41.1L88.9,37
		l2.7-4.1v0l2.7,4.1L91.6,41.1L91.6,41.1z M91.6,30.3l-2.7-4.1l2.7-4.1v0l2.7,4.1L91.6,30.3L91.6,30.3z M91.6,19.5l-2.7-4.1l2.7-4.1
		v0l2.7,4.1L91.6,19.5L91.6,19.5z M169.1,257.1l-2.7-4.1l2.7-4.1l2.7,4.1L169.1,257.1L169.1,257.1z M162.9,247.6l2.7-4.1l2.7,4.1
		l-2.7,4.1L162.9,247.6L162.9,247.6z M162,257.1l-2.7-4.1l2.7-4.1l2.7,4.1L162,257.1L162,257.1z M155.8,247.6l2.7-4.1l2.7,4.1
		l-2.7,4.1L155.8,247.6L155.8,247.6z M155,257.1l-2.7-4.1l2.7-4.1l2.7,4.1L155,257.1L155,257.1z M148.8,247.6l2.7-4.1l2.7,4.1
		l-2.7,4.1L148.8,247.6L148.8,247.6z M147.9,257.1l-2.7-4.1l2.7-4.1l2.7,4.1L147.9,257.1L147.9,257.1z M141.8,247.6l2.7-4.1l2.7,4.1
		l-2.7,4.1L141.8,247.6L141.8,247.6z M140.9,257.1l-2.7-4.1l2.7-4.1l2.7,4.1L140.9,257.1L140.9,257.1z M134.7,247.6l2.7-4.1l2.7,4.1
		l-2.7,4.1L134.7,247.6L134.7,247.6z M133.8,257.1l-2.7-4.1l2.7-4.1l2.7,4.1L133.8,257.1L133.8,257.1z M127.7,247.6l2.7-4.1l2.7,4.1
		l-2.7,4.1L127.7,247.6L127.7,247.6z M126.8,257.1l-2.7-4.1l2.7-4.1l2.7,4.1L126.8,257.1L126.8,257.1z M120.6,247.6l2.7-4.1l2.7,4.1
		l-2.7,4.1L120.6,247.6L120.6,247.6z M119.8,257.1l-2.7-4.1l2.7-4.1l2.7,4.1L119.8,257.1L119.8,257.1z M113.6,247.6l2.7-4.1l2.7,4.1
		l-2.7,4.1L113.6,247.6L113.6,247.6z M112.7,257.1L110,253l2.7-4.1l2.7,4.1L112.7,257.1L112.7,257.1z M106.5,247.6l2.7-4.1l2.7,4.1
		l-2.7,4.1L106.5,247.6L106.5,247.6z M105.7,257.1L103,253l2.7-4.1l2.7,4.1L105.7,257.1L105.7,257.1z M99.5,247.6l2.7-4.1l2.7,4.1
		l-2.7,4.1L99.5,247.6L99.5,247.6z M98.6,257.1l-2.7-4.1l2.7-4.1l2.7,4.1L98.6,257.1L98.6,257.1z M92.4,247.6l2.7-4.1l2.7,4.1
		l-2.7,4.1L92.4,247.6L92.4,247.6z M97.7,20.8l-2.7,4.1l-2.7-4.1l2.7-4.1L97.7,20.8L97.7,20.8z M98.6,11.3l2.7,4.1l-2.7,4.1
		l-2.7-4.1L98.6,11.3L98.6,11.3z M104.8,20.8l-2.7,4.1l-2.7-4.1l2.7-4.1L104.8,20.8L104.8,20.8z M105.7,11.3l2.7,4.1l-2.7,4.1
		l-2.7-4.1L105.7,11.3L105.7,11.3z M111.8,20.8l-2.7,4.1l-2.7-4.1l2.7-4.1L111.8,20.8L111.8,20.8z M112.7,11.3l2.7,4.1l-2.7,4.1
		l-2.7-4.1L112.7,11.3L112.7,11.3z M118.9,20.8l-2.7,4.1l-2.7-4.1l2.7-4.1L118.9,20.8L118.9,20.8z M119.8,11.3l2.7,4.1l-2.7,4.1
		l-2.7-4.1L119.8,11.3L119.8,11.3z M125.9,20.8l-2.7,4.1l-2.7-4.1l2.7-4.1L125.9,20.8L125.9,20.8z M126.8,11.3l2.7,4.1l-2.7,4.1
		l-2.7-4.1L126.8,11.3L126.8,11.3z M133,20.8l-2.7,4.1l-2.7-4.1l2.7-4.1L133,20.8L133,20.8z M133.8,11.3l2.7,4.1l-2.7,4.1l-2.7-4.1
		L133.8,11.3L133.8,11.3z M140,20.8l-2.7,4.1l-2.7-4.1l2.7-4.1L140,20.8L140,20.8z M140.9,11.3l2.7,4.1l-2.7,4.1l-2.7-4.1
		L140.9,11.3L140.9,11.3z M147.1,20.8l-2.7,4.1l-2.7-4.1l2.7-4.1L147.1,20.8L147.1,20.8z M147.9,11.3l2.7,4.1l-2.7,4.1l-2.7-4.1
		L147.9,11.3L147.9,11.3z M154.1,20.8l-2.7,4.1l-2.7-4.1l2.7-4.1L154.1,20.8L154.1,20.8z M155,11.3l2.7,4.1l-2.7,4.1l-2.7-4.1
		L155,11.3L155,11.3z M161.2,20.8l-2.7,4.1l-2.7-4.1l2.7-4.1L161.2,20.8L161.2,20.8z M162,11.3l2.7,4.1l-2.7,4.1l-2.7-4.1L162,11.3
		L162,11.3z M168.2,20.8l-2.7,4.1l-2.7-4.1l2.7-4.1L168.2,20.8L168.2,20.8z M169.1,11.3l2.7,4.1l-2.7,4.1l-2.7-4.1L169.1,11.3
		L169.1,11.3z M169.1,238.2l2.7,4.1l-2.7,4.1l-2.7-4.1L169.1,238.2L169.1,238.2z M162.9,236.8l2.7-4.1l2.7,4.1l-2.7,4.1L162.9,236.8
		L162.9,236.8z M162,238.2l2.7,4.1l-2.7,4.1l-2.7-4.1L162,238.2L162,238.2z M155.8,236.8l2.7-4.1l2.7,4.1l-2.7,4.1L155.8,236.8
		L155.8,236.8z M155,238.2l2.7,4.1l-2.7,4.1l-2.7-4.1L155,238.2L155,238.2z M148.8,236.8l2.7-4.1l2.7,4.1l-2.7,4.1L148.8,236.8
		L148.8,236.8z M147.9,238.2l2.7,4.1l-2.7,4.1l-2.7-4.1L147.9,238.2L147.9,238.2z M141.8,236.8l2.7-4.1l2.7,4.1l-2.7,4.1
		L141.8,236.8L141.8,236.8z M140.9,238.2l2.7,4.1l-2.7,4.1l-2.7-4.1L140.9,238.2L140.9,238.2z M134.7,236.8l2.7-4.1l2.7,4.1
		l-2.7,4.1L134.7,236.8L134.7,236.8z M133.8,238.2l2.7,4.1l-2.7,4.1l-2.7-4.1L133.8,238.2L133.8,238.2z M127.7,236.8l2.7-4.1
		l2.7,4.1l-2.7,4.1L127.7,236.8L127.7,236.8z M126.8,238.2l2.7,4.1l-2.7,4.1l-2.7-4.1L126.8,238.2L126.8,238.2z M120.6,236.8
		l2.7-4.1l2.7,4.1l-2.7,4.1L120.6,236.8L120.6,236.8z M119.8,238.2l2.7,4.1l-2.7,4.1l-2.7-4.1L119.8,238.2L119.8,238.2z
		 M113.6,236.8l2.7-4.1l2.7,4.1l-2.7,4.1L113.6,236.8L113.6,236.8z M112.7,238.2l2.7,4.1l-2.7,4.1l-2.7-4.1L112.7,238.2L112.7,238.2
		z M106.5,236.8l2.7-4.1l2.7,4.1l-2.7,4.1L106.5,236.8L106.5,236.8z M105.7,238.2l2.7,4.1l-2.7,4.1l-2.7-4.1L105.7,238.2
		L105.7,238.2z M99.5,236.8l2.7-4.1l2.7,4.1l-2.7,4.1L99.5,236.8L99.5,236.8z M98.6,238.2l2.7,4.1l-2.7,4.1l-2.7-4.1L98.6,238.2
		L98.6,238.2z M92.4,236.8l2.7-4.1l2.7,4.1l-2.7,4.1L92.4,236.8L92.4,236.8z M97.7,31.6l-2.7,4.1l-2.7-4.1l2.7-4.1L97.7,31.6
		L97.7,31.6z M98.6,30.3l-2.7-4.1l2.7-4.1l2.7,4.1L98.6,30.3L98.6,30.3z M104.8,31.6l-2.7,4.1l-2.7-4.1l2.7-4.1L104.8,31.6
		L104.8,31.6z M105.7,30.3l-2.7-4.1l2.7-4.1l2.7,4.1L105.7,30.3L105.7,30.3z M111.8,31.6l-2.7,4.1l-2.7-4.1l2.7-4.1L111.8,31.6
		L111.8,31.6z M112.7,30.3l-2.7-4.1l2.7-4.1l2.7,4.1L112.7,30.3L112.7,30.3z M118.9,31.6l-2.7,4.1l-2.7-4.1l2.7-4.1L118.9,31.6
		L118.9,31.6z M119.8,30.3l-2.7-4.1l2.7-4.1l2.7,4.1L119.8,30.3L119.8,30.3z M125.9,31.6l-2.7,4.1l-2.7-4.1l2.7-4.1L125.9,31.6
		L125.9,31.6z M126.8,30.3l-2.7-4.1l2.7-4.1l2.7,4.1L126.8,30.3L126.8,30.3z M133,31.6l-2.7,4.1l-2.7-4.1l2.7-4.1L133,31.6L133,31.6
		z M133.8,30.3l-2.7-4.1l2.7-4.1l2.7,4.1L133.8,30.3L133.8,30.3z M140,31.6l-2.7,4.1l-2.7-4.1l2.7-4.1L140,31.6L140,31.6z
		 M140.9,30.3l-2.7-4.1l2.7-4.1l2.7,4.1L140.9,30.3L140.9,30.3z M147.1,31.6l-2.7,4.1l-2.7-4.1l2.7-4.1L147.1,31.6L147.1,31.6z
		 M147.9,30.3l-2.7-4.1l2.7-4.1l2.7,4.1L147.9,30.3L147.9,30.3z M154.1,31.6l-2.7,4.1l-2.7-4.1l2.7-4.1L154.1,31.6L154.1,31.6z
		 M155,30.3l-2.7-4.1l2.7-4.1l2.7,4.1L155,30.3L155,30.3z M161.2,31.6l-2.7,4.1l-2.7-4.1l2.7-4.1L161.2,31.6L161.2,31.6z M162,30.3
		l-2.7-4.1l2.7-4.1l2.7,4.1L162,30.3L162,30.3z M168.2,31.6l-2.7,4.1l-2.7-4.1l2.7-4.1L168.2,31.6L168.2,31.6z M169.1,30.3l-2.7-4.1
		l2.7-4.1l2.7,4.1L169.1,30.3L169.1,30.3z M169.1,227.4l2.7,4.1l-2.7,4.1l-2.7-4.1L169.1,227.4L169.1,227.4z M162.9,226l2.7-4.1
		l2.7,4.1l-2.7,4.1L162.9,226L162.9,226z M162,227.4l2.7,4.1l-2.7,4.1l-2.7-4.1L162,227.4L162,227.4z M155.8,226l2.7-4.1l2.7,4.1
		l-2.7,4.1L155.8,226L155.8,226z M155,227.4l2.7,4.1l-2.7,4.1l-2.7-4.1L155,227.4L155,227.4z M148.8,226l2.7-4.1l2.7,4.1l-2.7,4.1
		L148.8,226L148.8,226z M147.9,227.4l2.7,4.1l-2.7,4.1l-2.7-4.1L147.9,227.4L147.9,227.4z M141.8,226l2.7-4.1l2.7,4.1l-2.7,4.1
		L141.8,226L141.8,226z M140.9,227.4l2.7,4.1l-2.7,4.1l-2.7-4.1L140.9,227.4L140.9,227.4z M134.7,226l2.7-4.1l2.7,4.1l-2.7,4.1
		L134.7,226L134.7,226z M133.8,227.4l2.7,4.1l-2.7,4.1l-2.7-4.1L133.8,227.4L133.8,227.4z M127.7,226l2.7-4.1l2.7,4.1l-2.7,4.1
		L127.7,226L127.7,226z M126.8,227.4l2.7,4.1l-2.7,4.1l-2.7-4.1L126.8,227.4L126.8,227.4z M120.6,226l2.7-4.1l2.7,4.1l-2.7,4.1
		L120.6,226L120.6,226z M119.8,227.4l2.7,4.1l-2.7,4.1l-2.7-4.1L119.8,227.4L119.8,227.4z M113.6,226l2.7-4.1l2.7,4.1l-2.7,4.1
		L113.6,226L113.6,226z M112.7,227.4l2.7,4.1l-2.7,4.1l-2.7-4.1L112.7,227.4L112.7,227.4z M106.5,226l2.7-4.1l2.7,4.1l-2.7,4.1
		L106.5,226L106.5,226z M105.7,227.4l2.7,4.1l-2.7,4.1l-2.7-4.1L105.7,227.4L105.7,227.4z M99.5,226l2.7-4.1l2.7,4.1l-2.7,4.1
		L99.5,226L99.5,226z M98.6,227.4l2.7,4.1l-2.7,4.1l-2.7-4.1L98.6,227.4L98.6,227.4z M92.4,226l2.7-4.1l2.7,4.1l-2.7,4.1L92.4,226
		L92.4,226z M97.7,42.4l-2.7,4.1l-2.7-4.1l2.7-4.1L97.7,42.4L97.7,42.4z M98.6,41.1L95.9,37l2.7-4.1l2.7,4.1L98.6,41.1L98.6,41.1z
		 M104.8,42.4l-2.7,4.1l-2.7-4.1l2.7-4.1L104.8,42.4L104.8,42.4z M105.7,41.1L103,37l2.7-4.1l2.7,4.1L105.7,41.1L105.7,41.1z
		 M111.8,42.4l-2.7,4.1l-2.7-4.1l2.7-4.1L111.8,42.4L111.8,42.4z M112.7,41.1L110,37l2.7-4.1l2.7,4.1L112.7,41.1L112.7,41.1z
		 M118.9,42.4l-2.7,4.1l-2.7-4.1l2.7-4.1L118.9,42.4L118.9,42.4z M119.8,41.1l-2.7-4.1l2.7-4.1l2.7,4.1L119.8,41.1L119.8,41.1z
		 M125.9,42.4l-2.7,4.1l-2.7-4.1l2.7-4.1L125.9,42.4L125.9,42.4z M126.8,41.1l-2.7-4.1l2.7-4.1l2.7,4.1L126.8,41.1L126.8,41.1z
		 M133,42.4l-2.7,4.1l-2.7-4.1l2.7-4.1L133,42.4L133,42.4z M133.8,41.1l-2.7-4.1l2.7-4.1l2.7,4.1L133.8,41.1L133.8,41.1z M140,42.4
		l-2.7,4.1l-2.7-4.1l2.7-4.1L140,42.4L140,42.4z M140.9,41.1l-2.7-4.1l2.7-4.1l2.7,4.1L140.9,41.1L140.9,41.1z M147.1,42.4l-2.7,4.1
		l-2.7-4.1l2.7-4.1L147.1,42.4L147.1,42.4z M147.9,41.1l-2.7-4.1l2.7-4.1l2.7,4.1L147.9,41.1L147.9,41.1z M154.1,42.4l-2.7,4.1
		l-2.7-4.1l2.7-4.1L154.1,42.4L154.1,42.4z M155,41.1l-2.7-4.1l2.7-4.1l2.7,4.1L155,41.1L155,41.1z M161.2,42.4l-2.7,4.1l-2.7-4.1
		l2.7-4.1L161.2,42.4L161.2,42.4z M162,41.1l-2.7-4.1l2.7-4.1l2.7,4.1L162,41.1L162,41.1z M168.2,42.4l-2.7,4.1l-2.7-4.1l2.7-4.1
		L168.2,42.4L168.2,42.4z M169.1,41.1l-2.7-4.1l2.7-4.1l2.7,4.1L169.1,41.1L169.1,41.1z M169.1,216.6l2.7,4.1l-2.7,4.1l-2.7-4.1
		L169.1,216.6L169.1,216.6z M162.9,215.2l2.7-4.1l2.7,4.1l-2.7,4.1L162.9,215.2L162.9,215.2z M162,216.6l2.7,4.1l-2.7,4.1l-2.7-4.1
		L162,216.6L162,216.6z M155.8,215.2l2.7-4.1l2.7,4.1l-2.7,4.1L155.8,215.2L155.8,215.2z M155,216.6l2.7,4.1l-2.7,4.1l-2.7-4.1
		L155,216.6L155,216.6z M148.8,215.2l2.7-4.1l2.7,4.1l-2.7,4.1L148.8,215.2L148.8,215.2z M147.9,216.6l2.7,4.1l-2.7,4.1l-2.7-4.1
		L147.9,216.6L147.9,216.6z M141.8,215.2l2.7-4.1l2.7,4.1l-2.7,4.1L141.8,215.2L141.8,215.2z M140.9,216.6l2.7,4.1l-2.7,4.1
		l-2.7-4.1L140.9,216.6L140.9,216.6z M134.7,215.2l2.7-4.1l2.7,4.1l-2.7,4.1L134.7,215.2L134.7,215.2z M133.8,216.6l2.7,4.1
		l-2.7,4.1l-2.7-4.1L133.8,216.6L133.8,216.6z M127.7,215.2l2.7-4.1l2.7,4.1l-2.7,4.1L127.7,215.2L127.7,215.2z M126.8,216.6
		l2.7,4.1l-2.7,4.1l-2.7-4.1L126.8,216.6L126.8,216.6z M120.6,215.2l2.7-4.1l2.7,4.1l-2.7,4.1L120.6,215.2L120.6,215.2z
		 M119.8,216.6l2.7,4.1l-2.7,4.1l-2.7-4.1L119.8,216.6L119.8,216.6z M113.6,215.2l2.7-4.1l2.7,4.1l-2.7,4.1L113.6,215.2L113.6,215.2
		z M112.7,216.6l2.7,4.1l-2.7,4.1l-2.7-4.1L112.7,216.6L112.7,216.6z M106.5,215.2l2.7-4.1l2.7,4.1l-2.7,4.1L106.5,215.2
		L106.5,215.2z M105.7,216.6l2.7,4.1l-2.7,4.1l-2.7-4.1L105.7,216.6L105.7,216.6z M99.5,215.2l2.7-4.1l2.7,4.1l-2.7,4.1L99.5,215.2
		L99.5,215.2z M98.6,216.6l2.7,4.1l-2.7,4.1l-2.7-4.1L98.6,216.6L98.6,216.6z M92.4,215.2l2.7-4.1l2.7,4.1l-2.7,4.1L92.4,215.2
		L92.4,215.2z M97.7,53.2l-2.7,4.1l-2.7-4.1l2.7-4.1L97.7,53.2L97.7,53.2z M98.6,51.9l-2.7-4.1l2.7-4.1l2.7,4.1L98.6,51.9L98.6,51.9
		z M104.8,53.2l-2.7,4.1l-2.7-4.1l2.7-4.1L104.8,53.2L104.8,53.2z M105.7,51.9l-2.7-4.1l2.7-4.1l2.7,4.1L105.7,51.9L105.7,51.9z
		 M111.8,53.2l-2.7,4.1l-2.7-4.1l2.7-4.1L111.8,53.2L111.8,53.2z M112.7,51.9l-2.7-4.1l2.7-4.1l2.7,4.1L112.7,51.9L112.7,51.9z
		 M118.9,53.2l-2.7,4.1l-2.7-4.1l2.7-4.1L118.9,53.2L118.9,53.2z M119.8,51.9l-2.7-4.1l2.7-4.1l2.7,4.1L119.8,51.9L119.8,51.9z
		 M125.9,53.2l-2.7,4.1l-2.7-4.1l2.7-4.1L125.9,53.2L125.9,53.2z M126.8,51.9l-2.7-4.1l2.7-4.1l2.7,4.1L126.8,51.9L126.8,51.9z
		 M133,53.2l-2.7,4.1l-2.7-4.1l2.7-4.1L133,53.2L133,53.2z M133.8,51.9l-2.7-4.1l2.7-4.1l2.7,4.1L133.8,51.9L133.8,51.9z M140,53.2
		l-2.7,4.1l-2.7-4.1l2.7-4.1L140,53.2L140,53.2z M140.9,51.9l-2.7-4.1l2.7-4.1l2.7,4.1L140.9,51.9L140.9,51.9z M147.1,53.2l-2.7,4.1
		l-2.7-4.1l2.7-4.1L147.1,53.2L147.1,53.2z M147.9,51.9l-2.7-4.1l2.7-4.1l2.7,4.1L147.9,51.9L147.9,51.9z M154.1,53.2l-2.7,4.1
		l-2.7-4.1l2.7-4.1L154.1,53.2L154.1,53.2z M155,51.9l-2.7-4.1l2.7-4.1l2.7,4.1L155,51.9L155,51.9z M161.2,53.2l-2.7,4.1l-2.7-4.1
		l2.7-4.1L161.2,53.2L161.2,53.2z M162,51.9l-2.7-4.1l2.7-4.1l2.7,4.1L162,51.9L162,51.9z M168.2,53.2l-2.7,4.1l-2.7-4.1l2.7-4.1
		L168.2,53.2L168.2,53.2z M169.1,51.9l-2.7-4.1l2.7-4.1l2.7,4.1L169.1,51.9L169.1,51.9z M169.1,205.8l2.7,4.1l-2.7,4.1l-2.7-4.1
		L169.1,205.8L169.1,205.8z M162.9,204.4l2.7-4.1l2.7,4.1l-2.7,4.1L162.9,204.4L162.9,204.4z M162,205.8l2.7,4.1l-2.7,4.1l-2.7-4.1
		L162,205.8L162,205.8z M155.8,204.4l2.7-4.1l2.7,4.1l-2.7,4.1L155.8,204.4L155.8,204.4z M155,205.8l2.7,4.1l-2.7,4.1l-2.7-4.1
		L155,205.8L155,205.8z M148.8,204.4l2.7-4.1l2.7,4.1l-2.7,4.1L148.8,204.4L148.8,204.4z M147.9,205.8l2.7,4.1l-2.7,4.1l-2.7-4.1
		L147.9,205.8L147.9,205.8z M141.8,204.4l2.7-4.1l2.7,4.1l-2.7,4.1L141.8,204.4L141.8,204.4z M140.9,205.8l2.7,4.1l-2.7,4.1
		l-2.7-4.1L140.9,205.8L140.9,205.8z M134.7,204.4l2.7-4.1l2.7,4.1l-2.7,4.1L134.7,204.4L134.7,204.4z M133.8,205.8l2.7,4.1
		l-2.7,4.1l-2.7-4.1L133.8,205.8L133.8,205.8z M127.7,204.4l2.7-4.1l2.7,4.1l-2.7,4.1L127.7,204.4L127.7,204.4z M126.8,205.8
		l2.7,4.1l-2.7,4.1l-2.7-4.1L126.8,205.8L126.8,205.8z M120.6,204.4l2.7-4.1l2.7,4.1l-2.7,4.1L120.6,204.4L120.6,204.4z
		 M119.8,205.8l2.7,4.1l-2.7,4.1l-2.7-4.1L119.8,205.8L119.8,205.8z M113.6,204.4l2.7-4.1l2.7,4.1l-2.7,4.1L113.6,204.4L113.6,204.4
		z M112.7,205.8l2.7,4.1l-2.7,4.1l-2.7-4.1L112.7,205.8L112.7,205.8z M106.5,204.4l2.7-4.1l2.7,4.1l-2.7,4.1L106.5,204.4
		L106.5,204.4z M105.7,205.8l2.7,4.1l-2.7,4.1l-2.7-4.1L105.7,205.8L105.7,205.8z M99.5,204.4l2.7-4.1l2.7,4.1l-2.7,4.1L99.5,204.4
		L99.5,204.4z M98.6,205.8l2.7,4.1l-2.7,4.1l-2.7-4.1L98.6,205.8L98.6,205.8z M97.7,204.4l-2.7,4.1l-2.7-4.1l2.7-4.1L97.7,204.4
		L97.7,204.4z M97.7,193.6l-2.7,4.1l-2.7-4.1l2.7-4.1L97.7,193.6L97.7,193.6z M97.7,182.8l-2.7,4.1l-2.7-4.1l2.7-4.1L97.7,182.8
		L97.7,182.8z M97.7,172l-2.7,4.1l-2.7-4.1l2.7-4.1L97.7,172L97.7,172z M97.7,161.2l-2.7,4.1l-2.7-4.1l2.7-4.1L97.7,161.2
		L97.7,161.2z M97.7,150.4l-2.7,4.1l-2.7-4.1l2.7-4.1L97.7,150.4L97.7,150.4z M97.7,139.6l-2.7,4.1l-2.7-4.1l2.7-4.1L97.7,139.6
		L97.7,139.6z M97.7,128.8l-2.7,4.1l-2.7-4.1l2.7-4.1L97.7,128.8L97.7,128.8z M97.7,118l-2.7,4.1l-2.7-4.1l2.7-4.1L97.7,118
		L97.7,118z M97.7,107.2l-2.7,4.1l-2.7-4.1l2.7-4.1L97.7,107.2L97.7,107.2z M97.7,96.4l-2.7,4.1l-2.7-4.1l2.7-4.1L97.7,96.4
		L97.7,96.4z M97.7,85.6l-2.7,4.1l-2.7-4.1l2.7-4.1L97.7,85.6L97.7,85.6z M97.7,74.8l-2.7,4.1l-2.7-4.1l2.7-4.1L97.7,74.8L97.7,74.8
		z M97.7,64l-2.7,4.1L92.4,64l2.7-4.1L97.7,64L97.7,64z M98.6,62.7l-2.7-4.1l2.7-4.1l2.7,4.1L98.6,62.7L98.6,62.7z M104.8,64
		l-2.7,4.1L99.5,64l2.7-4.1L104.8,64L104.8,64z M105.7,62.7l-2.7-4.1l2.7-4.1l2.7,4.1L105.7,62.7L105.7,62.7z M111.8,64l-2.7,4.1
		l-2.7-4.1l2.7-4.1L111.8,64L111.8,64z M112.7,62.7l-2.7-4.1l2.7-4.1l2.7,4.1L112.7,62.7L112.7,62.7z M118.9,64l-2.7,4.1l-2.7-4.1
		l2.7-4.1L118.9,64L118.9,64z M119.8,62.7l-2.7-4.1l2.7-4.1l2.7,4.1L119.8,62.7L119.8,62.7z M125.9,64l-2.7,4.1l-2.7-4.1l2.7-4.1
		L125.9,64L125.9,64z M126.8,62.7l-2.7-4.1l2.7-4.1l2.7,4.1L126.8,62.7L126.8,62.7z M133,64l-2.7,4.1l-2.7-4.1l2.7-4.1L133,64
		L133,64z M133.8,62.7l-2.7-4.1l2.7-4.1l2.7,4.1L133.8,62.7L133.8,62.7z M140,64l-2.7,4.1l-2.7-4.1l2.7-4.1L140,64L140,64z
		 M140.9,62.7l-2.7-4.1l2.7-4.1l2.7,4.1L140.9,62.7L140.9,62.7z M147.1,64l-2.7,4.1l-2.7-4.1l2.7-4.1L147.1,64L147.1,64z
		 M147.9,62.7l-2.7-4.1l2.7-4.1l2.7,4.1L147.9,62.7L147.9,62.7z M154.1,64l-2.7,4.1l-2.7-4.1l2.7-4.1L154.1,64L154.1,64z M155,62.7
		l-2.7-4.1l2.7-4.1l2.7,4.1L155,62.7L155,62.7z M161.2,64l-2.7,4.1l-2.7-4.1l2.7-4.1L161.2,64L161.2,64z M162,62.7l-2.7-4.1l2.7-4.1
		l2.7,4.1L162,62.7L162,62.7z M168.2,64l-2.7,4.1l-2.7-4.1l2.7-4.1L168.2,64L168.2,64z M169.1,62.7l-2.7-4.1l2.7-4.1l2.7,4.1
		L169.1,62.7L169.1,62.7z M169.1,195l2.7,4.1l-2.7,4.1l-2.7-4.1L169.1,195L169.1,195z M162.9,193.6l2.7-4.1l2.7,4.1l-2.7,4.1
		L162.9,193.6L162.9,193.6z M162,195l2.7,4.1l-2.7,4.1l-2.7-4.1L162,195L162,195z M155.8,193.6l2.7-4.1l2.7,4.1l-2.7,4.1
		L155.8,193.6L155.8,193.6z M155,195l2.7,4.1l-2.7,4.1l-2.7-4.1L155,195L155,195z M148.8,193.6l2.7-4.1l2.7,4.1l-2.7,4.1
		L148.8,193.6L148.8,193.6z M147.9,195l2.7,4.1l-2.7,4.1l-2.7-4.1L147.9,195L147.9,195z M141.8,193.6l2.7-4.1l2.7,4.1l-2.7,4.1
		L141.8,193.6L141.8,193.6z M140.9,195l2.7,4.1l-2.7,4.1l-2.7-4.1L140.9,195L140.9,195z M134.7,193.6l2.7-4.1l2.7,4.1l-2.7,4.1
		L134.7,193.6L134.7,193.6z M133.8,195l2.7,4.1l-2.7,4.1l-2.7-4.1L133.8,195L133.8,195z M127.7,193.6l2.7-4.1l2.7,4.1l-2.7,4.1
		L127.7,193.6L127.7,193.6z M126.8,195l2.7,4.1l-2.7,4.1l-2.7-4.1L126.8,195L126.8,195z M120.6,193.6l2.7-4.1l2.7,4.1l-2.7,4.1
		L120.6,193.6L120.6,193.6z M119.8,195l2.7,4.1l-2.7,4.1l-2.7-4.1L119.8,195L119.8,195z M113.6,193.6l2.7-4.1l2.7,4.1l-2.7,4.1
		L113.6,193.6L113.6,193.6z M112.7,195l2.7,4.1l-2.7,4.1L110,199L112.7,195L112.7,195z M106.5,193.6l2.7-4.1l2.7,4.1l-2.7,4.1
		L106.5,193.6L106.5,193.6z M105.7,195l2.7,4.1l-2.7,4.1L103,199L105.7,195L105.7,195z M99.5,193.6l2.7-4.1l2.7,4.1l-2.7,4.1
		L99.5,193.6L99.5,193.6z M101.3,199l-2.7,4.1l-2.7-4.1l2.7-4.1L101.3,199L101.3,199z M101.3,188.2l-2.7,4.1l-2.7-4.1l2.7-4.1
		L101.3,188.2L101.3,188.2z M101.3,177.4l-2.7,4.1l-2.7-4.1l2.7-4.1L101.3,177.4L101.3,177.4z M101.3,166.6l-2.7,4.1l-2.7-4.1
		l2.7-4.1L101.3,166.6L101.3,166.6z M101.3,155.8l-2.7,4.1l-2.7-4.1l2.7-4.1L101.3,155.8L101.3,155.8z M101.3,145l-2.7,4.1l-2.7-4.1
		l2.7-4.1L101.3,145L101.3,145z M101.3,134.2l-2.7,4.1l-2.7-4.1l2.7-4.1L101.3,134.2L101.3,134.2z M101.3,123.4l-2.7,4.1l-2.7-4.1
		l2.7-4.1L101.3,123.4L101.3,123.4z M101.3,112.6l-2.7,4.1l-2.7-4.1l2.7-4.1L101.3,112.6L101.3,112.6z M101.3,101.8l-2.7,4.1
		l-2.7-4.1l2.7-4.1L101.3,101.8L101.3,101.8z M101.3,91l-2.7,4.1L95.9,91l2.7-4.1L101.3,91L101.3,91z M101.3,80.2l-2.7,4.1l-2.7-4.1
		l2.7-4.1L101.3,80.2L101.3,80.2z M98.6,73.5l-2.7-4.1l2.7-4.1l2.7,4.1L98.6,73.5L98.6,73.5z M104.8,74.8l-2.7,4.1l-2.7-4.1l2.7-4.1
		L104.8,74.8L104.8,74.8z M105.7,73.5l-2.7-4.1l2.7-4.1l2.7,4.1L105.7,73.5L105.7,73.5z M111.8,74.8l-2.7,4.1l-2.7-4.1l2.7-4.1
		L111.8,74.8L111.8,74.8z M112.7,73.5l-2.7-4.1l2.7-4.1l2.7,4.1L112.7,73.5L112.7,73.5z M118.9,74.8l-2.7,4.1l-2.7-4.1l2.7-4.1
		L118.9,74.8L118.9,74.8z M119.8,73.5l-2.7-4.1l2.7-4.1l2.7,4.1L119.8,73.5L119.8,73.5z M125.9,74.8l-2.7,4.1l-2.7-4.1l2.7-4.1
		L125.9,74.8L125.9,74.8z M126.8,73.5l-2.7-4.1l2.7-4.1l2.7,4.1L126.8,73.5L126.8,73.5z M133,74.8l-2.7,4.1l-2.7-4.1l2.7-4.1
		L133,74.8L133,74.8z M133.8,73.5l-2.7-4.1l2.7-4.1l2.7,4.1L133.8,73.5L133.8,73.5z M140,74.8l-2.7,4.1l-2.7-4.1l2.7-4.1L140,74.8
		L140,74.8z M140.9,73.5l-2.7-4.1l2.7-4.1l2.7,4.1L140.9,73.5L140.9,73.5z M147.1,74.8l-2.7,4.1l-2.7-4.1l2.7-4.1L147.1,74.8
		L147.1,74.8z M147.9,73.5l-2.7-4.1l2.7-4.1l2.7,4.1L147.9,73.5L147.9,73.5z M154.1,74.8l-2.7,4.1l-2.7-4.1l2.7-4.1L154.1,74.8
		L154.1,74.8z M155,73.5l-2.7-4.1l2.7-4.1l2.7,4.1L155,73.5L155,73.5z M161.2,74.8l-2.7,4.1l-2.7-4.1l2.7-4.1L161.2,74.8L161.2,74.8
		z M162,73.5l-2.7-4.1l2.7-4.1l2.7,4.1L162,73.5L162,73.5z M168.2,74.8l-2.7,4.1l-2.7-4.1l2.7-4.1L168.2,74.8L168.2,74.8z
		 M169.1,73.5l-2.7-4.1l2.7-4.1l2.7,4.1L169.1,73.5L169.1,73.5z M169.1,184.2l2.7,4.1l-2.7,4.1l-2.7-4.1L169.1,184.2L169.1,184.2z
		 M162.9,182.8l2.7-4.1l2.7,4.1l-2.7,4.1L162.9,182.8L162.9,182.8z M162,184.2l2.7,4.1l-2.7,4.1l-2.7-4.1L162,184.2L162,184.2z
		 M155.8,182.8l2.7-4.1l2.7,4.1l-2.7,4.1L155.8,182.8L155.8,182.8z M155,184.2l2.7,4.1l-2.7,4.1l-2.7-4.1L155,184.2L155,184.2z
		 M148.8,182.8l2.7-4.1l2.7,4.1l-2.7,4.1L148.8,182.8L148.8,182.8z M147.9,184.2l2.7,4.1l-2.7,4.1l-2.7-4.1L147.9,184.2L147.9,184.2
		z M141.8,182.8l2.7-4.1l2.7,4.1l-2.7,4.1L141.8,182.8L141.8,182.8z M140.9,184.2l2.7,4.1l-2.7,4.1l-2.7-4.1L140.9,184.2
		L140.9,184.2z M134.7,182.8l2.7-4.1l2.7,4.1l-2.7,4.1L134.7,182.8L134.7,182.8z M133.8,184.2l2.7,4.1l-2.7,4.1l-2.7-4.1
		L133.8,184.2L133.8,184.2z M127.7,182.8l2.7-4.1l2.7,4.1l-2.7,4.1L127.7,182.8L127.7,182.8z M126.8,184.2l2.7,4.1l-2.7,4.1
		l-2.7-4.1L126.8,184.2L126.8,184.2z M120.6,182.8l2.7-4.1l2.7,4.1l-2.7,4.1L120.6,182.8L120.6,182.8z M119.8,184.2l2.7,4.1
		l-2.7,4.1l-2.7-4.1L119.8,184.2L119.8,184.2z M113.6,182.8l2.7-4.1l2.7,4.1l-2.7,4.1L113.6,182.8L113.6,182.8z M112.7,184.2
		l2.7,4.1l-2.7,4.1l-2.7-4.1L112.7,184.2L112.7,184.2z M106.5,182.8l2.7-4.1l2.7,4.1l-2.7,4.1L106.5,182.8L106.5,182.8z
		 M105.7,184.2l2.7,4.1l-2.7,4.1l-2.7-4.1L105.7,184.2L105.7,184.2z M104.8,182.8l-2.7,4.1l-2.7-4.1l2.7-4.1L104.8,182.8
		L104.8,182.8z M104.8,172l-2.7,4.1l-2.7-4.1l2.7-4.1L104.8,172L104.8,172z M104.8,161.2l-2.7,4.1l-2.7-4.1l2.7-4.1L104.8,161.2
		L104.8,161.2z M104.8,150.4l-2.7,4.1l-2.7-4.1l2.7-4.1L104.8,150.4L104.8,150.4z M104.8,139.6l-2.7,4.1l-2.7-4.1l2.7-4.1
		L104.8,139.6L104.8,139.6z M104.8,128.8l-2.7,4.1l-2.7-4.1l2.7-4.1L104.8,128.8L104.8,128.8z M104.8,118l-2.7,4.1l-2.7-4.1l2.7-4.1
		L104.8,118L104.8,118z M104.8,107.2l-2.7,4.1l-2.7-4.1l2.7-4.1L104.8,107.2L104.8,107.2z M104.8,96.4l-2.7,4.1l-2.7-4.1l2.7-4.1
		L104.8,96.4L104.8,96.4z M104.8,85.6l-2.7,4.1l-2.7-4.1l2.7-4.1L104.8,85.6L104.8,85.6z M105.7,84.3l-2.7-4.1l2.7-4.1l2.7,4.1
		L105.7,84.3L105.7,84.3z M111.8,85.6l-2.7,4.1l-2.7-4.1l2.7-4.1L111.8,85.6L111.8,85.6z M112.7,84.3l-2.7-4.1l2.7-4.1l2.7,4.1
		L112.7,84.3L112.7,84.3z M118.9,85.6l-2.7,4.1l-2.7-4.1l2.7-4.1L118.9,85.6L118.9,85.6z M119.8,84.3l-2.7-4.1l2.7-4.1l2.7,4.1
		L119.8,84.3L119.8,84.3z M125.9,85.6l-2.7,4.1l-2.7-4.1l2.7-4.1L125.9,85.6L125.9,85.6z M126.8,84.3l-2.7-4.1l2.7-4.1l2.7,4.1
		L126.8,84.3L126.8,84.3z M133,85.6l-2.7,4.1l-2.7-4.1l2.7-4.1L133,85.6L133,85.6z M133.8,84.3l-2.7-4.1l2.7-4.1l2.7,4.1L133.8,84.3
		L133.8,84.3z M140,85.6l-2.7,4.1l-2.7-4.1l2.7-4.1L140,85.6L140,85.6z M140.9,84.3l-2.7-4.1l2.7-4.1l2.7,4.1L140.9,84.3L140.9,84.3
		z M147.1,85.6l-2.7,4.1l-2.7-4.1l2.7-4.1L147.1,85.6L147.1,85.6z M147.9,84.3l-2.7-4.1l2.7-4.1l2.7,4.1L147.9,84.3L147.9,84.3z
		 M154.1,85.6l-2.7,4.1l-2.7-4.1l2.7-4.1L154.1,85.6L154.1,85.6z M155,84.3l-2.7-4.1l2.7-4.1l2.7,4.1L155,84.3L155,84.3z
		 M161.2,85.6l-2.7,4.1l-2.7-4.1l2.7-4.1L161.2,85.6L161.2,85.6z M162,84.3l-2.7-4.1l2.7-4.1l2.7,4.1L162,84.3L162,84.3z
		 M168.2,85.6l-2.7,4.1l-2.7-4.1l2.7-4.1L168.2,85.6L168.2,85.6z M169.1,84.3l-2.7-4.1l2.7-4.1l2.7,4.1L169.1,84.3L169.1,84.3z
		 M169.1,173.3l2.7,4.1l-2.7,4.1l-2.7-4.1L169.1,173.3L169.1,173.3z M162.9,172l2.7-4.1l2.7,4.1l-2.7,4.1L162.9,172L162.9,172z
		 M162,173.3l2.7,4.1l-2.7,4.1l-2.7-4.1L162,173.3L162,173.3z M155.8,172l2.7-4.1l2.7,4.1l-2.7,4.1L155.8,172L155.8,172z M155,173.3
		l2.7,4.1l-2.7,4.1l-2.7-4.1L155,173.3L155,173.3z M148.8,172l2.7-4.1l2.7,4.1l-2.7,4.1L148.8,172L148.8,172z M147.9,173.3l2.7,4.1
		l-2.7,4.1l-2.7-4.1L147.9,173.3L147.9,173.3z M141.8,172l2.7-4.1l2.7,4.1l-2.7,4.1L141.8,172L141.8,172z M140.9,173.3l2.7,4.1
		l-2.7,4.1l-2.7-4.1L140.9,173.3L140.9,173.3z M134.7,172l2.7-4.1l2.7,4.1l-2.7,4.1L134.7,172L134.7,172z M133.8,173.3l2.7,4.1
		l-2.7,4.1l-2.7-4.1L133.8,173.3L133.8,173.3z M127.7,172l2.7-4.1l2.7,4.1l-2.7,4.1L127.7,172L127.7,172z M126.8,173.3l2.7,4.1
		l-2.7,4.1l-2.7-4.1L126.8,173.3L126.8,173.3z M120.6,172l2.7-4.1l2.7,4.1l-2.7,4.1L120.6,172L120.6,172z M119.8,173.3l2.7,4.1
		l-2.7,4.1l-2.7-4.1L119.8,173.3L119.8,173.3z M113.6,172l2.7-4.1l2.7,4.1l-2.7,4.1L113.6,172L113.6,172z M112.7,173.3l2.7,4.1
		l-2.7,4.1l-2.7-4.1L112.7,173.3L112.7,173.3z M106.5,172l2.7-4.1l2.7,4.1l-2.7,4.1L106.5,172L106.5,172z M108.3,177.4l-2.7,4.1
		l-2.7-4.1l2.7-4.1L108.3,177.4L108.3,177.4z M108.3,166.6l-2.7,4.1l-2.7-4.1l2.7-4.1L108.3,166.6L108.3,166.6z M108.3,155.8
		l-2.7,4.1l-2.7-4.1l2.7-4.1L108.3,155.8L108.3,155.8z M108.3,145l-2.7,4.1L103,145l2.7-4.1L108.3,145L108.3,145z M108.3,134.2
		l-2.7,4.1l-2.7-4.1l2.7-4.1L108.3,134.2L108.3,134.2z M108.3,123.4l-2.7,4.1l-2.7-4.1l2.7-4.1L108.3,123.4L108.3,123.4z
		 M108.3,112.6l-2.7,4.1l-2.7-4.1l2.7-4.1L108.3,112.6L108.3,112.6z M108.3,101.8l-2.7,4.1l-2.7-4.1l2.7-4.1L108.3,101.8
		L108.3,101.8z M105.7,95.1L103,91l2.7-4.1l2.7,4.1L105.7,95.1L105.7,95.1z M111.8,96.4l-2.7,4.1l-2.7-4.1l2.7-4.1L111.8,96.4
		L111.8,96.4z M112.7,95.1L110,91l2.7-4.1l2.7,4.1L112.7,95.1L112.7,95.1z M118.9,96.4l-2.7,4.1l-2.7-4.1l2.7-4.1L118.9,96.4
		L118.9,96.4z M119.8,95.1l-2.7-4.1l2.7-4.1l2.7,4.1L119.8,95.1L119.8,95.1z M125.9,96.4l-2.7,4.1l-2.7-4.1l2.7-4.1L125.9,96.4
		L125.9,96.4z M126.8,95.1l-2.7-4.1l2.7-4.1l2.7,4.1L126.8,95.1L126.8,95.1z M133,96.4l-2.7,4.1l-2.7-4.1l2.7-4.1L133,96.4L133,96.4
		z M133.8,95.1l-2.7-4.1l2.7-4.1l2.7,4.1L133.8,95.1L133.8,95.1z M140,96.4l-2.7,4.1l-2.7-4.1l2.7-4.1L140,96.4L140,96.4z
		 M140.9,95.1l-2.7-4.1l2.7-4.1l2.7,4.1L140.9,95.1L140.9,95.1z M147.1,96.4l-2.7,4.1l-2.7-4.1l2.7-4.1L147.1,96.4L147.1,96.4z
		 M147.9,95.1l-2.7-4.1l2.7-4.1l2.7,4.1L147.9,95.1L147.9,95.1z M154.1,96.4l-2.7,4.1l-2.7-4.1l2.7-4.1L154.1,96.4L154.1,96.4z
		 M155,95.1l-2.7-4.1l2.7-4.1l2.7,4.1L155,95.1L155,95.1z M161.2,96.4l-2.7,4.1l-2.7-4.1l2.7-4.1L161.2,96.4L161.2,96.4z M162,95.1
		l-2.7-4.1l2.7-4.1l2.7,4.1L162,95.1L162,95.1z M168.2,96.4l-2.7,4.1l-2.7-4.1l2.7-4.1L168.2,96.4L168.2,96.4z M169.1,95.1l-2.7-4.1
		l2.7-4.1l2.7,4.1L169.1,95.1L169.1,95.1z M169.1,162.5l2.7,4.1l-2.7,4.1l-2.7-4.1L169.1,162.5L169.1,162.5z M162.9,161.2l2.7-4.1
		l2.7,4.1l-2.7,4.1L162.9,161.2L162.9,161.2z M162,162.5l2.7,4.1l-2.7,4.1l-2.7-4.1L162,162.5L162,162.5z M155.8,161.2l2.7-4.1
		l2.7,4.1l-2.7,4.1L155.8,161.2L155.8,161.2z M155,162.5l2.7,4.1l-2.7,4.1l-2.7-4.1L155,162.5L155,162.5z M148.8,161.2l2.7-4.1
		l2.7,4.1l-2.7,4.1L148.8,161.2L148.8,161.2z M147.9,162.5l2.7,4.1l-2.7,4.1l-2.7-4.1L147.9,162.5L147.9,162.5z M141.8,161.2
		l2.7-4.1l2.7,4.1l-2.7,4.1L141.8,161.2L141.8,161.2z M140.9,162.5l2.7,4.1l-2.7,4.1l-2.7-4.1L140.9,162.5L140.9,162.5z
		 M134.7,161.2l2.7-4.1l2.7,4.1l-2.7,4.1L134.7,161.2L134.7,161.2z M133.8,162.5l2.7,4.1l-2.7,4.1l-2.7-4.1L133.8,162.5L133.8,162.5
		z M127.7,161.2l2.7-4.1l2.7,4.1l-2.7,4.1L127.7,161.2L127.7,161.2z M126.8,162.5l2.7,4.1l-2.7,4.1l-2.7-4.1L126.8,162.5
		L126.8,162.5z M120.6,161.2l2.7-4.1l2.7,4.1l-2.7,4.1L120.6,161.2L120.6,161.2z M119.8,162.5l2.7,4.1l-2.7,4.1l-2.7-4.1
		L119.8,162.5L119.8,162.5z M113.6,161.2l2.7-4.1l2.7,4.1l-2.7,4.1L113.6,161.2L113.6,161.2z M112.7,162.5l2.7,4.1l-2.7,4.1
		l-2.7-4.1L112.7,162.5L112.7,162.5z M111.8,161.2l-2.7,4.1l-2.7-4.1l2.7-4.1L111.8,161.2L111.8,161.2z M111.8,150.4l-2.7,4.1
		l-2.7-4.1l2.7-4.1L111.8,150.4L111.8,150.4z M111.8,139.6l-2.7,4.1l-2.7-4.1l2.7-4.1L111.8,139.6L111.8,139.6z M111.8,128.8
		l-2.7,4.1l-2.7-4.1l2.7-4.1L111.8,128.8L111.8,128.8z M111.8,118l-2.7,4.1l-2.7-4.1l2.7-4.1L111.8,118L111.8,118z M111.8,107.2
		l-2.7,4.1l-2.7-4.1l2.7-4.1L111.8,107.2L111.8,107.2z M112.7,105.9l-2.7-4.1l2.7-4.1l2.7,4.1L112.7,105.9L112.7,105.9z
		 M118.9,107.2l-2.7,4.1l-2.7-4.1l2.7-4.1L118.9,107.2L118.9,107.2z M119.8,105.9l-2.7-4.1l2.7-4.1l2.7,4.1L119.8,105.9L119.8,105.9
		z M125.9,107.2l-2.7,4.1l-2.7-4.1l2.7-4.1L125.9,107.2L125.9,107.2z M126.8,105.9l-2.7-4.1l2.7-4.1l2.7,4.1L126.8,105.9
		L126.8,105.9z M133,107.2l-2.7,4.1l-2.7-4.1l2.7-4.1L133,107.2L133,107.2z M133.8,105.9l-2.7-4.1l2.7-4.1l2.7,4.1L133.8,105.9
		L133.8,105.9z M140,107.2l-2.7,4.1l-2.7-4.1l2.7-4.1L140,107.2L140,107.2z M140.9,105.9l-2.7-4.1l2.7-4.1l2.7,4.1L140.9,105.9
		L140.9,105.9z M147.1,107.2l-2.7,4.1l-2.7-4.1l2.7-4.1L147.1,107.2L147.1,107.2z M147.9,105.9l-2.7-4.1l2.7-4.1l2.7,4.1
		L147.9,105.9L147.9,105.9z M154.1,107.2l-2.7,4.1l-2.7-4.1l2.7-4.1L154.1,107.2L154.1,107.2z M155,105.9l-2.7-4.1l2.7-4.1l2.7,4.1
		L155,105.9L155,105.9z M161.2,107.2l-2.7,4.1l-2.7-4.1l2.7-4.1L161.2,107.2L161.2,107.2z M162,105.9l-2.7-4.1l2.7-4.1l2.7,4.1
		L162,105.9L162,105.9z M168.2,107.2l-2.7,4.1l-2.7-4.1l2.7-4.1L168.2,107.2L168.2,107.2z M169.1,105.9l-2.7-4.1l2.7-4.1l2.7,4.1
		L169.1,105.9L169.1,105.9z M169.1,151.7l2.7,4.1l-2.7,4.1l-2.7-4.1L169.1,151.7L169.1,151.7z M162.9,150.4l2.7-4.1l2.7,4.1
		l-2.7,4.1L162.9,150.4L162.9,150.4z M162,151.7l2.7,4.1l-2.7,4.1l-2.7-4.1L162,151.7L162,151.7z M155.8,150.4l2.7-4.1l2.7,4.1
		l-2.7,4.1L155.8,150.4L155.8,150.4z M155,151.7l2.7,4.1l-2.7,4.1l-2.7-4.1L155,151.7L155,151.7z M148.8,150.4l2.7-4.1l2.7,4.1
		l-2.7,4.1L148.8,150.4L148.8,150.4z M147.9,151.7l2.7,4.1l-2.7,4.1l-2.7-4.1L147.9,151.7L147.9,151.7z M141.8,150.4l2.7-4.1
		l2.7,4.1l-2.7,4.1L141.8,150.4L141.8,150.4z M140.9,151.7l2.7,4.1l-2.7,4.1l-2.7-4.1L140.9,151.7L140.9,151.7z M134.7,150.4
		l2.7-4.1l2.7,4.1l-2.7,4.1L134.7,150.4L134.7,150.4z M133.8,151.7l2.7,4.1l-2.7,4.1l-2.7-4.1L133.8,151.7L133.8,151.7z
		 M127.7,150.4l2.7-4.1l2.7,4.1l-2.7,4.1L127.7,150.4L127.7,150.4z M126.8,151.7l2.7,4.1l-2.7,4.1l-2.7-4.1L126.8,151.7L126.8,151.7
		z M120.6,150.4l2.7-4.1l2.7,4.1l-2.7,4.1L120.6,150.4L120.6,150.4z M119.8,151.7l2.7,4.1l-2.7,4.1l-2.7-4.1L119.8,151.7
		L119.8,151.7z M113.6,150.4l2.7-4.1l2.7,4.1l-2.7,4.1L113.6,150.4L113.6,150.4z M115.4,155.8l-2.7,4.1l-2.7-4.1l2.7-4.1
		L115.4,155.8L115.4,155.8z M115.4,145l-2.7,4.1L110,145l2.7-4.1L115.4,145L115.4,145z M115.4,134.2l-2.7,4.1l-2.7-4.1l2.7-4.1
		L115.4,134.2L115.4,134.2z M115.4,123.4l-2.7,4.1l-2.7-4.1l2.7-4.1L115.4,123.4L115.4,123.4z M112.7,116.7l-2.7-4.1l2.7-4.1
		l2.7,4.1L112.7,116.7L112.7,116.7z M118.9,118l-2.7,4.1l-2.7-4.1l2.7-4.1L118.9,118L118.9,118z M119.8,116.7l-2.7-4.1l2.7-4.1
		l2.7,4.1L119.8,116.7L119.8,116.7z M125.9,118l-2.7,4.1l-2.7-4.1l2.7-4.1L125.9,118L125.9,118z M126.8,116.7l-2.7-4.1l2.7-4.1
		l2.7,4.1L126.8,116.7L126.8,116.7z M133,118l-2.7,4.1l-2.7-4.1l2.7-4.1L133,118L133,118z M133.8,116.7l-2.7-4.1l2.7-4.1l2.7,4.1
		L133.8,116.7L133.8,116.7z M140,118l-2.7,4.1l-2.7-4.1l2.7-4.1L140,118L140,118z M140.9,116.7l-2.7-4.1l2.7-4.1l2.7,4.1
		L140.9,116.7L140.9,116.7z M147.1,118l-2.7,4.1l-2.7-4.1l2.7-4.1L147.1,118L147.1,118z M147.9,116.7l-2.7-4.1l2.7-4.1l2.7,4.1
		L147.9,116.7L147.9,116.7z M154.1,118l-2.7,4.1l-2.7-4.1l2.7-4.1L154.1,118L154.1,118z M155,116.7l-2.7-4.1l2.7-4.1l2.7,4.1
		L155,116.7L155,116.7z M161.2,118l-2.7,4.1l-2.7-4.1l2.7-4.1L161.2,118L161.2,118z M162,116.7l-2.7-4.1l2.7-4.1l2.7,4.1L162,116.7
		L162,116.7z M168.2,118l-2.7,4.1l-2.7-4.1l2.7-4.1L168.2,118L168.2,118z M169.1,116.7l-2.7-4.1l2.7-4.1l2.7,4.1L169.1,116.7
		L169.1,116.7z M169.1,140.9l2.7,4.1l-2.7,4.1l-2.7-4.1L169.1,140.9L169.1,140.9z M162.9,139.6l2.7-4.1l2.7,4.1l-2.7,4.1
		L162.9,139.6L162.9,139.6z M162,140.9l2.7,4.1l-2.7,4.1l-2.7-4.1L162,140.9L162,140.9z M155.8,139.6l2.7-4.1l2.7,4.1l-2.7,4.1
		L155.8,139.6L155.8,139.6z M155,140.9l2.7,4.1l-2.7,4.1l-2.7-4.1L155,140.9L155,140.9z M148.8,139.6l2.7-4.1l2.7,4.1l-2.7,4.1
		L148.8,139.6L148.8,139.6z M147.9,140.9l2.7,4.1l-2.7,4.1l-2.7-4.1L147.9,140.9L147.9,140.9z M141.8,139.6l2.7-4.1l2.7,4.1
		l-2.7,4.1L141.8,139.6L141.8,139.6z M140.9,140.9l2.7,4.1l-2.7,4.1l-2.7-4.1L140.9,140.9L140.9,140.9z M134.7,139.6l2.7-4.1
		l2.7,4.1l-2.7,4.1L134.7,139.6L134.7,139.6z M133.8,140.9l2.7,4.1l-2.7,4.1l-2.7-4.1L133.8,140.9L133.8,140.9z M127.7,139.6
		l2.7-4.1l2.7,4.1l-2.7,4.1L127.7,139.6L127.7,139.6z M126.8,140.9l2.7,4.1l-2.7,4.1l-2.7-4.1L126.8,140.9L126.8,140.9z
		 M120.6,139.6l2.7-4.1l2.7,4.1l-2.7,4.1L120.6,139.6L120.6,139.6z M119.8,140.9l2.7,4.1l-2.7,4.1l-2.7-4.1L119.8,140.9L119.8,140.9
		z M118.9,139.6l-2.7,4.1l-2.7-4.1l2.7-4.1L118.9,139.6L118.9,139.6z M118.9,128.8l-2.7,4.1l-2.7-4.1l2.7-4.1L118.9,128.8
		L118.9,128.8z M119.8,127.5l-2.7-4.1l2.7-4.1l2.7,4.1L119.8,127.5L119.8,127.5z M122.4,134.2l-2.7,4.1l-2.7-4.1l2.7-4.1
		L122.4,134.2L122.4,134.2z M125.9,128.8l-2.7,4.1l-2.7-4.1l2.7-4.1L125.9,128.8L125.9,128.8z M126.8,127.5l-2.7-4.1l2.7-4.1
		l2.7,4.1L126.8,127.5L126.8,127.5z M129.5,134.2l-2.7,4.1l-2.7-4.1l2.7-4.1L129.5,134.2L129.5,134.2z M133,128.8l-2.7,4.1l-2.7-4.1
		l2.7-4.1L133,128.8L133,128.8z M133.8,127.5l-2.7-4.1l2.7-4.1l2.7,4.1L133.8,127.5L133.8,127.5z M136.5,134.2l-2.7,4.1l-2.7-4.1
		l2.7-4.1L136.5,134.2L136.5,134.2z M140,128.8l-2.7,4.1l-2.7-4.1l2.7-4.1L140,128.8L140,128.8z M140.9,127.5l-2.7-4.1l2.7-4.1
		l2.7,4.1L140.9,127.5L140.9,127.5z M143.6,134.2l-2.7,4.1l-2.7-4.1l2.7-4.1L143.6,134.2L143.6,134.2z M147.1,128.8l-2.7,4.1
		l-2.7-4.1l2.7-4.1L147.1,128.8L147.1,128.8z M147.9,127.5l-2.7-4.1l2.7-4.1l2.7,4.1L147.9,127.5L147.9,127.5z M150.6,134.2
		l-2.7,4.1l-2.7-4.1l2.7-4.1L150.6,134.2L150.6,134.2z M154.1,128.8l-2.7,4.1l-2.7-4.1l2.7-4.1L154.1,128.8L154.1,128.8z M155,127.5
		l-2.7-4.1l2.7-4.1l2.7,4.1L155,127.5L155,127.5z M157.6,134.2l-2.7,4.1l-2.7-4.1l2.7-4.1L157.6,134.2L157.6,134.2z M161.2,128.8
		l-2.7,4.1l-2.7-4.1l2.7-4.1L161.2,128.8L161.2,128.8z M162,127.5l-2.7-4.1l2.7-4.1l2.7,4.1L162,127.5L162,127.5z M164.7,134.2
		l-2.7,4.1l-2.7-4.1l2.7-4.1L164.7,134.2L164.7,134.2z M168.2,128.8l-2.7,4.1l-2.7-4.1l2.7-4.1L168.2,128.8L168.2,128.8z
		 M169.1,127.5l-2.7-4.1l2.7-4.1l2.7,4.1L169.1,127.5L169.1,127.5z M171.7,134.2l-2.7,4.1l-2.7-4.1l2.7-4.1L171.7,134.2L171.7,134.2
		z M85.4,247.6l2.7-4.1l2.7,4.1l-2.7,4.1L85.4,247.6L85.4,247.6z M84.5,257.1l-2.7-4.1l2.7-4.1l2.7,4.1L84.5,257.1L84.5,257.1z
		 M78.3,247.6l2.7-4.1l2.7,4.1l-2.7,4.1L78.3,247.6L78.3,247.6z M77.5,257.1l-2.7-4.1l2.7-4.1l2.7,4.1L77.5,257.1L77.5,257.1z
		 M71.3,247.6l2.7-4.1l2.7,4.1l-2.7,4.1L71.3,247.6L71.3,247.6z M70.4,257.1l-2.7-4.1l2.7-4.1l2.7,4.1L70.4,257.1L70.4,257.1z
		 M64.2,247.6l2.7-4.1l2.7,4.1l-2.7,4.1L64.2,247.6L64.2,247.6z M63.4,257.1l-2.7-4.1l2.7-4.1L66,253L63.4,257.1L63.4,257.1z
		 M57.2,247.6l2.7-4.1l2.7,4.1l-2.7,4.1L57.2,247.6L57.2,247.6z M56.3,257.1l-2.7-4.1l2.7-4.1L59,253L56.3,257.1L56.3,257.1z
		 M50.1,247.6l2.7-4.1l2.7,4.1l-2.7,4.1L50.1,247.6L50.1,247.6z M49.3,257.1l-2.7-4.1l2.7-4.1l2.7,4.1L49.3,257.1L49.3,257.1z
		 M43.1,247.6l2.7-4.1l2.7,4.1l-2.7,4.1L43.1,247.6L43.1,247.6z M42.2,257.1l-2.7-4.1l2.7-4.1l2.7,4.1L42.2,257.1L42.2,257.1z
		 M36,247.6l2.7-4.1l2.7,4.1l-2.7,4.1L36,247.6L36,247.6z M35.2,257.1l-2.7-4.1l2.7-4.1l2.7,4.1L35.2,257.1L35.2,257.1z M29,247.6
		l2.7-4.1l2.7,4.1l-2.7,4.1L29,247.6L29,247.6z M28.1,257.1l-2.7-4.1l2.7-4.1l2.7,4.1L28.1,257.1L28.1,257.1z M22,247.6l2.7-4.1
		l2.7,4.1l-2.7,4.1L22,247.6L22,247.6z M21.1,257.1l-2.7-4.1l2.7-4.1l2.7,4.1L21.1,257.1L21.1,257.1z M14.9,247.6l2.7-4.1l2.7,4.1
		l-2.7,4.1L14.9,247.6L14.9,247.6z M14,257.1l-2.7-4.1L14,249l2.7,4.1L14,257.1L14,257.1z M7.9,247.6l2.7-4.1l2.7,4.1l-2.7,4.1
		L7.9,247.6L7.9,247.6z M13.2,20.8l-2.7,4.1l-2.7-4.1l2.7-4.1L13.2,20.8L13.2,20.8z M14,11.3l2.7,4.1L14,19.5l-2.7-4.1L14,11.3
		L14,11.3z M20.2,20.8l-2.7,4.1l-2.7-4.1l2.7-4.1L20.2,20.8L20.2,20.8z M21.1,11.3l2.7,4.1l-2.7,4.1l-2.7-4.1L21.1,11.3L21.1,11.3z
		 M27.3,20.8l-2.7,4.1L22,20.8l2.7-4.1L27.3,20.8L27.3,20.8z M28.1,11.3l2.7,4.1l-2.7,4.1l-2.7-4.1L28.1,11.3L28.1,11.3z M34.3,20.8
		l-2.7,4.1L29,20.8l2.7-4.1L34.3,20.8L34.3,20.8z M35.2,11.3l2.7,4.1l-2.7,4.1l-2.7-4.1L35.2,11.3L35.2,11.3z M41.4,20.8l-2.7,4.1
		L36,20.8l2.7-4.1L41.4,20.8L41.4,20.8z M42.2,11.3l2.7,4.1l-2.7,4.1l-2.7-4.1L42.2,11.3L42.2,11.3z M48.4,20.8l-2.7,4.1l-2.7-4.1
		l2.7-4.1L48.4,20.8L48.4,20.8z M49.3,11.3l2.7,4.1l-2.7,4.1l-2.7-4.1L49.3,11.3L49.3,11.3z M55.5,20.8l-2.7,4.1l-2.7-4.1l2.7-4.1
		L55.5,20.8L55.5,20.8z M56.3,11.3l2.7,4.1l-2.7,4.1l-2.7-4.1L56.3,11.3L56.3,11.3z M62.5,20.8l-2.7,4.1l-2.7-4.1l2.7-4.1L62.5,20.8
		L62.5,20.8z M63.4,11.3l2.7,4.1l-2.7,4.1l-2.7-4.1L63.4,11.3L63.4,11.3z M69.6,20.8l-2.7,4.1l-2.7-4.1l2.7-4.1L69.6,20.8L69.6,20.8
		z M70.4,11.3l2.7,4.1l-2.7,4.1l-2.7-4.1L70.4,11.3L70.4,11.3z M76.6,20.8l-2.7,4.1l-2.7-4.1l2.7-4.1L76.6,20.8L76.6,20.8z
		 M77.5,11.3l2.7,4.1l-2.7,4.1l-2.7-4.1L77.5,11.3L77.5,11.3z M83.7,20.8L81,24.9l-2.7-4.1l2.7-4.1L83.7,20.8L83.7,20.8z M84.5,11.3
		l2.7,4.1l-2.7,4.1l-2.7-4.1L84.5,11.3L84.5,11.3z M90.7,20.8L88,24.9l-2.7-4.1l2.7-4.1L90.7,20.8L90.7,20.8z M85.4,236.8l2.7-4.1
		l2.7,4.1l-2.7,4.1L85.4,236.8L85.4,236.8z M84.5,238.2l2.7,4.1l-2.7,4.1l-2.7-4.1L84.5,238.2L84.5,238.2z M78.3,236.8l2.7-4.1
		l2.7,4.1l-2.7,4.1L78.3,236.8L78.3,236.8z M77.5,238.2l2.7,4.1l-2.7,4.1l-2.7-4.1L77.5,238.2L77.5,238.2z M71.3,236.8l2.7-4.1
		l2.7,4.1l-2.7,4.1L71.3,236.8L71.3,236.8z M70.4,238.2l2.7,4.1l-2.7,4.1l-2.7-4.1L70.4,238.2L70.4,238.2z M64.2,236.8l2.7-4.1
		l2.7,4.1l-2.7,4.1L64.2,236.8L64.2,236.8z M63.4,238.2l2.7,4.1l-2.7,4.1l-2.7-4.1L63.4,238.2L63.4,238.2z M57.2,236.8l2.7-4.1
		l2.7,4.1l-2.7,4.1L57.2,236.8L57.2,236.8z M56.3,238.2l2.7,4.1l-2.7,4.1l-2.7-4.1L56.3,238.2L56.3,238.2z M50.1,236.8l2.7-4.1
		l2.7,4.1l-2.7,4.1L50.1,236.8L50.1,236.8z M49.3,238.2l2.7,4.1l-2.7,4.1l-2.7-4.1L49.3,238.2L49.3,238.2z M43.1,236.8l2.7-4.1
		l2.7,4.1l-2.7,4.1L43.1,236.8L43.1,236.8z M42.2,238.2l2.7,4.1l-2.7,4.1l-2.7-4.1L42.2,238.2L42.2,238.2z M36,236.8l2.7-4.1
		l2.7,4.1l-2.7,4.1L36,236.8L36,236.8z M35.2,238.2l2.7,4.1l-2.7,4.1l-2.7-4.1L35.2,238.2L35.2,238.2z M29,236.8l2.7-4.1l2.7,4.1
		l-2.7,4.1L29,236.8L29,236.8z M28.1,238.2l2.7,4.1l-2.7,4.1l-2.7-4.1L28.1,238.2L28.1,238.2z M22,236.8l2.7-4.1l2.7,4.1l-2.7,4.1
		L22,236.8L22,236.8z M21.1,238.2l2.7,4.1l-2.7,4.1l-2.7-4.1L21.1,238.2L21.1,238.2z M14.9,236.8l2.7-4.1l2.7,4.1l-2.7,4.1
		L14.9,236.8L14.9,236.8z M14,238.2l2.7,4.1l-2.7,4.1l-2.7-4.1L14,238.2L14,238.2z M7.9,236.8l2.7-4.1l2.7,4.1l-2.7,4.1L7.9,236.8
		L7.9,236.8z M13.2,31.6l-2.7,4.1l-2.7-4.1l2.7-4.1L13.2,31.6L13.2,31.6z M14,30.3l-2.7-4.1l2.7-4.1l2.7,4.1L14,30.3L14,30.3z
		 M20.2,31.6l-2.7,4.1l-2.7-4.1l2.7-4.1L20.2,31.6L20.2,31.6z M21.1,30.3l-2.7-4.1l2.7-4.1l2.7,4.1L21.1,30.3L21.1,30.3z M27.3,31.6
		l-2.7,4.1L22,31.6l2.7-4.1L27.3,31.6L27.3,31.6z M28.1,30.3l-2.7-4.1l2.7-4.1l2.7,4.1L28.1,30.3L28.1,30.3z M34.3,31.6l-2.7,4.1
		L29,31.6l2.7-4.1L34.3,31.6L34.3,31.6z M35.2,30.3l-2.7-4.1l2.7-4.1l2.7,4.1L35.2,30.3L35.2,30.3z M41.4,31.6l-2.7,4.1L36,31.6
		l2.7-4.1L41.4,31.6L41.4,31.6z M42.2,30.3l-2.7-4.1l2.7-4.1l2.7,4.1L42.2,30.3L42.2,30.3z M48.4,31.6l-2.7,4.1l-2.7-4.1l2.7-4.1
		L48.4,31.6L48.4,31.6z M49.3,30.3l-2.7-4.1l2.7-4.1l2.7,4.1L49.3,30.3L49.3,30.3z M55.5,31.6l-2.7,4.1l-2.7-4.1l2.7-4.1L55.5,31.6
		L55.5,31.6z M56.3,30.3l-2.7-4.1l2.7-4.1l2.7,4.1L56.3,30.3L56.3,30.3z M62.5,31.6l-2.7,4.1l-2.7-4.1l2.7-4.1L62.5,31.6L62.5,31.6z
		 M63.4,30.3l-2.7-4.1l2.7-4.1l2.7,4.1L63.4,30.3L63.4,30.3z M69.6,31.6l-2.7,4.1l-2.7-4.1l2.7-4.1L69.6,31.6L69.6,31.6z M70.4,30.3
		l-2.7-4.1l2.7-4.1l2.7,4.1L70.4,30.3L70.4,30.3z M76.6,31.6l-2.7,4.1l-2.7-4.1l2.7-4.1L76.6,31.6L76.6,31.6z M77.5,30.3l-2.7-4.1
		l2.7-4.1l2.7,4.1L77.5,30.3L77.5,30.3z M83.7,31.6L81,35.7l-2.7-4.1l2.7-4.1L83.7,31.6L83.7,31.6z M84.5,30.3l-2.7-4.1l2.7-4.1
		l2.7,4.1L84.5,30.3L84.5,30.3z M90.7,31.6L88,35.7l-2.7-4.1l2.7-4.1L90.7,31.6L90.7,31.6z M85.4,226L88,222l2.7,4.1l-2.7,4.1
		L85.4,226L85.4,226z M84.5,227.4l2.7,4.1l-2.7,4.1l-2.7-4.1L84.5,227.4L84.5,227.4z M78.3,226L81,222l2.7,4.1l-2.7,4.1L78.3,226
		L78.3,226z M77.5,227.4l2.7,4.1l-2.7,4.1l-2.7-4.1L77.5,227.4L77.5,227.4z M71.3,226l2.7-4.1l2.7,4.1l-2.7,4.1L71.3,226L71.3,226z
		 M70.4,227.4l2.7,4.1l-2.7,4.1l-2.7-4.1L70.4,227.4L70.4,227.4z M64.2,226l2.7-4.1l2.7,4.1l-2.7,4.1L64.2,226L64.2,226z
		 M63.4,227.4l2.7,4.1l-2.7,4.1l-2.7-4.1L63.4,227.4L63.4,227.4z M57.2,226l2.7-4.1l2.7,4.1l-2.7,4.1L57.2,226L57.2,226z
		 M56.3,227.4l2.7,4.1l-2.7,4.1l-2.7-4.1L56.3,227.4L56.3,227.4z M50.1,226l2.7-4.1l2.7,4.1l-2.7,4.1L50.1,226L50.1,226z
		 M49.3,227.4l2.7,4.1l-2.7,4.1l-2.7-4.1L49.3,227.4L49.3,227.4z M43.1,226l2.7-4.1l2.7,4.1l-2.7,4.1L43.1,226L43.1,226z
		 M42.2,227.4l2.7,4.1l-2.7,4.1l-2.7-4.1L42.2,227.4L42.2,227.4z M36,226l2.7-4.1l2.7,4.1l-2.7,4.1L36,226L36,226z M35.2,227.4
		l2.7,4.1l-2.7,4.1l-2.7-4.1L35.2,227.4L35.2,227.4z M29,226l2.7-4.1l2.7,4.1l-2.7,4.1L29,226L29,226z M28.1,227.4l2.7,4.1l-2.7,4.1
		l-2.7-4.1L28.1,227.4L28.1,227.4z M22,226l2.7-4.1l2.7,4.1l-2.7,4.1L22,226L22,226z M21.1,227.4l2.7,4.1l-2.7,4.1l-2.7-4.1
		L21.1,227.4L21.1,227.4z M14.9,226l2.7-4.1l2.7,4.1l-2.7,4.1L14.9,226L14.9,226z M14,227.4l2.7,4.1l-2.7,4.1l-2.7-4.1L14,227.4
		L14,227.4z M7.9,226l2.7-4.1l2.7,4.1l-2.7,4.1L7.9,226L7.9,226z M13.2,42.4l-2.7,4.1l-2.7-4.1l2.7-4.1L13.2,42.4L13.2,42.4z
		 M14,41.1L11.4,37l2.7-4.1l2.7,4.1L14,41.1L14,41.1z M20.2,42.4l-2.7,4.1l-2.7-4.1l2.7-4.1L20.2,42.4L20.2,42.4z M21.1,41.1
		L18.4,37l2.7-4.1l2.7,4.1L21.1,41.1L21.1,41.1z M27.3,42.4l-2.7,4.1L22,42.4l2.7-4.1L27.3,42.4L27.3,42.4z M28.1,41.1L25.5,37
		l2.7-4.1l2.7,4.1L28.1,41.1L28.1,41.1z M34.3,42.4l-2.7,4.1L29,42.4l2.7-4.1L34.3,42.4L34.3,42.4z M35.2,41.1L32.5,37l2.7-4.1
		l2.7,4.1L35.2,41.1L35.2,41.1z M41.4,42.4l-2.7,4.1L36,42.4l2.7-4.1L41.4,42.4L41.4,42.4z M42.2,41.1L39.6,37l2.7-4.1l2.7,4.1
		L42.2,41.1L42.2,41.1z M48.4,42.4l-2.7,4.1l-2.7-4.1l2.7-4.1L48.4,42.4L48.4,42.4z M49.3,41.1L46.6,37l2.7-4.1l2.7,4.1L49.3,41.1
		L49.3,41.1z M55.5,42.4l-2.7,4.1l-2.7-4.1l2.7-4.1L55.5,42.4L55.5,42.4z M56.3,41.1L53.7,37l2.7-4.1L59,37L56.3,41.1L56.3,41.1z
		 M62.5,42.4l-2.7,4.1l-2.7-4.1l2.7-4.1L62.5,42.4L62.5,42.4z M63.4,41.1L60.7,37l2.7-4.1L66,37L63.4,41.1L63.4,41.1z M69.6,42.4
		l-2.7,4.1l-2.7-4.1l2.7-4.1L69.6,42.4L69.6,42.4z M70.4,41.1L67.8,37l2.7-4.1l2.7,4.1L70.4,41.1L70.4,41.1z M76.6,42.4l-2.7,4.1
		l-2.7-4.1l2.7-4.1L76.6,42.4L76.6,42.4z M77.5,41.1L74.8,37l2.7-4.1l2.7,4.1L77.5,41.1L77.5,41.1z M83.7,42.4L81,46.5l-2.7-4.1
		l2.7-4.1L83.7,42.4L83.7,42.4z M84.5,41.1L81.9,37l2.7-4.1l2.7,4.1L84.5,41.1L84.5,41.1z M90.7,42.4L88,46.5l-2.7-4.1l2.7-4.1
		L90.7,42.4L90.7,42.4z M85.4,215.2l2.7-4.1l2.7,4.1l-2.7,4.1L85.4,215.2L85.4,215.2z M84.5,216.6l2.7,4.1l-2.7,4.1l-2.7-4.1
		L84.5,216.6L84.5,216.6z M78.3,215.2l2.7-4.1l2.7,4.1l-2.7,4.1L78.3,215.2L78.3,215.2z M77.5,216.6l2.7,4.1l-2.7,4.1l-2.7-4.1
		L77.5,216.6L77.5,216.6z M71.3,215.2l2.7-4.1l2.7,4.1l-2.7,4.1L71.3,215.2L71.3,215.2z M70.4,216.6l2.7,4.1l-2.7,4.1l-2.7-4.1
		L70.4,216.6L70.4,216.6z M64.2,215.2l2.7-4.1l2.7,4.1l-2.7,4.1L64.2,215.2L64.2,215.2z M63.4,216.6l2.7,4.1l-2.7,4.1l-2.7-4.1
		L63.4,216.6L63.4,216.6z M57.2,215.2l2.7-4.1l2.7,4.1l-2.7,4.1L57.2,215.2L57.2,215.2z M56.3,216.6l2.7,4.1l-2.7,4.1l-2.7-4.1
		L56.3,216.6L56.3,216.6z M50.1,215.2l2.7-4.1l2.7,4.1l-2.7,4.1L50.1,215.2L50.1,215.2z M49.3,216.6l2.7,4.1l-2.7,4.1l-2.7-4.1
		L49.3,216.6L49.3,216.6z M43.1,215.2l2.7-4.1l2.7,4.1l-2.7,4.1L43.1,215.2L43.1,215.2z M42.2,216.6l2.7,4.1l-2.7,4.1l-2.7-4.1
		L42.2,216.6L42.2,216.6z M36,215.2l2.7-4.1l2.7,4.1l-2.7,4.1L36,215.2L36,215.2z M35.2,216.6l2.7,4.1l-2.7,4.1l-2.7-4.1L35.2,216.6
		L35.2,216.6z M29,215.2l2.7-4.1l2.7,4.1l-2.7,4.1L29,215.2L29,215.2z M28.1,216.6l2.7,4.1l-2.7,4.1l-2.7-4.1L28.1,216.6L28.1,216.6
		z M22,215.2l2.7-4.1l2.7,4.1l-2.7,4.1L22,215.2L22,215.2z M21.1,216.6l2.7,4.1l-2.7,4.1l-2.7-4.1L21.1,216.6L21.1,216.6z
		 M14.9,215.2l2.7-4.1l2.7,4.1l-2.7,4.1L14.9,215.2L14.9,215.2z M14,216.6l2.7,4.1l-2.7,4.1l-2.7-4.1L14,216.6L14,216.6z M7.9,215.2
		l2.7-4.1l2.7,4.1l-2.7,4.1L7.9,215.2L7.9,215.2z M13.2,53.2l-2.7,4.1l-2.7-4.1l2.7-4.1L13.2,53.2L13.2,53.2z M14,51.9l-2.7-4.1
		l2.7-4.1l2.7,4.1L14,51.9L14,51.9z M20.2,53.2l-2.7,4.1l-2.7-4.1l2.7-4.1L20.2,53.2L20.2,53.2z M21.1,51.9l-2.7-4.1l2.7-4.1
		l2.7,4.1L21.1,51.9L21.1,51.9z M27.3,53.2l-2.7,4.1L22,53.2l2.7-4.1L27.3,53.2L27.3,53.2z M28.1,51.9l-2.7-4.1l2.7-4.1l2.7,4.1
		L28.1,51.9L28.1,51.9z M34.3,53.2l-2.7,4.1L29,53.2l2.7-4.1L34.3,53.2L34.3,53.2z M35.2,51.9l-2.7-4.1l2.7-4.1l2.7,4.1L35.2,51.9
		L35.2,51.9z M41.4,53.2l-2.7,4.1L36,53.2l2.7-4.1L41.4,53.2L41.4,53.2z M42.2,51.9l-2.7-4.1l2.7-4.1l2.7,4.1L42.2,51.9L42.2,51.9z
		 M48.4,53.2l-2.7,4.1l-2.7-4.1l2.7-4.1L48.4,53.2L48.4,53.2z M49.3,51.9l-2.7-4.1l2.7-4.1l2.7,4.1L49.3,51.9L49.3,51.9z M55.5,53.2
		l-2.7,4.1l-2.7-4.1l2.7-4.1L55.5,53.2L55.5,53.2z M56.3,51.9l-2.7-4.1l2.7-4.1l2.7,4.1L56.3,51.9L56.3,51.9z M62.5,53.2l-2.7,4.1
		l-2.7-4.1l2.7-4.1L62.5,53.2L62.5,53.2z M63.4,51.9l-2.7-4.1l2.7-4.1l2.7,4.1L63.4,51.9L63.4,51.9z M69.6,53.2l-2.7,4.1l-2.7-4.1
		l2.7-4.1L69.6,53.2L69.6,53.2z M70.4,51.9l-2.7-4.1l2.7-4.1l2.7,4.1L70.4,51.9L70.4,51.9z M76.6,53.2l-2.7,4.1l-2.7-4.1l2.7-4.1
		L76.6,53.2L76.6,53.2z M77.5,51.9l-2.7-4.1l2.7-4.1l2.7,4.1L77.5,51.9L77.5,51.9z M83.7,53.2L81,57.3l-2.7-4.1l2.7-4.1L83.7,53.2
		L83.7,53.2z M84.5,51.9l-2.7-4.1l2.7-4.1l2.7,4.1L84.5,51.9L84.5,51.9z M90.7,53.2L88,57.3l-2.7-4.1l2.7-4.1L90.7,53.2L90.7,53.2z
		 M85.4,204.4l2.7-4.1l2.7,4.1l-2.7,4.1L85.4,204.4L85.4,204.4z M84.5,205.8l2.7,4.1l-2.7,4.1l-2.7-4.1L84.5,205.8L84.5,205.8z
		 M78.3,204.4l2.7-4.1l2.7,4.1l-2.7,4.1L78.3,204.4L78.3,204.4z M77.5,205.8l2.7,4.1l-2.7,4.1l-2.7-4.1L77.5,205.8L77.5,205.8z
		 M71.3,204.4l2.7-4.1l2.7,4.1l-2.7,4.1L71.3,204.4L71.3,204.4z M70.4,205.8l2.7,4.1l-2.7,4.1l-2.7-4.1L70.4,205.8L70.4,205.8z
		 M64.2,204.4l2.7-4.1l2.7,4.1l-2.7,4.1L64.2,204.4L64.2,204.4z M63.4,205.8l2.7,4.1l-2.7,4.1l-2.7-4.1L63.4,205.8L63.4,205.8z
		 M57.2,204.4l2.7-4.1l2.7,4.1l-2.7,4.1L57.2,204.4L57.2,204.4z M56.3,205.8l2.7,4.1l-2.7,4.1l-2.7-4.1L56.3,205.8L56.3,205.8z
		 M50.1,204.4l2.7-4.1l2.7,4.1l-2.7,4.1L50.1,204.4L50.1,204.4z M49.3,205.8l2.7,4.1l-2.7,4.1l-2.7-4.1L49.3,205.8L49.3,205.8z
		 M43.1,204.4l2.7-4.1l2.7,4.1l-2.7,4.1L43.1,204.4L43.1,204.4z M42.2,205.8l2.7,4.1l-2.7,4.1l-2.7-4.1L42.2,205.8L42.2,205.8z
		 M36,204.4l2.7-4.1l2.7,4.1l-2.7,4.1L36,204.4L36,204.4z M35.2,205.8l2.7,4.1l-2.7,4.1l-2.7-4.1L35.2,205.8L35.2,205.8z M29,204.4
		l2.7-4.1l2.7,4.1l-2.7,4.1L29,204.4L29,204.4z M28.1,205.8l2.7,4.1l-2.7,4.1l-2.7-4.1L28.1,205.8L28.1,205.8z M22,204.4l2.7-4.1
		l2.7,4.1l-2.7,4.1L22,204.4L22,204.4z M21.1,205.8l2.7,4.1l-2.7,4.1l-2.7-4.1L21.1,205.8L21.1,205.8z M14.9,204.4l2.7-4.1l2.7,4.1
		l-2.7,4.1L14.9,204.4L14.9,204.4z M14,205.8l2.7,4.1l-2.7,4.1l-2.7-4.1L14,205.8L14,205.8z M7.9,204.4l2.7-4.1l2.7,4.1l-2.7,4.1
		L7.9,204.4L7.9,204.4z M13.2,64l-2.7,4.1L7.9,64l2.7-4.1L13.2,64L13.2,64z M14,62.7l-2.7-4.1l2.7-4.1l2.7,4.1L14,62.7L14,62.7z
		 M20.2,64l-2.7,4.1L14.9,64l2.7-4.1L20.2,64L20.2,64z M21.1,62.7l-2.7-4.1l2.7-4.1l2.7,4.1L21.1,62.7L21.1,62.7z M27.3,64l-2.7,4.1
		L22,64l2.7-4.1L27.3,64L27.3,64z M28.1,62.7l-2.7-4.1l2.7-4.1l2.7,4.1L28.1,62.7L28.1,62.7z M34.3,64l-2.7,4.1L29,64l2.7-4.1
		L34.3,64L34.3,64z M35.2,62.7l-2.7-4.1l2.7-4.1l2.7,4.1L35.2,62.7L35.2,62.7z M41.4,64l-2.7,4.1L36,64l2.7-4.1L41.4,64L41.4,64z
		 M42.2,62.7l-2.7-4.1l2.7-4.1l2.7,4.1L42.2,62.7L42.2,62.7z M48.4,64l-2.7,4.1L43.1,64l2.7-4.1L48.4,64L48.4,64z M49.3,62.7
		l-2.7-4.1l2.7-4.1l2.7,4.1L49.3,62.7L49.3,62.7z M55.5,64l-2.7,4.1L50.1,64l2.7-4.1L55.5,64L55.5,64z M56.3,62.7l-2.7-4.1l2.7-4.1
		l2.7,4.1L56.3,62.7L56.3,62.7z M62.5,64l-2.7,4.1L57.2,64l2.7-4.1L62.5,64L62.5,64z M63.4,62.7l-2.7-4.1l2.7-4.1l2.7,4.1L63.4,62.7
		L63.4,62.7z M69.6,64l-2.7,4.1L64.2,64l2.7-4.1L69.6,64L69.6,64z M70.4,62.7l-2.7-4.1l2.7-4.1l2.7,4.1L70.4,62.7L70.4,62.7z
		 M76.6,64l-2.7,4.1L71.3,64l2.7-4.1L76.6,64L76.6,64z M77.5,62.7l-2.7-4.1l2.7-4.1l2.7,4.1L77.5,62.7L77.5,62.7z M83.7,64L81,68.1
		L78.3,64l2.7-4.1L83.7,64L83.7,64z M84.5,62.7l-2.7-4.1l2.7-4.1l2.7,4.1L84.5,62.7L84.5,62.7z M90.7,64L88,68.1L85.4,64l2.7-4.1
		L90.7,64L90.7,64z M85.4,193.6l2.7-4.1l2.7,4.1l-2.7,4.1L85.4,193.6L85.4,193.6z M84.5,194.9l2.7,4.1l-2.7,4.1l-2.7-4.1L84.5,194.9
		L84.5,194.9z M78.3,193.6l2.7-4.1l2.7,4.1l-2.7,4.1L78.3,193.6L78.3,193.6z M77.5,194.9l2.7,4.1l-2.7,4.1l-2.7-4.1L77.5,194.9
		L77.5,194.9z M71.3,193.6l2.7-4.1l2.7,4.1l-2.7,4.1L71.3,193.6L71.3,193.6z M70.4,194.9l2.7,4.1l-2.7,4.1l-2.7-4.1L70.4,194.9
		L70.4,194.9z M64.2,193.6l2.7-4.1l2.7,4.1l-2.7,4.1L64.2,193.6L64.2,193.6z M63.4,194.9L66,199l-2.7,4.1l-2.7-4.1L63.4,194.9
		L63.4,194.9z M57.2,193.6l2.7-4.1l2.7,4.1l-2.7,4.1L57.2,193.6L57.2,193.6z M56.3,194.9L59,199l-2.7,4.1l-2.7-4.1L56.3,194.9
		L56.3,194.9z M50.1,193.6l2.7-4.1l2.7,4.1l-2.7,4.1L50.1,193.6L50.1,193.6z M49.3,194.9l2.7,4.1l-2.7,4.1l-2.7-4.1L49.3,194.9
		L49.3,194.9z M43.1,193.6l2.7-4.1l2.7,4.1l-2.7,4.1L43.1,193.6L43.1,193.6z M42.2,194.9l2.7,4.1l-2.7,4.1l-2.7-4.1L42.2,194.9
		L42.2,194.9z M36,193.6l2.7-4.1l2.7,4.1l-2.7,4.1L36,193.6L36,193.6z M35.2,194.9l2.7,4.1l-2.7,4.1l-2.7-4.1L35.2,194.9L35.2,194.9
		z M29,193.6l2.7-4.1l2.7,4.1l-2.7,4.1L29,193.6L29,193.6z M28.1,194.9l2.7,4.1l-2.7,4.1l-2.7-4.1L28.1,194.9L28.1,194.9z M22,193.6
		l2.7-4.1l2.7,4.1l-2.7,4.1L22,193.6L22,193.6z M21.1,194.9l2.7,4.1l-2.7,4.1l-2.7-4.1L21.1,194.9L21.1,194.9z M14.9,193.6l2.7-4.1
		l2.7,4.1l-2.7,4.1L14.9,193.6L14.9,193.6z M14,194.9l2.7,4.1l-2.7,4.1l-2.7-4.1L14,194.9L14,194.9z M7.9,193.6l2.7-4.1l2.7,4.1
		l-2.7,4.1L7.9,193.6L7.9,193.6z M13.2,74.8l-2.7,4.1l-2.7-4.1l2.7-4.1L13.2,74.8L13.2,74.8z M14,73.5l-2.7-4.1l2.7-4.1l2.7,4.1
		L14,73.5L14,73.5z M20.2,74.8l-2.7,4.1l-2.7-4.1l2.7-4.1L20.2,74.8L20.2,74.8z M21.1,73.5l-2.7-4.1l2.7-4.1l2.7,4.1L21.1,73.5
		L21.1,73.5z M27.3,74.8l-2.7,4.1L22,74.8l2.7-4.1L27.3,74.8L27.3,74.8z M28.1,73.5l-2.7-4.1l2.7-4.1l2.7,4.1L28.1,73.5L28.1,73.5z
		 M34.3,74.8l-2.7,4.1L29,74.8l2.7-4.1L34.3,74.8L34.3,74.8z M35.2,73.5l-2.7-4.1l2.7-4.1l2.7,4.1L35.2,73.5L35.2,73.5z M41.4,74.8
		l-2.7,4.1L36,74.8l2.7-4.1L41.4,74.8L41.4,74.8z M42.2,73.5l-2.7-4.1l2.7-4.1l2.7,4.1L42.2,73.5L42.2,73.5z M48.4,74.8l-2.7,4.1
		l-2.7-4.1l2.7-4.1L48.4,74.8L48.4,74.8z M49.3,73.5l-2.7-4.1l2.7-4.1l2.7,4.1L49.3,73.5L49.3,73.5z M55.5,74.8l-2.7,4.1l-2.7-4.1
		l2.7-4.1L55.5,74.8L55.5,74.8z M56.3,73.5l-2.7-4.1l2.7-4.1l2.7,4.1L56.3,73.5L56.3,73.5z M62.5,74.8l-2.7,4.1l-2.7-4.1l2.7-4.1
		L62.5,74.8L62.5,74.8z M63.4,73.5l-2.7-4.1l2.7-4.1l2.7,4.1L63.4,73.5L63.4,73.5z M69.6,74.8l-2.7,4.1l-2.7-4.1l2.7-4.1L69.6,74.8
		L69.6,74.8z M70.4,73.5l-2.7-4.1l2.7-4.1l2.7,4.1L70.4,73.5L70.4,73.5z M76.6,74.8l-2.7,4.1l-2.7-4.1l2.7-4.1L76.6,74.8L76.6,74.8z
		 M77.5,73.5l-2.7-4.1l2.7-4.1l2.7,4.1L77.5,73.5L77.5,73.5z M83.7,74.8L81,78.9l-2.7-4.1l2.7-4.1L83.7,74.8L83.7,74.8z M84.5,73.5
		l-2.7-4.1l2.7-4.1l2.7,4.1L84.5,73.5L84.5,73.5z M85.4,74.8l2.7-4.1l2.7,4.1L88,78.9L85.4,74.8L85.4,74.8z M85.4,85.6l2.7-4.1
		l2.7,4.1L88,89.7L85.4,85.6L85.4,85.6z M85.4,96.4l2.7-4.1l2.7,4.1l-2.7,4.1L85.4,96.4L85.4,96.4z M85.4,107.2l2.7-4.1l2.7,4.1
		l-2.7,4.1L85.4,107.2L85.4,107.2z M85.4,118l2.7-4.1l2.7,4.1l-2.7,4.1L85.4,118L85.4,118z M85.4,128.8l2.7-4.1l2.7,4.1l-2.7,4.1
		L85.4,128.8L85.4,128.8z M85.4,139.6l2.7-4.1l2.7,4.1l-2.7,4.1L85.4,139.6L85.4,139.6z M85.4,150.4l2.7-4.1l2.7,4.1l-2.7,4.1
		L85.4,150.4L85.4,150.4z M85.4,161.2l2.7-4.1l2.7,4.1l-2.7,4.1L85.4,161.2L85.4,161.2z M85.4,172l2.7-4.1l2.7,4.1l-2.7,4.1
		L85.4,172L85.4,172z M85.4,182.8l2.7-4.1l2.7,4.1l-2.7,4.1L85.4,182.8L85.4,182.8z M84.5,184.1l2.7,4.1l-2.7,4.1l-2.7-4.1
		L84.5,184.1L84.5,184.1z M78.3,182.8l2.7-4.1l2.7,4.1l-2.7,4.1L78.3,182.8L78.3,182.8z M77.5,184.1l2.7,4.1l-2.7,4.1l-2.7-4.1
		L77.5,184.1L77.5,184.1z M71.3,182.8l2.7-4.1l2.7,4.1l-2.7,4.1L71.3,182.8L71.3,182.8z M70.4,184.1l2.7,4.1l-2.7,4.1l-2.7-4.1
		L70.4,184.1L70.4,184.1z M64.2,182.8l2.7-4.1l2.7,4.1l-2.7,4.1L64.2,182.8L64.2,182.8z M63.4,184.1l2.7,4.1l-2.7,4.1l-2.7-4.1
		L63.4,184.1L63.4,184.1z M57.2,182.8l2.7-4.1l2.7,4.1l-2.7,4.1L57.2,182.8L57.2,182.8z M56.3,184.1l2.7,4.1l-2.7,4.1l-2.7-4.1
		L56.3,184.1L56.3,184.1z M50.1,182.8l2.7-4.1l2.7,4.1l-2.7,4.1L50.1,182.8L50.1,182.8z M49.3,184.1l2.7,4.1l-2.7,4.1l-2.7-4.1
		L49.3,184.1L49.3,184.1z M43.1,182.8l2.7-4.1l2.7,4.1l-2.7,4.1L43.1,182.8L43.1,182.8z M42.2,184.1l2.7,4.1l-2.7,4.1l-2.7-4.1
		L42.2,184.1L42.2,184.1z M36,182.8l2.7-4.1l2.7,4.1l-2.7,4.1L36,182.8L36,182.8z M35.2,184.1l2.7,4.1l-2.7,4.1l-2.7-4.1L35.2,184.1
		L35.2,184.1z M29,182.8l2.7-4.1l2.7,4.1l-2.7,4.1L29,182.8L29,182.8z M28.1,184.1l2.7,4.1l-2.7,4.1l-2.7-4.1L28.1,184.1L28.1,184.1
		z M22,182.8l2.7-4.1l2.7,4.1l-2.7,4.1L22,182.8L22,182.8z M21.1,184.1l2.7,4.1l-2.7,4.1l-2.7-4.1L21.1,184.1L21.1,184.1z
		 M14.9,182.8l2.7-4.1l2.7,4.1l-2.7,4.1L14.9,182.8L14.9,182.8z M14,184.1l2.7,4.1l-2.7,4.1l-2.7-4.1L14,184.1L14,184.1z M7.9,182.8
		l2.7-4.1l2.7,4.1l-2.7,4.1L7.9,182.8L7.9,182.8z M13.2,85.6l-2.7,4.1l-2.7-4.1l2.7-4.1L13.2,85.6L13.2,85.6z M14,84.3l-2.7-4.1
		l2.7-4.1l2.7,4.1L14,84.3L14,84.3z M20.2,85.6l-2.7,4.1l-2.7-4.1l2.7-4.1L20.2,85.6L20.2,85.6z M21.1,84.3l-2.7-4.1l2.7-4.1
		l2.7,4.1L21.1,84.3L21.1,84.3z M27.3,85.6l-2.7,4.1L22,85.6l2.7-4.1L27.3,85.6L27.3,85.6z M28.1,84.3l-2.7-4.1l2.7-4.1l2.7,4.1
		L28.1,84.3L28.1,84.3z M34.3,85.6l-2.7,4.1L29,85.6l2.7-4.1L34.3,85.6L34.3,85.6z M35.2,84.3l-2.7-4.1l2.7-4.1l2.7,4.1L35.2,84.3
		L35.2,84.3z M41.4,85.6l-2.7,4.1L36,85.6l2.7-4.1L41.4,85.6L41.4,85.6z M42.2,84.3l-2.7-4.1l2.7-4.1l2.7,4.1L42.2,84.3L42.2,84.3z
		 M48.4,85.6l-2.7,4.1l-2.7-4.1l2.7-4.1L48.4,85.6L48.4,85.6z M49.3,84.3l-2.7-4.1l2.7-4.1l2.7,4.1L49.3,84.3L49.3,84.3z M55.5,85.6
		l-2.7,4.1l-2.7-4.1l2.7-4.1L55.5,85.6L55.5,85.6z M56.3,84.3l-2.7-4.1l2.7-4.1l2.7,4.1L56.3,84.3L56.3,84.3z M62.5,85.6l-2.7,4.1
		l-2.7-4.1l2.7-4.1L62.5,85.6L62.5,85.6z M63.4,84.3l-2.7-4.1l2.7-4.1l2.7,4.1L63.4,84.3L63.4,84.3z M69.6,85.6l-2.7,4.1l-2.7-4.1
		l2.7-4.1L69.6,85.6L69.6,85.6z M70.4,84.3l-2.7-4.1l2.7-4.1l2.7,4.1L70.4,84.3L70.4,84.3z M76.6,85.6l-2.7,4.1l-2.7-4.1l2.7-4.1
		L76.6,85.6L76.6,85.6z M77.5,84.3l-2.7-4.1l2.7-4.1l2.7,4.1L77.5,84.3L77.5,84.3z M83.7,85.6L81,89.7l-2.7-4.1l2.7-4.1L83.7,85.6
		L83.7,85.6z M81.9,80.2l2.7-4.1l2.7,4.1l-2.7,4.1L81.9,80.2L81.9,80.2z M81.9,91l2.7-4.1l2.7,4.1l-2.7,4.1L81.9,91L81.9,91z
		 M81.9,101.8l2.7-4.1l2.7,4.1l-2.7,4.1L81.9,101.8L81.9,101.8z M81.9,112.6l2.7-4.1l2.7,4.1l-2.7,4.1L81.9,112.6L81.9,112.6z
		 M81.9,123.4l2.7-4.1l2.7,4.1l-2.7,4.1L81.9,123.4L81.9,123.4z M81.9,134.2l2.7-4.1l2.7,4.1l-2.7,4.1L81.9,134.2L81.9,134.2z
		 M81.9,145l2.7-4.1l2.7,4.1l-2.7,4.1L81.9,145L81.9,145z M81.9,155.8l2.7-4.1l2.7,4.1l-2.7,4.1L81.9,155.8L81.9,155.8z M81.9,166.6
		l2.7-4.1l2.7,4.1l-2.7,4.1L81.9,166.6L81.9,166.6z M84.5,173.3l2.7,4.1l-2.7,4.1l-2.7-4.1L84.5,173.3L84.5,173.3z M78.3,172
		l2.7-4.1l2.7,4.1l-2.7,4.1L78.3,172L78.3,172z M77.5,173.3l2.7,4.1l-2.7,4.1l-2.7-4.1L77.5,173.3L77.5,173.3z M71.3,172l2.7-4.1
		l2.7,4.1l-2.7,4.1L71.3,172L71.3,172z M70.4,173.3l2.7,4.1l-2.7,4.1l-2.7-4.1L70.4,173.3L70.4,173.3z M64.2,172l2.7-4.1l2.7,4.1
		l-2.7,4.1L64.2,172L64.2,172z M63.4,173.3l2.7,4.1l-2.7,4.1l-2.7-4.1L63.4,173.3L63.4,173.3z M57.2,172l2.7-4.1l2.7,4.1l-2.7,4.1
		L57.2,172L57.2,172z M56.3,173.3l2.7,4.1l-2.7,4.1l-2.7-4.1L56.3,173.3L56.3,173.3z M50.1,172l2.7-4.1l2.7,4.1l-2.7,4.1L50.1,172
		L50.1,172z M49.3,173.3l2.7,4.1l-2.7,4.1l-2.7-4.1L49.3,173.3L49.3,173.3z M43.1,172l2.7-4.1l2.7,4.1l-2.7,4.1L43.1,172L43.1,172z
		 M42.2,173.3l2.7,4.1l-2.7,4.1l-2.7-4.1L42.2,173.3L42.2,173.3z M36,172l2.7-4.1l2.7,4.1l-2.7,4.1L36,172L36,172z M35.2,173.3
		l2.7,4.1l-2.7,4.1l-2.7-4.1L35.2,173.3L35.2,173.3z M29,172l2.7-4.1l2.7,4.1l-2.7,4.1L29,172L29,172z M28.1,173.3l2.7,4.1l-2.7,4.1
		l-2.7-4.1L28.1,173.3L28.1,173.3z M22,172l2.7-4.1l2.7,4.1l-2.7,4.1L22,172L22,172z M21.1,173.3l2.7,4.1l-2.7,4.1l-2.7-4.1
		L21.1,173.3L21.1,173.3z M14.9,172l2.7-4.1l2.7,4.1l-2.7,4.1L14.9,172L14.9,172z M14,173.3l2.7,4.1l-2.7,4.1l-2.7-4.1L14,173.3
		L14,173.3z M7.9,172l2.7-4.1l2.7,4.1l-2.7,4.1L7.9,172L7.9,172z M13.2,96.4l-2.7,4.1l-2.7-4.1l2.7-4.1L13.2,96.4L13.2,96.4z
		 M14,95.1L11.4,91l2.7-4.1l2.7,4.1L14,95.1L14,95.1z M20.2,96.4l-2.7,4.1l-2.7-4.1l2.7-4.1L20.2,96.4L20.2,96.4z M21.1,95.1
		L18.4,91l2.7-4.1l2.7,4.1L21.1,95.1L21.1,95.1z M27.3,96.4l-2.7,4.1L22,96.4l2.7-4.1L27.3,96.4L27.3,96.4z M28.1,95.1L25.5,91
		l2.7-4.1l2.7,4.1L28.1,95.1L28.1,95.1z M34.3,96.4l-2.7,4.1L29,96.4l2.7-4.1L34.3,96.4L34.3,96.4z M35.2,95.1L32.5,91l2.7-4.1
		l2.7,4.1L35.2,95.1L35.2,95.1z M41.4,96.4l-2.7,4.1L36,96.4l2.7-4.1L41.4,96.4L41.4,96.4z M42.2,95.1L39.6,91l2.7-4.1l2.7,4.1
		L42.2,95.1L42.2,95.1z M48.4,96.4l-2.7,4.1l-2.7-4.1l2.7-4.1L48.4,96.4L48.4,96.4z M49.3,95.1L46.6,91l2.7-4.1l2.7,4.1L49.3,95.1
		L49.3,95.1z M55.5,96.4l-2.7,4.1l-2.7-4.1l2.7-4.1L55.5,96.4L55.5,96.4z M56.3,95.1L53.7,91l2.7-4.1L59,91L56.3,95.1L56.3,95.1z
		 M62.5,96.4l-2.7,4.1l-2.7-4.1l2.7-4.1L62.5,96.4L62.5,96.4z M63.4,95.1L60.7,91l2.7-4.1L66,91L63.4,95.1L63.4,95.1z M69.6,96.4
		l-2.7,4.1l-2.7-4.1l2.7-4.1L69.6,96.4L69.6,96.4z M70.4,95.1L67.8,91l2.7-4.1l2.7,4.1L70.4,95.1L70.4,95.1z M76.6,96.4l-2.7,4.1
		l-2.7-4.1l2.7-4.1L76.6,96.4L76.6,96.4z M77.5,95.1L74.8,91l2.7-4.1l2.7,4.1L77.5,95.1L77.5,95.1z M78.3,96.4l2.7-4.1l2.7,4.1
		l-2.7,4.1L78.3,96.4L78.3,96.4z M78.3,107.2l2.7-4.1l2.7,4.1l-2.7,4.1L78.3,107.2L78.3,107.2z M78.3,118l2.7-4.1l2.7,4.1l-2.7,4.1
		L78.3,118L78.3,118z M78.3,128.8l2.7-4.1l2.7,4.1l-2.7,4.1L78.3,128.8L78.3,128.8z M78.3,139.6l2.7-4.1l2.7,4.1l-2.7,4.1
		L78.3,139.6L78.3,139.6z M78.3,150.4l2.7-4.1l2.7,4.1l-2.7,4.1L78.3,150.4L78.3,150.4z M78.3,161.2l2.7-4.1l2.7,4.1l-2.7,4.1
		L78.3,161.2L78.3,161.2z M77.5,162.5l2.7,4.1l-2.7,4.1l-2.7-4.1L77.5,162.5L77.5,162.5z M71.3,161.2l2.7-4.1l2.7,4.1l-2.7,4.1
		L71.3,161.2L71.3,161.2z M70.4,162.5l2.7,4.1l-2.7,4.1l-2.7-4.1L70.4,162.5L70.4,162.5z M64.2,161.2l2.7-4.1l2.7,4.1l-2.7,4.1
		L64.2,161.2L64.2,161.2z M63.4,162.5l2.7,4.1l-2.7,4.1l-2.7-4.1L63.4,162.5L63.4,162.5z M57.2,161.2l2.7-4.1l2.7,4.1l-2.7,4.1
		L57.2,161.2L57.2,161.2z M56.3,162.5l2.7,4.1l-2.7,4.1l-2.7-4.1L56.3,162.5L56.3,162.5z M50.1,161.2l2.7-4.1l2.7,4.1l-2.7,4.1
		L50.1,161.2L50.1,161.2z M49.3,162.5l2.7,4.1l-2.7,4.1l-2.7-4.1L49.3,162.5L49.3,162.5z M43.1,161.2l2.7-4.1l2.7,4.1l-2.7,4.1
		L43.1,161.2L43.1,161.2z M42.2,162.5l2.7,4.1l-2.7,4.1l-2.7-4.1L42.2,162.5L42.2,162.5z M36,161.2l2.7-4.1l2.7,4.1l-2.7,4.1
		L36,161.2L36,161.2z M35.2,162.5l2.7,4.1l-2.7,4.1l-2.7-4.1L35.2,162.5L35.2,162.5z M29,161.2l2.7-4.1l2.7,4.1l-2.7,4.1L29,161.2
		L29,161.2z M28.1,162.5l2.7,4.1l-2.7,4.1l-2.7-4.1L28.1,162.5L28.1,162.5z M22,161.2l2.7-4.1l2.7,4.1l-2.7,4.1L22,161.2L22,161.2z
		 M21.1,162.5l2.7,4.1l-2.7,4.1l-2.7-4.1L21.1,162.5L21.1,162.5z M14.9,161.2l2.7-4.1l2.7,4.1l-2.7,4.1L14.9,161.2L14.9,161.2z
		 M14,162.5l2.7,4.1l-2.7,4.1l-2.7-4.1L14,162.5L14,162.5z M7.9,161.2l2.7-4.1l2.7,4.1l-2.7,4.1L7.9,161.2L7.9,161.2z M13.2,107.2
		l-2.7,4.1l-2.7-4.1l2.7-4.1L13.2,107.2L13.2,107.2z M14,105.9l-2.7-4.1l2.7-4.1l2.7,4.1L14,105.9L14,105.9z M20.2,107.2l-2.7,4.1
		l-2.7-4.1l2.7-4.1L20.2,107.2L20.2,107.2z M21.1,105.9l-2.7-4.1l2.7-4.1l2.7,4.1L21.1,105.9L21.1,105.9z M27.3,107.2l-2.7,4.1
		l-2.7-4.1l2.7-4.1L27.3,107.2L27.3,107.2z M28.1,105.9l-2.7-4.1l2.7-4.1l2.7,4.1L28.1,105.9L28.1,105.9z M34.3,107.2l-2.7,4.1
		l-2.7-4.1l2.7-4.1L34.3,107.2L34.3,107.2z M35.2,105.9l-2.7-4.1l2.7-4.1l2.7,4.1L35.2,105.9L35.2,105.9z M41.4,107.2l-2.7,4.1
		l-2.7-4.1l2.7-4.1L41.4,107.2L41.4,107.2z M42.2,105.9l-2.7-4.1l2.7-4.1l2.7,4.1L42.2,105.9L42.2,105.9z M48.4,107.2l-2.7,4.1
		l-2.7-4.1l2.7-4.1L48.4,107.2L48.4,107.2z M49.3,105.9l-2.7-4.1l2.7-4.1l2.7,4.1L49.3,105.9L49.3,105.9z M55.5,107.2l-2.7,4.1
		l-2.7-4.1l2.7-4.1L55.5,107.2L55.5,107.2z M56.3,105.9l-2.7-4.1l2.7-4.1l2.7,4.1L56.3,105.9L56.3,105.9z M62.5,107.2l-2.7,4.1
		l-2.7-4.1l2.7-4.1L62.5,107.2L62.5,107.2z M63.4,105.9l-2.7-4.1l2.7-4.1l2.7,4.1L63.4,105.9L63.4,105.9z M69.6,107.2l-2.7,4.1
		l-2.7-4.1l2.7-4.1L69.6,107.2L69.6,107.2z M70.4,105.9l-2.7-4.1l2.7-4.1l2.7,4.1L70.4,105.9L70.4,105.9z M76.6,107.2l-2.7,4.1
		l-2.7-4.1l2.7-4.1L76.6,107.2L76.6,107.2z M74.8,101.8l2.7-4.1l2.7,4.1l-2.7,4.1L74.8,101.8L74.8,101.8z M74.8,112.6l2.7-4.1
		l2.7,4.1l-2.7,4.1L74.8,112.6L74.8,112.6z M74.8,123.4l2.7-4.1l2.7,4.1l-2.7,4.1L74.8,123.4L74.8,123.4z M74.8,134.2l2.7-4.1
		l2.7,4.1l-2.7,4.1L74.8,134.2L74.8,134.2z M74.8,145l2.7-4.1l2.7,4.1l-2.7,4.1L74.8,145L74.8,145z M77.5,151.7l2.7,4.1l-2.7,4.1
		l-2.7-4.1L77.5,151.7L77.5,151.7z M71.3,150.4l2.7-4.1l2.7,4.1l-2.7,4.1L71.3,150.4L71.3,150.4z M70.4,151.7l2.7,4.1l-2.7,4.1
		l-2.7-4.1L70.4,151.7L70.4,151.7z M64.2,150.4l2.7-4.1l2.7,4.1l-2.7,4.1L64.2,150.4L64.2,150.4z M63.4,151.7l2.7,4.1l-2.7,4.1
		l-2.7-4.1L63.4,151.7L63.4,151.7z M57.2,150.4l2.7-4.1l2.7,4.1l-2.7,4.1L57.2,150.4L57.2,150.4z M56.3,151.7l2.7,4.1l-2.7,4.1
		l-2.7-4.1L56.3,151.7L56.3,151.7z M50.1,150.4l2.7-4.1l2.7,4.1l-2.7,4.1L50.1,150.4L50.1,150.4z M49.3,151.7l2.7,4.1l-2.7,4.1
		l-2.7-4.1L49.3,151.7L49.3,151.7z M43.1,150.4l2.7-4.1l2.7,4.1l-2.7,4.1L43.1,150.4L43.1,150.4z M42.2,151.7l2.7,4.1l-2.7,4.1
		l-2.7-4.1L42.2,151.7L42.2,151.7z M36,150.4l2.7-4.1l2.7,4.1l-2.7,4.1L36,150.4L36,150.4z M35.2,151.7l2.7,4.1l-2.7,4.1l-2.7-4.1
		L35.2,151.7L35.2,151.7z M29,150.4l2.7-4.1l2.7,4.1l-2.7,4.1L29,150.4L29,150.4z M28.1,151.7l2.7,4.1l-2.7,4.1l-2.7-4.1L28.1,151.7
		L28.1,151.7z M22,150.4l2.7-4.1l2.7,4.1l-2.7,4.1L22,150.4L22,150.4z M21.1,151.7l2.7,4.1l-2.7,4.1l-2.7-4.1L21.1,151.7L21.1,151.7
		z M14.9,150.4l2.7-4.1l2.7,4.1l-2.7,4.1L14.9,150.4L14.9,150.4z M14,151.7l2.7,4.1l-2.7,4.1l-2.7-4.1L14,151.7L14,151.7z
		 M7.9,150.4l2.7-4.1l2.7,4.1l-2.7,4.1L7.9,150.4L7.9,150.4z M13.2,118l-2.7,4.1L7.9,118l2.7-4.1L13.2,118L13.2,118z M14,116.7
		l-2.7-4.1l2.7-4.1l2.7,4.1L14,116.7L14,116.7z M20.2,118l-2.7,4.1l-2.7-4.1l2.7-4.1L20.2,118L20.2,118z M21.1,116.7l-2.7-4.1
		l2.7-4.1l2.7,4.1L21.1,116.7L21.1,116.7z M27.3,118l-2.7,4.1L22,118l2.7-4.1L27.3,118L27.3,118z M28.1,116.7l-2.7-4.1l2.7-4.1
		l2.7,4.1L28.1,116.7L28.1,116.7z M34.3,118l-2.7,4.1L29,118l2.7-4.1L34.3,118L34.3,118z M35.2,116.7l-2.7-4.1l2.7-4.1l2.7,4.1
		L35.2,116.7L35.2,116.7z M41.4,118l-2.7,4.1L36,118l2.7-4.1L41.4,118L41.4,118z M42.2,116.7l-2.7-4.1l2.7-4.1l2.7,4.1L42.2,116.7
		L42.2,116.7z M48.4,118l-2.7,4.1l-2.7-4.1l2.7-4.1L48.4,118L48.4,118z M49.3,116.7l-2.7-4.1l2.7-4.1l2.7,4.1L49.3,116.7L49.3,116.7
		z M55.5,118l-2.7,4.1l-2.7-4.1l2.7-4.1L55.5,118L55.5,118z M56.3,116.7l-2.7-4.1l2.7-4.1l2.7,4.1L56.3,116.7L56.3,116.7z M62.5,118
		l-2.7,4.1l-2.7-4.1l2.7-4.1L62.5,118L62.5,118z M63.4,116.7l-2.7-4.1l2.7-4.1l2.7,4.1L63.4,116.7L63.4,116.7z M69.6,118l-2.7,4.1
		l-2.7-4.1l2.7-4.1L69.6,118L69.6,118z M70.4,116.7l-2.7-4.1l2.7-4.1l2.7,4.1L70.4,116.7L70.4,116.7z M71.3,118l2.7-4.1l2.7,4.1
		l-2.7,4.1L71.3,118L71.3,118z M71.3,128.8l2.7-4.1l2.7,4.1l-2.7,4.1L71.3,128.8L71.3,128.8z M71.3,139.6l2.7-4.1l2.7,4.1l-2.7,4.1
		L71.3,139.6L71.3,139.6z M70.4,140.9l2.7,4.1l-2.7,4.1l-2.7-4.1L70.4,140.9L70.4,140.9z M64.2,139.6l2.7-4.1l2.7,4.1l-2.7,4.1
		L64.2,139.6L64.2,139.6z M63.4,140.9L66,145l-2.7,4.1l-2.7-4.1L63.4,140.9L63.4,140.9z M57.2,139.6l2.7-4.1l2.7,4.1l-2.7,4.1
		L57.2,139.6L57.2,139.6z M56.3,140.9L59,145l-2.7,4.1l-2.7-4.1L56.3,140.9L56.3,140.9z M50.1,139.6l2.7-4.1l2.7,4.1l-2.7,4.1
		L50.1,139.6L50.1,139.6z M49.3,140.9l2.7,4.1l-2.7,4.1l-2.7-4.1L49.3,140.9L49.3,140.9z M43.1,139.6l2.7-4.1l2.7,4.1l-2.7,4.1
		L43.1,139.6L43.1,139.6z M42.2,140.9l2.7,4.1l-2.7,4.1l-2.7-4.1L42.2,140.9L42.2,140.9z M36,139.6l2.7-4.1l2.7,4.1l-2.7,4.1
		L36,139.6L36,139.6z M35.2,140.9l2.7,4.1l-2.7,4.1l-2.7-4.1L35.2,140.9L35.2,140.9z M29,139.6l2.7-4.1l2.7,4.1l-2.7,4.1L29,139.6
		L29,139.6z M28.1,140.9l2.7,4.1l-2.7,4.1l-2.7-4.1L28.1,140.9L28.1,140.9z M22,139.6l2.7-4.1l2.7,4.1l-2.7,4.1L22,139.6L22,139.6z
		 M21.1,140.9l2.7,4.1l-2.7,4.1l-2.7-4.1L21.1,140.9L21.1,140.9z M14.9,139.6l2.7-4.1l2.7,4.1l-2.7,4.1L14.9,139.6L14.9,139.6z
		 M14,140.9l2.7,4.1l-2.7,4.1l-2.7-4.1L14,140.9L14,140.9z M7.9,139.6l2.7-4.1l2.7,4.1l-2.7,4.1L7.9,139.6L7.9,139.6z M13.2,128.8
		l-2.7,4.1l-2.7-4.1l2.7-4.1L13.2,128.8L13.2,128.8z M14,127.5l-2.7-4.1l2.7-4.1l2.7,4.1L14,127.5L14,127.5z M16.7,134.2l-2.7,4.1
		l-2.7-4.1l2.7-4.1L16.7,134.2L16.7,134.2z M20.2,128.8l-2.7,4.1l-2.7-4.1l2.7-4.1L20.2,128.8L20.2,128.8z M21.1,127.5l-2.7-4.1
		l2.7-4.1l2.7,4.1L21.1,127.5L21.1,127.5z M23.8,134.2l-2.7,4.1l-2.7-4.1l2.7-4.1L23.8,134.2L23.8,134.2z M27.3,128.8l-2.7,4.1
		l-2.7-4.1l2.7-4.1L27.3,128.8L27.3,128.8z M28.1,127.5l-2.7-4.1l2.7-4.1l2.7,4.1L28.1,127.5L28.1,127.5z M30.8,134.2l-2.7,4.1
		l-2.7-4.1l2.7-4.1L30.8,134.2L30.8,134.2z M34.3,128.8l-2.7,4.1l-2.7-4.1l2.7-4.1L34.3,128.8L34.3,128.8z M35.2,127.5l-2.7-4.1
		l2.7-4.1l2.7,4.1L35.2,127.5L35.2,127.5z M37.9,134.2l-2.7,4.1l-2.7-4.1l2.7-4.1L37.9,134.2L37.9,134.2z M41.4,128.8l-2.7,4.1
		l-2.7-4.1l2.7-4.1L41.4,128.8L41.4,128.8z M42.2,127.5l-2.7-4.1l2.7-4.1l2.7,4.1L42.2,127.5L42.2,127.5z M44.9,134.2l-2.7,4.1
		l-2.7-4.1l2.7-4.1L44.9,134.2L44.9,134.2z M48.4,128.8l-2.7,4.1l-2.7-4.1l2.7-4.1L48.4,128.8L48.4,128.8z M49.3,127.5l-2.7-4.1
		l2.7-4.1l2.7,4.1L49.3,127.5L49.3,127.5z M51.9,134.2l-2.7,4.1l-2.7-4.1l2.7-4.1L51.9,134.2L51.9,134.2z M55.5,128.8l-2.7,4.1
		l-2.7-4.1l2.7-4.1L55.5,128.8L55.5,128.8z M56.3,127.5l-2.7-4.1l2.7-4.1l2.7,4.1L56.3,127.5L56.3,127.5z M59,134.2l-2.7,4.1
		l-2.7-4.1l2.7-4.1L59,134.2L59,134.2z M62.5,128.8l-2.7,4.1l-2.7-4.1l2.7-4.1L62.5,128.8L62.5,128.8z M63.4,127.5l-2.7-4.1l2.7-4.1
		l2.7,4.1L63.4,127.5L63.4,127.5z M66,134.2l-2.7,4.1l-2.7-4.1l2.7-4.1L66,134.2L66,134.2z M69.6,128.8l-2.7,4.1l-2.7-4.1l2.7-4.1
		L69.6,128.8L69.6,128.8z M73.1,134.2l-2.7,4.1l-2.7-4.1l2.7-4.1L73.1,134.2L73.1,134.2z M67.8,123.4l2.7-4.1l2.7,4.1l-2.7,4.1
		L67.8,123.4L67.8,123.4z"/>
</g>
</svg>
